<svg version="1.1" xmlns="http://www.w3.org/2000/svg" viewBox="0 0 1665.5181469024537 1160.8526226970753" width="3331.0362938049075" height="2321.7052453941506">
  <!-- svg-source:excalidraw -->
  
  <defs>
    <style class="style-fonts">
      @font-face {
        font-family: "Virgil";
        src: url("https://excalidraw.com/Virgil.woff2");
      }
      @font-face {
        font-family: "Cascadia";
        src: url("https://excalidraw.com/Cascadia.woff2");
      }
    </style>
  </defs>
  <rect x="0" y="0" width="1665.5181469024537" height="1160.8526226970753" fill="#ffffff"></rect><g stroke-linecap="round" transform="translate(17.19366190791152 670.5658670462512) rotate(0 131.41017769623068 240.14337782541202)"><path d="M32 0 L238.32 0.5 L244.82 2 L250.32 4.5 L254.82 8 L258.32 12.5 L260.82 18 L262.32 24.5 L262.82 32 L262.82 448.29 L262.32 455.79 L260.82 462.29 L258.32 467.79 L254.82 472.29 L250.32 475.79 L244.82 478.29 L238.32 479.79 L230.82 480.29 L32 480.29 L24.5 479.79 L18 478.29 L12.5 475.79 L8 472.29 L4.5 467.79 L2 462.29 L0.5 455.79 L0 448.29 L0 32 L0.5 24.5 L2 18 L4.5 12.5 L8 8 L12.5 4.5 L18 2 L24.5 0.5 L32 0" stroke="none" stroke-width="0" fill="#fab005"></path><path d="M32 0 M32 0 C109.76 0, 187.51 0, 230.82 0 M32 0 C104.24 0, 176.49 0, 230.82 0 M230.82 0 C252.15 0, 262.82 10.67, 262.82 32 M230.82 0 C252.15 0, 262.82 10.67, 262.82 32 M262.82 32 C262.82 185.95, 262.82 339.9, 262.82 448.29 M262.82 32 C262.82 151.69, 262.82 271.38, 262.82 448.29 M262.82 448.29 C262.82 469.62, 252.15 480.29, 230.82 480.29 M262.82 448.29 C262.82 469.62, 252.15 480.29, 230.82 480.29 M230.82 480.29 C173.04 480.29, 115.25 480.29, 32 480.29 M230.82 480.29 C161.75 480.29, 92.68 480.29, 32 480.29 M32 480.29 C10.67 480.29, 0 469.62, 0 448.29 M32 480.29 C10.67 480.29, 0 469.62, 0 448.29 M0 448.29 C0 336.55, 0 224.82, 0 32 M0 448.29 C0 311.59, 0 174.89, 0 32 M0 32 C0 10.67, 10.67 0, 32 0 M0 32 C0 10.67, 10.67 0, 32 0" stroke="#000000" stroke-width="2" fill="none"></path></g><g stroke-linecap="round" transform="translate(33.94086621776478 691.4984617235264) rotate(0 115.1292707250168 193.6265007648003)"><path d="M0 0 L230.26 0 L230.26 387.25 L0 387.25" stroke="none" stroke-width="0" fill="white"></path><path d="M0 0 C72.17 0, 144.34 0, 230.26 0 M0 0 C64.35 0, 128.7 0, 230.26 0 M230.26 0 C230.26 104.94, 230.26 209.88, 230.26 387.25 M230.26 0 C230.26 134.51, 230.26 269.02, 230.26 387.25 M230.26 387.25 C178.79 387.25, 127.32 387.25, 0 387.25 M230.26 387.25 C175.29 387.25, 120.33 387.25, 0 387.25 M0 387.25 C0 305.46, 0 223.66, 0 0 M0 387.25 C0 274.03, 0 160.82, 0 0" stroke="#000000" stroke-width="2" fill="none"></path></g><g transform="translate(79.04513541690176 869.0249624883268) rotate(0 70.0250015258789 16.09999999999991)"><text x="70.0250015258789" y="0" font-family="Helvetica, Segoe UI Emoji" font-size="28px" fill="#000000" text-anchor="middle" style="white-space: pre;" direction="ltr" dominant-baseline="text-before-edge">Mobile App</text></g><g stroke-linecap="round" transform="translate(120.69371336777658 1093.8694482978258) rotate(0 23.83989949356328 23.83989949356328)"><path d="M47.68 23.84 C47.68 25.22, 47.56 26.62, 47.32 27.98 C47.08 29.34, 46.71 30.7, 46.24 31.99 C45.77 33.29, 45.18 34.56, 44.49 35.76 C43.8 36.95, 42.99 38.11, 42.1 39.16 C41.22 40.22, 40.22 41.22, 39.16 42.1 C38.11 42.99, 36.95 43.8, 35.76 44.49 C34.56 45.18, 33.29 45.77, 31.99 46.24 C30.7 46.71, 29.34 47.08, 27.98 47.32 C26.62 47.56, 25.22 47.68, 23.84 47.68 C22.46 47.68, 21.06 47.56, 19.7 47.32 C18.34 47.08, 16.98 46.71, 15.69 46.24 C14.39 45.77, 13.11 45.18, 11.92 44.49 C10.72 43.8, 9.57 42.99, 8.52 42.1 C7.46 41.22, 6.46 40.22, 5.58 39.16 C4.69 38.11, 3.88 36.95, 3.19 35.76 C2.5 34.56, 1.91 33.29, 1.44 31.99 C0.97 30.7, 0.6 29.34, 0.36 27.98 C0.12 26.62, 0 25.22, 0 23.84 C0 22.46, 0.12 21.06, 0.36 19.7 C0.6 18.34, 0.97 16.98, 1.44 15.69 C1.91 14.39, 2.5 13.11, 3.19 11.92 C3.88 10.72, 4.69 9.57, 5.58 8.52 C6.46 7.46, 7.46 6.46, 8.52 5.58 C9.57 4.69, 10.72 3.88, 11.92 3.19 C13.11 2.5, 14.39 1.91, 15.69 1.44 C16.98 0.97, 18.34 0.6, 19.7 0.36 C21.06 0.12, 22.46 0, 23.84 0 C25.22 0, 26.62 0.12, 27.98 0.36 C29.34 0.6, 30.7 0.97, 31.99 1.44 C33.29 1.91, 34.56 2.5, 35.76 3.19 C36.95 3.88, 38.11 4.69, 39.16 5.58 C40.22 6.46, 41.22 7.46, 42.1 8.52 C42.99 9.57, 43.8 10.72, 44.49 11.92 C45.18 13.11, 45.77 14.39, 46.24 15.69 C46.71 16.98, 47.08 18.34, 47.32 19.7 C47.56 21.06, 47.62 23.15, 47.68 23.84 C47.74 24.53, 47.74 23.15, 47.68 23.84" stroke="none" stroke-width="0" fill="white"></path><path d="M47.68 23.84 C47.68 25.22, 47.56 26.62, 47.32 27.98 C47.08 29.34, 46.71 30.7, 46.24 31.99 C45.77 33.29, 45.18 34.56, 44.49 35.76 C43.8 36.95, 42.99 38.11, 42.1 39.16 C41.22 40.22, 40.22 41.22, 39.16 42.1 C38.11 42.99, 36.95 43.8, 35.76 44.49 C34.56 45.18, 33.29 45.77, 31.99 46.24 C30.7 46.71, 29.34 47.08, 27.98 47.32 C26.62 47.56, 25.22 47.68, 23.84 47.68 C22.46 47.68, 21.06 47.56, 19.7 47.32 C18.34 47.08, 16.98 46.71, 15.69 46.24 C14.39 45.77, 13.11 45.18, 11.92 44.49 C10.72 43.8, 9.57 42.99, 8.52 42.1 C7.46 41.22, 6.46 40.22, 5.58 39.16 C4.69 38.11, 3.88 36.95, 3.19 35.76 C2.5 34.56, 1.91 33.29, 1.44 31.99 C0.97 30.7, 0.6 29.34, 0.36 27.98 C0.12 26.62, 0 25.22, 0 23.84 C0 22.46, 0.12 21.06, 0.36 19.7 C0.6 18.34, 0.97 16.98, 1.44 15.69 C1.91 14.39, 2.5 13.11, 3.19 11.92 C3.88 10.72, 4.69 9.57, 5.58 8.52 C6.46 7.46, 7.46 6.46, 8.52 5.58 C9.57 4.69, 10.72 3.88, 11.92 3.19 C13.11 2.5, 14.39 1.91, 15.69 1.44 C16.98 0.97, 18.34 0.6, 19.7 0.36 C21.06 0.12, 22.46 0, 23.84 0 C25.22 0, 26.62 0.12, 27.98 0.36 C29.34 0.6, 30.7 0.97, 31.99 1.44 C33.29 1.91, 34.56 2.5, 35.76 3.19 C36.95 3.88, 38.11 4.69, 39.16 5.58 C40.22 6.46, 41.22 7.46, 42.1 8.52 C42.99 9.57, 43.8 10.72, 44.49 11.92 C45.18 13.11, 45.77 14.39, 46.24 15.69 C46.71 16.98, 47.08 18.34, 47.32 19.7 C47.56 21.06, 47.62 23.15, 47.68 23.84 C47.74 24.53, 47.74 23.15, 47.68 23.84" stroke="#000000" stroke-width="2" fill="none"></path></g><g stroke-linecap="round" transform="translate(652.7885943510428 833.1523919149149) rotate(0 109.25748287978695 124.86569471975622)"><path d="M32 0 L194.01 0.5 L200.51 2 L206.01 4.5 L210.51 8 L214.01 12.5 L216.51 18 L218.01 24.5 L218.51 32 L218.51 217.73 L218.01 225.23 L216.51 231.73 L214.01 237.23 L210.51 241.73 L206.01 245.23 L200.51 247.73 L194.01 249.23 L186.51 249.73 L32 249.73 L24.5 249.23 L18 247.73 L12.5 245.23 L8 241.73 L4.5 237.23 L2 231.73 L0.5 225.23 L0 217.73 L0.5 24.5 L2 18 L4.5 12.5 L8 8 L12.5 4.5 L18 2 L24.5 0.5 L32 0" stroke="none" stroke-width="0" fill="#4c6ef5"></path><path d="M32 0 M32 0 C65.63 0, 99.26 0, 186.51 0 M32 0 C73.26 0, 114.51 0, 186.51 0 M186.51 0 C207.85 0, 218.51 10.67, 218.51 32 M186.51 0 C207.85 0, 218.51 10.67, 218.51 32 M218.51 32 C218.51 77.57, 218.51 123.13, 218.51 217.73 M218.51 32 C218.51 77.88, 218.51 123.76, 218.51 217.73 M218.51 217.73 C218.51 239.06, 207.85 249.73, 186.51 249.73 M218.51 217.73 C218.51 239.06, 207.85 249.73, 186.51 249.73 M186.51 249.73 C153.96 249.73, 121.41 249.73, 32 249.73 M186.51 249.73 C139.64 249.73, 92.76 249.73, 32 249.73 M32 249.73 C10.67 249.73, 0 239.06, 0 217.73 M32 249.73 C10.67 249.73, 0 239.06, 0 217.73 M0 217.73 C0 149.37, 0 81.01, 0 32 M0 217.73 C0 146.15, 0 74.58, 0 32 M0 32 C0 10.67, 10.67 0, 32 0 M0 32 C0 10.67, 10.67 0, 32 0" stroke="#000000" stroke-width="2" fill="none"></path></g><g stroke-linecap="round" transform="translate(665.2792364048564 848.2538986089521) rotate(0 95.90887894512343 26.72763197994982)"><path d="M13.36 0 L178.45 0 L184.3 0.84 L186.6 1.88 L189.94 5.22 L191.61 10.23 L191.82 40.09 L190.98 45.94 L188.48 50.11 L186.6 51.58 L184.3 52.62 L178.45 53.46 L13.36 53.46 L7.52 52.62 L3.34 50.11 L0.84 45.94 L0.21 43.22 L0.21 10.23 L1.88 5.22 L5.22 1.88 L10.23 0.21 L13.36 0" stroke="none" stroke-width="0" fill="#15aabf"></path><path d="M13.36 0 M13.36 0 C57.61 0, 101.86 0, 178.45 0 M13.36 0 C71.04 0, 128.72 0, 178.45 0 M178.45 0 C187.36 0, 191.82 4.45, 191.82 13.36 M178.45 0 C187.36 0, 191.82 4.45, 191.82 13.36 M191.82 13.36 C191.82 22.26, 191.82 31.16, 191.82 40.09 M191.82 13.36 C191.82 22.42, 191.82 31.48, 191.82 40.09 M191.82 40.09 C191.82 49, 187.36 53.46, 178.45 53.46 M191.82 40.09 C191.82 49, 187.36 53.46, 178.45 53.46 M178.45 53.46 C116.58 53.46, 54.71 53.46, 13.36 53.46 M178.45 53.46 C128.54 53.46, 78.63 53.46, 13.36 53.46 M13.36 53.46 C4.45 53.46, 0 49, 0 40.09 M13.36 53.46 C4.45 53.46, 0 49, 0 40.09 M0 40.09 C0 33.39, 0 26.69, 0 13.36 M0 40.09 C0 31.14, 0 22.19, 0 13.36 M0 13.36 C0 4.45, 4.45 0, 13.36 0 M0 13.36 C0 4.45, 4.45 0, 13.36 0" stroke="#000000" stroke-width="2" fill="none"></path></g><g stroke-linecap="round" transform="translate(665.2792364048564 917.2538986089521) rotate(0 95.90887894512343 26.72763197994982)"><path d="M13.36 0 L178.45 0 L184.3 0.84 L186.6 1.88 L189.94 5.22 L191.61 10.23 L191.82 40.09 L190.98 45.94 L188.48 50.11 L186.6 51.58 L184.3 52.62 L178.45 53.46 L13.36 53.46 L7.52 52.62 L3.34 50.11 L0.84 45.94 L0.21 43.22 L0.21 10.23 L1.88 5.22 L5.22 1.88 L10.23 0.21 L13.36 0" stroke="none" stroke-width="0" fill="#15aabf"></path><path d="M13.36 0 M13.36 0 C53.55 0, 93.74 0, 178.45 0 M13.36 0 C51.55 0, 89.74 0, 178.45 0 M178.45 0 C187.36 0, 191.82 4.45, 191.82 13.36 M178.45 0 C187.36 0, 191.82 4.45, 191.82 13.36 M191.82 13.36 C191.82 21.45, 191.82 29.53, 191.82 40.09 M191.82 13.36 C191.82 22.33, 191.82 31.29, 191.82 40.09 M191.82 40.09 C191.82 49, 187.36 53.46, 178.45 53.46 M191.82 40.09 C191.82 49, 187.36 53.46, 178.45 53.46 M178.45 53.46 C118.04 53.46, 57.62 53.46, 13.36 53.46 M178.45 53.46 C117.94 53.46, 57.43 53.46, 13.36 53.46 M13.36 53.46 C4.45 53.46, 0 49, 0 40.09 M13.36 53.46 C4.45 53.46, 0 49, 0 40.09 M0 40.09 C0 31.18, 0 22.26, 0 13.36 M0 40.09 C0 33.43, 0 26.77, 0 13.36 M0 13.36 C0 4.45, 4.45 0, 13.36 0 M0 13.36 C0 4.45, 4.45 0, 13.36 0" stroke="#000000" stroke-width="2" fill="none"></path></g><g stroke-linecap="round" transform="translate(665.2792364048564 983.2538986089517) rotate(0 95.90887894512343 26.72763197994982)"><path d="M13.36 0 L178.45 0 L184.3 0.84 L186.6 1.88 L189.94 5.22 L191.61 10.23 L191.82 40.09 L190.98 45.94 L188.48 50.11 L186.6 51.58 L184.3 52.62 L178.45 53.46 L13.36 53.46 L7.52 52.62 L3.34 50.11 L0.84 45.94 L0.21 43.22 L0.21 10.23 L1.88 5.22 L5.22 1.88 L10.23 0.21 L13.36 0" stroke="none" stroke-width="0" fill="#15aabf"></path><path d="M13.36 0 M13.36 0 C62.45 0, 111.54 0, 178.45 0 M13.36 0 C74.39 0, 135.42 0, 178.45 0 M178.45 0 C187.36 0, 191.82 4.45, 191.82 13.36 M178.45 0 C187.36 0, 191.82 4.45, 191.82 13.36 M191.82 13.36 C191.82 20.94, 191.82 28.51, 191.82 40.09 M191.82 13.36 C191.82 19.64, 191.82 25.91, 191.82 40.09 M191.82 40.09 C191.82 49, 187.36 53.46, 178.45 53.46 M191.82 40.09 C191.82 49, 187.36 53.46, 178.45 53.46 M178.45 53.46 C120.5 53.46, 62.55 53.46, 13.36 53.46 M178.45 53.46 C144.72 53.46, 110.99 53.46, 13.36 53.46 M13.36 53.46 C4.45 53.46, 0 49, 0 40.09 M13.36 53.46 C4.45 53.46, 0 49, 0 40.09 M0 40.09 C0 34.56, 0 29.03, 0 13.36 M0 40.09 C0 30.17, 0 20.25, 0 13.36 M0 13.36 C0 4.45, 4.45 0, 13.36 0 M0 13.36 C0 4.45, 4.45 0, 13.36 0" stroke="#000000" stroke-width="2" fill="none"></path></g><g stroke-linecap="round" transform="translate(692.9211989192063 869.171342314844) rotate(0 5.402842559989949 5.4028425599894945)"><path d="M10.81 5.4 C10.81 5.72, 10.78 6.03, 10.72 6.34 C10.67 6.65, 10.59 6.96, 10.48 7.25 C10.37 7.54, 10.24 7.83, 10.08 8.1 C9.93 8.38, 9.74 8.64, 9.54 8.88 C9.34 9.12, 9.12 9.34, 8.88 9.54 C8.64 9.74, 8.38 9.93, 8.1 10.08 C7.83 10.24, 7.54 10.37, 7.25 10.48 C6.96 10.59, 6.65 10.67, 6.34 10.72 C6.03 10.78, 5.72 10.81, 5.4 10.81 C5.09 10.81, 4.77 10.78, 4.46 10.72 C4.16 10.67, 3.85 10.59, 3.55 10.48 C3.26 10.37, 2.97 10.24, 2.7 10.08 C2.43 9.93, 2.17 9.74, 1.93 9.54 C1.69 9.34, 1.47 9.12, 1.26 8.88 C1.06 8.64, 0.88 8.38, 0.72 8.1 C0.57 7.83, 0.43 7.54, 0.33 7.25 C0.22 6.96, 0.14 6.65, 0.08 6.34 C0.03 6.03, 0 5.72, 0 5.4 C0 5.09, 0.03 4.77, 0.08 4.46 C0.14 4.16, 0.22 3.85, 0.33 3.55 C0.43 3.26, 0.57 2.97, 0.72 2.7 C0.88 2.43, 1.06 2.17, 1.26 1.93 C1.47 1.69, 1.69 1.47, 1.93 1.26 C2.17 1.06, 2.43 0.88, 2.7 0.72 C2.97 0.57, 3.26 0.43, 3.55 0.33 C3.85 0.22, 4.16 0.14, 4.46 0.08 C4.77 0.03, 5.09 0, 5.4 0 C5.72 0, 6.03 0.03, 6.34 0.08 C6.65 0.14, 6.96 0.22, 7.25 0.33 C7.54 0.43, 7.83 0.57, 8.1 0.72 C8.38 0.88, 8.64 1.06, 8.88 1.26 C9.12 1.47, 9.34 1.69, 9.54 1.93 C9.74 2.17, 9.93 2.43, 10.08 2.7 C10.24 2.97, 10.37 3.26, 10.48 3.55 C10.59 3.85, 10.67 4.16, 10.72 4.46 C10.78 4.77, 10.79 5.25, 10.81 5.4 C10.82 5.56, 10.82 5.25, 10.81 5.4" stroke="none" stroke-width="0" fill="#4c6ef5"></path><path d="M10.81 5.4 C10.81 5.72, 10.78 6.03, 10.72 6.34 C10.67 6.65, 10.59 6.96, 10.48 7.25 C10.37 7.54, 10.24 7.83, 10.08 8.1 C9.93 8.38, 9.74 8.64, 9.54 8.88 C9.34 9.12, 9.12 9.34, 8.88 9.54 C8.64 9.74, 8.38 9.93, 8.1 10.08 C7.83 10.24, 7.54 10.37, 7.25 10.48 C6.96 10.59, 6.65 10.67, 6.34 10.72 C6.03 10.78, 5.72 10.81, 5.4 10.81 C5.09 10.81, 4.77 10.78, 4.46 10.72 C4.16 10.67, 3.85 10.59, 3.55 10.48 C3.26 10.37, 2.97 10.24, 2.7 10.08 C2.43 9.93, 2.17 9.74, 1.93 9.54 C1.69 9.34, 1.47 9.12, 1.26 8.88 C1.06 8.64, 0.88 8.38, 0.72 8.1 C0.57 7.83, 0.43 7.54, 0.33 7.25 C0.22 6.96, 0.14 6.65, 0.08 6.34 C0.03 6.03, 0 5.72, 0 5.4 C0 5.09, 0.03 4.77, 0.08 4.46 C0.14 4.16, 0.22 3.85, 0.33 3.55 C0.43 3.26, 0.57 2.97, 0.72 2.7 C0.88 2.43, 1.06 2.17, 1.26 1.93 C1.47 1.69, 1.69 1.47, 1.93 1.26 C2.17 1.06, 2.43 0.88, 2.7 0.72 C2.97 0.57, 3.26 0.43, 3.55 0.33 C3.85 0.22, 4.16 0.14, 4.46 0.08 C4.77 0.03, 5.09 0, 5.4 0 C5.72 0, 6.03 0.03, 6.34 0.08 C6.65 0.14, 6.96 0.22, 7.25 0.33 C7.54 0.43, 7.83 0.57, 8.1 0.72 C8.38 0.88, 8.64 1.06, 8.88 1.26 C9.12 1.47, 9.34 1.69, 9.54 1.93 C9.74 2.17, 9.93 2.43, 10.08 2.7 C10.24 2.97, 10.37 3.26, 10.48 3.55 C10.59 3.85, 10.67 4.16, 10.72 4.46 C10.78 4.77, 10.79 5.25, 10.81 5.4 C10.82 5.56, 10.82 5.25, 10.81 5.4" stroke="#000000" stroke-width="2" fill="none"></path></g><g stroke-linecap="round" transform="translate(692.9211989192063 939.171342314844) rotate(0 5.402842559989949 5.4028425599894945)"><path d="M10.81 5.4 C10.81 5.72, 10.78 6.03, 10.72 6.34 C10.67 6.65, 10.59 6.96, 10.48 7.25 C10.37 7.54, 10.24 7.83, 10.08 8.1 C9.93 8.38, 9.74 8.64, 9.54 8.88 C9.34 9.12, 9.12 9.34, 8.88 9.54 C8.64 9.74, 8.38 9.93, 8.1 10.08 C7.83 10.24, 7.54 10.37, 7.25 10.48 C6.96 10.59, 6.65 10.67, 6.34 10.72 C6.03 10.78, 5.72 10.81, 5.4 10.81 C5.09 10.81, 4.77 10.78, 4.46 10.72 C4.16 10.67, 3.85 10.59, 3.55 10.48 C3.26 10.37, 2.97 10.24, 2.7 10.08 C2.43 9.93, 2.17 9.74, 1.93 9.54 C1.69 9.34, 1.47 9.12, 1.26 8.88 C1.06 8.64, 0.88 8.38, 0.72 8.1 C0.57 7.83, 0.43 7.54, 0.33 7.25 C0.22 6.96, 0.14 6.65, 0.08 6.34 C0.03 6.03, 0 5.72, 0 5.4 C0 5.09, 0.03 4.77, 0.08 4.46 C0.14 4.16, 0.22 3.85, 0.33 3.55 C0.43 3.26, 0.57 2.97, 0.72 2.7 C0.88 2.43, 1.06 2.17, 1.26 1.93 C1.47 1.69, 1.69 1.47, 1.93 1.26 C2.17 1.06, 2.43 0.88, 2.7 0.72 C2.97 0.57, 3.26 0.43, 3.55 0.33 C3.85 0.22, 4.16 0.14, 4.46 0.08 C4.77 0.03, 5.09 0, 5.4 0 C5.72 0, 6.03 0.03, 6.34 0.08 C6.65 0.14, 6.96 0.22, 7.25 0.33 C7.54 0.43, 7.83 0.57, 8.1 0.72 C8.38 0.88, 8.64 1.06, 8.88 1.26 C9.12 1.47, 9.34 1.69, 9.54 1.93 C9.74 2.17, 9.93 2.43, 10.08 2.7 C10.24 2.97, 10.37 3.26, 10.48 3.55 C10.59 3.85, 10.67 4.16, 10.72 4.46 C10.78 4.77, 10.79 5.25, 10.81 5.4 C10.82 5.56, 10.82 5.25, 10.81 5.4" stroke="none" stroke-width="0" fill="#4c6ef5"></path><path d="M10.81 5.4 C10.81 5.72, 10.78 6.03, 10.72 6.34 C10.67 6.65, 10.59 6.96, 10.48 7.25 C10.37 7.54, 10.24 7.83, 10.08 8.1 C9.93 8.38, 9.74 8.64, 9.54 8.88 C9.34 9.12, 9.12 9.34, 8.88 9.54 C8.64 9.74, 8.38 9.93, 8.1 10.08 C7.83 10.24, 7.54 10.37, 7.25 10.48 C6.96 10.59, 6.65 10.67, 6.34 10.72 C6.03 10.78, 5.72 10.81, 5.4 10.81 C5.09 10.81, 4.77 10.78, 4.46 10.72 C4.16 10.67, 3.85 10.59, 3.55 10.48 C3.26 10.37, 2.97 10.24, 2.7 10.08 C2.43 9.93, 2.17 9.74, 1.93 9.54 C1.69 9.34, 1.47 9.12, 1.26 8.88 C1.06 8.64, 0.88 8.38, 0.72 8.1 C0.57 7.83, 0.43 7.54, 0.33 7.25 C0.22 6.96, 0.14 6.65, 0.08 6.34 C0.03 6.03, 0 5.72, 0 5.4 C0 5.09, 0.03 4.77, 0.08 4.46 C0.14 4.16, 0.22 3.85, 0.33 3.55 C0.43 3.26, 0.57 2.97, 0.72 2.7 C0.88 2.43, 1.06 2.17, 1.26 1.93 C1.47 1.69, 1.69 1.47, 1.93 1.26 C2.17 1.06, 2.43 0.88, 2.7 0.72 C2.97 0.57, 3.26 0.43, 3.55 0.33 C3.85 0.22, 4.16 0.14, 4.46 0.08 C4.77 0.03, 5.09 0, 5.4 0 C5.72 0, 6.03 0.03, 6.34 0.08 C6.65 0.14, 6.96 0.22, 7.25 0.33 C7.54 0.43, 7.83 0.57, 8.1 0.72 C8.38 0.88, 8.64 1.06, 8.88 1.26 C9.12 1.47, 9.34 1.69, 9.54 1.93 C9.74 2.17, 9.93 2.43, 10.08 2.7 C10.24 2.97, 10.37 3.26, 10.48 3.55 C10.59 3.85, 10.67 4.16, 10.72 4.46 C10.78 4.77, 10.79 5.25, 10.81 5.4 C10.82 5.56, 10.82 5.25, 10.81 5.4" stroke="#000000" stroke-width="2" fill="none"></path></g><g stroke-linecap="round" transform="translate(692.9211989192063 1004.1713423148444) rotate(0 5.402842559989949 5.4028425599894945)"><path d="M10.81 5.4 C10.81 5.72, 10.78 6.03, 10.72 6.34 C10.67 6.65, 10.59 6.96, 10.48 7.25 C10.37 7.54, 10.24 7.83, 10.08 8.1 C9.93 8.38, 9.74 8.64, 9.54 8.88 C9.34 9.12, 9.12 9.34, 8.88 9.54 C8.64 9.74, 8.38 9.93, 8.1 10.08 C7.83 10.24, 7.54 10.37, 7.25 10.48 C6.96 10.59, 6.65 10.67, 6.34 10.72 C6.03 10.78, 5.72 10.81, 5.4 10.81 C5.09 10.81, 4.77 10.78, 4.46 10.72 C4.16 10.67, 3.85 10.59, 3.55 10.48 C3.26 10.37, 2.97 10.24, 2.7 10.08 C2.43 9.93, 2.17 9.74, 1.93 9.54 C1.69 9.34, 1.47 9.12, 1.26 8.88 C1.06 8.64, 0.88 8.38, 0.72 8.1 C0.57 7.83, 0.43 7.54, 0.33 7.25 C0.22 6.96, 0.14 6.65, 0.08 6.34 C0.03 6.03, 0 5.72, 0 5.4 C0 5.09, 0.03 4.77, 0.08 4.46 C0.14 4.16, 0.22 3.85, 0.33 3.55 C0.43 3.26, 0.57 2.97, 0.72 2.7 C0.88 2.43, 1.06 2.17, 1.26 1.93 C1.47 1.69, 1.69 1.47, 1.93 1.26 C2.17 1.06, 2.43 0.88, 2.7 0.72 C2.97 0.57, 3.26 0.43, 3.55 0.33 C3.85 0.22, 4.16 0.14, 4.46 0.08 C4.77 0.03, 5.09 0, 5.4 0 C5.72 0, 6.03 0.03, 6.34 0.08 C6.65 0.14, 6.96 0.22, 7.25 0.33 C7.54 0.43, 7.83 0.57, 8.1 0.72 C8.38 0.88, 8.64 1.06, 8.88 1.26 C9.12 1.47, 9.34 1.69, 9.54 1.93 C9.74 2.17, 9.93 2.43, 10.08 2.7 C10.24 2.97, 10.37 3.26, 10.48 3.55 C10.59 3.85, 10.67 4.16, 10.72 4.46 C10.78 4.77, 10.79 5.25, 10.81 5.4 C10.82 5.56, 10.82 5.25, 10.81 5.4" stroke="none" stroke-width="0" fill="#4c6ef5"></path><path d="M10.81 5.4 C10.81 5.72, 10.78 6.03, 10.72 6.34 C10.67 6.65, 10.59 6.96, 10.48 7.25 C10.37 7.54, 10.24 7.83, 10.08 8.1 C9.93 8.38, 9.74 8.64, 9.54 8.88 C9.34 9.12, 9.12 9.34, 8.88 9.54 C8.64 9.74, 8.38 9.93, 8.1 10.08 C7.83 10.24, 7.54 10.37, 7.25 10.48 C6.96 10.59, 6.65 10.67, 6.34 10.72 C6.03 10.78, 5.72 10.81, 5.4 10.81 C5.09 10.81, 4.77 10.78, 4.46 10.72 C4.16 10.67, 3.85 10.59, 3.55 10.48 C3.26 10.37, 2.97 10.24, 2.7 10.08 C2.43 9.93, 2.17 9.74, 1.93 9.54 C1.69 9.34, 1.47 9.12, 1.26 8.88 C1.06 8.64, 0.88 8.38, 0.72 8.1 C0.57 7.83, 0.43 7.54, 0.33 7.25 C0.22 6.96, 0.14 6.65, 0.08 6.34 C0.03 6.03, 0 5.72, 0 5.4 C0 5.09, 0.03 4.77, 0.08 4.46 C0.14 4.16, 0.22 3.85, 0.33 3.55 C0.43 3.26, 0.57 2.97, 0.72 2.7 C0.88 2.43, 1.06 2.17, 1.26 1.93 C1.47 1.69, 1.69 1.47, 1.93 1.26 C2.17 1.06, 2.43 0.88, 2.7 0.72 C2.97 0.57, 3.26 0.43, 3.55 0.33 C3.85 0.22, 4.16 0.14, 4.46 0.08 C4.77 0.03, 5.09 0, 5.4 0 C5.72 0, 6.03 0.03, 6.34 0.08 C6.65 0.14, 6.96 0.22, 7.25 0.33 C7.54 0.43, 7.83 0.57, 8.1 0.72 C8.38 0.88, 8.64 1.06, 8.88 1.26 C9.12 1.47, 9.34 1.69, 9.54 1.93 C9.74 2.17, 9.93 2.43, 10.08 2.7 C10.24 2.97, 10.37 3.26, 10.48 3.55 C10.59 3.85, 10.67 4.16, 10.72 4.46 C10.78 4.77, 10.79 5.25, 10.81 5.4 C10.82 5.56, 10.82 5.25, 10.81 5.4" stroke="#000000" stroke-width="2" fill="none"></path></g><g stroke-linecap="round" transform="translate(712.9211989192063 869.171342314844) rotate(0 5.402842559989949 5.4028425599894945)"><path d="M10.81 5.4 C10.81 5.72, 10.78 6.03, 10.72 6.34 C10.67 6.65, 10.59 6.96, 10.48 7.25 C10.37 7.54, 10.24 7.83, 10.08 8.1 C9.93 8.38, 9.74 8.64, 9.54 8.88 C9.34 9.12, 9.12 9.34, 8.88 9.54 C8.64 9.74, 8.38 9.93, 8.1 10.08 C7.83 10.24, 7.54 10.37, 7.25 10.48 C6.96 10.59, 6.65 10.67, 6.34 10.72 C6.03 10.78, 5.72 10.81, 5.4 10.81 C5.09 10.81, 4.77 10.78, 4.46 10.72 C4.16 10.67, 3.85 10.59, 3.55 10.48 C3.26 10.37, 2.97 10.24, 2.7 10.08 C2.43 9.93, 2.17 9.74, 1.93 9.54 C1.69 9.34, 1.47 9.12, 1.26 8.88 C1.06 8.64, 0.88 8.38, 0.72 8.1 C0.57 7.83, 0.43 7.54, 0.33 7.25 C0.22 6.96, 0.14 6.65, 0.08 6.34 C0.03 6.03, 0 5.72, 0 5.4 C0 5.09, 0.03 4.77, 0.08 4.46 C0.14 4.16, 0.22 3.85, 0.33 3.55 C0.43 3.26, 0.57 2.97, 0.72 2.7 C0.88 2.43, 1.06 2.17, 1.26 1.93 C1.47 1.69, 1.69 1.47, 1.93 1.26 C2.17 1.06, 2.43 0.88, 2.7 0.72 C2.97 0.57, 3.26 0.43, 3.55 0.33 C3.85 0.22, 4.16 0.14, 4.46 0.08 C4.77 0.03, 5.09 0, 5.4 0 C5.72 0, 6.03 0.03, 6.34 0.08 C6.65 0.14, 6.96 0.22, 7.25 0.33 C7.54 0.43, 7.83 0.57, 8.1 0.72 C8.38 0.88, 8.64 1.06, 8.88 1.26 C9.12 1.47, 9.34 1.69, 9.54 1.93 C9.74 2.17, 9.93 2.43, 10.08 2.7 C10.24 2.97, 10.37 3.26, 10.48 3.55 C10.59 3.85, 10.67 4.16, 10.72 4.46 C10.78 4.77, 10.79 5.25, 10.81 5.4 C10.82 5.56, 10.82 5.25, 10.81 5.4" stroke="none" stroke-width="0" fill="#4c6ef5"></path><path d="M10.81 5.4 C10.81 5.72, 10.78 6.03, 10.72 6.34 C10.67 6.65, 10.59 6.96, 10.48 7.25 C10.37 7.54, 10.24 7.83, 10.08 8.1 C9.93 8.38, 9.74 8.64, 9.54 8.88 C9.34 9.12, 9.12 9.34, 8.88 9.54 C8.64 9.74, 8.38 9.93, 8.1 10.08 C7.83 10.24, 7.54 10.37, 7.25 10.48 C6.96 10.59, 6.65 10.67, 6.34 10.72 C6.03 10.78, 5.72 10.81, 5.4 10.81 C5.09 10.81, 4.77 10.78, 4.46 10.72 C4.16 10.67, 3.85 10.59, 3.55 10.48 C3.26 10.37, 2.97 10.24, 2.7 10.08 C2.43 9.93, 2.17 9.74, 1.93 9.54 C1.69 9.34, 1.47 9.12, 1.26 8.88 C1.06 8.64, 0.88 8.38, 0.72 8.1 C0.57 7.83, 0.43 7.54, 0.33 7.25 C0.22 6.96, 0.14 6.65, 0.08 6.34 C0.03 6.03, 0 5.72, 0 5.4 C0 5.09, 0.03 4.77, 0.08 4.46 C0.14 4.16, 0.22 3.85, 0.33 3.55 C0.43 3.26, 0.57 2.97, 0.72 2.7 C0.88 2.43, 1.06 2.17, 1.26 1.93 C1.47 1.69, 1.69 1.47, 1.93 1.26 C2.17 1.06, 2.43 0.88, 2.7 0.72 C2.97 0.57, 3.26 0.43, 3.55 0.33 C3.85 0.22, 4.16 0.14, 4.46 0.08 C4.77 0.03, 5.09 0, 5.4 0 C5.72 0, 6.03 0.03, 6.34 0.08 C6.65 0.14, 6.96 0.22, 7.25 0.33 C7.54 0.43, 7.83 0.57, 8.1 0.72 C8.38 0.88, 8.64 1.06, 8.88 1.26 C9.12 1.47, 9.34 1.69, 9.54 1.93 C9.74 2.17, 9.93 2.43, 10.08 2.7 C10.24 2.97, 10.37 3.26, 10.48 3.55 C10.59 3.85, 10.67 4.16, 10.72 4.46 C10.78 4.77, 10.79 5.25, 10.81 5.4 C10.82 5.56, 10.82 5.25, 10.81 5.4" stroke="#000000" stroke-width="2" fill="none"></path></g><g stroke-linecap="round" transform="translate(712.9211989192063 939.171342314844) rotate(0 5.402842559989949 5.4028425599894945)"><path d="M10.81 5.4 C10.81 5.72, 10.78 6.03, 10.72 6.34 C10.67 6.65, 10.59 6.96, 10.48 7.25 C10.37 7.54, 10.24 7.83, 10.08 8.1 C9.93 8.38, 9.74 8.64, 9.54 8.88 C9.34 9.12, 9.12 9.34, 8.88 9.54 C8.64 9.74, 8.38 9.93, 8.1 10.08 C7.83 10.24, 7.54 10.37, 7.25 10.48 C6.96 10.59, 6.65 10.67, 6.34 10.72 C6.03 10.78, 5.72 10.81, 5.4 10.81 C5.09 10.81, 4.77 10.78, 4.46 10.72 C4.16 10.67, 3.85 10.59, 3.55 10.48 C3.26 10.37, 2.97 10.24, 2.7 10.08 C2.43 9.93, 2.17 9.74, 1.93 9.54 C1.69 9.34, 1.47 9.12, 1.26 8.88 C1.06 8.64, 0.88 8.38, 0.72 8.1 C0.57 7.83, 0.43 7.54, 0.33 7.25 C0.22 6.96, 0.14 6.65, 0.08 6.34 C0.03 6.03, 0 5.72, 0 5.4 C0 5.09, 0.03 4.77, 0.08 4.46 C0.14 4.16, 0.22 3.85, 0.33 3.55 C0.43 3.26, 0.57 2.97, 0.72 2.7 C0.88 2.43, 1.06 2.17, 1.26 1.93 C1.47 1.69, 1.69 1.47, 1.93 1.26 C2.17 1.06, 2.43 0.88, 2.7 0.72 C2.97 0.57, 3.26 0.43, 3.55 0.33 C3.85 0.22, 4.16 0.14, 4.46 0.08 C4.77 0.03, 5.09 0, 5.4 0 C5.72 0, 6.03 0.03, 6.34 0.08 C6.65 0.14, 6.96 0.22, 7.25 0.33 C7.54 0.43, 7.83 0.57, 8.1 0.72 C8.38 0.88, 8.64 1.06, 8.88 1.26 C9.12 1.47, 9.34 1.69, 9.54 1.93 C9.74 2.17, 9.93 2.43, 10.08 2.7 C10.24 2.97, 10.37 3.26, 10.48 3.55 C10.59 3.85, 10.67 4.16, 10.72 4.46 C10.78 4.77, 10.79 5.25, 10.81 5.4 C10.82 5.56, 10.82 5.25, 10.81 5.4" stroke="none" stroke-width="0" fill="#4c6ef5"></path><path d="M10.81 5.4 C10.81 5.72, 10.78 6.03, 10.72 6.34 C10.67 6.65, 10.59 6.96, 10.48 7.25 C10.37 7.54, 10.24 7.83, 10.08 8.1 C9.93 8.38, 9.74 8.64, 9.54 8.88 C9.34 9.12, 9.12 9.34, 8.88 9.54 C8.64 9.74, 8.38 9.93, 8.1 10.08 C7.83 10.24, 7.54 10.37, 7.25 10.48 C6.96 10.59, 6.65 10.67, 6.34 10.72 C6.03 10.78, 5.72 10.81, 5.4 10.81 C5.09 10.81, 4.77 10.78, 4.46 10.72 C4.16 10.67, 3.85 10.59, 3.55 10.48 C3.26 10.37, 2.97 10.24, 2.7 10.08 C2.43 9.93, 2.17 9.74, 1.93 9.54 C1.69 9.34, 1.47 9.12, 1.26 8.88 C1.06 8.64, 0.88 8.38, 0.72 8.1 C0.57 7.83, 0.43 7.54, 0.33 7.25 C0.22 6.96, 0.14 6.65, 0.08 6.34 C0.03 6.03, 0 5.72, 0 5.4 C0 5.09, 0.03 4.77, 0.08 4.46 C0.14 4.16, 0.22 3.85, 0.33 3.55 C0.43 3.26, 0.57 2.97, 0.72 2.7 C0.88 2.43, 1.06 2.17, 1.26 1.93 C1.47 1.69, 1.69 1.47, 1.93 1.26 C2.17 1.06, 2.43 0.88, 2.7 0.72 C2.97 0.57, 3.26 0.43, 3.55 0.33 C3.85 0.22, 4.16 0.14, 4.46 0.08 C4.77 0.03, 5.09 0, 5.4 0 C5.72 0, 6.03 0.03, 6.34 0.08 C6.65 0.14, 6.96 0.22, 7.25 0.33 C7.54 0.43, 7.83 0.57, 8.1 0.72 C8.38 0.88, 8.64 1.06, 8.88 1.26 C9.12 1.47, 9.34 1.69, 9.54 1.93 C9.74 2.17, 9.93 2.43, 10.08 2.7 C10.24 2.97, 10.37 3.26, 10.48 3.55 C10.59 3.85, 10.67 4.16, 10.72 4.46 C10.78 4.77, 10.79 5.25, 10.81 5.4 C10.82 5.56, 10.82 5.25, 10.81 5.4" stroke="#000000" stroke-width="2" fill="none"></path></g><g stroke-linecap="round" transform="translate(712.9211989192063 1004.1713423148444) rotate(0 5.402842559989949 5.4028425599894945)"><path d="M10.81 5.4 C10.81 5.72, 10.78 6.03, 10.72 6.34 C10.67 6.65, 10.59 6.96, 10.48 7.25 C10.37 7.54, 10.24 7.83, 10.08 8.1 C9.93 8.38, 9.74 8.64, 9.54 8.88 C9.34 9.12, 9.12 9.34, 8.88 9.54 C8.64 9.74, 8.38 9.93, 8.1 10.08 C7.83 10.24, 7.54 10.37, 7.25 10.48 C6.96 10.59, 6.65 10.67, 6.34 10.72 C6.03 10.78, 5.72 10.81, 5.4 10.81 C5.09 10.81, 4.77 10.78, 4.46 10.72 C4.16 10.67, 3.85 10.59, 3.55 10.48 C3.26 10.37, 2.97 10.24, 2.7 10.08 C2.43 9.93, 2.17 9.74, 1.93 9.54 C1.69 9.34, 1.47 9.12, 1.26 8.88 C1.06 8.64, 0.88 8.38, 0.72 8.1 C0.57 7.83, 0.43 7.54, 0.33 7.25 C0.22 6.96, 0.14 6.65, 0.08 6.34 C0.03 6.03, 0 5.72, 0 5.4 C0 5.09, 0.03 4.77, 0.08 4.46 C0.14 4.16, 0.22 3.85, 0.33 3.55 C0.43 3.26, 0.57 2.97, 0.72 2.7 C0.88 2.43, 1.06 2.17, 1.26 1.93 C1.47 1.69, 1.69 1.47, 1.93 1.26 C2.17 1.06, 2.43 0.88, 2.7 0.72 C2.97 0.57, 3.26 0.43, 3.55 0.33 C3.85 0.22, 4.16 0.14, 4.46 0.08 C4.77 0.03, 5.09 0, 5.4 0 C5.72 0, 6.03 0.03, 6.34 0.08 C6.65 0.14, 6.96 0.22, 7.25 0.33 C7.54 0.43, 7.83 0.57, 8.1 0.72 C8.38 0.88, 8.64 1.06, 8.88 1.26 C9.12 1.47, 9.34 1.69, 9.54 1.93 C9.74 2.17, 9.93 2.43, 10.08 2.7 C10.24 2.97, 10.37 3.26, 10.48 3.55 C10.59 3.85, 10.67 4.16, 10.72 4.46 C10.78 4.77, 10.79 5.25, 10.81 5.4 C10.82 5.56, 10.82 5.25, 10.81 5.4" stroke="none" stroke-width="0" fill="#4c6ef5"></path><path d="M10.81 5.4 C10.81 5.72, 10.78 6.03, 10.72 6.34 C10.67 6.65, 10.59 6.96, 10.48 7.25 C10.37 7.54, 10.24 7.83, 10.08 8.1 C9.93 8.38, 9.74 8.64, 9.54 8.88 C9.34 9.12, 9.12 9.34, 8.88 9.54 C8.64 9.74, 8.38 9.93, 8.1 10.08 C7.83 10.24, 7.54 10.37, 7.25 10.48 C6.96 10.59, 6.65 10.67, 6.34 10.72 C6.03 10.78, 5.72 10.81, 5.4 10.81 C5.09 10.81, 4.77 10.78, 4.46 10.72 C4.16 10.67, 3.85 10.59, 3.55 10.48 C3.26 10.37, 2.97 10.24, 2.7 10.08 C2.43 9.93, 2.17 9.74, 1.93 9.54 C1.69 9.34, 1.47 9.12, 1.26 8.88 C1.06 8.64, 0.88 8.38, 0.72 8.1 C0.57 7.83, 0.43 7.54, 0.33 7.25 C0.22 6.96, 0.14 6.65, 0.08 6.34 C0.03 6.03, 0 5.72, 0 5.4 C0 5.09, 0.03 4.77, 0.08 4.46 C0.14 4.16, 0.22 3.85, 0.33 3.55 C0.43 3.26, 0.57 2.97, 0.72 2.7 C0.88 2.43, 1.06 2.17, 1.26 1.93 C1.47 1.69, 1.69 1.47, 1.93 1.26 C2.17 1.06, 2.43 0.88, 2.7 0.72 C2.97 0.57, 3.26 0.43, 3.55 0.33 C3.85 0.22, 4.16 0.14, 4.46 0.08 C4.77 0.03, 5.09 0, 5.4 0 C5.72 0, 6.03 0.03, 6.34 0.08 C6.65 0.14, 6.96 0.22, 7.25 0.33 C7.54 0.43, 7.83 0.57, 8.1 0.72 C8.38 0.88, 8.64 1.06, 8.88 1.26 C9.12 1.47, 9.34 1.69, 9.54 1.93 C9.74 2.17, 9.93 2.43, 10.08 2.7 C10.24 2.97, 10.37 3.26, 10.48 3.55 C10.59 3.85, 10.67 4.16, 10.72 4.46 C10.78 4.77, 10.79 5.25, 10.81 5.4 C10.82 5.56, 10.82 5.25, 10.81 5.4" stroke="#000000" stroke-width="2" fill="none"></path></g><g stroke-linecap="round" transform="translate(732.9211989192063 869.171342314844) rotate(0 5.402842559989949 5.4028425599894945)"><path d="M10.81 5.4 C10.81 5.72, 10.78 6.03, 10.72 6.34 C10.67 6.65, 10.59 6.96, 10.48 7.25 C10.37 7.54, 10.24 7.83, 10.08 8.1 C9.93 8.38, 9.74 8.64, 9.54 8.88 C9.34 9.12, 9.12 9.34, 8.88 9.54 C8.64 9.74, 8.38 9.93, 8.1 10.08 C7.83 10.24, 7.54 10.37, 7.25 10.48 C6.96 10.59, 6.65 10.67, 6.34 10.72 C6.03 10.78, 5.72 10.81, 5.4 10.81 C5.09 10.81, 4.77 10.78, 4.46 10.72 C4.16 10.67, 3.85 10.59, 3.55 10.48 C3.26 10.37, 2.97 10.24, 2.7 10.08 C2.43 9.93, 2.17 9.74, 1.93 9.54 C1.69 9.34, 1.47 9.12, 1.26 8.88 C1.06 8.64, 0.88 8.38, 0.72 8.1 C0.57 7.83, 0.43 7.54, 0.33 7.25 C0.22 6.96, 0.14 6.65, 0.08 6.34 C0.03 6.03, 0 5.72, 0 5.4 C0 5.09, 0.03 4.77, 0.08 4.46 C0.14 4.16, 0.22 3.85, 0.33 3.55 C0.43 3.26, 0.57 2.97, 0.72 2.7 C0.88 2.43, 1.06 2.17, 1.26 1.93 C1.47 1.69, 1.69 1.47, 1.93 1.26 C2.17 1.06, 2.43 0.88, 2.7 0.72 C2.97 0.57, 3.26 0.43, 3.55 0.33 C3.85 0.22, 4.16 0.14, 4.46 0.08 C4.77 0.03, 5.09 0, 5.4 0 C5.72 0, 6.03 0.03, 6.34 0.08 C6.65 0.14, 6.96 0.22, 7.25 0.33 C7.54 0.43, 7.83 0.57, 8.1 0.72 C8.38 0.88, 8.64 1.06, 8.88 1.26 C9.12 1.47, 9.34 1.69, 9.54 1.93 C9.74 2.17, 9.93 2.43, 10.08 2.7 C10.24 2.97, 10.37 3.26, 10.48 3.55 C10.59 3.85, 10.67 4.16, 10.72 4.46 C10.78 4.77, 10.79 5.25, 10.81 5.4 C10.82 5.56, 10.82 5.25, 10.81 5.4" stroke="none" stroke-width="0" fill="#4c6ef5"></path><path d="M10.81 5.4 C10.81 5.72, 10.78 6.03, 10.72 6.34 C10.67 6.65, 10.59 6.96, 10.48 7.25 C10.37 7.54, 10.24 7.83, 10.08 8.1 C9.93 8.38, 9.74 8.64, 9.54 8.88 C9.34 9.12, 9.12 9.34, 8.88 9.54 C8.64 9.74, 8.38 9.93, 8.1 10.08 C7.83 10.24, 7.54 10.37, 7.25 10.48 C6.96 10.59, 6.65 10.67, 6.34 10.72 C6.03 10.78, 5.72 10.81, 5.4 10.81 C5.09 10.81, 4.77 10.78, 4.46 10.72 C4.16 10.67, 3.85 10.59, 3.55 10.48 C3.26 10.37, 2.97 10.24, 2.7 10.08 C2.43 9.93, 2.17 9.74, 1.93 9.54 C1.69 9.34, 1.47 9.12, 1.26 8.88 C1.06 8.64, 0.88 8.38, 0.72 8.1 C0.57 7.83, 0.43 7.54, 0.33 7.25 C0.22 6.96, 0.14 6.65, 0.08 6.34 C0.03 6.03, 0 5.72, 0 5.4 C0 5.09, 0.03 4.77, 0.08 4.46 C0.14 4.16, 0.22 3.85, 0.33 3.55 C0.43 3.26, 0.57 2.97, 0.72 2.7 C0.88 2.43, 1.06 2.17, 1.26 1.93 C1.47 1.69, 1.69 1.47, 1.93 1.26 C2.17 1.06, 2.43 0.88, 2.7 0.72 C2.97 0.57, 3.26 0.43, 3.55 0.33 C3.85 0.22, 4.16 0.14, 4.46 0.08 C4.77 0.03, 5.09 0, 5.4 0 C5.72 0, 6.03 0.03, 6.34 0.08 C6.65 0.14, 6.96 0.22, 7.25 0.33 C7.54 0.43, 7.83 0.57, 8.1 0.72 C8.38 0.88, 8.64 1.06, 8.88 1.26 C9.12 1.47, 9.34 1.69, 9.54 1.93 C9.74 2.17, 9.93 2.43, 10.08 2.7 C10.24 2.97, 10.37 3.26, 10.48 3.55 C10.59 3.85, 10.67 4.16, 10.72 4.46 C10.78 4.77, 10.79 5.25, 10.81 5.4 C10.82 5.56, 10.82 5.25, 10.81 5.4" stroke="#000000" stroke-width="2" fill="none"></path></g><g stroke-linecap="round" transform="translate(732.9211989192063 939.171342314844) rotate(0 5.402842559989949 5.4028425599894945)"><path d="M10.81 5.4 C10.81 5.72, 10.78 6.03, 10.72 6.34 C10.67 6.65, 10.59 6.96, 10.48 7.25 C10.37 7.54, 10.24 7.83, 10.08 8.1 C9.93 8.38, 9.74 8.64, 9.54 8.88 C9.34 9.12, 9.12 9.34, 8.88 9.54 C8.64 9.74, 8.38 9.93, 8.1 10.08 C7.83 10.24, 7.54 10.37, 7.25 10.48 C6.96 10.59, 6.65 10.67, 6.34 10.72 C6.03 10.78, 5.72 10.81, 5.4 10.81 C5.09 10.81, 4.77 10.78, 4.46 10.72 C4.16 10.67, 3.85 10.59, 3.55 10.48 C3.26 10.37, 2.97 10.24, 2.7 10.08 C2.43 9.93, 2.17 9.74, 1.93 9.54 C1.69 9.34, 1.47 9.12, 1.26 8.88 C1.06 8.64, 0.88 8.38, 0.72 8.1 C0.57 7.83, 0.43 7.54, 0.33 7.25 C0.22 6.96, 0.14 6.65, 0.08 6.34 C0.03 6.03, 0 5.72, 0 5.4 C0 5.09, 0.03 4.77, 0.08 4.46 C0.14 4.16, 0.22 3.85, 0.33 3.55 C0.43 3.26, 0.57 2.97, 0.72 2.7 C0.88 2.43, 1.06 2.17, 1.26 1.93 C1.47 1.69, 1.69 1.47, 1.93 1.26 C2.17 1.06, 2.43 0.88, 2.7 0.72 C2.97 0.57, 3.26 0.43, 3.55 0.33 C3.85 0.22, 4.16 0.14, 4.46 0.08 C4.77 0.03, 5.09 0, 5.4 0 C5.72 0, 6.03 0.03, 6.34 0.08 C6.65 0.14, 6.96 0.22, 7.25 0.33 C7.54 0.43, 7.83 0.57, 8.1 0.72 C8.38 0.88, 8.64 1.06, 8.88 1.26 C9.12 1.47, 9.34 1.69, 9.54 1.93 C9.74 2.17, 9.93 2.43, 10.08 2.7 C10.24 2.97, 10.37 3.26, 10.48 3.55 C10.59 3.85, 10.67 4.16, 10.72 4.46 C10.78 4.77, 10.79 5.25, 10.81 5.4 C10.82 5.56, 10.82 5.25, 10.81 5.4" stroke="none" stroke-width="0" fill="#4c6ef5"></path><path d="M10.81 5.4 C10.81 5.72, 10.78 6.03, 10.72 6.34 C10.67 6.65, 10.59 6.96, 10.48 7.25 C10.37 7.54, 10.24 7.83, 10.08 8.1 C9.93 8.38, 9.74 8.64, 9.54 8.88 C9.34 9.12, 9.12 9.34, 8.88 9.54 C8.64 9.74, 8.38 9.93, 8.1 10.08 C7.83 10.24, 7.54 10.37, 7.25 10.48 C6.96 10.59, 6.65 10.67, 6.34 10.72 C6.03 10.78, 5.72 10.81, 5.4 10.81 C5.09 10.81, 4.77 10.78, 4.46 10.72 C4.16 10.67, 3.85 10.59, 3.55 10.48 C3.26 10.37, 2.97 10.24, 2.7 10.08 C2.43 9.93, 2.17 9.74, 1.93 9.54 C1.69 9.34, 1.47 9.12, 1.26 8.88 C1.06 8.64, 0.88 8.38, 0.72 8.1 C0.57 7.83, 0.43 7.54, 0.33 7.25 C0.22 6.96, 0.14 6.65, 0.08 6.34 C0.03 6.03, 0 5.72, 0 5.4 C0 5.09, 0.03 4.77, 0.08 4.46 C0.14 4.16, 0.22 3.85, 0.33 3.55 C0.43 3.26, 0.57 2.97, 0.72 2.7 C0.88 2.43, 1.06 2.17, 1.26 1.93 C1.47 1.69, 1.69 1.47, 1.93 1.26 C2.17 1.06, 2.43 0.88, 2.7 0.72 C2.97 0.57, 3.26 0.43, 3.55 0.33 C3.85 0.22, 4.16 0.14, 4.46 0.08 C4.77 0.03, 5.09 0, 5.4 0 C5.72 0, 6.03 0.03, 6.34 0.08 C6.65 0.14, 6.96 0.22, 7.25 0.33 C7.54 0.43, 7.83 0.57, 8.1 0.72 C8.38 0.88, 8.64 1.06, 8.88 1.26 C9.12 1.47, 9.34 1.69, 9.54 1.93 C9.74 2.17, 9.93 2.43, 10.08 2.7 C10.24 2.97, 10.37 3.26, 10.48 3.55 C10.59 3.85, 10.67 4.16, 10.72 4.46 C10.78 4.77, 10.79 5.25, 10.81 5.4 C10.82 5.56, 10.82 5.25, 10.81 5.4" stroke="#000000" stroke-width="2" fill="none"></path></g><g stroke-linecap="round" transform="translate(732.9211989192063 1004.1713423148444) rotate(0 5.402842559989949 5.4028425599894945)"><path d="M10.81 5.4 C10.81 5.72, 10.78 6.03, 10.72 6.34 C10.67 6.65, 10.59 6.96, 10.48 7.25 C10.37 7.54, 10.24 7.83, 10.08 8.1 C9.93 8.38, 9.74 8.64, 9.54 8.88 C9.34 9.12, 9.12 9.34, 8.88 9.54 C8.64 9.74, 8.38 9.93, 8.1 10.08 C7.83 10.24, 7.54 10.37, 7.25 10.48 C6.96 10.59, 6.65 10.67, 6.34 10.72 C6.03 10.78, 5.72 10.81, 5.4 10.81 C5.09 10.81, 4.77 10.78, 4.46 10.72 C4.16 10.67, 3.85 10.59, 3.55 10.48 C3.26 10.37, 2.97 10.24, 2.7 10.08 C2.43 9.93, 2.17 9.74, 1.93 9.54 C1.69 9.34, 1.47 9.12, 1.26 8.88 C1.06 8.64, 0.88 8.38, 0.72 8.1 C0.57 7.83, 0.43 7.54, 0.33 7.25 C0.22 6.96, 0.14 6.65, 0.08 6.34 C0.03 6.03, 0 5.72, 0 5.4 C0 5.09, 0.03 4.77, 0.08 4.46 C0.14 4.16, 0.22 3.85, 0.33 3.55 C0.43 3.26, 0.57 2.97, 0.72 2.7 C0.88 2.43, 1.06 2.17, 1.26 1.93 C1.47 1.69, 1.69 1.47, 1.93 1.26 C2.17 1.06, 2.43 0.88, 2.7 0.72 C2.97 0.57, 3.26 0.43, 3.55 0.33 C3.85 0.22, 4.16 0.14, 4.46 0.08 C4.77 0.03, 5.09 0, 5.4 0 C5.72 0, 6.03 0.03, 6.34 0.08 C6.65 0.14, 6.96 0.22, 7.25 0.33 C7.54 0.43, 7.83 0.57, 8.1 0.72 C8.38 0.88, 8.64 1.06, 8.88 1.26 C9.12 1.47, 9.34 1.69, 9.54 1.93 C9.74 2.17, 9.93 2.43, 10.08 2.7 C10.24 2.97, 10.37 3.26, 10.48 3.55 C10.59 3.85, 10.67 4.16, 10.72 4.46 C10.78 4.77, 10.79 5.25, 10.81 5.4 C10.82 5.56, 10.82 5.25, 10.81 5.4" stroke="none" stroke-width="0" fill="#4c6ef5"></path><path d="M10.81 5.4 C10.81 5.72, 10.78 6.03, 10.72 6.34 C10.67 6.65, 10.59 6.96, 10.48 7.25 C10.37 7.54, 10.24 7.83, 10.08 8.1 C9.93 8.38, 9.74 8.64, 9.54 8.88 C9.34 9.12, 9.12 9.34, 8.88 9.54 C8.64 9.74, 8.38 9.93, 8.1 10.08 C7.83 10.24, 7.54 10.37, 7.25 10.48 C6.96 10.59, 6.65 10.67, 6.34 10.72 C6.03 10.78, 5.72 10.81, 5.4 10.81 C5.09 10.81, 4.77 10.78, 4.46 10.72 C4.16 10.67, 3.85 10.59, 3.55 10.48 C3.26 10.37, 2.97 10.24, 2.7 10.08 C2.43 9.93, 2.17 9.74, 1.93 9.54 C1.69 9.34, 1.47 9.12, 1.26 8.88 C1.06 8.64, 0.88 8.38, 0.72 8.1 C0.57 7.83, 0.43 7.54, 0.33 7.25 C0.22 6.96, 0.14 6.65, 0.08 6.34 C0.03 6.03, 0 5.72, 0 5.4 C0 5.09, 0.03 4.77, 0.08 4.46 C0.14 4.16, 0.22 3.85, 0.33 3.55 C0.43 3.26, 0.57 2.97, 0.72 2.7 C0.88 2.43, 1.06 2.17, 1.26 1.93 C1.47 1.69, 1.69 1.47, 1.93 1.26 C2.17 1.06, 2.43 0.88, 2.7 0.72 C2.97 0.57, 3.26 0.43, 3.55 0.33 C3.85 0.22, 4.16 0.14, 4.46 0.08 C4.77 0.03, 5.09 0, 5.4 0 C5.72 0, 6.03 0.03, 6.34 0.08 C6.65 0.14, 6.96 0.22, 7.25 0.33 C7.54 0.43, 7.83 0.57, 8.1 0.72 C8.38 0.88, 8.64 1.06, 8.88 1.26 C9.12 1.47, 9.34 1.69, 9.54 1.93 C9.74 2.17, 9.93 2.43, 10.08 2.7 C10.24 2.97, 10.37 3.26, 10.48 3.55 C10.59 3.85, 10.67 4.16, 10.72 4.46 C10.78 4.77, 10.79 5.25, 10.81 5.4 C10.82 5.56, 10.82 5.25, 10.81 5.4" stroke="#000000" stroke-width="2" fill="none"></path></g><g transform="translate(705.2687190476045 785.4856415224776) rotate(0 54.474998474121094 16.09999999999991)"><text x="0" y="0" font-family="Helvetica, Segoe UI Emoji" font-size="28px" fill="#000000" text-anchor="start" style="white-space: pre;" direction="ltr" dominant-baseline="text-before-edge">Backend</text></g><g stroke-linecap="round" transform="translate(739.5327846202017 344.5176240467631) rotate(0 25.767965861477023 40.604067418084696)"><path d="M0 0 L51.54 0 L51.54 81.21 L0 81.21" stroke="none" stroke-width="0" fill="#7950f2"></path><path d="M0 0 C11.56 0, 23.11 0, 51.54 0 M0 0 C12.7 0, 25.41 0, 51.54 0 M51.54 0 C51.54 24.67, 51.54 49.35, 51.54 81.21 M51.54 0 C51.54 23.99, 51.54 47.98, 51.54 81.21 M51.54 81.21 C35.13 81.21, 18.71 81.21, 0 81.21 M51.54 81.21 C36.73 81.21, 21.93 81.21, 0 81.21 M0 81.21 C0 58.53, 0 35.86, 0 0 M0 81.21 C0 55.01, 0 28.81, 0 0" stroke="#000000" stroke-width="2" fill="none"></path></g><g stroke-linecap="round" transform="translate(686.5942310955088 415.42372517389003) rotate(0 81.20813483616894 10.151016854521231)"><path d="M5.08 0 L157.34 0 L161.15 1.27 L162.1 2.85 L162.42 15.23 L161.15 19.03 L157.34 20.3 L5.08 20.3 L1.27 19.03 L0 15.23 L0.32 2.85 L2.85 0.32 L5.08 0" stroke="none" stroke-width="0" fill="#7950f2"></path><path d="M5.08 0 M5.08 0 C60.7 0, 116.32 0, 157.34 0 M5.08 0 C48.69 0, 92.31 0, 157.34 0 M157.34 0 C160.72 0, 162.42 1.69, 162.42 5.08 M157.34 0 C160.72 0, 162.42 1.69, 162.42 5.08 M162.42 5.08 C162.42 7.16, 162.42 9.24, 162.42 15.23 M162.42 5.08 C162.42 8.48, 162.42 11.88, 162.42 15.23 M162.42 15.23 C162.42 18.61, 160.72 20.3, 157.34 20.3 M162.42 15.23 C162.42 18.61, 160.72 20.3, 157.34 20.3 M157.34 20.3 C101.58 20.3, 45.83 20.3, 5.08 20.3 M157.34 20.3 C116.93 20.3, 76.51 20.3, 5.08 20.3 M5.08 20.3 C1.69 20.3, 0 18.61, 0 15.23 M5.08 20.3 C1.69 20.3, 0 18.61, 0 15.23 M0 15.23 C0 13.08, 0 10.94, 0 5.08 M0 15.23 C0 11.71, 0 8.2, 0 5.08 M0 5.08 C0 1.69, 1.69 0, 5.08 0 M0 5.08 C0 1.69, 1.69 0, 5.08 0" stroke="#000000" stroke-width="2" fill="none"></path></g><g stroke-linecap="round" transform="translate(522.4571934235191 10) rotate(0 242.0627096078124 181.156608480685)"><path d="M32 0 L452.13 0 L459.63 0.5 L466.13 2 L471.63 4.5 L476.13 8 L479.63 12.5 L482.13 18 L483.63 24.5 L484.13 32 L484.13 330.31 L483.63 337.81 L482.13 344.31 L479.63 349.81 L476.13 354.31 L471.63 357.81 L466.13 360.31 L459.63 361.81 L452.13 362.31 L32 362.31 L24.5 361.81 L18 360.31 L12.5 357.81 L8 354.31 L4.5 349.81 L2 344.31 L0.5 337.81 L0 330.31 L0.5 24.5 L2 18 L4.5 12.5 L8 8 L12.5 4.5 L18 2 L24.5 0.5 L32 0" stroke="none" stroke-width="0" fill="#7950f2"></path><path d="M32 0 M32 0 C197.52 0, 363.04 0, 452.13 0 M32 0 C179.89 0, 327.78 0, 452.13 0 M452.13 0 C473.46 0, 484.13 10.67, 484.13 32 M452.13 0 C473.46 0, 484.13 10.67, 484.13 32 M484.13 32 C484.13 105.56, 484.13 179.11, 484.13 330.31 M484.13 32 C484.13 145.4, 484.13 258.79, 484.13 330.31 M484.13 330.31 C484.13 351.65, 473.46 362.31, 452.13 362.31 M484.13 330.31 C484.13 351.65, 473.46 362.31, 452.13 362.31 M452.13 362.31 C342.61 362.31, 233.09 362.31, 32 362.31 M452.13 362.31 C300.86 362.31, 149.6 362.31, 32 362.31 M32 362.31 C10.67 362.31, 0 351.65, 0 330.31 M32 362.31 C10.67 362.31, 0 351.65, 0 330.31 M0 330.31 C0 264.34, 0 198.36, 0 32 M0 330.31 C0 252.21, 0 174.1, 0 32 M0 32 C0 10.67, 10.67 0, 32 0 M0 32 C0 10.67, 10.67 0, 32 0" stroke="#000000" stroke-width="2" fill="none"></path></g><g stroke-linecap="round" transform="translate(542.8061992499297 33.128478860013274) rotate(0 221.85935046089799 140.6912954142283)"><path d="M32 0 L411.72 0 L419.22 0.5 L425.72 2 L431.22 4.5 L435.72 8 L439.22 12.5 L441.72 18 L443.22 24.5 L443.72 32 L443.72 249.38 L443.22 256.88 L441.72 263.38 L439.22 268.88 L435.72 273.38 L431.22 276.88 L425.72 279.38 L419.22 280.88 L411.72 281.38 L32 281.38 L24.5 280.88 L18 279.38 L12.5 276.88 L8 273.38 L4.5 268.88 L2 263.38 L0.5 256.88 L0 249.38 L0.5 24.5 L2 18 L4.5 12.5 L8 8 L12.5 4.5 L18 2 L24.5 0.5 L32 0" stroke="none" stroke-width="0" fill="white"></path><path d="M32 0 M32 0 C153.25 0, 274.5 0, 411.72 0 M32 0 C121.1 0, 210.2 0, 411.72 0 M411.72 0 C433.05 0, 443.72 10.67, 443.72 32 M411.72 0 C433.05 0, 443.72 10.67, 443.72 32 M443.72 32 C443.72 91.37, 443.72 150.73, 443.72 249.38 M443.72 32 C443.72 91.32, 443.72 150.65, 443.72 249.38 M443.72 249.38 C443.72 270.72, 433.05 281.38, 411.72 281.38 M443.72 249.38 C443.72 270.72, 433.05 281.38, 411.72 281.38 M411.72 281.38 C312.26 281.38, 212.81 281.38, 32 281.38 M411.72 281.38 C295.06 281.38, 178.39 281.38, 32 281.38 M32 281.38 C10.67 281.38, 0 270.72, 0 249.38 M32 281.38 C10.67 281.38, 0 270.72, 0 249.38 M0 249.38 C0 169.5, 0 89.63, 0 32 M0 249.38 C0 165.15, 0 80.92, 0 32 M0 32 C0 10.67, 10.67 0, 32 0 M0 32 C0 10.67, 10.67 0, 32 0" stroke="#000000" stroke-width="2" fill="none"></path></g><g transform="translate(708.6572145973023 157.71977427424144) rotate(0 56.00833511352539 16.09999999999991)"><text x="56.00833511352539" y="0" font-family="Helvetica, Segoe UI Emoji" font-size="28px" fill="#000000" text-anchor="middle" style="white-space: pre;" direction="ltr" dominant-baseline="text-before-edge">Designer</text></g><g stroke-linecap="round" transform="translate(566.0127088297377 87.31869910444539) rotate(0 199.5 15)"><path d="M7.5 0 L391.5 0 L394.78 0.47 L397.13 1.88 L398.53 4.22 L399 22.5 L398.53 25.78 L397.13 28.13 L394.78 29.53 L391.5 30 L7.5 30 L4.22 29.53 L1.88 28.13 L0.47 25.78 L0 22.5 L0.47 4.22 L1.88 1.88 L4.22 0.47 L7.5 0" stroke="none" stroke-width="0" fill="#ced4da"></path><path d="M7.5 0 M7.5 0 C105.47 0, 203.43 0, 391.5 0 M7.5 0 C159.81 0, 312.12 0, 391.5 0 M391.5 0 C396.5 0, 399 2.5, 399 7.5 M391.5 0 C396.5 0, 399 2.5, 399 7.5 M399 7.5 C399 12.08, 399 16.67, 399 22.5 M399 7.5 C399 12.7, 399 17.9, 399 22.5 M399 22.5 C399 27.5, 396.5 30, 391.5 30 M399 22.5 C399 27.5, 396.5 30, 391.5 30 M391.5 30 C250.26 30, 109.02 30, 7.5 30 M391.5 30 C272.07 30, 152.65 30, 7.5 30 M7.5 30 C2.5 30, 0 27.5, 0 22.5 M7.5 30 C2.5 30, 0 27.5, 0 22.5 M0 22.5 C0 16.93, 0 11.36, 0 7.5 M0 22.5 C0 17.03, 0 11.57, 0 7.5 M0 7.5 C0 2.5, 2.5 0, 7.5 0 M0 7.5 C0 2.5, 2.5 0, 7.5 0" stroke="#000000" stroke-width="2" fill="none"></path></g><g transform="translate(661.4377118814955 93.11869910444557) rotate(0 104.07499694824219 9.200000000000045)"><text x="104.07499694824219" y="0" font-family="Helvetica, Segoe UI Emoji" font-size="16px" fill="#000000" text-anchor="middle" style="white-space: pre;" direction="ltr" dominant-baseline="text-before-edge">make.momentumreserach.eu</text></g><g stroke-linecap="round" transform="translate(567.1549041191865 48.576345698434125) rotate(0 9.019487851887789 9.019487851887789)"><path d="M18.04 9.02 C18.04 9.54, 17.99 10.07, 17.9 10.59 C17.81 11.1, 17.67 11.61, 17.5 12.1 C17.32 12.59, 17.09 13.08, 16.83 13.53 C16.57 13.98, 16.26 14.42, 15.93 14.82 C15.59 15.22, 15.22 15.59, 14.82 15.93 C14.42 16.26, 13.98 16.57, 13.53 16.83 C13.08 17.09, 12.59 17.32, 12.1 17.5 C11.61 17.67, 11.1 17.81, 10.59 17.9 C10.07 17.99, 9.54 18.04, 9.02 18.04 C8.5 18.04, 7.97 17.99, 7.45 17.9 C6.94 17.81, 6.43 17.67, 5.93 17.5 C5.44 17.32, 4.96 17.09, 4.51 16.83 C4.06 16.57, 3.62 16.26, 3.22 15.93 C2.82 15.59, 2.45 15.22, 2.11 14.82 C1.77 14.42, 1.47 13.98, 1.21 13.53 C0.95 13.08, 0.72 12.59, 0.54 12.1 C0.37 11.61, 0.23 11.1, 0.14 10.59 C0.05 10.07, 0 9.54, 0 9.02 C0 8.5, 0.05 7.97, 0.14 7.45 C0.23 6.94, 0.37 6.43, 0.54 5.93 C0.72 5.44, 0.95 4.96, 1.21 4.51 C1.47 4.06, 1.77 3.62, 2.11 3.22 C2.45 2.82, 2.82 2.45, 3.22 2.11 C3.62 1.77, 4.06 1.47, 4.51 1.21 C4.96 0.95, 5.44 0.72, 5.93 0.54 C6.43 0.37, 6.94 0.23, 7.45 0.14 C7.97 0.05, 8.5 0, 9.02 0 C9.54 0, 10.07 0.05, 10.59 0.14 C11.1 0.23, 11.61 0.37, 12.1 0.54 C12.59 0.72, 13.08 0.95, 13.53 1.21 C13.98 1.47, 14.42 1.77, 14.82 2.11 C15.22 2.45, 15.59 2.82, 15.93 3.22 C16.26 3.62, 16.57 4.06, 16.83 4.51 C17.09 4.96, 17.32 5.44, 17.5 5.93 C17.67 6.43, 17.81 6.94, 17.9 7.45 C17.99 7.97, 18.02 8.76, 18.04 9.02 C18.06 9.28, 18.06 8.76, 18.04 9.02" stroke="none" stroke-width="0" fill="red"></path><path d="M18.04 9.02 C18.04 9.54, 17.99 10.07, 17.9 10.59 C17.81 11.1, 17.67 11.61, 17.5 12.1 C17.32 12.59, 17.09 13.08, 16.83 13.53 C16.57 13.98, 16.26 14.42, 15.93 14.82 C15.59 15.22, 15.22 15.59, 14.82 15.93 C14.42 16.26, 13.98 16.57, 13.53 16.83 C13.08 17.09, 12.59 17.32, 12.1 17.5 C11.61 17.67, 11.1 17.81, 10.59 17.9 C10.07 17.99, 9.54 18.04, 9.02 18.04 C8.5 18.04, 7.97 17.99, 7.45 17.9 C6.94 17.81, 6.43 17.67, 5.93 17.5 C5.44 17.32, 4.96 17.09, 4.51 16.83 C4.06 16.57, 3.62 16.26, 3.22 15.93 C2.82 15.59, 2.45 15.22, 2.11 14.82 C1.77 14.42, 1.47 13.98, 1.21 13.53 C0.95 13.08, 0.72 12.59, 0.54 12.1 C0.37 11.61, 0.23 11.1, 0.14 10.59 C0.05 10.07, 0 9.54, 0 9.02 C0 8.5, 0.05 7.97, 0.14 7.45 C0.23 6.94, 0.37 6.43, 0.54 5.93 C0.72 5.44, 0.95 4.96, 1.21 4.51 C1.47 4.06, 1.77 3.62, 2.11 3.22 C2.45 2.82, 2.82 2.45, 3.22 2.11 C3.62 1.77, 4.06 1.47, 4.51 1.21 C4.96 0.95, 5.44 0.72, 5.93 0.54 C6.43 0.37, 6.94 0.23, 7.45 0.14 C7.97 0.05, 8.5 0, 9.02 0 C9.54 0, 10.07 0.05, 10.59 0.14 C11.1 0.23, 11.61 0.37, 12.1 0.54 C12.59 0.72, 13.08 0.95, 13.53 1.21 C13.98 1.47, 14.42 1.77, 14.82 2.11 C15.22 2.45, 15.59 2.82, 15.93 3.22 C16.26 3.62, 16.57 4.06, 16.83 4.51 C17.09 4.96, 17.32 5.44, 17.5 5.93 C17.67 6.43, 17.81 6.94, 17.9 7.45 C17.99 7.97, 18.02 8.76, 18.04 9.02 C18.06 9.28, 18.06 8.76, 18.04 9.02" stroke="#000000" stroke-width="2" fill="none"></path></g><g stroke-linecap="round" transform="translate(597.1549041191865 48.576345698434125) rotate(0 9.019487851887789 9.019487851887789)"><path d="M18.04 9.02 C18.04 9.54, 17.99 10.07, 17.9 10.59 C17.81 11.1, 17.67 11.61, 17.5 12.1 C17.32 12.59, 17.09 13.08, 16.83 13.53 C16.57 13.98, 16.26 14.42, 15.93 14.82 C15.59 15.22, 15.22 15.59, 14.82 15.93 C14.42 16.26, 13.98 16.57, 13.53 16.83 C13.08 17.09, 12.59 17.32, 12.1 17.5 C11.61 17.67, 11.1 17.81, 10.59 17.9 C10.07 17.99, 9.54 18.04, 9.02 18.04 C8.5 18.04, 7.97 17.99, 7.45 17.9 C6.94 17.81, 6.43 17.67, 5.93 17.5 C5.44 17.32, 4.96 17.09, 4.51 16.83 C4.06 16.57, 3.62 16.26, 3.22 15.93 C2.82 15.59, 2.45 15.22, 2.11 14.82 C1.77 14.42, 1.47 13.98, 1.21 13.53 C0.95 13.08, 0.72 12.59, 0.54 12.1 C0.37 11.61, 0.23 11.1, 0.14 10.59 C0.05 10.07, 0 9.54, 0 9.02 C0 8.5, 0.05 7.97, 0.14 7.45 C0.23 6.94, 0.37 6.43, 0.54 5.93 C0.72 5.44, 0.95 4.96, 1.21 4.51 C1.47 4.06, 1.77 3.62, 2.11 3.22 C2.45 2.82, 2.82 2.45, 3.22 2.11 C3.62 1.77, 4.06 1.47, 4.51 1.21 C4.96 0.95, 5.44 0.72, 5.93 0.54 C6.43 0.37, 6.94 0.23, 7.45 0.14 C7.97 0.05, 8.5 0, 9.02 0 C9.54 0, 10.07 0.05, 10.59 0.14 C11.1 0.23, 11.61 0.37, 12.1 0.54 C12.59 0.72, 13.08 0.95, 13.53 1.21 C13.98 1.47, 14.42 1.77, 14.82 2.11 C15.22 2.45, 15.59 2.82, 15.93 3.22 C16.26 3.62, 16.57 4.06, 16.83 4.51 C17.09 4.96, 17.32 5.44, 17.5 5.93 C17.67 6.43, 17.81 6.94, 17.9 7.45 C17.99 7.97, 18.02 8.76, 18.04 9.02 C18.06 9.28, 18.06 8.76, 18.04 9.02" stroke="none" stroke-width="0" fill="yellow"></path><path d="M18.04 9.02 C18.04 9.54, 17.99 10.07, 17.9 10.59 C17.81 11.1, 17.67 11.61, 17.5 12.1 C17.32 12.59, 17.09 13.08, 16.83 13.53 C16.57 13.98, 16.26 14.42, 15.93 14.82 C15.59 15.22, 15.22 15.59, 14.82 15.93 C14.42 16.26, 13.98 16.57, 13.53 16.83 C13.08 17.09, 12.59 17.32, 12.1 17.5 C11.61 17.67, 11.1 17.81, 10.59 17.9 C10.07 17.99, 9.54 18.04, 9.02 18.04 C8.5 18.04, 7.97 17.99, 7.45 17.9 C6.94 17.81, 6.43 17.67, 5.93 17.5 C5.44 17.32, 4.96 17.09, 4.51 16.83 C4.06 16.57, 3.62 16.26, 3.22 15.93 C2.82 15.59, 2.45 15.22, 2.11 14.82 C1.77 14.42, 1.47 13.98, 1.21 13.53 C0.95 13.08, 0.72 12.59, 0.54 12.1 C0.37 11.61, 0.23 11.1, 0.14 10.59 C0.05 10.07, 0 9.54, 0 9.02 C0 8.5, 0.05 7.97, 0.14 7.45 C0.23 6.94, 0.37 6.43, 0.54 5.93 C0.72 5.44, 0.95 4.96, 1.21 4.51 C1.47 4.06, 1.77 3.62, 2.11 3.22 C2.45 2.82, 2.82 2.45, 3.22 2.11 C3.62 1.77, 4.06 1.47, 4.51 1.21 C4.96 0.95, 5.44 0.72, 5.93 0.54 C6.43 0.37, 6.94 0.23, 7.45 0.14 C7.97 0.05, 8.5 0, 9.02 0 C9.54 0, 10.07 0.05, 10.59 0.14 C11.1 0.23, 11.61 0.37, 12.1 0.54 C12.59 0.72, 13.08 0.95, 13.53 1.21 C13.98 1.47, 14.42 1.77, 14.82 2.11 C15.22 2.45, 15.59 2.82, 15.93 3.22 C16.26 3.62, 16.57 4.06, 16.83 4.51 C17.09 4.96, 17.32 5.44, 17.5 5.93 C17.67 6.43, 17.81 6.94, 17.9 7.45 C17.99 7.97, 18.02 8.76, 18.04 9.02 C18.06 9.28, 18.06 8.76, 18.04 9.02" stroke="#000000" stroke-width="2" fill="none"></path></g><g stroke-linecap="round" transform="translate(627.1549041191865 48.576345698434125) rotate(0 9.019487851887789 9.019487851887789)"><path d="M18.04 9.02 C18.04 9.54, 17.99 10.07, 17.9 10.59 C17.81 11.1, 17.67 11.61, 17.5 12.1 C17.32 12.59, 17.09 13.08, 16.83 13.53 C16.57 13.98, 16.26 14.42, 15.93 14.82 C15.59 15.22, 15.22 15.59, 14.82 15.93 C14.42 16.26, 13.98 16.57, 13.53 16.83 C13.08 17.09, 12.59 17.32, 12.1 17.5 C11.61 17.67, 11.1 17.81, 10.59 17.9 C10.07 17.99, 9.54 18.04, 9.02 18.04 C8.5 18.04, 7.97 17.99, 7.45 17.9 C6.94 17.81, 6.43 17.67, 5.93 17.5 C5.44 17.32, 4.96 17.09, 4.51 16.83 C4.06 16.57, 3.62 16.26, 3.22 15.93 C2.82 15.59, 2.45 15.22, 2.11 14.82 C1.77 14.42, 1.47 13.98, 1.21 13.53 C0.95 13.08, 0.72 12.59, 0.54 12.1 C0.37 11.61, 0.23 11.1, 0.14 10.59 C0.05 10.07, 0 9.54, 0 9.02 C0 8.5, 0.05 7.97, 0.14 7.45 C0.23 6.94, 0.37 6.43, 0.54 5.93 C0.72 5.44, 0.95 4.96, 1.21 4.51 C1.47 4.06, 1.77 3.62, 2.11 3.22 C2.45 2.82, 2.82 2.45, 3.22 2.11 C3.62 1.77, 4.06 1.47, 4.51 1.21 C4.96 0.95, 5.44 0.72, 5.93 0.54 C6.43 0.37, 6.94 0.23, 7.45 0.14 C7.97 0.05, 8.5 0, 9.02 0 C9.54 0, 10.07 0.05, 10.59 0.14 C11.1 0.23, 11.61 0.37, 12.1 0.54 C12.59 0.72, 13.08 0.95, 13.53 1.21 C13.98 1.47, 14.42 1.77, 14.82 2.11 C15.22 2.45, 15.59 2.82, 15.93 3.22 C16.26 3.62, 16.57 4.06, 16.83 4.51 C17.09 4.96, 17.32 5.44, 17.5 5.93 C17.67 6.43, 17.81 6.94, 17.9 7.45 C17.99 7.97, 18.02 8.76, 18.04 9.02 C18.06 9.28, 18.06 8.76, 18.04 9.02" stroke="none" stroke-width="0" fill="green"></path><path d="M18.04 9.02 C18.04 9.54, 17.99 10.07, 17.9 10.59 C17.81 11.1, 17.67 11.61, 17.5 12.1 C17.32 12.59, 17.09 13.08, 16.83 13.53 C16.57 13.98, 16.26 14.42, 15.93 14.82 C15.59 15.22, 15.22 15.59, 14.82 15.93 C14.42 16.26, 13.98 16.57, 13.53 16.83 C13.08 17.09, 12.59 17.32, 12.1 17.5 C11.61 17.67, 11.1 17.81, 10.59 17.9 C10.07 17.99, 9.54 18.04, 9.02 18.04 C8.5 18.04, 7.97 17.99, 7.45 17.9 C6.94 17.81, 6.43 17.67, 5.93 17.5 C5.44 17.32, 4.96 17.09, 4.51 16.83 C4.06 16.57, 3.62 16.26, 3.22 15.93 C2.82 15.59, 2.45 15.22, 2.11 14.82 C1.77 14.42, 1.47 13.98, 1.21 13.53 C0.95 13.08, 0.72 12.59, 0.54 12.1 C0.37 11.61, 0.23 11.1, 0.14 10.59 C0.05 10.07, 0 9.54, 0 9.02 C0 8.5, 0.05 7.97, 0.14 7.45 C0.23 6.94, 0.37 6.43, 0.54 5.93 C0.72 5.44, 0.95 4.96, 1.21 4.51 C1.47 4.06, 1.77 3.62, 2.11 3.22 C2.45 2.82, 2.82 2.45, 3.22 2.11 C3.62 1.77, 4.06 1.47, 4.51 1.21 C4.96 0.95, 5.44 0.72, 5.93 0.54 C6.43 0.37, 6.94 0.23, 7.45 0.14 C7.97 0.05, 8.5 0, 9.02 0 C9.54 0, 10.07 0.05, 10.59 0.14 C11.1 0.23, 11.61 0.37, 12.1 0.54 C12.59 0.72, 13.08 0.95, 13.53 1.21 C13.98 1.47, 14.42 1.77, 14.82 2.11 C15.22 2.45, 15.59 2.82, 15.93 3.22 C16.26 3.62, 16.57 4.06, 16.83 4.51 C17.09 4.96, 17.32 5.44, 17.5 5.93 C17.67 6.43, 17.81 6.94, 17.9 7.45 C17.99 7.97, 18.02 8.76, 18.04 9.02 C18.06 9.28, 18.06 8.76, 18.04 9.02" stroke="#000000" stroke-width="2" fill="none"></path></g><g stroke-linecap="round" transform="translate(10 269.7528295820498) rotate(0 138 37.5)"><path d="M18.75 0 L257.25 0 L265.45 1.17 L271.31 4.69 L273.36 7.32 L275.71 14.36 L276 56.25 L274.83 64.45 L273.36 67.68 L268.68 72.36 L265.45 73.83 L257.25 75 L18.75 75 L10.55 73.83 L4.69 70.31 L2.64 67.68 L0.29 60.64 L0.29 14.36 L2.64 7.32 L4.69 4.69 L10.55 1.17 L18.75 0" stroke="none" stroke-width="0" fill="white"></path><path d="M18.75 0 M18.75 0 C106.21 0, 193.67 0, 257.25 0 M18.75 0 C87.89 0, 157.03 0, 257.25 0 M257.25 0 C269.75 0, 276 6.25, 276 18.75 M257.25 0 C269.75 0, 276 6.25, 276 18.75 M276 18.75 C276 32.19, 276 45.63, 276 56.25 M276 18.75 C276 29.66, 276 40.56, 276 56.25 M276 56.25 C276 68.75, 269.75 75, 257.25 75 M276 56.25 C276 68.75, 269.75 75, 257.25 75 M257.25 75 C166.4 75, 75.56 75, 18.75 75 M257.25 75 C196.51 75, 135.76 75, 18.75 75 M18.75 75 C6.25 75, 0 68.75, 0 56.25 M18.75 75 C6.25 75, 0 68.75, 0 56.25 M0 56.25 C0 47.22, 0 38.19, 0 18.75 M0 56.25 C0 41.46, 0 26.68, 0 18.75 M0 18.75 C0 6.25, 6.25 0, 18.75 0 M0 18.75 C0 6.25, 6.25 0, 18.75 0" stroke="#000000" stroke-width="2" fill="none"></path></g><g transform="translate(42.17500305175781 291.1528295820499) rotate(0 105.82499694824219 16.09999999999991)"><text x="105.82499694824219" y="0" font-family="Helvetica, Segoe UI Emoji" font-size="28px" fill="#000000" text-anchor="middle" style="white-space: pre;" direction="ltr" dominant-baseline="text-before-edge">Study Participant</text></g><g stroke-linecap="round" transform="translate(1377.2873386042484 153.1985636763784) rotate(0 138 37.5)"><path d="M18.75 0 L257.25 0 L265.45 1.17 L271.31 4.69 L273.36 7.32 L275.71 14.36 L276 56.25 L274.83 64.45 L273.36 67.68 L268.68 72.36 L265.45 73.83 L257.25 75 L18.75 75 L10.55 73.83 L4.69 70.31 L2.64 67.68 L0.29 60.64 L0.29 14.36 L2.64 7.32 L4.69 4.69 L10.55 1.17 L18.75 0" stroke="none" stroke-width="0" fill="white"></path><path d="M18.75 0 M18.75 0 C66.95 0, 115.14 0, 257.25 0 M18.75 0 C85.75 0, 152.76 0, 257.25 0 M257.25 0 C269.75 0, 276 6.25, 276 18.75 M257.25 0 C269.75 0, 276 6.25, 276 18.75 M276 18.75 C276 27.43, 276 36.1, 276 56.25 M276 18.75 C276 29.72, 276 40.69, 276 56.25 M276 56.25 C276 68.75, 269.75 75, 257.25 75 M276 56.25 C276 68.75, 269.75 75, 257.25 75 M257.25 75 C187.67 75, 118.1 75, 18.75 75 M257.25 75 C169.8 75, 82.34 75, 18.75 75 M18.75 75 C6.25 75, 0 68.75, 0 56.25 M18.75 75 C6.25 75, 0 68.75, 0 56.25 M0 56.25 C0 47.22, 0 38.19, 0 18.75 M0 56.25 C0 41.27, 0 26.28, 0 18.75 M0 18.75 C0 6.25, 6.25 0, 18.75 0 M0 18.75 C0 6.25, 6.25 0, 18.75 0" stroke="#000000" stroke-width="2" fill="none"></path></g><g transform="translate(1442.9456714289554 174.5985636763785) rotate(0 72.34166717529297 16.09999999999991)"><text x="72.34166717529297" y="0" font-family="Helvetica, Segoe UI Emoji" font-size="28px" fill="#000000" text-anchor="middle" style="white-space: pre;" direction="ltr" dominant-baseline="text-before-edge">Researcher</text></g><g mask="url(#mask-nmZg57q8fNSphyAdl0Kgf)" stroke-linecap="round"><g transform="translate(1370.6186122207946 188.72968517346453) rotate(0 -171.09011470054975 -1.8943518264138675)"><path d="M0 0 C-57.03 -0.63, -285.15 -3.16, -342.18 -3.79 M0 0 C-57.03 -0.63, -285.15 -3.16, -342.18 -3.79" stroke="#000000" stroke-width="2" fill="none"></path></g><g transform="translate(1370.6186122207946 188.72968517346453) rotate(0 -171.09011470054975 -1.8943518264138675)"><path d="M-342.18 -3.79 L-328.52 -9.98 L-328.66 2.7 L-342.18 -3.79" stroke="none" stroke-width="0" fill="#000000" fill-rule="evenodd"></path><path d="M-342.18 -3.79 C-337.97 -5.7, -333.75 -7.61, -328.52 -9.98 M-342.18 -3.79 C-337.83 -5.76, -333.48 -7.73, -328.52 -9.98 M-328.52 -9.98 C-328.55 -7.29, -328.58 -4.6, -328.66 2.7 M-328.52 -9.98 C-328.55 -7.22, -328.58 -4.46, -328.66 2.7 M-328.66 2.7 C-332.32 0.94, -335.98 -0.81, -342.18 -3.79 M-328.66 2.7 C-333.83 0.22, -339 -2.26, -342.18 -3.79 M-342.18 -3.79 C-342.18 -3.79, -342.18 -3.79, -342.18 -3.79 M-342.18 -3.79 C-342.18 -3.79, -342.18 -3.79, -342.18 -3.79" stroke="#000000" stroke-width="2" fill="none"></path></g></g><mask id="mask-nmZg57q8fNSphyAdl0Kgf"><rect x="0" y="0" fill="#fff" width="1812.798841621894" height="292.51838882629227"></rect><rect x="1110.8285005720027" y="170.73533334705053" fill="#000" width="177.39999389648438" height="32.199999999999996" opacity="1"></rect></mask><g transform="translate(1110.8285005720027 170.73533334705053) rotate(0 88.69999694824219 16.100000000000136)"><text x="88.69999694824219" y="0" font-family="Helvetica, Segoe UI Emoji" font-size="28px" fill="#000000" text-anchor="middle" style="white-space: pre;" direction="ltr" dominant-baseline="text-before-edge">Creates Study</text></g><g mask="url(#mask-eKywCipKZ-h0qF8CeR1xc)" stroke-linecap="round"><g transform="translate(141.60121109812098 356.7780540603121) rotate(0 -0.4354225156976099 142.98191658440123)"><path d="M0 0 C-0.15 47.66, -0.73 238.3, -0.87 285.96 M0 0 C-0.15 47.66, -0.73 238.3, -0.87 285.96" stroke="#000000" stroke-width="2" fill="none"></path></g><g transform="translate(141.60121109812098 356.7780540603121) rotate(0 -0.4354225156976099 142.98191658440123)"><path d="M-0.87 285.96 L-7.17 272.35 L5.51 272.39 L-0.87 285.96" stroke="none" stroke-width="0" fill="#000000" fill-rule="evenodd"></path><path d="M-0.87 285.96 C-2.61 282.2, -4.35 278.43, -7.17 272.35 M-0.87 285.96 C-2.77 281.85, -4.68 277.73, -7.17 272.35 M-7.17 272.35 C-3.39 272.36, 0.38 272.37, 5.51 272.39 M-7.17 272.35 C-3.73 272.36, -0.29 272.37, 5.51 272.39 M5.51 272.39 C2.98 277.77, 0.45 283.15, -0.87 285.96 M5.51 272.39 C3.99 275.63, 2.46 278.88, -0.87 285.96 M-0.87 285.96 C-0.87 285.96, -0.87 285.96, -0.87 285.96 M-0.87 285.96 C-0.87 285.96, -0.87 285.96, -0.87 285.96" stroke="#000000" stroke-width="2" fill="none"></path></g></g><mask id="mask-eKywCipKZ-h0qF8CeR1xc"><rect x="0" y="0" fill="#fff" width="242.4720561295162" height="742.7418872291146"></rect><rect x="34.59079163418028" y="483.65997064471367" fill="#000" width="213.14999389648438" height="32.199999999999996" opacity="1"></rect></mask><g transform="translate(34.59079163418028 483.65997064471367) rotate(0 106.5749969482431 16.09999999999968)"><text x="106.57499694824219" y="0" font-family="Helvetica, Segoe UI Emoji" font-size="28px" fill="#000000" text-anchor="middle" style="white-space: pre;" direction="ltr" dominant-baseline="text-before-edge">Completes Tasks</text></g><g mask="url(#mask-MJhX13OQqzVvBB4j5LZBp)" stroke-linecap="round"><g transform="translate(305.334689790212 897.7000994459863) rotate(0 164.5618541873937 -0.6954850087295199)"><path d="M0 0 C54.85 -0.23, 274.27 -1.16, 329.12 -1.39 M0 0 C54.85 -0.23, 274.27 -1.16, 329.12 -1.39" stroke="#000000" stroke-width="2" fill="none"></path></g><g transform="translate(305.334689790212 897.7000994459863) rotate(0 164.5618541873937 -0.6954850087295199)"><path d="M329.12 -1.39 L315.56 5.01 L315.5 -7.67 L329.12 -1.39" stroke="none" stroke-width="0" fill="#000000" fill-rule="evenodd"></path><path d="M329.12 -1.39 C326.22 -0.02, 323.32 1.34, 315.56 5.01 M329.12 -1.39 C325.75 0.2, 322.37 1.79, 315.56 5.01 M315.56 5.01 C315.54 2.18, 315.53 -0.64, 315.5 -7.67 M315.56 5.01 C315.54 2.07, 315.53 -0.87, 315.5 -7.67 M315.5 -7.67 C319.74 -5.72, 323.99 -3.76, 329.12 -1.39 M315.5 -7.67 C319.93 -5.63, 324.36 -3.59, 329.12 -1.39 M329.12 -1.39 C329.12 -1.39, 329.12 -1.39, 329.12 -1.39 M329.12 -1.39 C329.12 -1.39, 329.12 -1.39, 329.12 -1.39" stroke="#000000" stroke-width="2" fill="none"></path></g></g><mask id="mask-MJhX13OQqzVvBB4j5LZBp"><rect x="0" y="0" fill="#fff" width="734.4583981649994" height="999.0910694634454"></rect><rect x="359.3965439776057" y="864.804614437257" fill="#000" width="221" height="64.39999999999999" opacity="1"></rect></mask><g transform="translate(359.3965439776057 864.804614437257) rotate(0 110.5 32.19999999999982)"><text x="110.5" y="0" font-family="Helvetica, Segoe UI Emoji" font-size="28px" fill="#000000" text-anchor="middle" style="white-space: pre;" direction="ltr" dominant-baseline="text-before-edge">Sends Response </text><text x="110.5" y="32.199999999999996" font-family="Helvetica, Segoe UI Emoji" font-size="28px" fill="#000000" text-anchor="middle" style="white-space: pre;" direction="ltr" dominant-baseline="text-before-edge">and Log Data</text></g><g mask="url(#mask-AxddV_usdUda88LTHQxA1)" stroke-linecap="round"><g transform="translate(770.715053283986 447.68389022917563) rotate(0 -0.04170693164178374 164.06712581146257)"><path d="M0 0 C-0.01 54.69, -0.07 273.45, -0.08 328.13 M0 0 C-0.01 54.69, -0.07 273.45, -0.08 328.13" stroke="#000000" stroke-width="2" fill="none"></path></g><g transform="translate(770.715053283986 447.68389022917563) rotate(0 -0.04170693164178374 164.06712581146257)"><path d="M-0.08 328.13 L-6.42 314.54 L6.26 314.54 L-0.08 328.13" stroke="none" stroke-width="0" fill="#000000" fill-rule="evenodd"></path><path d="M-0.08 328.13 C-2.39 323.18, -4.7 318.23, -6.42 314.54 M-0.08 328.13 C-2.13 323.75, -4.17 319.36, -6.42 314.54 M-6.42 314.54 C-3.64 314.54, -0.86 314.54, 6.26 314.54 M-6.42 314.54 C-2.01 314.54, 2.39 314.54, 6.26 314.54 M6.26 314.54 C4.75 317.78, 3.23 321.03, -0.08 328.13 M6.26 314.54 C4.38 318.57, 2.49 322.61, -0.08 328.13 M-0.08 328.13 C-0.08 328.13, -0.08 328.13, -0.08 328.13 M-0.08 328.13 C-0.08 328.13, -0.08 328.13, -0.08 328.13" stroke="#000000" stroke-width="2" fill="none"></path></g></g><mask id="mask-AxddV_usdUda88LTHQxA1"><rect x="0" y="0" fill="#fff" width="870.7984671472695" height="875.8181418521008"></rect><rect x="691.2900150535152" y="595.6510160406383" fill="#000" width="158.76666259765625" height="32.199999999999996" opacity="1"></rect></mask><g transform="translate(691.2900150535152 595.6510160406383) rotate(0 79.38333129882903 16.09999999999991)"><text x="79.38333129882812" y="0" font-family="Helvetica, Segoe UI Emoji" font-size="28px" fill="#000000" text-anchor="middle" style="white-space: pre;" direction="ltr" dominant-baseline="text-before-edge">Sends Study</text></g><g stroke-linecap="round" transform="translate(1392.5181469024537 885.1575863756038) rotate(0 131.5 59)"><path d="M29.5 0 L233.5 0 L240.41 0.46 L246.41 1.84 L251.48 4.15 L255.62 7.37 L258.85 11.52 L261.16 16.59 L262.54 22.59 L263 88.5 L262.54 95.41 L261.16 101.41 L258.85 106.48 L255.62 110.63 L251.48 113.85 L246.41 116.16 L240.41 117.54 L233.5 118 L29.5 118 L22.59 117.54 L16.59 116.16 L11.52 113.85 L7.37 110.63 L4.15 106.48 L1.84 101.41 L0.46 95.41 L0.46 22.59 L1.84 16.59 L4.15 11.52 L7.37 7.37 L11.52 4.15 L16.59 1.84 L22.59 0.46 L29.5 0" stroke="none" stroke-width="0" fill="#fa5252"></path><path d="M29.5 0 M29.5 0 C92.25 0, 154.99 0, 233.5 0 M29.5 0 C77.14 0, 124.78 0, 233.5 0 M233.5 0 C253.17 0, 263 9.83, 263 29.5 M233.5 0 C253.17 0, 263 9.83, 263 29.5 M263 29.5 C263 47.64, 263 65.78, 263 88.5 M263 29.5 C263 46.63, 263 63.76, 263 88.5 M263 88.5 C263 108.17, 253.17 118, 233.5 118 M263 88.5 C263 108.17, 253.17 118, 233.5 118 M233.5 118 C165.77 118, 98.04 118, 29.5 118 M233.5 118 C191.91 118, 150.33 118, 29.5 118 M29.5 118 C9.83 118, 0 108.17, 0 88.5 M29.5 118 C9.83 118, 0 108.17, 0 88.5 M0 88.5 C0 76.05, 0 63.61, 0 29.5 M0 88.5 C0 71.09, 0 53.68, 0 29.5 M0 29.5 C0 9.83, 9.83 0, 29.5 0 M0 29.5 C0 9.83, 9.83 0, 29.5 0" stroke="#000000" stroke-width="2" fill="none"></path></g><g transform="translate(1452.9931453765748 923.457586375604) rotate(0 71.0250015258789 20.700000000000045)"><text x="71.0250015258789" y="0" font-family="Helvetica, Segoe UI Emoji" font-size="36px" fill="#000000" text-anchor="middle" style="white-space: pre;" direction="ltr" dominant-baseline="text-before-edge">REDCap</text></g><g mask="url(#mask-5wPicVRVJyoPEc62DYde8)" stroke-linecap="round"><g transform="translate(891.5662910592437 934.542469850971) rotate(0 239.5261605807691 0.5184259178433877)"><path d="M0 0 C79.84 0.17, 399.21 0.86, 479.05 1.04 M0 0 C79.84 0.17, 399.21 0.86, 479.05 1.04" stroke="#000000" stroke-width="2" fill="none"></path></g><g transform="translate(891.5662910592437 934.542469850971) rotate(0 239.5261605807691 0.5184259178433877)"><path d="M479.05 1.04 L465.44 7.35 L465.47 -5.33 L479.05 1.04" stroke="none" stroke-width="0" fill="#000000" fill-rule="evenodd"></path><path d="M479.05 1.04 C473.77 3.48, 468.49 5.93, 465.44 7.35 M479.05 1.04 C474.06 3.35, 469.07 5.66, 465.44 7.35 M465.44 7.35 C465.45 2.6, 465.46 -2.15, 465.47 -5.33 M465.44 7.35 C465.45 2.43, 465.47 -2.48, 465.47 -5.33 M465.47 -5.33 C468.69 -3.82, 471.91 -2.31, 479.05 1.04 M465.47 -5.33 C470 -3.21, 474.53 -1.09, 479.05 1.04 M479.05 1.04 C479.05 1.04, 479.05 1.04, 479.05 1.04 M479.05 1.04 C479.05 1.04, 479.05 1.04, 479.05 1.04" stroke="#000000" stroke-width="2" fill="none"></path></g></g><mask id="mask-5wPicVRVJyoPEc62DYde8"><rect x="0" y="0" fill="#fff" width="1470.6186122207819" height="1035.5793216866577"></rect><rect x="1023.7341218670645" y="902.8608957688148" fill="#000" width="214.71665954589844" height="64.39999999999999" opacity="1"></rect></mask><g transform="translate(1023.7341218670645 902.8608957688148) rotate(0 107.35832977294831 32.19999999999959)"><text x="107.35832977294922" y="0" font-family="Helvetica, Segoe UI Emoji" font-size="28px" fill="#000000" text-anchor="middle" style="white-space: pre;" direction="ltr" dominant-baseline="text-before-edge">Creates Projects,</text><text x="107.35832977294922" y="32.199999999999996" font-family="Helvetica, Segoe UI Emoji" font-size="28px" fill="#000000" text-anchor="middle" style="white-space: pre;" direction="ltr" dominant-baseline="text-before-edge">Sends Records</text></g><g mask="url(#mask-sBXNf3rwFjAjNcllH0J0O)" stroke-linecap="round"><g transform="translate(1525.5484312409917 860.5206098587246) rotate(0 -3.2403124941956776 -310.4411495527024)"><path d="M0 0 C-1.08 -103.48, -5.4 -517.4, -6.48 -620.88 M0 0 C-1.08 -103.48, -5.4 -517.4, -6.48 -620.88" stroke="#000000" stroke-width="2" fill="none"></path></g><g transform="translate(1525.5484312409917 860.5206098587246) rotate(0 -3.2403124941956776 -310.4411495527024)"><path d="M-6.48 -620.88 L0 -607.35 L-12.68 -607.22 L-6.48 -620.88" stroke="none" stroke-width="0" fill="#000000" fill-rule="evenodd"></path><path d="M-6.48 -620.88 C-4.98 -617.76, -3.49 -614.63, 0 -607.35 M-6.48 -620.88 C-4.31 -616.35, -2.13 -611.81, 0 -607.35 M0 -607.35 C-3.6 -607.32, -7.19 -607.28, -12.68 -607.22 M0 -607.35 C-4.07 -607.31, -8.14 -607.27, -12.68 -607.22 M-12.68 -607.22 C-11.27 -610.33, -9.86 -613.44, -6.48 -620.88 M-12.68 -607.22 C-10.23 -612.63, -7.77 -618.03, -6.48 -620.88 M-6.48 -620.88 C-6.48 -620.88, -6.48 -620.88, -6.48 -620.88 M-6.48 -620.88 C-6.48 -620.88, -6.48 -620.88, -6.48 -620.88" stroke="#000000" stroke-width="2" fill="none"></path></g></g><mask id="mask-sBXNf3rwFjAjNcllH0J0O"><rect x="0" y="0" fill="#fff" width="1632.029056229383" height="1581.4029089641294"></rect><rect x="1429.716451571503" y="501.779460306022" fill="#000" width="185.18333435058594" height="96.6" opacity="1"></rect></mask><g transform="translate(1429.716451571503 501.779460306022) rotate(0 92.59166717529297 48.30000000000018)"><text x="92.59166717529297" y="0" font-family="Helvetica, Segoe UI Emoji" font-size="28px" fill="#000000" text-anchor="middle" style="white-space: pre;" direction="ltr" dominant-baseline="text-before-edge">Provides </text><text x="92.59166717529297" y="32.199999999999996" font-family="Helvetica, Segoe UI Emoji" font-size="28px" fill="#000000" text-anchor="middle" style="white-space: pre;" direction="ltr" dominant-baseline="text-before-edge">Downloadable </text><text x="92.59166717529297" y="64.39999999999999" font-family="Helvetica, Segoe UI Emoji" font-size="28px" fill="#000000" text-anchor="middle" style="white-space: pre;" direction="ltr" dominant-baseline="text-before-edge">Data</text></g><g mask="url(#mask-PZiIA32liKFPz32uj7Ly9)" stroke-linecap="round"><g transform="translate(626.034433043993 1032.0686207677936) rotate(0 -159.35561337255513 -1.544832701357791)"><path d="M0 0 C-53.12 -0.51, -265.59 -2.57, -318.71 -3.09 M0 0 C-53.12 -0.51, -265.59 -2.57, -318.71 -3.09" stroke="#000000" stroke-width="2" fill="none"></path></g><g transform="translate(626.034433043993 1032.0686207677936) rotate(0 -159.35561337255513 -1.544832701357791)"><path d="M-318.71 -3.09 L-305.06 -9.3 L-305.18 3.38 L-318.71 -3.09" stroke="none" stroke-width="0" fill="#000000" fill-rule="evenodd"></path><path d="M-318.71 -3.09 C-314.3 -5.1, -309.88 -7.1, -305.06 -9.3 M-318.71 -3.09 C-313.32 -5.54, -307.94 -7.99, -305.06 -9.3 M-305.06 -9.3 C-305.08 -6.45, -305.11 -3.6, -305.18 3.38 M-305.06 -9.3 C-305.1 -4.58, -305.15 0.13, -305.18 3.38 M-305.18 3.38 C-309.8 1.17, -314.43 -1.04, -318.71 -3.09 M-305.18 3.38 C-308.79 1.65, -312.4 -0.07, -318.71 -3.09 M-318.71 -3.09 C-318.71 -3.09, -318.71 -3.09, -318.71 -3.09 M-318.71 -3.09 C-318.71 -3.09, -318.71 -3.09, -318.71 -3.09" stroke="#000000" stroke-width="2" fill="none"></path></g></g><mask id="mask-PZiIA32liKFPz32uj7Ly9"><rect x="0" y="0" fill="#fff" width="1044.7456597891032" height="1135.1582861705092"></rect><rect x="368.6371555479036" y="998.323788066436" fill="#000" width="196.0833282470703" height="64.39999999999999" opacity="1"></rect></mask><g transform="translate(368.6371555479036 998.323788066436) rotate(0 98.04166412353425 32.19999999999982)"><text x="98.04166412353516" y="0" font-family="Helvetica, Segoe UI Emoji" font-size="28px" fill="#000000" text-anchor="middle" style="white-space: pre;" direction="ltr" dominant-baseline="text-before-edge">Provides Study </text><text x="98.04166412353516" y="32.199999999999996" font-family="Helvetica, Segoe UI Emoji" font-size="28px" fill="#000000" text-anchor="middle" style="white-space: pre;" direction="ltr" dominant-baseline="text-before-edge">Link</text></g></svg>