<svg version="1.1" xmlns="http://www.w3.org/2000/svg" viewBox="0 0 1971.6947088195702 1688.203679338027" width="3943.3894176391404" height="3376.407358676054">
  <!-- svg-source:excalidraw -->
  
  <defs>
    <style class="style-fonts">
      @font-face {
        font-family: "Virgil";
        src: url("https://excalidraw.com/Virgil.woff2");
      }
      @font-face {
        font-family: "Cascadia";
        src: url("https://excalidraw.com/Cascadia.woff2");
      }
    </style>
  </defs>
  <rect x="0" y="0" width="1971.6947088195702" height="1688.203679338027" fill="#ffffff"></rect><g stroke-linecap="round" transform="translate(10 665.7815888199148) rotate(0 131.41017769623068 240.14337782541224)"><path d="M32 0 L238.32 0.5 L244.82 2 L250.32 4.5 L254.82 8 L258.32 12.5 L260.82 18 L262.32 24.5 L262.82 32 L262.82 448.29 L262.32 455.79 L260.82 462.29 L258.32 467.79 L254.82 472.29 L250.32 475.79 L244.82 478.29 L238.32 479.79 L230.82 480.29 L32 480.29 L24.5 479.79 L18 478.29 L12.5 475.79 L8 472.29 L4.5 467.79 L2 462.29 L0.5 455.79 L0 448.29 L0 32 L0.5 24.5 L2 18 L4.5 12.5 L8 8 L12.5 4.5 L18 2 L24.5 0.5 L32 0" stroke="none" stroke-width="0" fill="#ced4da"></path><path d="M32 0 M32 0 C109.76 0, 187.51 0, 230.82 0 M32 0 C104.24 0, 176.49 0, 230.82 0 M230.82 0 C252.15 0, 262.82 10.67, 262.82 32 M230.82 0 C252.15 0, 262.82 10.67, 262.82 32 M262.82 32 C262.82 185.95, 262.82 339.9, 262.82 448.29 M262.82 32 C262.82 151.69, 262.82 271.38, 262.82 448.29 M262.82 448.29 C262.82 469.62, 252.15 480.29, 230.82 480.29 M262.82 448.29 C262.82 469.62, 252.15 480.29, 230.82 480.29 M230.82 480.29 C173.04 480.29, 115.25 480.29, 32 480.29 M230.82 480.29 C161.75 480.29, 92.68 480.29, 32 480.29 M32 480.29 C10.67 480.29, 0 469.62, 0 448.29 M32 480.29 C10.67 480.29, 0 469.62, 0 448.29 M0 448.29 C0 336.55, 0 224.82, 0 32 M0 448.29 C0 311.59, 0 174.89, 0 32 M0 32 C0 10.67, 10.67 0, 32 0 M0 32 C0 10.67, 10.67 0, 32 0" stroke="#000000" stroke-width="2" fill="none"></path></g><g stroke-linecap="round" transform="translate(26.74720430985326 686.7141834971899) rotate(0 115.1292707250168 193.6265007648003)"><path d="M0 0 L230.26 0 L230.26 387.25 L0 387.25" stroke="none" stroke-width="0" fill="#ced4da"></path><path d="M0 0 C72.17 0, 144.34 0, 230.26 0 M0 0 C64.35 0, 128.7 0, 230.26 0 M230.26 0 C230.26 104.94, 230.26 209.88, 230.26 387.25 M230.26 0 C230.26 134.51, 230.26 269.02, 230.26 387.25 M230.26 387.25 C178.79 387.25, 127.32 387.25, 0 387.25 M230.26 387.25 C175.29 387.25, 120.33 387.25, 0 387.25 M0 387.25 C0 305.46, 0 223.66, 0 0 M0 387.25 C0 274.03, 0 160.82, 0 0" stroke="#000000" stroke-width="2" fill="none"></path></g><g transform="translate(73.40980785957618 864.2406842619903) rotate(0 68.46666717529297 16.09999999999991)"><text x="68.46666717529297" y="0" font-family="Helvetica, Segoe UI Emoji" font-size="28px" fill="#000000" text-anchor="middle" style="white-space: pre;" direction="ltr" dominant-baseline="text-before-edge">Mobile app</text></g><g stroke-linecap="round" transform="translate(113.50005145986506 1089.0851700714893) rotate(0 23.83989949356328 23.83989949356328)"><path d="M47.68 23.84 C47.68 25.22, 47.56 26.62, 47.32 27.98 C47.08 29.34, 46.71 30.7, 46.24 31.99 C45.77 33.29, 45.18 34.56, 44.49 35.76 C43.8 36.95, 42.99 38.11, 42.1 39.16 C41.22 40.22, 40.22 41.22, 39.16 42.1 C38.11 42.99, 36.95 43.8, 35.76 44.49 C34.56 45.18, 33.29 45.77, 31.99 46.24 C30.7 46.71, 29.34 47.08, 27.98 47.32 C26.62 47.56, 25.22 47.68, 23.84 47.68 C22.46 47.68, 21.06 47.56, 19.7 47.32 C18.34 47.08, 16.98 46.71, 15.69 46.24 C14.39 45.77, 13.11 45.18, 11.92 44.49 C10.72 43.8, 9.57 42.99, 8.52 42.1 C7.46 41.22, 6.46 40.22, 5.58 39.16 C4.69 38.11, 3.88 36.95, 3.19 35.76 C2.5 34.56, 1.91 33.29, 1.44 31.99 C0.97 30.7, 0.6 29.34, 0.36 27.98 C0.12 26.62, 0 25.22, 0 23.84 C0 22.46, 0.12 21.06, 0.36 19.7 C0.6 18.34, 0.97 16.98, 1.44 15.69 C1.91 14.39, 2.5 13.11, 3.19 11.92 C3.88 10.72, 4.69 9.57, 5.58 8.52 C6.46 7.46, 7.46 6.46, 8.52 5.58 C9.57 4.69, 10.72 3.88, 11.92 3.19 C13.11 2.5, 14.39 1.91, 15.69 1.44 C16.98 0.97, 18.34 0.6, 19.7 0.36 C21.06 0.12, 22.46 0, 23.84 0 C25.22 0, 26.62 0.12, 27.98 0.36 C29.34 0.6, 30.7 0.97, 31.99 1.44 C33.29 1.91, 34.56 2.5, 35.76 3.19 C36.95 3.88, 38.11 4.69, 39.16 5.58 C40.22 6.46, 41.22 7.46, 42.1 8.52 C42.99 9.57, 43.8 10.72, 44.49 11.92 C45.18 13.11, 45.77 14.39, 46.24 15.69 C46.71 16.98, 47.08 18.34, 47.32 19.7 C47.56 21.06, 47.62 23.15, 47.68 23.84 C47.74 24.53, 47.74 23.15, 47.68 23.84" stroke="none" stroke-width="0" fill="#ced4da"></path><path d="M47.68 23.84 C47.68 25.22, 47.56 26.62, 47.32 27.98 C47.08 29.34, 46.71 30.7, 46.24 31.99 C45.77 33.29, 45.18 34.56, 44.49 35.76 C43.8 36.95, 42.99 38.11, 42.1 39.16 C41.22 40.22, 40.22 41.22, 39.16 42.1 C38.11 42.99, 36.95 43.8, 35.76 44.49 C34.56 45.18, 33.29 45.77, 31.99 46.24 C30.7 46.71, 29.34 47.08, 27.98 47.32 C26.62 47.56, 25.22 47.68, 23.84 47.68 C22.46 47.68, 21.06 47.56, 19.7 47.32 C18.34 47.08, 16.98 46.71, 15.69 46.24 C14.39 45.77, 13.11 45.18, 11.92 44.49 C10.72 43.8, 9.57 42.99, 8.52 42.1 C7.46 41.22, 6.46 40.22, 5.58 39.16 C4.69 38.11, 3.88 36.95, 3.19 35.76 C2.5 34.56, 1.91 33.29, 1.44 31.99 C0.97 30.7, 0.6 29.34, 0.36 27.98 C0.12 26.62, 0 25.22, 0 23.84 C0 22.46, 0.12 21.06, 0.36 19.7 C0.6 18.34, 0.97 16.98, 1.44 15.69 C1.91 14.39, 2.5 13.11, 3.19 11.92 C3.88 10.72, 4.69 9.57, 5.58 8.52 C6.46 7.46, 7.46 6.46, 8.52 5.58 C9.57 4.69, 10.72 3.88, 11.92 3.19 C13.11 2.5, 14.39 1.91, 15.69 1.44 C16.98 0.97, 18.34 0.6, 19.7 0.36 C21.06 0.12, 22.46 0, 23.84 0 C25.22 0, 26.62 0.12, 27.98 0.36 C29.34 0.6, 30.7 0.97, 31.99 1.44 C33.29 1.91, 34.56 2.5, 35.76 3.19 C36.95 3.88, 38.11 4.69, 39.16 5.58 C40.22 6.46, 41.22 7.46, 42.1 8.52 C42.99 9.57, 43.8 10.72, 44.49 11.92 C45.18 13.11, 45.77 14.39, 46.24 15.69 C46.71 16.98, 47.08 18.34, 47.32 19.7 C47.56 21.06, 47.62 23.15, 47.68 23.84 C47.74 24.53, 47.74 23.15, 47.68 23.84" stroke="#000000" stroke-width="2" fill="none"></path></g><g stroke-linecap="round" transform="translate(958.9651562681593 833.1523919149149) rotate(0 109.25748287978695 124.86569471975622)"><path d="M32 0 L194.01 0.5 L200.51 2 L206.01 4.5 L210.51 8 L214.01 12.5 L216.51 18 L218.01 24.5 L218.51 32 L218.51 217.73 L218.01 225.23 L216.51 231.73 L214.01 237.23 L210.51 241.73 L206.01 245.23 L200.51 247.73 L194.01 249.23 L186.51 249.73 L32 249.73 L24.5 249.23 L18 247.73 L12.5 245.23 L8 241.73 L4.5 237.23 L2 231.73 L0.5 225.23 L0 217.73 L0.5 24.5 L2 18 L4.5 12.5 L8 8 L12.5 4.5 L18 2 L24.5 0.5 L32 0" stroke="none" stroke-width="0" fill="#4c6ef5"></path><path d="M32 0 M32 0 C65.63 0, 99.26 0, 186.51 0 M32 0 C73.26 0, 114.51 0, 186.51 0 M186.51 0 C207.85 0, 218.51 10.67, 218.51 32 M186.51 0 C207.85 0, 218.51 10.67, 218.51 32 M218.51 32 C218.51 77.57, 218.51 123.13, 218.51 217.73 M218.51 32 C218.51 77.88, 218.51 123.76, 218.51 217.73 M218.51 217.73 C218.51 239.06, 207.85 249.73, 186.51 249.73 M218.51 217.73 C218.51 239.06, 207.85 249.73, 186.51 249.73 M186.51 249.73 C153.96 249.73, 121.41 249.73, 32 249.73 M186.51 249.73 C139.64 249.73, 92.76 249.73, 32 249.73 M32 249.73 C10.67 249.73, 0 239.06, 0 217.73 M32 249.73 C10.67 249.73, 0 239.06, 0 217.73 M0 217.73 C0 149.37, 0 81.01, 0 32 M0 217.73 C0 146.15, 0 74.58, 0 32 M0 32 C0 10.67, 10.67 0, 32 0 M0 32 C0 10.67, 10.67 0, 32 0" stroke="#000000" stroke-width="2" fill="none"></path></g><g stroke-linecap="round" transform="translate(971.4557983219729 848.2538986089521) rotate(0 95.90887894512343 26.72763197994982)"><path d="M13.36 0 L178.45 0 L184.3 0.84 L186.6 1.88 L189.94 5.22 L191.61 10.23 L191.82 40.09 L190.98 45.94 L188.48 50.11 L186.6 51.58 L184.3 52.62 L178.45 53.46 L13.36 53.46 L7.52 52.62 L3.34 50.11 L0.84 45.94 L0.21 43.22 L0.21 10.23 L1.88 5.22 L5.22 1.88 L10.23 0.21 L13.36 0" stroke="none" stroke-width="0" fill="#15aabf"></path><path d="M13.36 0 M13.36 0 C57.61 0, 101.86 0, 178.45 0 M13.36 0 C71.04 0, 128.72 0, 178.45 0 M178.45 0 C187.36 0, 191.82 4.45, 191.82 13.36 M178.45 0 C187.36 0, 191.82 4.45, 191.82 13.36 M191.82 13.36 C191.82 22.26, 191.82 31.16, 191.82 40.09 M191.82 13.36 C191.82 22.42, 191.82 31.48, 191.82 40.09 M191.82 40.09 C191.82 49, 187.36 53.46, 178.45 53.46 M191.82 40.09 C191.82 49, 187.36 53.46, 178.45 53.46 M178.45 53.46 C116.58 53.46, 54.71 53.46, 13.36 53.46 M178.45 53.46 C128.54 53.46, 78.63 53.46, 13.36 53.46 M13.36 53.46 C4.45 53.46, 0 49, 0 40.09 M13.36 53.46 C4.45 53.46, 0 49, 0 40.09 M0 40.09 C0 33.39, 0 26.69, 0 13.36 M0 40.09 C0 31.14, 0 22.19, 0 13.36 M0 13.36 C0 4.45, 4.45 0, 13.36 0 M0 13.36 C0 4.45, 4.45 0, 13.36 0" stroke="#000000" stroke-width="2" fill="none"></path></g><g stroke-linecap="round" transform="translate(971.4557983219729 917.2538986089521) rotate(0 95.90887894512343 26.72763197994982)"><path d="M13.36 0 L178.45 0 L184.3 0.84 L186.6 1.88 L189.94 5.22 L191.61 10.23 L191.82 40.09 L190.98 45.94 L188.48 50.11 L186.6 51.58 L184.3 52.62 L178.45 53.46 L13.36 53.46 L7.52 52.62 L3.34 50.11 L0.84 45.94 L0.21 43.22 L0.21 10.23 L1.88 5.22 L5.22 1.88 L10.23 0.21 L13.36 0" stroke="none" stroke-width="0" fill="#15aabf"></path><path d="M13.36 0 M13.36 0 C53.55 0, 93.74 0, 178.45 0 M13.36 0 C51.55 0, 89.74 0, 178.45 0 M178.45 0 C187.36 0, 191.82 4.45, 191.82 13.36 M178.45 0 C187.36 0, 191.82 4.45, 191.82 13.36 M191.82 13.36 C191.82 21.45, 191.82 29.53, 191.82 40.09 M191.82 13.36 C191.82 22.33, 191.82 31.29, 191.82 40.09 M191.82 40.09 C191.82 49, 187.36 53.46, 178.45 53.46 M191.82 40.09 C191.82 49, 187.36 53.46, 178.45 53.46 M178.45 53.46 C118.04 53.46, 57.62 53.46, 13.36 53.46 M178.45 53.46 C117.94 53.46, 57.43 53.46, 13.36 53.46 M13.36 53.46 C4.45 53.46, 0 49, 0 40.09 M13.36 53.46 C4.45 53.46, 0 49, 0 40.09 M0 40.09 C0 31.18, 0 22.26, 0 13.36 M0 40.09 C0 33.43, 0 26.77, 0 13.36 M0 13.36 C0 4.45, 4.45 0, 13.36 0 M0 13.36 C0 4.45, 4.45 0, 13.36 0" stroke="#000000" stroke-width="2" fill="none"></path></g><g stroke-linecap="round" transform="translate(971.4557983219729 983.2538986089517) rotate(0 95.90887894512343 26.72763197994982)"><path d="M13.36 0 L178.45 0 L184.3 0.84 L186.6 1.88 L189.94 5.22 L191.61 10.23 L191.82 40.09 L190.98 45.94 L188.48 50.11 L186.6 51.58 L184.3 52.62 L178.45 53.46 L13.36 53.46 L7.52 52.62 L3.34 50.11 L0.84 45.94 L0.21 43.22 L0.21 10.23 L1.88 5.22 L5.22 1.88 L10.23 0.21 L13.36 0" stroke="none" stroke-width="0" fill="#15aabf"></path><path d="M13.36 0 M13.36 0 C62.45 0, 111.54 0, 178.45 0 M13.36 0 C74.39 0, 135.42 0, 178.45 0 M178.45 0 C187.36 0, 191.82 4.45, 191.82 13.36 M178.45 0 C187.36 0, 191.82 4.45, 191.82 13.36 M191.82 13.36 C191.82 20.94, 191.82 28.51, 191.82 40.09 M191.82 13.36 C191.82 19.64, 191.82 25.91, 191.82 40.09 M191.82 40.09 C191.82 49, 187.36 53.46, 178.45 53.46 M191.82 40.09 C191.82 49, 187.36 53.46, 178.45 53.46 M178.45 53.46 C120.5 53.46, 62.55 53.46, 13.36 53.46 M178.45 53.46 C144.72 53.46, 110.99 53.46, 13.36 53.46 M13.36 53.46 C4.45 53.46, 0 49, 0 40.09 M13.36 53.46 C4.45 53.46, 0 49, 0 40.09 M0 40.09 C0 34.56, 0 29.03, 0 13.36 M0 40.09 C0 30.17, 0 20.25, 0 13.36 M0 13.36 C0 4.45, 4.45 0, 13.36 0 M0 13.36 C0 4.45, 4.45 0, 13.36 0" stroke="#000000" stroke-width="2" fill="none"></path></g><g stroke-linecap="round" transform="translate(999.0977608363228 869.171342314844) rotate(0 5.402842559989949 5.4028425599894945)"><path d="M10.81 5.4 C10.81 5.72, 10.78 6.03, 10.72 6.34 C10.67 6.65, 10.59 6.96, 10.48 7.25 C10.37 7.54, 10.24 7.83, 10.08 8.1 C9.93 8.38, 9.74 8.64, 9.54 8.88 C9.34 9.12, 9.12 9.34, 8.88 9.54 C8.64 9.74, 8.38 9.93, 8.1 10.08 C7.83 10.24, 7.54 10.37, 7.25 10.48 C6.96 10.59, 6.65 10.67, 6.34 10.72 C6.03 10.78, 5.72 10.81, 5.4 10.81 C5.09 10.81, 4.77 10.78, 4.46 10.72 C4.16 10.67, 3.85 10.59, 3.55 10.48 C3.26 10.37, 2.97 10.24, 2.7 10.08 C2.43 9.93, 2.17 9.74, 1.93 9.54 C1.69 9.34, 1.47 9.12, 1.26 8.88 C1.06 8.64, 0.88 8.38, 0.72 8.1 C0.57 7.83, 0.43 7.54, 0.33 7.25 C0.22 6.96, 0.14 6.65, 0.08 6.34 C0.03 6.03, 0 5.72, 0 5.4 C0 5.09, 0.03 4.77, 0.08 4.46 C0.14 4.16, 0.22 3.85, 0.33 3.55 C0.43 3.26, 0.57 2.97, 0.72 2.7 C0.88 2.43, 1.06 2.17, 1.26 1.93 C1.47 1.69, 1.69 1.47, 1.93 1.26 C2.17 1.06, 2.43 0.88, 2.7 0.72 C2.97 0.57, 3.26 0.43, 3.55 0.33 C3.85 0.22, 4.16 0.14, 4.46 0.08 C4.77 0.03, 5.09 0, 5.4 0 C5.72 0, 6.03 0.03, 6.34 0.08 C6.65 0.14, 6.96 0.22, 7.25 0.33 C7.54 0.43, 7.83 0.57, 8.1 0.72 C8.38 0.88, 8.64 1.06, 8.88 1.26 C9.12 1.47, 9.34 1.69, 9.54 1.93 C9.74 2.17, 9.93 2.43, 10.08 2.7 C10.24 2.97, 10.37 3.26, 10.48 3.55 C10.59 3.85, 10.67 4.16, 10.72 4.46 C10.78 4.77, 10.79 5.25, 10.81 5.4 C10.82 5.56, 10.82 5.25, 10.81 5.4" stroke="none" stroke-width="0" fill="#4c6ef5"></path><path d="M10.81 5.4 C10.81 5.72, 10.78 6.03, 10.72 6.34 C10.67 6.65, 10.59 6.96, 10.48 7.25 C10.37 7.54, 10.24 7.83, 10.08 8.1 C9.93 8.38, 9.74 8.64, 9.54 8.88 C9.34 9.12, 9.12 9.34, 8.88 9.54 C8.64 9.74, 8.38 9.93, 8.1 10.08 C7.83 10.24, 7.54 10.37, 7.25 10.48 C6.96 10.59, 6.65 10.67, 6.34 10.72 C6.03 10.78, 5.72 10.81, 5.4 10.81 C5.09 10.81, 4.77 10.78, 4.46 10.72 C4.16 10.67, 3.85 10.59, 3.55 10.48 C3.26 10.37, 2.97 10.24, 2.7 10.08 C2.43 9.93, 2.17 9.74, 1.93 9.54 C1.69 9.34, 1.47 9.12, 1.26 8.88 C1.06 8.64, 0.88 8.38, 0.72 8.1 C0.57 7.83, 0.43 7.54, 0.33 7.25 C0.22 6.96, 0.14 6.65, 0.08 6.34 C0.03 6.03, 0 5.72, 0 5.4 C0 5.09, 0.03 4.77, 0.08 4.46 C0.14 4.16, 0.22 3.85, 0.33 3.55 C0.43 3.26, 0.57 2.97, 0.72 2.7 C0.88 2.43, 1.06 2.17, 1.26 1.93 C1.47 1.69, 1.69 1.47, 1.93 1.26 C2.17 1.06, 2.43 0.88, 2.7 0.72 C2.97 0.57, 3.26 0.43, 3.55 0.33 C3.85 0.22, 4.16 0.14, 4.46 0.08 C4.77 0.03, 5.09 0, 5.4 0 C5.72 0, 6.03 0.03, 6.34 0.08 C6.65 0.14, 6.96 0.22, 7.25 0.33 C7.54 0.43, 7.83 0.57, 8.1 0.72 C8.38 0.88, 8.64 1.06, 8.88 1.26 C9.12 1.47, 9.34 1.69, 9.54 1.93 C9.74 2.17, 9.93 2.43, 10.08 2.7 C10.24 2.97, 10.37 3.26, 10.48 3.55 C10.59 3.85, 10.67 4.16, 10.72 4.46 C10.78 4.77, 10.79 5.25, 10.81 5.4 C10.82 5.56, 10.82 5.25, 10.81 5.4" stroke="#000000" stroke-width="2" fill="none"></path></g><g stroke-linecap="round" transform="translate(999.0977608363228 939.171342314844) rotate(0 5.402842559989949 5.4028425599894945)"><path d="M10.81 5.4 C10.81 5.72, 10.78 6.03, 10.72 6.34 C10.67 6.65, 10.59 6.96, 10.48 7.25 C10.37 7.54, 10.24 7.83, 10.08 8.1 C9.93 8.38, 9.74 8.64, 9.54 8.88 C9.34 9.12, 9.12 9.34, 8.88 9.54 C8.64 9.74, 8.38 9.93, 8.1 10.08 C7.83 10.24, 7.54 10.37, 7.25 10.48 C6.96 10.59, 6.65 10.67, 6.34 10.72 C6.03 10.78, 5.72 10.81, 5.4 10.81 C5.09 10.81, 4.77 10.78, 4.46 10.72 C4.16 10.67, 3.85 10.59, 3.55 10.48 C3.26 10.37, 2.97 10.24, 2.7 10.08 C2.43 9.93, 2.17 9.74, 1.93 9.54 C1.69 9.34, 1.47 9.12, 1.26 8.88 C1.06 8.64, 0.88 8.38, 0.72 8.1 C0.57 7.83, 0.43 7.54, 0.33 7.25 C0.22 6.96, 0.14 6.65, 0.08 6.34 C0.03 6.03, 0 5.72, 0 5.4 C0 5.09, 0.03 4.77, 0.08 4.46 C0.14 4.16, 0.22 3.85, 0.33 3.55 C0.43 3.26, 0.57 2.97, 0.72 2.7 C0.88 2.43, 1.06 2.17, 1.26 1.93 C1.47 1.69, 1.69 1.47, 1.93 1.26 C2.17 1.06, 2.43 0.88, 2.7 0.72 C2.97 0.57, 3.26 0.43, 3.55 0.33 C3.85 0.22, 4.16 0.14, 4.46 0.08 C4.77 0.03, 5.09 0, 5.4 0 C5.72 0, 6.03 0.03, 6.34 0.08 C6.65 0.14, 6.96 0.22, 7.25 0.33 C7.54 0.43, 7.83 0.57, 8.1 0.72 C8.38 0.88, 8.64 1.06, 8.88 1.26 C9.12 1.47, 9.34 1.69, 9.54 1.93 C9.74 2.17, 9.93 2.43, 10.08 2.7 C10.24 2.97, 10.37 3.26, 10.48 3.55 C10.59 3.85, 10.67 4.16, 10.72 4.46 C10.78 4.77, 10.79 5.25, 10.81 5.4 C10.82 5.56, 10.82 5.25, 10.81 5.4" stroke="none" stroke-width="0" fill="#4c6ef5"></path><path d="M10.81 5.4 C10.81 5.72, 10.78 6.03, 10.72 6.34 C10.67 6.65, 10.59 6.96, 10.48 7.25 C10.37 7.54, 10.24 7.83, 10.08 8.1 C9.93 8.38, 9.74 8.64, 9.54 8.88 C9.34 9.12, 9.12 9.34, 8.88 9.54 C8.64 9.74, 8.38 9.93, 8.1 10.08 C7.83 10.24, 7.54 10.37, 7.25 10.48 C6.96 10.59, 6.65 10.67, 6.34 10.72 C6.03 10.78, 5.72 10.81, 5.4 10.81 C5.09 10.81, 4.77 10.78, 4.46 10.72 C4.16 10.67, 3.85 10.59, 3.55 10.48 C3.26 10.37, 2.97 10.24, 2.7 10.08 C2.43 9.93, 2.17 9.74, 1.93 9.54 C1.69 9.34, 1.47 9.12, 1.26 8.88 C1.06 8.64, 0.88 8.38, 0.72 8.1 C0.57 7.83, 0.43 7.54, 0.33 7.25 C0.22 6.96, 0.14 6.65, 0.08 6.34 C0.03 6.03, 0 5.72, 0 5.4 C0 5.09, 0.03 4.77, 0.08 4.46 C0.14 4.16, 0.22 3.85, 0.33 3.55 C0.43 3.26, 0.57 2.97, 0.72 2.7 C0.88 2.43, 1.06 2.17, 1.26 1.93 C1.47 1.69, 1.69 1.47, 1.93 1.26 C2.17 1.06, 2.43 0.88, 2.7 0.72 C2.97 0.57, 3.26 0.43, 3.55 0.33 C3.85 0.22, 4.16 0.14, 4.46 0.08 C4.77 0.03, 5.09 0, 5.4 0 C5.72 0, 6.03 0.03, 6.34 0.08 C6.65 0.14, 6.96 0.22, 7.25 0.33 C7.54 0.43, 7.83 0.57, 8.1 0.72 C8.38 0.88, 8.64 1.06, 8.88 1.26 C9.12 1.47, 9.34 1.69, 9.54 1.93 C9.74 2.17, 9.93 2.43, 10.08 2.7 C10.24 2.97, 10.37 3.26, 10.48 3.55 C10.59 3.85, 10.67 4.16, 10.72 4.46 C10.78 4.77, 10.79 5.25, 10.81 5.4 C10.82 5.56, 10.82 5.25, 10.81 5.4" stroke="#000000" stroke-width="2" fill="none"></path></g><g stroke-linecap="round" transform="translate(999.0977608363228 1004.1713423148444) rotate(0 5.402842559989949 5.4028425599894945)"><path d="M10.81 5.4 C10.81 5.72, 10.78 6.03, 10.72 6.34 C10.67 6.65, 10.59 6.96, 10.48 7.25 C10.37 7.54, 10.24 7.83, 10.08 8.1 C9.93 8.38, 9.74 8.64, 9.54 8.88 C9.34 9.12, 9.12 9.34, 8.88 9.54 C8.64 9.74, 8.38 9.93, 8.1 10.08 C7.83 10.24, 7.54 10.37, 7.25 10.48 C6.96 10.59, 6.65 10.67, 6.34 10.72 C6.03 10.78, 5.72 10.81, 5.4 10.81 C5.09 10.81, 4.77 10.78, 4.46 10.72 C4.16 10.67, 3.85 10.59, 3.55 10.48 C3.26 10.37, 2.97 10.24, 2.7 10.08 C2.43 9.93, 2.17 9.74, 1.93 9.54 C1.69 9.34, 1.47 9.12, 1.26 8.88 C1.06 8.64, 0.88 8.38, 0.72 8.1 C0.57 7.83, 0.43 7.54, 0.33 7.25 C0.22 6.96, 0.14 6.65, 0.08 6.34 C0.03 6.03, 0 5.72, 0 5.4 C0 5.09, 0.03 4.77, 0.08 4.46 C0.14 4.16, 0.22 3.85, 0.33 3.55 C0.43 3.26, 0.57 2.97, 0.72 2.7 C0.88 2.43, 1.06 2.17, 1.26 1.93 C1.47 1.69, 1.69 1.47, 1.93 1.26 C2.17 1.06, 2.43 0.88, 2.7 0.72 C2.97 0.57, 3.26 0.43, 3.55 0.33 C3.85 0.22, 4.16 0.14, 4.46 0.08 C4.77 0.03, 5.09 0, 5.4 0 C5.72 0, 6.03 0.03, 6.34 0.08 C6.65 0.14, 6.96 0.22, 7.25 0.33 C7.54 0.43, 7.83 0.57, 8.1 0.72 C8.38 0.88, 8.64 1.06, 8.88 1.26 C9.12 1.47, 9.34 1.69, 9.54 1.93 C9.74 2.17, 9.93 2.43, 10.08 2.7 C10.24 2.97, 10.37 3.26, 10.48 3.55 C10.59 3.85, 10.67 4.16, 10.72 4.46 C10.78 4.77, 10.79 5.25, 10.81 5.4 C10.82 5.56, 10.82 5.25, 10.81 5.4" stroke="none" stroke-width="0" fill="#4c6ef5"></path><path d="M10.81 5.4 C10.81 5.72, 10.78 6.03, 10.72 6.34 C10.67 6.65, 10.59 6.96, 10.48 7.25 C10.37 7.54, 10.24 7.83, 10.08 8.1 C9.93 8.38, 9.74 8.64, 9.54 8.88 C9.34 9.12, 9.12 9.34, 8.88 9.54 C8.64 9.74, 8.38 9.93, 8.1 10.08 C7.83 10.24, 7.54 10.37, 7.25 10.48 C6.96 10.59, 6.65 10.67, 6.34 10.72 C6.03 10.78, 5.72 10.81, 5.4 10.81 C5.09 10.81, 4.77 10.78, 4.46 10.72 C4.16 10.67, 3.85 10.59, 3.55 10.48 C3.26 10.37, 2.97 10.24, 2.7 10.08 C2.43 9.93, 2.17 9.74, 1.93 9.54 C1.69 9.34, 1.47 9.12, 1.26 8.88 C1.06 8.64, 0.88 8.38, 0.72 8.1 C0.57 7.83, 0.43 7.54, 0.33 7.25 C0.22 6.96, 0.14 6.65, 0.08 6.34 C0.03 6.03, 0 5.72, 0 5.4 C0 5.09, 0.03 4.77, 0.08 4.46 C0.14 4.16, 0.22 3.85, 0.33 3.55 C0.43 3.26, 0.57 2.97, 0.72 2.7 C0.88 2.43, 1.06 2.17, 1.26 1.93 C1.47 1.69, 1.69 1.47, 1.93 1.26 C2.17 1.06, 2.43 0.88, 2.7 0.72 C2.97 0.57, 3.26 0.43, 3.55 0.33 C3.85 0.22, 4.16 0.14, 4.46 0.08 C4.77 0.03, 5.09 0, 5.4 0 C5.72 0, 6.03 0.03, 6.34 0.08 C6.65 0.14, 6.96 0.22, 7.25 0.33 C7.54 0.43, 7.83 0.57, 8.1 0.72 C8.38 0.88, 8.64 1.06, 8.88 1.26 C9.12 1.47, 9.34 1.69, 9.54 1.93 C9.74 2.17, 9.93 2.43, 10.08 2.7 C10.24 2.97, 10.37 3.26, 10.48 3.55 C10.59 3.85, 10.67 4.16, 10.72 4.46 C10.78 4.77, 10.79 5.25, 10.81 5.4 C10.82 5.56, 10.82 5.25, 10.81 5.4" stroke="#000000" stroke-width="2" fill="none"></path></g><g stroke-linecap="round" transform="translate(1019.0977608363228 869.171342314844) rotate(0 5.402842559989949 5.4028425599894945)"><path d="M10.81 5.4 C10.81 5.72, 10.78 6.03, 10.72 6.34 C10.67 6.65, 10.59 6.96, 10.48 7.25 C10.37 7.54, 10.24 7.83, 10.08 8.1 C9.93 8.38, 9.74 8.64, 9.54 8.88 C9.34 9.12, 9.12 9.34, 8.88 9.54 C8.64 9.74, 8.38 9.93, 8.1 10.08 C7.83 10.24, 7.54 10.37, 7.25 10.48 C6.96 10.59, 6.65 10.67, 6.34 10.72 C6.03 10.78, 5.72 10.81, 5.4 10.81 C5.09 10.81, 4.77 10.78, 4.46 10.72 C4.16 10.67, 3.85 10.59, 3.55 10.48 C3.26 10.37, 2.97 10.24, 2.7 10.08 C2.43 9.93, 2.17 9.74, 1.93 9.54 C1.69 9.34, 1.47 9.12, 1.26 8.88 C1.06 8.64, 0.88 8.38, 0.72 8.1 C0.57 7.83, 0.43 7.54, 0.33 7.25 C0.22 6.96, 0.14 6.65, 0.08 6.34 C0.03 6.03, 0 5.72, 0 5.4 C0 5.09, 0.03 4.77, 0.08 4.46 C0.14 4.16, 0.22 3.85, 0.33 3.55 C0.43 3.26, 0.57 2.97, 0.72 2.7 C0.88 2.43, 1.06 2.17, 1.26 1.93 C1.47 1.69, 1.69 1.47, 1.93 1.26 C2.17 1.06, 2.43 0.88, 2.7 0.72 C2.97 0.57, 3.26 0.43, 3.55 0.33 C3.85 0.22, 4.16 0.14, 4.46 0.08 C4.77 0.03, 5.09 0, 5.4 0 C5.72 0, 6.03 0.03, 6.34 0.08 C6.65 0.14, 6.96 0.22, 7.25 0.33 C7.54 0.43, 7.83 0.57, 8.1 0.72 C8.38 0.88, 8.64 1.06, 8.88 1.26 C9.12 1.47, 9.34 1.69, 9.54 1.93 C9.74 2.17, 9.93 2.43, 10.08 2.7 C10.24 2.97, 10.37 3.26, 10.48 3.55 C10.59 3.85, 10.67 4.16, 10.72 4.46 C10.78 4.77, 10.79 5.25, 10.81 5.4 C10.82 5.56, 10.82 5.25, 10.81 5.4" stroke="none" stroke-width="0" fill="#4c6ef5"></path><path d="M10.81 5.4 C10.81 5.72, 10.78 6.03, 10.72 6.34 C10.67 6.65, 10.59 6.96, 10.48 7.25 C10.37 7.54, 10.24 7.83, 10.08 8.1 C9.93 8.38, 9.74 8.64, 9.54 8.88 C9.34 9.12, 9.12 9.34, 8.88 9.54 C8.64 9.74, 8.38 9.93, 8.1 10.08 C7.83 10.24, 7.54 10.37, 7.25 10.48 C6.96 10.59, 6.65 10.67, 6.34 10.72 C6.03 10.78, 5.72 10.81, 5.4 10.81 C5.09 10.81, 4.77 10.78, 4.46 10.72 C4.16 10.67, 3.85 10.59, 3.55 10.48 C3.26 10.37, 2.97 10.24, 2.7 10.08 C2.43 9.93, 2.17 9.74, 1.93 9.54 C1.69 9.34, 1.47 9.12, 1.26 8.88 C1.06 8.64, 0.88 8.38, 0.72 8.1 C0.57 7.83, 0.43 7.54, 0.33 7.25 C0.22 6.96, 0.14 6.65, 0.08 6.34 C0.03 6.03, 0 5.72, 0 5.4 C0 5.09, 0.03 4.77, 0.08 4.46 C0.14 4.16, 0.22 3.85, 0.33 3.55 C0.43 3.26, 0.57 2.97, 0.72 2.7 C0.88 2.43, 1.06 2.17, 1.26 1.93 C1.47 1.69, 1.69 1.47, 1.93 1.26 C2.17 1.06, 2.43 0.88, 2.7 0.72 C2.97 0.57, 3.26 0.43, 3.55 0.33 C3.85 0.22, 4.16 0.14, 4.46 0.08 C4.77 0.03, 5.09 0, 5.4 0 C5.72 0, 6.03 0.03, 6.34 0.08 C6.65 0.14, 6.96 0.22, 7.25 0.33 C7.54 0.43, 7.83 0.57, 8.1 0.72 C8.38 0.88, 8.64 1.06, 8.88 1.26 C9.12 1.47, 9.34 1.69, 9.54 1.93 C9.74 2.17, 9.93 2.43, 10.08 2.7 C10.24 2.97, 10.37 3.26, 10.48 3.55 C10.59 3.85, 10.67 4.16, 10.72 4.46 C10.78 4.77, 10.79 5.25, 10.81 5.4 C10.82 5.56, 10.82 5.25, 10.81 5.4" stroke="#000000" stroke-width="2" fill="none"></path></g><g stroke-linecap="round" transform="translate(1019.0977608363228 939.171342314844) rotate(0 5.402842559989949 5.4028425599894945)"><path d="M10.81 5.4 C10.81 5.72, 10.78 6.03, 10.72 6.34 C10.67 6.65, 10.59 6.96, 10.48 7.25 C10.37 7.54, 10.24 7.83, 10.08 8.1 C9.93 8.38, 9.74 8.64, 9.54 8.88 C9.34 9.12, 9.12 9.34, 8.88 9.54 C8.64 9.74, 8.38 9.93, 8.1 10.08 C7.83 10.24, 7.54 10.37, 7.25 10.48 C6.96 10.59, 6.65 10.67, 6.34 10.72 C6.03 10.78, 5.72 10.81, 5.4 10.81 C5.09 10.81, 4.77 10.78, 4.46 10.72 C4.16 10.67, 3.85 10.59, 3.55 10.48 C3.26 10.37, 2.97 10.24, 2.7 10.08 C2.43 9.93, 2.17 9.74, 1.93 9.54 C1.69 9.34, 1.47 9.12, 1.26 8.88 C1.06 8.64, 0.88 8.38, 0.72 8.1 C0.57 7.83, 0.43 7.54, 0.33 7.25 C0.22 6.96, 0.14 6.65, 0.08 6.34 C0.03 6.03, 0 5.72, 0 5.4 C0 5.09, 0.03 4.77, 0.08 4.46 C0.14 4.16, 0.22 3.85, 0.33 3.55 C0.43 3.26, 0.57 2.97, 0.72 2.7 C0.88 2.43, 1.06 2.17, 1.26 1.93 C1.47 1.69, 1.69 1.47, 1.93 1.26 C2.17 1.06, 2.43 0.88, 2.7 0.72 C2.97 0.57, 3.26 0.43, 3.55 0.33 C3.85 0.22, 4.16 0.14, 4.46 0.08 C4.77 0.03, 5.09 0, 5.4 0 C5.72 0, 6.03 0.03, 6.34 0.08 C6.65 0.14, 6.96 0.22, 7.25 0.33 C7.54 0.43, 7.83 0.57, 8.1 0.72 C8.38 0.88, 8.64 1.06, 8.88 1.26 C9.12 1.47, 9.34 1.69, 9.54 1.93 C9.74 2.17, 9.93 2.43, 10.08 2.7 C10.24 2.97, 10.37 3.26, 10.48 3.55 C10.59 3.85, 10.67 4.16, 10.72 4.46 C10.78 4.77, 10.79 5.25, 10.81 5.4 C10.82 5.56, 10.82 5.25, 10.81 5.4" stroke="none" stroke-width="0" fill="#4c6ef5"></path><path d="M10.81 5.4 C10.81 5.72, 10.78 6.03, 10.72 6.34 C10.67 6.65, 10.59 6.96, 10.48 7.25 C10.37 7.54, 10.24 7.83, 10.08 8.1 C9.93 8.38, 9.74 8.64, 9.54 8.88 C9.34 9.12, 9.12 9.34, 8.88 9.54 C8.64 9.74, 8.38 9.93, 8.1 10.08 C7.83 10.24, 7.54 10.37, 7.25 10.48 C6.96 10.59, 6.65 10.67, 6.34 10.72 C6.03 10.78, 5.72 10.81, 5.4 10.81 C5.09 10.81, 4.77 10.78, 4.46 10.72 C4.16 10.67, 3.85 10.59, 3.55 10.48 C3.26 10.37, 2.97 10.24, 2.7 10.08 C2.43 9.93, 2.17 9.74, 1.93 9.54 C1.69 9.34, 1.47 9.12, 1.26 8.88 C1.06 8.64, 0.88 8.38, 0.72 8.1 C0.57 7.83, 0.43 7.54, 0.33 7.25 C0.22 6.96, 0.14 6.65, 0.08 6.34 C0.03 6.03, 0 5.72, 0 5.4 C0 5.09, 0.03 4.77, 0.08 4.46 C0.14 4.16, 0.22 3.85, 0.33 3.55 C0.43 3.26, 0.57 2.97, 0.72 2.7 C0.88 2.43, 1.06 2.17, 1.26 1.93 C1.47 1.69, 1.69 1.47, 1.93 1.26 C2.17 1.06, 2.43 0.88, 2.7 0.72 C2.97 0.57, 3.26 0.43, 3.55 0.33 C3.85 0.22, 4.16 0.14, 4.46 0.08 C4.77 0.03, 5.09 0, 5.4 0 C5.72 0, 6.03 0.03, 6.34 0.08 C6.65 0.14, 6.96 0.22, 7.25 0.33 C7.54 0.43, 7.83 0.57, 8.1 0.72 C8.38 0.88, 8.64 1.06, 8.88 1.26 C9.12 1.47, 9.34 1.69, 9.54 1.93 C9.74 2.17, 9.93 2.43, 10.08 2.7 C10.24 2.97, 10.37 3.26, 10.48 3.55 C10.59 3.85, 10.67 4.16, 10.72 4.46 C10.78 4.77, 10.79 5.25, 10.81 5.4 C10.82 5.56, 10.82 5.25, 10.81 5.4" stroke="#000000" stroke-width="2" fill="none"></path></g><g stroke-linecap="round" transform="translate(1019.0977608363228 1004.1713423148444) rotate(0 5.402842559989949 5.4028425599894945)"><path d="M10.81 5.4 C10.81 5.72, 10.78 6.03, 10.72 6.34 C10.67 6.65, 10.59 6.96, 10.48 7.25 C10.37 7.54, 10.24 7.83, 10.08 8.1 C9.93 8.38, 9.74 8.64, 9.54 8.88 C9.34 9.12, 9.12 9.34, 8.88 9.54 C8.64 9.74, 8.38 9.93, 8.1 10.08 C7.83 10.24, 7.54 10.37, 7.25 10.48 C6.96 10.59, 6.65 10.67, 6.34 10.72 C6.03 10.78, 5.72 10.81, 5.4 10.81 C5.09 10.81, 4.77 10.78, 4.46 10.72 C4.16 10.67, 3.85 10.59, 3.55 10.48 C3.26 10.37, 2.97 10.24, 2.7 10.08 C2.43 9.93, 2.17 9.74, 1.93 9.54 C1.69 9.34, 1.47 9.12, 1.26 8.88 C1.06 8.64, 0.88 8.38, 0.72 8.1 C0.57 7.83, 0.43 7.54, 0.33 7.25 C0.22 6.96, 0.14 6.65, 0.08 6.34 C0.03 6.03, 0 5.72, 0 5.4 C0 5.09, 0.03 4.77, 0.08 4.46 C0.14 4.16, 0.22 3.85, 0.33 3.55 C0.43 3.26, 0.57 2.97, 0.72 2.7 C0.88 2.43, 1.06 2.17, 1.26 1.93 C1.47 1.69, 1.69 1.47, 1.93 1.26 C2.17 1.06, 2.43 0.88, 2.7 0.72 C2.97 0.57, 3.26 0.43, 3.55 0.33 C3.85 0.22, 4.16 0.14, 4.46 0.08 C4.77 0.03, 5.09 0, 5.4 0 C5.72 0, 6.03 0.03, 6.34 0.08 C6.65 0.14, 6.96 0.22, 7.25 0.33 C7.54 0.43, 7.83 0.57, 8.1 0.72 C8.38 0.88, 8.64 1.06, 8.88 1.26 C9.12 1.47, 9.34 1.69, 9.54 1.93 C9.74 2.17, 9.93 2.43, 10.08 2.7 C10.24 2.97, 10.37 3.26, 10.48 3.55 C10.59 3.85, 10.67 4.16, 10.72 4.46 C10.78 4.77, 10.79 5.25, 10.81 5.4 C10.82 5.56, 10.82 5.25, 10.81 5.4" stroke="none" stroke-width="0" fill="#4c6ef5"></path><path d="M10.81 5.4 C10.81 5.72, 10.78 6.03, 10.72 6.34 C10.67 6.65, 10.59 6.96, 10.48 7.25 C10.37 7.54, 10.24 7.83, 10.08 8.1 C9.93 8.38, 9.74 8.64, 9.54 8.88 C9.34 9.12, 9.12 9.34, 8.88 9.54 C8.64 9.74, 8.38 9.93, 8.1 10.08 C7.83 10.24, 7.54 10.37, 7.25 10.48 C6.96 10.59, 6.65 10.67, 6.34 10.72 C6.03 10.78, 5.72 10.81, 5.4 10.81 C5.09 10.81, 4.77 10.78, 4.46 10.72 C4.16 10.67, 3.85 10.59, 3.55 10.48 C3.26 10.37, 2.97 10.24, 2.7 10.08 C2.43 9.93, 2.17 9.74, 1.93 9.54 C1.69 9.34, 1.47 9.12, 1.26 8.88 C1.06 8.64, 0.88 8.38, 0.72 8.1 C0.57 7.83, 0.43 7.54, 0.33 7.25 C0.22 6.96, 0.14 6.65, 0.08 6.34 C0.03 6.03, 0 5.72, 0 5.4 C0 5.09, 0.03 4.77, 0.08 4.46 C0.14 4.16, 0.22 3.85, 0.33 3.55 C0.43 3.26, 0.57 2.97, 0.72 2.7 C0.88 2.43, 1.06 2.17, 1.26 1.93 C1.47 1.69, 1.69 1.47, 1.93 1.26 C2.17 1.06, 2.43 0.88, 2.7 0.72 C2.97 0.57, 3.26 0.43, 3.55 0.33 C3.85 0.22, 4.16 0.14, 4.46 0.08 C4.77 0.03, 5.09 0, 5.4 0 C5.72 0, 6.03 0.03, 6.34 0.08 C6.65 0.14, 6.96 0.22, 7.25 0.33 C7.54 0.43, 7.83 0.57, 8.1 0.72 C8.38 0.88, 8.64 1.06, 8.88 1.26 C9.12 1.47, 9.34 1.69, 9.54 1.93 C9.74 2.17, 9.93 2.43, 10.08 2.7 C10.24 2.97, 10.37 3.26, 10.48 3.55 C10.59 3.85, 10.67 4.16, 10.72 4.46 C10.78 4.77, 10.79 5.25, 10.81 5.4 C10.82 5.56, 10.82 5.25, 10.81 5.4" stroke="#000000" stroke-width="2" fill="none"></path></g><g stroke-linecap="round" transform="translate(1039.0977608363228 869.171342314844) rotate(0 5.402842559989949 5.4028425599894945)"><path d="M10.81 5.4 C10.81 5.72, 10.78 6.03, 10.72 6.34 C10.67 6.65, 10.59 6.96, 10.48 7.25 C10.37 7.54, 10.24 7.83, 10.08 8.1 C9.93 8.38, 9.74 8.64, 9.54 8.88 C9.34 9.12, 9.12 9.34, 8.88 9.54 C8.64 9.74, 8.38 9.93, 8.1 10.08 C7.83 10.24, 7.54 10.37, 7.25 10.48 C6.96 10.59, 6.65 10.67, 6.34 10.72 C6.03 10.78, 5.72 10.81, 5.4 10.81 C5.09 10.81, 4.77 10.78, 4.46 10.72 C4.16 10.67, 3.85 10.59, 3.55 10.48 C3.26 10.37, 2.97 10.24, 2.7 10.08 C2.43 9.93, 2.17 9.74, 1.93 9.54 C1.69 9.34, 1.47 9.12, 1.26 8.88 C1.06 8.64, 0.88 8.38, 0.72 8.1 C0.57 7.83, 0.43 7.54, 0.33 7.25 C0.22 6.96, 0.14 6.65, 0.08 6.34 C0.03 6.03, 0 5.72, 0 5.4 C0 5.09, 0.03 4.77, 0.08 4.46 C0.14 4.16, 0.22 3.85, 0.33 3.55 C0.43 3.26, 0.57 2.97, 0.72 2.7 C0.88 2.43, 1.06 2.17, 1.26 1.93 C1.47 1.69, 1.69 1.47, 1.93 1.26 C2.17 1.06, 2.43 0.88, 2.7 0.72 C2.97 0.57, 3.26 0.43, 3.55 0.33 C3.85 0.22, 4.16 0.14, 4.46 0.08 C4.77 0.03, 5.09 0, 5.4 0 C5.72 0, 6.03 0.03, 6.34 0.08 C6.65 0.14, 6.96 0.22, 7.25 0.33 C7.54 0.43, 7.83 0.57, 8.1 0.72 C8.38 0.88, 8.64 1.06, 8.88 1.26 C9.12 1.47, 9.34 1.69, 9.54 1.93 C9.74 2.17, 9.93 2.43, 10.08 2.7 C10.24 2.97, 10.37 3.26, 10.48 3.55 C10.59 3.85, 10.67 4.16, 10.72 4.46 C10.78 4.77, 10.79 5.25, 10.81 5.4 C10.82 5.56, 10.82 5.25, 10.81 5.4" stroke="none" stroke-width="0" fill="#4c6ef5"></path><path d="M10.81 5.4 C10.81 5.72, 10.78 6.03, 10.72 6.34 C10.67 6.65, 10.59 6.96, 10.48 7.25 C10.37 7.54, 10.24 7.83, 10.08 8.1 C9.93 8.38, 9.74 8.64, 9.54 8.88 C9.34 9.12, 9.12 9.34, 8.88 9.54 C8.64 9.74, 8.38 9.93, 8.1 10.08 C7.83 10.24, 7.54 10.37, 7.25 10.48 C6.96 10.59, 6.65 10.67, 6.34 10.72 C6.03 10.78, 5.72 10.81, 5.4 10.81 C5.09 10.81, 4.77 10.78, 4.46 10.72 C4.16 10.67, 3.85 10.59, 3.55 10.48 C3.26 10.37, 2.97 10.24, 2.7 10.08 C2.43 9.93, 2.17 9.74, 1.93 9.54 C1.69 9.34, 1.47 9.12, 1.26 8.88 C1.06 8.64, 0.88 8.38, 0.72 8.1 C0.57 7.83, 0.43 7.54, 0.33 7.25 C0.22 6.96, 0.14 6.65, 0.08 6.34 C0.03 6.03, 0 5.72, 0 5.4 C0 5.09, 0.03 4.77, 0.08 4.46 C0.14 4.16, 0.22 3.85, 0.33 3.55 C0.43 3.26, 0.57 2.97, 0.72 2.7 C0.88 2.43, 1.06 2.17, 1.26 1.93 C1.47 1.69, 1.69 1.47, 1.93 1.26 C2.17 1.06, 2.43 0.88, 2.7 0.72 C2.97 0.57, 3.26 0.43, 3.55 0.33 C3.85 0.22, 4.16 0.14, 4.46 0.08 C4.77 0.03, 5.09 0, 5.4 0 C5.72 0, 6.03 0.03, 6.34 0.08 C6.65 0.14, 6.96 0.22, 7.25 0.33 C7.54 0.43, 7.83 0.57, 8.1 0.72 C8.38 0.88, 8.64 1.06, 8.88 1.26 C9.12 1.47, 9.34 1.69, 9.54 1.93 C9.74 2.17, 9.93 2.43, 10.08 2.7 C10.24 2.97, 10.37 3.26, 10.48 3.55 C10.59 3.85, 10.67 4.16, 10.72 4.46 C10.78 4.77, 10.79 5.25, 10.81 5.4 C10.82 5.56, 10.82 5.25, 10.81 5.4" stroke="#000000" stroke-width="2" fill="none"></path></g><g stroke-linecap="round" transform="translate(1039.0977608363228 939.171342314844) rotate(0 5.402842559989949 5.4028425599894945)"><path d="M10.81 5.4 C10.81 5.72, 10.78 6.03, 10.72 6.34 C10.67 6.65, 10.59 6.96, 10.48 7.25 C10.37 7.54, 10.24 7.83, 10.08 8.1 C9.93 8.38, 9.74 8.64, 9.54 8.88 C9.34 9.12, 9.12 9.34, 8.88 9.54 C8.64 9.74, 8.38 9.93, 8.1 10.08 C7.83 10.24, 7.54 10.37, 7.25 10.48 C6.96 10.59, 6.65 10.67, 6.34 10.72 C6.03 10.78, 5.72 10.81, 5.4 10.81 C5.09 10.81, 4.77 10.78, 4.46 10.72 C4.16 10.67, 3.85 10.59, 3.55 10.48 C3.26 10.37, 2.97 10.24, 2.7 10.08 C2.43 9.93, 2.17 9.74, 1.93 9.54 C1.69 9.34, 1.47 9.12, 1.26 8.88 C1.06 8.64, 0.88 8.38, 0.72 8.1 C0.57 7.83, 0.43 7.54, 0.33 7.25 C0.22 6.96, 0.14 6.65, 0.08 6.34 C0.03 6.03, 0 5.72, 0 5.4 C0 5.09, 0.03 4.77, 0.08 4.46 C0.14 4.16, 0.22 3.85, 0.33 3.55 C0.43 3.26, 0.57 2.97, 0.72 2.7 C0.88 2.43, 1.06 2.17, 1.26 1.93 C1.47 1.69, 1.69 1.47, 1.93 1.26 C2.17 1.06, 2.43 0.88, 2.7 0.72 C2.97 0.57, 3.26 0.43, 3.55 0.33 C3.85 0.22, 4.16 0.14, 4.46 0.08 C4.77 0.03, 5.09 0, 5.4 0 C5.72 0, 6.03 0.03, 6.34 0.08 C6.65 0.14, 6.96 0.22, 7.25 0.33 C7.54 0.43, 7.83 0.57, 8.1 0.72 C8.38 0.88, 8.64 1.06, 8.88 1.26 C9.12 1.47, 9.34 1.69, 9.54 1.93 C9.74 2.17, 9.93 2.43, 10.08 2.7 C10.24 2.97, 10.37 3.26, 10.48 3.55 C10.59 3.85, 10.67 4.16, 10.72 4.46 C10.78 4.77, 10.79 5.25, 10.81 5.4 C10.82 5.56, 10.82 5.25, 10.81 5.4" stroke="none" stroke-width="0" fill="#4c6ef5"></path><path d="M10.81 5.4 C10.81 5.72, 10.78 6.03, 10.72 6.34 C10.67 6.65, 10.59 6.96, 10.48 7.25 C10.37 7.54, 10.24 7.83, 10.08 8.1 C9.93 8.38, 9.74 8.64, 9.54 8.88 C9.34 9.12, 9.12 9.34, 8.88 9.54 C8.64 9.74, 8.38 9.93, 8.1 10.08 C7.83 10.24, 7.54 10.37, 7.25 10.48 C6.96 10.59, 6.65 10.67, 6.34 10.72 C6.03 10.78, 5.72 10.81, 5.4 10.81 C5.09 10.81, 4.77 10.78, 4.46 10.72 C4.16 10.67, 3.85 10.59, 3.55 10.48 C3.26 10.37, 2.97 10.24, 2.7 10.08 C2.43 9.93, 2.17 9.74, 1.93 9.54 C1.69 9.34, 1.47 9.12, 1.26 8.88 C1.06 8.64, 0.88 8.38, 0.72 8.1 C0.57 7.83, 0.43 7.54, 0.33 7.25 C0.22 6.96, 0.14 6.65, 0.08 6.34 C0.03 6.03, 0 5.72, 0 5.4 C0 5.09, 0.03 4.77, 0.08 4.46 C0.14 4.16, 0.22 3.85, 0.33 3.55 C0.43 3.26, 0.57 2.97, 0.72 2.7 C0.88 2.43, 1.06 2.17, 1.26 1.93 C1.47 1.69, 1.69 1.47, 1.93 1.26 C2.17 1.06, 2.43 0.88, 2.7 0.72 C2.97 0.57, 3.26 0.43, 3.55 0.33 C3.85 0.22, 4.16 0.14, 4.46 0.08 C4.77 0.03, 5.09 0, 5.4 0 C5.72 0, 6.03 0.03, 6.34 0.08 C6.65 0.14, 6.96 0.22, 7.25 0.33 C7.54 0.43, 7.83 0.57, 8.1 0.72 C8.38 0.88, 8.64 1.06, 8.88 1.26 C9.12 1.47, 9.34 1.69, 9.54 1.93 C9.74 2.17, 9.93 2.43, 10.08 2.7 C10.24 2.97, 10.37 3.26, 10.48 3.55 C10.59 3.85, 10.67 4.16, 10.72 4.46 C10.78 4.77, 10.79 5.25, 10.81 5.4 C10.82 5.56, 10.82 5.25, 10.81 5.4" stroke="#000000" stroke-width="2" fill="none"></path></g><g stroke-linecap="round" transform="translate(1039.0977608363228 1004.1713423148444) rotate(0 5.402842559989949 5.4028425599894945)"><path d="M10.81 5.4 C10.81 5.72, 10.78 6.03, 10.72 6.34 C10.67 6.65, 10.59 6.96, 10.48 7.25 C10.37 7.54, 10.24 7.83, 10.08 8.1 C9.93 8.38, 9.74 8.64, 9.54 8.88 C9.34 9.12, 9.12 9.34, 8.88 9.54 C8.64 9.74, 8.38 9.93, 8.1 10.08 C7.83 10.24, 7.54 10.37, 7.25 10.48 C6.96 10.59, 6.65 10.67, 6.34 10.72 C6.03 10.78, 5.72 10.81, 5.4 10.81 C5.09 10.81, 4.77 10.78, 4.46 10.72 C4.16 10.67, 3.85 10.59, 3.55 10.48 C3.26 10.37, 2.97 10.24, 2.7 10.08 C2.43 9.93, 2.17 9.74, 1.93 9.54 C1.69 9.34, 1.47 9.12, 1.26 8.88 C1.06 8.64, 0.88 8.38, 0.72 8.1 C0.57 7.83, 0.43 7.54, 0.33 7.25 C0.22 6.96, 0.14 6.65, 0.08 6.34 C0.03 6.03, 0 5.72, 0 5.4 C0 5.09, 0.03 4.77, 0.08 4.46 C0.14 4.16, 0.22 3.85, 0.33 3.55 C0.43 3.26, 0.57 2.97, 0.72 2.7 C0.88 2.43, 1.06 2.17, 1.26 1.93 C1.47 1.69, 1.69 1.47, 1.93 1.26 C2.17 1.06, 2.43 0.88, 2.7 0.72 C2.97 0.57, 3.26 0.43, 3.55 0.33 C3.85 0.22, 4.16 0.14, 4.46 0.08 C4.77 0.03, 5.09 0, 5.4 0 C5.72 0, 6.03 0.03, 6.34 0.08 C6.65 0.14, 6.96 0.22, 7.25 0.33 C7.54 0.43, 7.83 0.57, 8.1 0.72 C8.38 0.88, 8.64 1.06, 8.88 1.26 C9.12 1.47, 9.34 1.69, 9.54 1.93 C9.74 2.17, 9.93 2.43, 10.08 2.7 C10.24 2.97, 10.37 3.26, 10.48 3.55 C10.59 3.85, 10.67 4.16, 10.72 4.46 C10.78 4.77, 10.79 5.25, 10.81 5.4 C10.82 5.56, 10.82 5.25, 10.81 5.4" stroke="none" stroke-width="0" fill="#4c6ef5"></path><path d="M10.81 5.4 C10.81 5.72, 10.78 6.03, 10.72 6.34 C10.67 6.65, 10.59 6.96, 10.48 7.25 C10.37 7.54, 10.24 7.83, 10.08 8.1 C9.93 8.38, 9.74 8.64, 9.54 8.88 C9.34 9.12, 9.12 9.34, 8.88 9.54 C8.64 9.74, 8.38 9.93, 8.1 10.08 C7.83 10.24, 7.54 10.37, 7.25 10.48 C6.96 10.59, 6.65 10.67, 6.34 10.72 C6.03 10.78, 5.72 10.81, 5.4 10.81 C5.09 10.81, 4.77 10.78, 4.46 10.72 C4.16 10.67, 3.85 10.59, 3.55 10.48 C3.26 10.37, 2.97 10.24, 2.7 10.08 C2.43 9.93, 2.17 9.74, 1.93 9.54 C1.69 9.34, 1.47 9.12, 1.26 8.88 C1.06 8.64, 0.88 8.38, 0.72 8.1 C0.57 7.83, 0.43 7.54, 0.33 7.25 C0.22 6.96, 0.14 6.65, 0.08 6.34 C0.03 6.03, 0 5.72, 0 5.4 C0 5.09, 0.03 4.77, 0.08 4.46 C0.14 4.16, 0.22 3.85, 0.33 3.55 C0.43 3.26, 0.57 2.97, 0.72 2.7 C0.88 2.43, 1.06 2.17, 1.26 1.93 C1.47 1.69, 1.69 1.47, 1.93 1.26 C2.17 1.06, 2.43 0.88, 2.7 0.72 C2.97 0.57, 3.26 0.43, 3.55 0.33 C3.85 0.22, 4.16 0.14, 4.46 0.08 C4.77 0.03, 5.09 0, 5.4 0 C5.72 0, 6.03 0.03, 6.34 0.08 C6.65 0.14, 6.96 0.22, 7.25 0.33 C7.54 0.43, 7.83 0.57, 8.1 0.72 C8.38 0.88, 8.64 1.06, 8.88 1.26 C9.12 1.47, 9.34 1.69, 9.54 1.93 C9.74 2.17, 9.93 2.43, 10.08 2.7 C10.24 2.97, 10.37 3.26, 10.48 3.55 C10.59 3.85, 10.67 4.16, 10.72 4.46 C10.78 4.77, 10.79 5.25, 10.81 5.4 C10.82 5.56, 10.82 5.25, 10.81 5.4" stroke="#000000" stroke-width="2" fill="none"></path></g><g transform="translate(1011.445280964721 785.4856415224776) rotate(0 54.46666717529297 16.09999999999991)"><text x="0" y="0" font-family="Helvetica, Segoe UI Emoji" font-size="28px" fill="#000000" text-anchor="start" style="white-space: pre;" direction="ltr" dominant-baseline="text-before-edge">Backend</text></g><g stroke-linecap="round" transform="translate(951.2431255678493 1428.4722898985146) rotate(0 109.25748287978695 124.86569471975622)"><path d="M32 0 L194.01 0.5 L200.51 2 L206.01 4.5 L210.51 8 L214.01 12.5 L216.51 18 L218.01 24.5 L218.51 32 L218.51 217.73 L218.01 225.23 L216.51 231.73 L214.01 237.23 L210.51 241.73 L206.01 245.23 L200.51 247.73 L194.01 249.23 L186.51 249.73 L32 249.73 L24.5 249.23 L18 247.73 L12.5 245.23 L8 241.73 L4.5 237.23 L2 231.73 L0.5 225.23 L0 217.73 L0.5 24.5 L2 18 L4.5 12.5 L8 8 L12.5 4.5 L18 2 L24.5 0.5 L32 0" stroke="none" stroke-width="0" fill="#ced4da"></path><path d="M32 0 M32 0 C76.38 0, 120.77 0, 186.51 0 M32 0 C70.32 0, 108.64 0, 186.51 0 M186.51 0 C207.85 0, 218.51 10.67, 218.51 32 M186.51 0 C207.85 0, 218.51 10.67, 218.51 32 M218.51 32 C218.51 69.82, 218.51 107.63, 218.51 217.73 M218.51 32 C218.51 76.27, 218.51 120.55, 218.51 217.73 M218.51 217.73 C218.51 239.06, 207.85 249.73, 186.51 249.73 M218.51 217.73 C218.51 239.06, 207.85 249.73, 186.51 249.73 M186.51 249.73 C132.13 249.73, 77.74 249.73, 32 249.73 M186.51 249.73 C130.58 249.73, 74.65 249.73, 32 249.73 M32 249.73 C10.67 249.73, 0 239.06, 0 217.73 M32 249.73 C10.67 249.73, 0 239.06, 0 217.73 M0 217.73 C0 146.31, 0 74.88, 0 32 M0 217.73 C0 154.69, 0 91.64, 0 32 M0 32 C0 10.67, 10.67 0, 32 0 M0 32 C0 10.67, 10.67 0, 32 0" stroke="#000000" stroke-width="2" fill="none"></path></g><g stroke-linecap="round" transform="translate(963.733767621663 1443.5737965925518) rotate(0 95.90887894512343 26.72763197994982)"><path d="M13.36 0 L178.45 0 L184.3 0.84 L186.6 1.88 L189.94 5.22 L191.61 10.23 L191.82 40.09 L190.98 45.94 L188.48 50.11 L186.6 51.58 L184.3 52.62 L178.45 53.46 L13.36 53.46 L7.52 52.62 L3.34 50.11 L0.84 45.94 L0.21 43.22 L0.21 10.23 L1.88 5.22 L5.22 1.88 L10.23 0.21 L13.36 0" stroke="none" stroke-width="0" fill="#ced4da"></path><path d="M13.36 0 M13.36 0 C54.24 0, 95.11 0, 178.45 0 M13.36 0 C76.4 0, 139.44 0, 178.45 0 M178.45 0 C187.36 0, 191.82 4.45, 191.82 13.36 M178.45 0 C187.36 0, 191.82 4.45, 191.82 13.36 M191.82 13.36 C191.82 18.77, 191.82 24.17, 191.82 40.09 M191.82 13.36 C191.82 23.32, 191.82 33.28, 191.82 40.09 M191.82 40.09 C191.82 49, 187.36 53.46, 178.45 53.46 M191.82 40.09 C191.82 49, 187.36 53.46, 178.45 53.46 M178.45 53.46 C129.19 53.46, 79.92 53.46, 13.36 53.46 M178.45 53.46 C136.54 53.46, 94.63 53.46, 13.36 53.46 M13.36 53.46 C4.45 53.46, 0 49, 0 40.09 M13.36 53.46 C4.45 53.46, 0 49, 0 40.09 M0 40.09 C0 33.81, 0 27.54, 0 13.36 M0 40.09 C0 34.34, 0 28.58, 0 13.36 M0 13.36 C0 4.45, 4.45 0, 13.36 0 M0 13.36 C0 4.45, 4.45 0, 13.36 0" stroke="#000000" stroke-width="2" fill="none"></path></g><g stroke-linecap="round" transform="translate(963.733767621663 1512.5737965925518) rotate(0 95.90887894512343 26.72763197994982)"><path d="M13.36 0 L178.45 0 L184.3 0.84 L186.6 1.88 L189.94 5.22 L191.61 10.23 L191.82 40.09 L190.98 45.94 L188.48 50.11 L186.6 51.58 L184.3 52.62 L178.45 53.46 L13.36 53.46 L7.52 52.62 L3.34 50.11 L0.84 45.94 L0.21 43.22 L0.21 10.23 L1.88 5.22 L5.22 1.88 L10.23 0.21 L13.36 0" stroke="none" stroke-width="0" fill="#ced4da"></path><path d="M13.36 0 M13.36 0 C58.51 0, 103.65 0, 178.45 0 M13.36 0 C49.54 0, 85.71 0, 178.45 0 M178.45 0 C187.36 0, 191.82 4.45, 191.82 13.36 M178.45 0 C187.36 0, 191.82 4.45, 191.82 13.36 M191.82 13.36 C191.82 22.67, 191.82 31.97, 191.82 40.09 M191.82 13.36 C191.82 23.86, 191.82 34.36, 191.82 40.09 M191.82 40.09 C191.82 49, 187.36 53.46, 178.45 53.46 M191.82 40.09 C191.82 49, 187.36 53.46, 178.45 53.46 M178.45 53.46 C117.13 53.46, 55.8 53.46, 13.36 53.46 M178.45 53.46 C123.59 53.46, 68.73 53.46, 13.36 53.46 M13.36 53.46 C4.45 53.46, 0 49, 0 40.09 M13.36 53.46 C4.45 53.46, 0 49, 0 40.09 M0 40.09 C0 32.08, 0 24.06, 0 13.36 M0 40.09 C0 29.61, 0 19.13, 0 13.36 M0 13.36 C0 4.45, 4.45 0, 13.36 0 M0 13.36 C0 4.45, 4.45 0, 13.36 0" stroke="#000000" stroke-width="2" fill="none"></path></g><g stroke-linecap="round" transform="translate(963.733767621663 1578.5737965925514) rotate(0 95.90887894512343 26.72763197994982)"><path d="M13.36 0 L178.45 0 L184.3 0.84 L186.6 1.88 L189.94 5.22 L191.61 10.23 L191.82 40.09 L190.98 45.94 L188.48 50.11 L186.6 51.58 L184.3 52.62 L178.45 53.46 L13.36 53.46 L7.52 52.62 L3.34 50.11 L0.84 45.94 L0.21 43.22 L0.21 10.23 L1.88 5.22 L5.22 1.88 L10.23 0.21 L13.36 0" stroke="none" stroke-width="0" fill="#ced4da"></path><path d="M13.36 0 M13.36 0 C56.35 0, 99.33 0, 178.45 0 M13.36 0 C77.4 0, 141.43 0, 178.45 0 M178.45 0 C187.36 0, 191.82 4.45, 191.82 13.36 M178.45 0 C187.36 0, 191.82 4.45, 191.82 13.36 M191.82 13.36 C191.82 20.86, 191.82 28.37, 191.82 40.09 M191.82 13.36 C191.82 22.31, 191.82 31.26, 191.82 40.09 M191.82 40.09 C191.82 49, 187.36 53.46, 178.45 53.46 M191.82 40.09 C191.82 49, 187.36 53.46, 178.45 53.46 M178.45 53.46 C131.47 53.46, 84.48 53.46, 13.36 53.46 M178.45 53.46 C135.98 53.46, 93.5 53.46, 13.36 53.46 M13.36 53.46 C4.45 53.46, 0 49, 0 40.09 M13.36 53.46 C4.45 53.46, 0 49, 0 40.09 M0 40.09 C0 33.4, 0 26.7, 0 13.36 M0 40.09 C0 33.59, 0 27.08, 0 13.36 M0 13.36 C0 4.45, 4.45 0, 13.36 0 M0 13.36 C0 4.45, 4.45 0, 13.36 0" stroke="#000000" stroke-width="2" fill="none"></path></g><g stroke-linecap="round" transform="translate(991.3757301360129 1464.4912402984437) rotate(0 5.40284255998904 5.4028425599894945)"><path d="M10.81 5.4 C10.81 5.72, 10.78 6.03, 10.72 6.34 C10.67 6.65, 10.59 6.96, 10.48 7.25 C10.37 7.54, 10.24 7.83, 10.08 8.1 C9.93 8.38, 9.74 8.64, 9.54 8.88 C9.34 9.12, 9.12 9.34, 8.88 9.54 C8.64 9.74, 8.38 9.93, 8.1 10.08 C7.83 10.24, 7.54 10.37, 7.25 10.48 C6.96 10.59, 6.65 10.67, 6.34 10.72 C6.03 10.78, 5.72 10.81, 5.4 10.81 C5.09 10.81, 4.77 10.78, 4.46 10.72 C4.16 10.67, 3.85 10.59, 3.55 10.48 C3.26 10.37, 2.97 10.24, 2.7 10.08 C2.43 9.93, 2.17 9.74, 1.93 9.54 C1.69 9.34, 1.47 9.12, 1.26 8.88 C1.06 8.64, 0.88 8.38, 0.72 8.1 C0.57 7.83, 0.43 7.54, 0.33 7.25 C0.22 6.96, 0.14 6.65, 0.08 6.34 C0.03 6.03, 0 5.72, 0 5.4 C0 5.09, 0.03 4.77, 0.08 4.46 C0.14 4.16, 0.22 3.85, 0.33 3.55 C0.43 3.26, 0.57 2.97, 0.72 2.7 C0.88 2.43, 1.06 2.17, 1.26 1.93 C1.47 1.69, 1.69 1.47, 1.93 1.26 C2.17 1.06, 2.43 0.88, 2.7 0.72 C2.97 0.57, 3.26 0.43, 3.55 0.33 C3.85 0.22, 4.16 0.14, 4.46 0.08 C4.77 0.03, 5.09 0, 5.4 0 C5.72 0, 6.03 0.03, 6.34 0.08 C6.65 0.14, 6.96 0.22, 7.25 0.33 C7.54 0.43, 7.83 0.57, 8.1 0.72 C8.38 0.88, 8.64 1.06, 8.88 1.26 C9.12 1.47, 9.34 1.69, 9.54 1.93 C9.74 2.17, 9.93 2.43, 10.08 2.7 C10.24 2.97, 10.37 3.26, 10.48 3.55 C10.59 3.85, 10.67 4.16, 10.72 4.46 C10.78 4.77, 10.79 5.25, 10.81 5.4 C10.82 5.56, 10.82 5.25, 10.81 5.4" stroke="none" stroke-width="0" fill="#ced4da"></path><path d="M10.81 5.4 C10.81 5.72, 10.78 6.03, 10.72 6.34 C10.67 6.65, 10.59 6.96, 10.48 7.25 C10.37 7.54, 10.24 7.83, 10.08 8.1 C9.93 8.38, 9.74 8.64, 9.54 8.88 C9.34 9.12, 9.12 9.34, 8.88 9.54 C8.64 9.74, 8.38 9.93, 8.1 10.08 C7.83 10.24, 7.54 10.37, 7.25 10.48 C6.96 10.59, 6.65 10.67, 6.34 10.72 C6.03 10.78, 5.72 10.81, 5.4 10.81 C5.09 10.81, 4.77 10.78, 4.46 10.72 C4.16 10.67, 3.85 10.59, 3.55 10.48 C3.26 10.37, 2.97 10.24, 2.7 10.08 C2.43 9.93, 2.17 9.74, 1.93 9.54 C1.69 9.34, 1.47 9.12, 1.26 8.88 C1.06 8.64, 0.88 8.38, 0.72 8.1 C0.57 7.83, 0.43 7.54, 0.33 7.25 C0.22 6.96, 0.14 6.65, 0.08 6.34 C0.03 6.03, 0 5.72, 0 5.4 C0 5.09, 0.03 4.77, 0.08 4.46 C0.14 4.16, 0.22 3.85, 0.33 3.55 C0.43 3.26, 0.57 2.97, 0.72 2.7 C0.88 2.43, 1.06 2.17, 1.26 1.93 C1.47 1.69, 1.69 1.47, 1.93 1.26 C2.17 1.06, 2.43 0.88, 2.7 0.72 C2.97 0.57, 3.26 0.43, 3.55 0.33 C3.85 0.22, 4.16 0.14, 4.46 0.08 C4.77 0.03, 5.09 0, 5.4 0 C5.72 0, 6.03 0.03, 6.34 0.08 C6.65 0.14, 6.96 0.22, 7.25 0.33 C7.54 0.43, 7.83 0.57, 8.1 0.72 C8.38 0.88, 8.64 1.06, 8.88 1.26 C9.12 1.47, 9.34 1.69, 9.54 1.93 C9.74 2.17, 9.93 2.43, 10.08 2.7 C10.24 2.97, 10.37 3.26, 10.48 3.55 C10.59 3.85, 10.67 4.16, 10.72 4.46 C10.78 4.77, 10.79 5.25, 10.81 5.4 C10.82 5.56, 10.82 5.25, 10.81 5.4" stroke="#000000" stroke-width="2" fill="none"></path></g><g stroke-linecap="round" transform="translate(991.3757301360129 1534.4912402984437) rotate(0 5.40284255998904 5.4028425599894945)"><path d="M10.81 5.4 C10.81 5.72, 10.78 6.03, 10.72 6.34 C10.67 6.65, 10.59 6.96, 10.48 7.25 C10.37 7.54, 10.24 7.83, 10.08 8.1 C9.93 8.38, 9.74 8.64, 9.54 8.88 C9.34 9.12, 9.12 9.34, 8.88 9.54 C8.64 9.74, 8.38 9.93, 8.1 10.08 C7.83 10.24, 7.54 10.37, 7.25 10.48 C6.96 10.59, 6.65 10.67, 6.34 10.72 C6.03 10.78, 5.72 10.81, 5.4 10.81 C5.09 10.81, 4.77 10.78, 4.46 10.72 C4.16 10.67, 3.85 10.59, 3.55 10.48 C3.26 10.37, 2.97 10.24, 2.7 10.08 C2.43 9.93, 2.17 9.74, 1.93 9.54 C1.69 9.34, 1.47 9.12, 1.26 8.88 C1.06 8.64, 0.88 8.38, 0.72 8.1 C0.57 7.83, 0.43 7.54, 0.33 7.25 C0.22 6.96, 0.14 6.65, 0.08 6.34 C0.03 6.03, 0 5.72, 0 5.4 C0 5.09, 0.03 4.77, 0.08 4.46 C0.14 4.16, 0.22 3.85, 0.33 3.55 C0.43 3.26, 0.57 2.97, 0.72 2.7 C0.88 2.43, 1.06 2.17, 1.26 1.93 C1.47 1.69, 1.69 1.47, 1.93 1.26 C2.17 1.06, 2.43 0.88, 2.7 0.72 C2.97 0.57, 3.26 0.43, 3.55 0.33 C3.85 0.22, 4.16 0.14, 4.46 0.08 C4.77 0.03, 5.09 0, 5.4 0 C5.72 0, 6.03 0.03, 6.34 0.08 C6.65 0.14, 6.96 0.22, 7.25 0.33 C7.54 0.43, 7.83 0.57, 8.1 0.72 C8.38 0.88, 8.64 1.06, 8.88 1.26 C9.12 1.47, 9.34 1.69, 9.54 1.93 C9.74 2.17, 9.93 2.43, 10.08 2.7 C10.24 2.97, 10.37 3.26, 10.48 3.55 C10.59 3.85, 10.67 4.16, 10.72 4.46 C10.78 4.77, 10.79 5.25, 10.81 5.4 C10.82 5.56, 10.82 5.25, 10.81 5.4" stroke="none" stroke-width="0" fill="#ced4da"></path><path d="M10.81 5.4 C10.81 5.72, 10.78 6.03, 10.72 6.34 C10.67 6.65, 10.59 6.96, 10.48 7.25 C10.37 7.54, 10.24 7.83, 10.08 8.1 C9.93 8.38, 9.74 8.64, 9.54 8.88 C9.34 9.12, 9.12 9.34, 8.88 9.54 C8.64 9.74, 8.38 9.93, 8.1 10.08 C7.83 10.24, 7.54 10.37, 7.25 10.48 C6.96 10.59, 6.65 10.67, 6.34 10.72 C6.03 10.78, 5.72 10.81, 5.4 10.81 C5.09 10.81, 4.77 10.78, 4.46 10.72 C4.16 10.67, 3.85 10.59, 3.55 10.48 C3.26 10.37, 2.97 10.24, 2.7 10.08 C2.43 9.93, 2.17 9.74, 1.93 9.54 C1.69 9.34, 1.47 9.12, 1.26 8.88 C1.06 8.64, 0.88 8.38, 0.72 8.1 C0.57 7.83, 0.43 7.54, 0.33 7.25 C0.22 6.96, 0.14 6.65, 0.08 6.34 C0.03 6.03, 0 5.72, 0 5.4 C0 5.09, 0.03 4.77, 0.08 4.46 C0.14 4.16, 0.22 3.85, 0.33 3.55 C0.43 3.26, 0.57 2.97, 0.72 2.7 C0.88 2.43, 1.06 2.17, 1.26 1.93 C1.47 1.69, 1.69 1.47, 1.93 1.26 C2.17 1.06, 2.43 0.88, 2.7 0.72 C2.97 0.57, 3.26 0.43, 3.55 0.33 C3.85 0.22, 4.16 0.14, 4.46 0.08 C4.77 0.03, 5.09 0, 5.4 0 C5.72 0, 6.03 0.03, 6.34 0.08 C6.65 0.14, 6.96 0.22, 7.25 0.33 C7.54 0.43, 7.83 0.57, 8.1 0.72 C8.38 0.88, 8.64 1.06, 8.88 1.26 C9.12 1.47, 9.34 1.69, 9.54 1.93 C9.74 2.17, 9.93 2.43, 10.08 2.7 C10.24 2.97, 10.37 3.26, 10.48 3.55 C10.59 3.85, 10.67 4.16, 10.72 4.46 C10.78 4.77, 10.79 5.25, 10.81 5.4 C10.82 5.56, 10.82 5.25, 10.81 5.4" stroke="#000000" stroke-width="2" fill="none"></path></g><g stroke-linecap="round" transform="translate(991.3757301360129 1599.4912402984442) rotate(0 5.40284255998904 5.4028425599894945)"><path d="M10.81 5.4 C10.81 5.72, 10.78 6.03, 10.72 6.34 C10.67 6.65, 10.59 6.96, 10.48 7.25 C10.37 7.54, 10.24 7.83, 10.08 8.1 C9.93 8.38, 9.74 8.64, 9.54 8.88 C9.34 9.12, 9.12 9.34, 8.88 9.54 C8.64 9.74, 8.38 9.93, 8.1 10.08 C7.83 10.24, 7.54 10.37, 7.25 10.48 C6.96 10.59, 6.65 10.67, 6.34 10.72 C6.03 10.78, 5.72 10.81, 5.4 10.81 C5.09 10.81, 4.77 10.78, 4.46 10.72 C4.16 10.67, 3.85 10.59, 3.55 10.48 C3.26 10.37, 2.97 10.24, 2.7 10.08 C2.43 9.93, 2.17 9.74, 1.93 9.54 C1.69 9.34, 1.47 9.12, 1.26 8.88 C1.06 8.64, 0.88 8.38, 0.72 8.1 C0.57 7.83, 0.43 7.54, 0.33 7.25 C0.22 6.96, 0.14 6.65, 0.08 6.34 C0.03 6.03, 0 5.72, 0 5.4 C0 5.09, 0.03 4.77, 0.08 4.46 C0.14 4.16, 0.22 3.85, 0.33 3.55 C0.43 3.26, 0.57 2.97, 0.72 2.7 C0.88 2.43, 1.06 2.17, 1.26 1.93 C1.47 1.69, 1.69 1.47, 1.93 1.26 C2.17 1.06, 2.43 0.88, 2.7 0.72 C2.97 0.57, 3.26 0.43, 3.55 0.33 C3.85 0.22, 4.16 0.14, 4.46 0.08 C4.77 0.03, 5.09 0, 5.4 0 C5.72 0, 6.03 0.03, 6.34 0.08 C6.65 0.14, 6.96 0.22, 7.25 0.33 C7.54 0.43, 7.83 0.57, 8.1 0.72 C8.38 0.88, 8.64 1.06, 8.88 1.26 C9.12 1.47, 9.34 1.69, 9.54 1.93 C9.74 2.17, 9.93 2.43, 10.08 2.7 C10.24 2.97, 10.37 3.26, 10.48 3.55 C10.59 3.85, 10.67 4.16, 10.72 4.46 C10.78 4.77, 10.79 5.25, 10.81 5.4 C10.82 5.56, 10.82 5.25, 10.81 5.4" stroke="none" stroke-width="0" fill="#ced4da"></path><path d="M10.81 5.4 C10.81 5.72, 10.78 6.03, 10.72 6.34 C10.67 6.65, 10.59 6.96, 10.48 7.25 C10.37 7.54, 10.24 7.83, 10.08 8.1 C9.93 8.38, 9.74 8.64, 9.54 8.88 C9.34 9.12, 9.12 9.34, 8.88 9.54 C8.64 9.74, 8.38 9.93, 8.1 10.08 C7.83 10.24, 7.54 10.37, 7.25 10.48 C6.96 10.59, 6.65 10.67, 6.34 10.72 C6.03 10.78, 5.72 10.81, 5.4 10.81 C5.09 10.81, 4.77 10.78, 4.46 10.72 C4.16 10.67, 3.85 10.59, 3.55 10.48 C3.26 10.37, 2.97 10.24, 2.7 10.08 C2.43 9.93, 2.17 9.74, 1.93 9.54 C1.69 9.34, 1.47 9.12, 1.26 8.88 C1.06 8.64, 0.88 8.38, 0.72 8.1 C0.57 7.83, 0.43 7.54, 0.33 7.25 C0.22 6.96, 0.14 6.65, 0.08 6.34 C0.03 6.03, 0 5.72, 0 5.4 C0 5.09, 0.03 4.77, 0.08 4.46 C0.14 4.16, 0.22 3.85, 0.33 3.55 C0.43 3.26, 0.57 2.97, 0.72 2.7 C0.88 2.43, 1.06 2.17, 1.26 1.93 C1.47 1.69, 1.69 1.47, 1.93 1.26 C2.17 1.06, 2.43 0.88, 2.7 0.72 C2.97 0.57, 3.26 0.43, 3.55 0.33 C3.85 0.22, 4.16 0.14, 4.46 0.08 C4.77 0.03, 5.09 0, 5.4 0 C5.72 0, 6.03 0.03, 6.34 0.08 C6.65 0.14, 6.96 0.22, 7.25 0.33 C7.54 0.43, 7.83 0.57, 8.1 0.72 C8.38 0.88, 8.64 1.06, 8.88 1.26 C9.12 1.47, 9.34 1.69, 9.54 1.93 C9.74 2.17, 9.93 2.43, 10.08 2.7 C10.24 2.97, 10.37 3.26, 10.48 3.55 C10.59 3.85, 10.67 4.16, 10.72 4.46 C10.78 4.77, 10.79 5.25, 10.81 5.4 C10.82 5.56, 10.82 5.25, 10.81 5.4" stroke="#000000" stroke-width="2" fill="none"></path></g><g stroke-linecap="round" transform="translate(1011.3757301360129 1464.4912402984437) rotate(0 5.40284255998904 5.4028425599894945)"><path d="M10.81 5.4 C10.81 5.72, 10.78 6.03, 10.72 6.34 C10.67 6.65, 10.59 6.96, 10.48 7.25 C10.37 7.54, 10.24 7.83, 10.08 8.1 C9.93 8.38, 9.74 8.64, 9.54 8.88 C9.34 9.12, 9.12 9.34, 8.88 9.54 C8.64 9.74, 8.38 9.93, 8.1 10.08 C7.83 10.24, 7.54 10.37, 7.25 10.48 C6.96 10.59, 6.65 10.67, 6.34 10.72 C6.03 10.78, 5.72 10.81, 5.4 10.81 C5.09 10.81, 4.77 10.78, 4.46 10.72 C4.16 10.67, 3.85 10.59, 3.55 10.48 C3.26 10.37, 2.97 10.24, 2.7 10.08 C2.43 9.93, 2.17 9.74, 1.93 9.54 C1.69 9.34, 1.47 9.12, 1.26 8.88 C1.06 8.64, 0.88 8.38, 0.72 8.1 C0.57 7.83, 0.43 7.54, 0.33 7.25 C0.22 6.96, 0.14 6.65, 0.08 6.34 C0.03 6.03, 0 5.72, 0 5.4 C0 5.09, 0.03 4.77, 0.08 4.46 C0.14 4.16, 0.22 3.85, 0.33 3.55 C0.43 3.26, 0.57 2.97, 0.72 2.7 C0.88 2.43, 1.06 2.17, 1.26 1.93 C1.47 1.69, 1.69 1.47, 1.93 1.26 C2.17 1.06, 2.43 0.88, 2.7 0.72 C2.97 0.57, 3.26 0.43, 3.55 0.33 C3.85 0.22, 4.16 0.14, 4.46 0.08 C4.77 0.03, 5.09 0, 5.4 0 C5.72 0, 6.03 0.03, 6.34 0.08 C6.65 0.14, 6.96 0.22, 7.25 0.33 C7.54 0.43, 7.83 0.57, 8.1 0.72 C8.38 0.88, 8.64 1.06, 8.88 1.26 C9.12 1.47, 9.34 1.69, 9.54 1.93 C9.74 2.17, 9.93 2.43, 10.08 2.7 C10.24 2.97, 10.37 3.26, 10.48 3.55 C10.59 3.85, 10.67 4.16, 10.72 4.46 C10.78 4.77, 10.79 5.25, 10.81 5.4 C10.82 5.56, 10.82 5.25, 10.81 5.4" stroke="none" stroke-width="0" fill="#ced4da"></path><path d="M10.81 5.4 C10.81 5.72, 10.78 6.03, 10.72 6.34 C10.67 6.65, 10.59 6.96, 10.48 7.25 C10.37 7.54, 10.24 7.83, 10.08 8.1 C9.93 8.38, 9.74 8.64, 9.54 8.88 C9.34 9.12, 9.12 9.34, 8.88 9.54 C8.64 9.74, 8.38 9.93, 8.1 10.08 C7.83 10.24, 7.54 10.37, 7.25 10.48 C6.96 10.59, 6.65 10.67, 6.34 10.72 C6.03 10.78, 5.72 10.81, 5.4 10.81 C5.09 10.81, 4.77 10.78, 4.46 10.72 C4.16 10.67, 3.85 10.59, 3.55 10.48 C3.26 10.37, 2.97 10.24, 2.7 10.08 C2.43 9.93, 2.17 9.74, 1.93 9.54 C1.69 9.34, 1.47 9.12, 1.26 8.88 C1.06 8.64, 0.88 8.38, 0.72 8.1 C0.57 7.83, 0.43 7.54, 0.33 7.25 C0.22 6.96, 0.14 6.65, 0.08 6.34 C0.03 6.03, 0 5.72, 0 5.4 C0 5.09, 0.03 4.77, 0.08 4.46 C0.14 4.16, 0.22 3.85, 0.33 3.55 C0.43 3.26, 0.57 2.97, 0.72 2.7 C0.88 2.43, 1.06 2.17, 1.26 1.93 C1.47 1.69, 1.69 1.47, 1.93 1.26 C2.17 1.06, 2.43 0.88, 2.7 0.72 C2.97 0.57, 3.26 0.43, 3.55 0.33 C3.85 0.22, 4.16 0.14, 4.46 0.08 C4.77 0.03, 5.09 0, 5.4 0 C5.72 0, 6.03 0.03, 6.34 0.08 C6.65 0.14, 6.96 0.22, 7.25 0.33 C7.54 0.43, 7.83 0.57, 8.1 0.72 C8.38 0.88, 8.64 1.06, 8.88 1.26 C9.12 1.47, 9.34 1.69, 9.54 1.93 C9.74 2.17, 9.93 2.43, 10.08 2.7 C10.24 2.97, 10.37 3.26, 10.48 3.55 C10.59 3.85, 10.67 4.16, 10.72 4.46 C10.78 4.77, 10.79 5.25, 10.81 5.4 C10.82 5.56, 10.82 5.25, 10.81 5.4" stroke="#000000" stroke-width="2" fill="none"></path></g><g stroke-linecap="round" transform="translate(1011.3757301360129 1534.4912402984437) rotate(0 5.40284255998904 5.4028425599894945)"><path d="M10.81 5.4 C10.81 5.72, 10.78 6.03, 10.72 6.34 C10.67 6.65, 10.59 6.96, 10.48 7.25 C10.37 7.54, 10.24 7.83, 10.08 8.1 C9.93 8.38, 9.74 8.64, 9.54 8.88 C9.34 9.12, 9.12 9.34, 8.88 9.54 C8.64 9.74, 8.38 9.93, 8.1 10.08 C7.83 10.24, 7.54 10.37, 7.25 10.48 C6.96 10.59, 6.65 10.67, 6.34 10.72 C6.03 10.78, 5.72 10.81, 5.4 10.81 C5.09 10.81, 4.77 10.78, 4.46 10.72 C4.16 10.67, 3.85 10.59, 3.55 10.48 C3.26 10.37, 2.97 10.24, 2.7 10.08 C2.43 9.93, 2.17 9.74, 1.93 9.54 C1.69 9.34, 1.47 9.12, 1.26 8.88 C1.06 8.64, 0.88 8.38, 0.72 8.1 C0.57 7.83, 0.43 7.54, 0.33 7.25 C0.22 6.96, 0.14 6.65, 0.08 6.34 C0.03 6.03, 0 5.72, 0 5.4 C0 5.09, 0.03 4.77, 0.08 4.46 C0.14 4.16, 0.22 3.85, 0.33 3.55 C0.43 3.26, 0.57 2.97, 0.72 2.7 C0.88 2.43, 1.06 2.17, 1.26 1.93 C1.47 1.69, 1.69 1.47, 1.93 1.26 C2.17 1.06, 2.43 0.88, 2.7 0.72 C2.97 0.57, 3.26 0.43, 3.55 0.33 C3.85 0.22, 4.16 0.14, 4.46 0.08 C4.77 0.03, 5.09 0, 5.4 0 C5.72 0, 6.03 0.03, 6.34 0.08 C6.65 0.14, 6.96 0.22, 7.25 0.33 C7.54 0.43, 7.83 0.57, 8.1 0.72 C8.38 0.88, 8.64 1.06, 8.88 1.26 C9.12 1.47, 9.34 1.69, 9.54 1.93 C9.74 2.17, 9.93 2.43, 10.08 2.7 C10.24 2.97, 10.37 3.26, 10.48 3.55 C10.59 3.85, 10.67 4.16, 10.72 4.46 C10.78 4.77, 10.79 5.25, 10.81 5.4 C10.82 5.56, 10.82 5.25, 10.81 5.4" stroke="none" stroke-width="0" fill="#ced4da"></path><path d="M10.81 5.4 C10.81 5.72, 10.78 6.03, 10.72 6.34 C10.67 6.65, 10.59 6.96, 10.48 7.25 C10.37 7.54, 10.24 7.83, 10.08 8.1 C9.93 8.38, 9.74 8.64, 9.54 8.88 C9.34 9.12, 9.12 9.34, 8.88 9.54 C8.64 9.74, 8.38 9.93, 8.1 10.08 C7.83 10.24, 7.54 10.37, 7.25 10.48 C6.96 10.59, 6.65 10.67, 6.34 10.72 C6.03 10.78, 5.72 10.81, 5.4 10.81 C5.09 10.81, 4.77 10.78, 4.46 10.72 C4.16 10.67, 3.85 10.59, 3.55 10.48 C3.26 10.37, 2.97 10.24, 2.7 10.08 C2.43 9.93, 2.17 9.74, 1.93 9.54 C1.69 9.34, 1.47 9.12, 1.26 8.88 C1.06 8.64, 0.88 8.38, 0.72 8.1 C0.57 7.83, 0.43 7.54, 0.33 7.25 C0.22 6.96, 0.14 6.65, 0.08 6.34 C0.03 6.03, 0 5.72, 0 5.4 C0 5.09, 0.03 4.77, 0.08 4.46 C0.14 4.16, 0.22 3.85, 0.33 3.55 C0.43 3.26, 0.57 2.97, 0.72 2.7 C0.88 2.43, 1.06 2.17, 1.26 1.93 C1.47 1.69, 1.69 1.47, 1.93 1.26 C2.17 1.06, 2.43 0.88, 2.7 0.72 C2.97 0.57, 3.26 0.43, 3.55 0.33 C3.85 0.22, 4.16 0.14, 4.46 0.08 C4.77 0.03, 5.09 0, 5.4 0 C5.72 0, 6.03 0.03, 6.34 0.08 C6.65 0.14, 6.96 0.22, 7.25 0.33 C7.54 0.43, 7.83 0.57, 8.1 0.72 C8.38 0.88, 8.64 1.06, 8.88 1.26 C9.12 1.47, 9.34 1.69, 9.54 1.93 C9.74 2.17, 9.93 2.43, 10.08 2.7 C10.24 2.97, 10.37 3.26, 10.48 3.55 C10.59 3.85, 10.67 4.16, 10.72 4.46 C10.78 4.77, 10.79 5.25, 10.81 5.4 C10.82 5.56, 10.82 5.25, 10.81 5.4" stroke="#000000" stroke-width="2" fill="none"></path></g><g stroke-linecap="round" transform="translate(1011.3757301360129 1599.4912402984442) rotate(0 5.40284255998904 5.4028425599894945)"><path d="M10.81 5.4 C10.81 5.72, 10.78 6.03, 10.72 6.34 C10.67 6.65, 10.59 6.96, 10.48 7.25 C10.37 7.54, 10.24 7.83, 10.08 8.1 C9.93 8.38, 9.74 8.64, 9.54 8.88 C9.34 9.12, 9.12 9.34, 8.88 9.54 C8.64 9.74, 8.38 9.93, 8.1 10.08 C7.83 10.24, 7.54 10.37, 7.25 10.48 C6.96 10.59, 6.65 10.67, 6.34 10.72 C6.03 10.78, 5.72 10.81, 5.4 10.81 C5.09 10.81, 4.77 10.78, 4.46 10.72 C4.16 10.67, 3.85 10.59, 3.55 10.48 C3.26 10.37, 2.97 10.24, 2.7 10.08 C2.43 9.93, 2.17 9.74, 1.93 9.54 C1.69 9.34, 1.47 9.12, 1.26 8.88 C1.06 8.64, 0.88 8.38, 0.72 8.1 C0.57 7.83, 0.43 7.54, 0.33 7.25 C0.22 6.96, 0.14 6.65, 0.08 6.34 C0.03 6.03, 0 5.72, 0 5.4 C0 5.09, 0.03 4.77, 0.08 4.46 C0.14 4.16, 0.22 3.85, 0.33 3.55 C0.43 3.26, 0.57 2.97, 0.72 2.7 C0.88 2.43, 1.06 2.17, 1.26 1.93 C1.47 1.69, 1.69 1.47, 1.93 1.26 C2.17 1.06, 2.43 0.88, 2.7 0.72 C2.97 0.57, 3.26 0.43, 3.55 0.33 C3.85 0.22, 4.16 0.14, 4.46 0.08 C4.77 0.03, 5.09 0, 5.4 0 C5.72 0, 6.03 0.03, 6.34 0.08 C6.65 0.14, 6.96 0.22, 7.25 0.33 C7.54 0.43, 7.83 0.57, 8.1 0.72 C8.38 0.88, 8.64 1.06, 8.88 1.26 C9.12 1.47, 9.34 1.69, 9.54 1.93 C9.74 2.17, 9.93 2.43, 10.08 2.7 C10.24 2.97, 10.37 3.26, 10.48 3.55 C10.59 3.85, 10.67 4.16, 10.72 4.46 C10.78 4.77, 10.79 5.25, 10.81 5.4 C10.82 5.56, 10.82 5.25, 10.81 5.4" stroke="none" stroke-width="0" fill="#ced4da"></path><path d="M10.81 5.4 C10.81 5.72, 10.78 6.03, 10.72 6.34 C10.67 6.65, 10.59 6.96, 10.48 7.25 C10.37 7.54, 10.24 7.83, 10.08 8.1 C9.93 8.38, 9.74 8.64, 9.54 8.88 C9.34 9.12, 9.12 9.34, 8.88 9.54 C8.64 9.74, 8.38 9.93, 8.1 10.08 C7.83 10.24, 7.54 10.37, 7.25 10.48 C6.96 10.59, 6.65 10.67, 6.34 10.72 C6.03 10.78, 5.72 10.81, 5.4 10.81 C5.09 10.81, 4.77 10.78, 4.46 10.72 C4.16 10.67, 3.85 10.59, 3.55 10.48 C3.26 10.37, 2.97 10.24, 2.7 10.08 C2.43 9.93, 2.17 9.74, 1.93 9.54 C1.69 9.34, 1.47 9.12, 1.26 8.88 C1.06 8.64, 0.88 8.38, 0.72 8.1 C0.57 7.83, 0.43 7.54, 0.33 7.25 C0.22 6.96, 0.14 6.65, 0.08 6.34 C0.03 6.03, 0 5.72, 0 5.4 C0 5.09, 0.03 4.77, 0.08 4.46 C0.14 4.16, 0.22 3.85, 0.33 3.55 C0.43 3.26, 0.57 2.97, 0.72 2.7 C0.88 2.43, 1.06 2.17, 1.26 1.93 C1.47 1.69, 1.69 1.47, 1.93 1.26 C2.17 1.06, 2.43 0.88, 2.7 0.72 C2.97 0.57, 3.26 0.43, 3.55 0.33 C3.85 0.22, 4.16 0.14, 4.46 0.08 C4.77 0.03, 5.09 0, 5.4 0 C5.72 0, 6.03 0.03, 6.34 0.08 C6.65 0.14, 6.96 0.22, 7.25 0.33 C7.54 0.43, 7.83 0.57, 8.1 0.72 C8.38 0.88, 8.64 1.06, 8.88 1.26 C9.12 1.47, 9.34 1.69, 9.54 1.93 C9.74 2.17, 9.93 2.43, 10.08 2.7 C10.24 2.97, 10.37 3.26, 10.48 3.55 C10.59 3.85, 10.67 4.16, 10.72 4.46 C10.78 4.77, 10.79 5.25, 10.81 5.4 C10.82 5.56, 10.82 5.25, 10.81 5.4" stroke="#000000" stroke-width="2" fill="none"></path></g><g stroke-linecap="round" transform="translate(1031.3757301360129 1464.4912402984437) rotate(0 5.40284255998904 5.4028425599894945)"><path d="M10.81 5.4 C10.81 5.72, 10.78 6.03, 10.72 6.34 C10.67 6.65, 10.59 6.96, 10.48 7.25 C10.37 7.54, 10.24 7.83, 10.08 8.1 C9.93 8.38, 9.74 8.64, 9.54 8.88 C9.34 9.12, 9.12 9.34, 8.88 9.54 C8.64 9.74, 8.38 9.93, 8.1 10.08 C7.83 10.24, 7.54 10.37, 7.25 10.48 C6.96 10.59, 6.65 10.67, 6.34 10.72 C6.03 10.78, 5.72 10.81, 5.4 10.81 C5.09 10.81, 4.77 10.78, 4.46 10.72 C4.16 10.67, 3.85 10.59, 3.55 10.48 C3.26 10.37, 2.97 10.24, 2.7 10.08 C2.43 9.93, 2.17 9.74, 1.93 9.54 C1.69 9.34, 1.47 9.12, 1.26 8.88 C1.06 8.64, 0.88 8.38, 0.72 8.1 C0.57 7.83, 0.43 7.54, 0.33 7.25 C0.22 6.96, 0.14 6.65, 0.08 6.34 C0.03 6.03, 0 5.72, 0 5.4 C0 5.09, 0.03 4.77, 0.08 4.46 C0.14 4.16, 0.22 3.85, 0.33 3.55 C0.43 3.26, 0.57 2.97, 0.72 2.7 C0.88 2.43, 1.06 2.17, 1.26 1.93 C1.47 1.69, 1.69 1.47, 1.93 1.26 C2.17 1.06, 2.43 0.88, 2.7 0.72 C2.97 0.57, 3.26 0.43, 3.55 0.33 C3.85 0.22, 4.16 0.14, 4.46 0.08 C4.77 0.03, 5.09 0, 5.4 0 C5.72 0, 6.03 0.03, 6.34 0.08 C6.65 0.14, 6.96 0.22, 7.25 0.33 C7.54 0.43, 7.83 0.57, 8.1 0.72 C8.38 0.88, 8.64 1.06, 8.88 1.26 C9.12 1.47, 9.34 1.69, 9.54 1.93 C9.74 2.17, 9.93 2.43, 10.08 2.7 C10.24 2.97, 10.37 3.26, 10.48 3.55 C10.59 3.85, 10.67 4.16, 10.72 4.46 C10.78 4.77, 10.79 5.25, 10.81 5.4 C10.82 5.56, 10.82 5.25, 10.81 5.4" stroke="none" stroke-width="0" fill="#ced4da"></path><path d="M10.81 5.4 C10.81 5.72, 10.78 6.03, 10.72 6.34 C10.67 6.65, 10.59 6.96, 10.48 7.25 C10.37 7.54, 10.24 7.83, 10.08 8.1 C9.93 8.38, 9.74 8.64, 9.54 8.88 C9.34 9.12, 9.12 9.34, 8.88 9.54 C8.64 9.74, 8.38 9.93, 8.1 10.08 C7.83 10.24, 7.54 10.37, 7.25 10.48 C6.96 10.59, 6.65 10.67, 6.34 10.72 C6.03 10.78, 5.72 10.81, 5.4 10.81 C5.09 10.81, 4.77 10.78, 4.46 10.72 C4.16 10.67, 3.85 10.59, 3.55 10.48 C3.26 10.37, 2.97 10.24, 2.7 10.08 C2.43 9.93, 2.17 9.74, 1.93 9.54 C1.69 9.34, 1.47 9.12, 1.26 8.88 C1.06 8.64, 0.88 8.38, 0.72 8.1 C0.57 7.83, 0.43 7.54, 0.33 7.25 C0.22 6.96, 0.14 6.65, 0.08 6.34 C0.03 6.03, 0 5.72, 0 5.4 C0 5.09, 0.03 4.77, 0.08 4.46 C0.14 4.16, 0.22 3.85, 0.33 3.55 C0.43 3.26, 0.57 2.97, 0.72 2.7 C0.88 2.43, 1.06 2.17, 1.26 1.93 C1.47 1.69, 1.69 1.47, 1.93 1.26 C2.17 1.06, 2.43 0.88, 2.7 0.72 C2.97 0.57, 3.26 0.43, 3.55 0.33 C3.85 0.22, 4.16 0.14, 4.46 0.08 C4.77 0.03, 5.09 0, 5.4 0 C5.72 0, 6.03 0.03, 6.34 0.08 C6.65 0.14, 6.96 0.22, 7.25 0.33 C7.54 0.43, 7.83 0.57, 8.1 0.72 C8.38 0.88, 8.64 1.06, 8.88 1.26 C9.12 1.47, 9.34 1.69, 9.54 1.93 C9.74 2.17, 9.93 2.43, 10.08 2.7 C10.24 2.97, 10.37 3.26, 10.48 3.55 C10.59 3.85, 10.67 4.16, 10.72 4.46 C10.78 4.77, 10.79 5.25, 10.81 5.4 C10.82 5.56, 10.82 5.25, 10.81 5.4" stroke="#000000" stroke-width="2" fill="none"></path></g><g stroke-linecap="round" transform="translate(1031.3757301360129 1534.4912402984437) rotate(0 5.40284255998904 5.4028425599894945)"><path d="M10.81 5.4 C10.81 5.72, 10.78 6.03, 10.72 6.34 C10.67 6.65, 10.59 6.96, 10.48 7.25 C10.37 7.54, 10.24 7.83, 10.08 8.1 C9.93 8.38, 9.74 8.64, 9.54 8.88 C9.34 9.12, 9.12 9.34, 8.88 9.54 C8.64 9.74, 8.38 9.93, 8.1 10.08 C7.83 10.24, 7.54 10.37, 7.25 10.48 C6.96 10.59, 6.65 10.67, 6.34 10.72 C6.03 10.78, 5.72 10.81, 5.4 10.81 C5.09 10.81, 4.77 10.78, 4.46 10.72 C4.16 10.67, 3.85 10.59, 3.55 10.48 C3.26 10.37, 2.97 10.24, 2.7 10.08 C2.43 9.93, 2.17 9.74, 1.93 9.54 C1.69 9.34, 1.47 9.12, 1.26 8.88 C1.06 8.64, 0.88 8.38, 0.72 8.1 C0.57 7.83, 0.43 7.54, 0.33 7.25 C0.22 6.96, 0.14 6.65, 0.08 6.34 C0.03 6.03, 0 5.72, 0 5.4 C0 5.09, 0.03 4.77, 0.08 4.46 C0.14 4.16, 0.22 3.85, 0.33 3.55 C0.43 3.26, 0.57 2.97, 0.72 2.7 C0.88 2.43, 1.06 2.17, 1.26 1.93 C1.47 1.69, 1.69 1.47, 1.93 1.26 C2.17 1.06, 2.43 0.88, 2.7 0.72 C2.97 0.57, 3.26 0.43, 3.55 0.33 C3.85 0.22, 4.16 0.14, 4.46 0.08 C4.77 0.03, 5.09 0, 5.4 0 C5.72 0, 6.03 0.03, 6.34 0.08 C6.65 0.14, 6.96 0.22, 7.25 0.33 C7.54 0.43, 7.83 0.57, 8.1 0.72 C8.38 0.88, 8.64 1.06, 8.88 1.26 C9.12 1.47, 9.34 1.69, 9.54 1.93 C9.74 2.17, 9.93 2.43, 10.08 2.7 C10.24 2.97, 10.37 3.26, 10.48 3.55 C10.59 3.85, 10.67 4.16, 10.72 4.46 C10.78 4.77, 10.79 5.25, 10.81 5.4 C10.82 5.56, 10.82 5.25, 10.81 5.4" stroke="none" stroke-width="0" fill="#ced4da"></path><path d="M10.81 5.4 C10.81 5.72, 10.78 6.03, 10.72 6.34 C10.67 6.65, 10.59 6.96, 10.48 7.25 C10.37 7.54, 10.24 7.83, 10.08 8.1 C9.93 8.38, 9.74 8.64, 9.54 8.88 C9.34 9.12, 9.12 9.34, 8.88 9.54 C8.64 9.74, 8.38 9.93, 8.1 10.08 C7.83 10.24, 7.54 10.37, 7.25 10.48 C6.96 10.59, 6.65 10.67, 6.34 10.72 C6.03 10.78, 5.72 10.81, 5.4 10.81 C5.09 10.81, 4.77 10.78, 4.46 10.72 C4.16 10.67, 3.85 10.59, 3.55 10.48 C3.26 10.37, 2.97 10.24, 2.7 10.08 C2.43 9.93, 2.17 9.74, 1.93 9.54 C1.69 9.34, 1.47 9.12, 1.26 8.88 C1.06 8.64, 0.88 8.38, 0.72 8.1 C0.57 7.83, 0.43 7.54, 0.33 7.25 C0.22 6.96, 0.14 6.65, 0.08 6.34 C0.03 6.03, 0 5.72, 0 5.4 C0 5.09, 0.03 4.77, 0.08 4.46 C0.14 4.16, 0.22 3.85, 0.33 3.55 C0.43 3.26, 0.57 2.97, 0.72 2.7 C0.88 2.43, 1.06 2.17, 1.26 1.93 C1.47 1.69, 1.69 1.47, 1.93 1.26 C2.17 1.06, 2.43 0.88, 2.7 0.72 C2.97 0.57, 3.26 0.43, 3.55 0.33 C3.85 0.22, 4.16 0.14, 4.46 0.08 C4.77 0.03, 5.09 0, 5.4 0 C5.72 0, 6.03 0.03, 6.34 0.08 C6.65 0.14, 6.96 0.22, 7.25 0.33 C7.54 0.43, 7.83 0.57, 8.1 0.72 C8.38 0.88, 8.64 1.06, 8.88 1.26 C9.12 1.47, 9.34 1.69, 9.54 1.93 C9.74 2.17, 9.93 2.43, 10.08 2.7 C10.24 2.97, 10.37 3.26, 10.48 3.55 C10.59 3.85, 10.67 4.16, 10.72 4.46 C10.78 4.77, 10.79 5.25, 10.81 5.4 C10.82 5.56, 10.82 5.25, 10.81 5.4" stroke="#000000" stroke-width="2" fill="none"></path></g><g stroke-linecap="round" transform="translate(1031.3757301360129 1599.4912402984442) rotate(0 5.40284255998904 5.4028425599894945)"><path d="M10.81 5.4 C10.81 5.72, 10.78 6.03, 10.72 6.34 C10.67 6.65, 10.59 6.96, 10.48 7.25 C10.37 7.54, 10.24 7.83, 10.08 8.1 C9.93 8.38, 9.74 8.64, 9.54 8.88 C9.34 9.12, 9.12 9.34, 8.88 9.54 C8.64 9.74, 8.38 9.93, 8.1 10.08 C7.83 10.24, 7.54 10.37, 7.25 10.48 C6.96 10.59, 6.65 10.67, 6.34 10.72 C6.03 10.78, 5.72 10.81, 5.4 10.81 C5.09 10.81, 4.77 10.78, 4.46 10.72 C4.16 10.67, 3.85 10.59, 3.55 10.48 C3.26 10.37, 2.97 10.24, 2.7 10.08 C2.43 9.93, 2.17 9.74, 1.93 9.54 C1.69 9.34, 1.47 9.12, 1.26 8.88 C1.06 8.64, 0.88 8.38, 0.72 8.1 C0.57 7.83, 0.43 7.54, 0.33 7.25 C0.22 6.96, 0.14 6.65, 0.08 6.34 C0.03 6.03, 0 5.72, 0 5.4 C0 5.09, 0.03 4.77, 0.08 4.46 C0.14 4.16, 0.22 3.85, 0.33 3.55 C0.43 3.26, 0.57 2.97, 0.72 2.7 C0.88 2.43, 1.06 2.17, 1.26 1.93 C1.47 1.69, 1.69 1.47, 1.93 1.26 C2.17 1.06, 2.43 0.88, 2.7 0.72 C2.97 0.57, 3.26 0.43, 3.55 0.33 C3.85 0.22, 4.16 0.14, 4.46 0.08 C4.77 0.03, 5.09 0, 5.4 0 C5.72 0, 6.03 0.03, 6.34 0.08 C6.65 0.14, 6.96 0.22, 7.25 0.33 C7.54 0.43, 7.83 0.57, 8.1 0.72 C8.38 0.88, 8.64 1.06, 8.88 1.26 C9.12 1.47, 9.34 1.69, 9.54 1.93 C9.74 2.17, 9.93 2.43, 10.08 2.7 C10.24 2.97, 10.37 3.26, 10.48 3.55 C10.59 3.85, 10.67 4.16, 10.72 4.46 C10.78 4.77, 10.79 5.25, 10.81 5.4 C10.82 5.56, 10.82 5.25, 10.81 5.4" stroke="none" stroke-width="0" fill="#ced4da"></path><path d="M10.81 5.4 C10.81 5.72, 10.78 6.03, 10.72 6.34 C10.67 6.65, 10.59 6.96, 10.48 7.25 C10.37 7.54, 10.24 7.83, 10.08 8.1 C9.93 8.38, 9.74 8.64, 9.54 8.88 C9.34 9.12, 9.12 9.34, 8.88 9.54 C8.64 9.74, 8.38 9.93, 8.1 10.08 C7.83 10.24, 7.54 10.37, 7.25 10.48 C6.96 10.59, 6.65 10.67, 6.34 10.72 C6.03 10.78, 5.72 10.81, 5.4 10.81 C5.09 10.81, 4.77 10.78, 4.46 10.72 C4.16 10.67, 3.85 10.59, 3.55 10.48 C3.26 10.37, 2.97 10.24, 2.7 10.08 C2.43 9.93, 2.17 9.74, 1.93 9.54 C1.69 9.34, 1.47 9.12, 1.26 8.88 C1.06 8.64, 0.88 8.38, 0.72 8.1 C0.57 7.83, 0.43 7.54, 0.33 7.25 C0.22 6.96, 0.14 6.65, 0.08 6.34 C0.03 6.03, 0 5.72, 0 5.4 C0 5.09, 0.03 4.77, 0.08 4.46 C0.14 4.16, 0.22 3.85, 0.33 3.55 C0.43 3.26, 0.57 2.97, 0.72 2.7 C0.88 2.43, 1.06 2.17, 1.26 1.93 C1.47 1.69, 1.69 1.47, 1.93 1.26 C2.17 1.06, 2.43 0.88, 2.7 0.72 C2.97 0.57, 3.26 0.43, 3.55 0.33 C3.85 0.22, 4.16 0.14, 4.46 0.08 C4.77 0.03, 5.09 0, 5.4 0 C5.72 0, 6.03 0.03, 6.34 0.08 C6.65 0.14, 6.96 0.22, 7.25 0.33 C7.54 0.43, 7.83 0.57, 8.1 0.72 C8.38 0.88, 8.64 1.06, 8.88 1.26 C9.12 1.47, 9.34 1.69, 9.54 1.93 C9.74 2.17, 9.93 2.43, 10.08 2.7 C10.24 2.97, 10.37 3.26, 10.48 3.55 C10.59 3.85, 10.67 4.16, 10.72 4.46 C10.78 4.77, 10.79 5.25, 10.81 5.4 C10.82 5.56, 10.82 5.25, 10.81 5.4" stroke="#000000" stroke-width="2" fill="none"></path></g><g transform="translate(1003.723250264411 1380.8055395060774) rotate(0 62.25 16.09999999999991)"><text x="0" y="0" font-family="Helvetica, Segoe UI Emoji" font-size="28px" fill="#000000" text-anchor="start" style="white-space: pre;" direction="ltr" dominant-baseline="text-before-edge">MongoDB</text></g><g stroke-linecap="round" transform="translate(1045.7093465373182 344.5176240467631) rotate(0 25.767965861477023 40.604067418084696)"><path d="M0 0 L51.54 0 L51.54 81.21 L0 81.21" stroke="none" stroke-width="0" fill="#ced4da"></path><path d="M0 0 C11.56 0, 23.11 0, 51.54 0 M0 0 C12.7 0, 25.41 0, 51.54 0 M51.54 0 C51.54 24.67, 51.54 49.35, 51.54 81.21 M51.54 0 C51.54 23.99, 51.54 47.98, 51.54 81.21 M51.54 81.21 C35.13 81.21, 18.71 81.21, 0 81.21 M51.54 81.21 C36.73 81.21, 21.93 81.21, 0 81.21 M0 81.21 C0 58.53, 0 35.86, 0 0 M0 81.21 C0 55.01, 0 28.81, 0 0" stroke="#000000" stroke-width="2" fill="none"></path></g><g stroke-linecap="round" transform="translate(992.7707930126253 415.42372517389003) rotate(0 81.20813483616894 10.151016854521231)"><path d="M5.08 0 L157.34 0 L161.15 1.27 L162.1 2.85 L162.42 15.23 L161.15 19.03 L157.34 20.3 L5.08 20.3 L1.27 19.03 L0 15.23 L0.32 2.85 L2.85 0.32 L5.08 0" stroke="none" stroke-width="0" fill="#ced4da"></path><path d="M5.08 0 M5.08 0 C60.7 0, 116.32 0, 157.34 0 M5.08 0 C48.69 0, 92.31 0, 157.34 0 M157.34 0 C160.72 0, 162.42 1.69, 162.42 5.08 M157.34 0 C160.72 0, 162.42 1.69, 162.42 5.08 M162.42 5.08 C162.42 7.16, 162.42 9.24, 162.42 15.23 M162.42 5.08 C162.42 8.48, 162.42 11.88, 162.42 15.23 M162.42 15.23 C162.42 18.61, 160.72 20.3, 157.34 20.3 M162.42 15.23 C162.42 18.61, 160.72 20.3, 157.34 20.3 M157.34 20.3 C101.58 20.3, 45.83 20.3, 5.08 20.3 M157.34 20.3 C116.93 20.3, 76.51 20.3, 5.08 20.3 M5.08 20.3 C1.69 20.3, 0 18.61, 0 15.23 M5.08 20.3 C1.69 20.3, 0 18.61, 0 15.23 M0 15.23 C0 13.08, 0 10.94, 0 5.08 M0 15.23 C0 11.71, 0 8.2, 0 5.08 M0 5.08 C0 1.69, 1.69 0, 5.08 0 M0 5.08 C0 1.69, 1.69 0, 5.08 0" stroke="#000000" stroke-width="2" fill="none"></path></g><g stroke-linecap="round" transform="translate(828.6337553406356 10) rotate(0 242.0627096078124 181.156608480685)"><path d="M32 0 L452.13 0 L459.63 0.5 L466.13 2 L471.63 4.5 L476.13 8 L479.63 12.5 L482.13 18 L483.63 24.5 L484.13 32 L484.13 330.31 L483.63 337.81 L482.13 344.31 L479.63 349.81 L476.13 354.31 L471.63 357.81 L466.13 360.31 L459.63 361.81 L452.13 362.31 L32 362.31 L24.5 361.81 L18 360.31 L12.5 357.81 L8 354.31 L4.5 349.81 L2 344.31 L0.5 337.81 L0 330.31 L0.5 24.5 L2 18 L4.5 12.5 L8 8 L12.5 4.5 L18 2 L24.5 0.5 L32 0" stroke="none" stroke-width="0" fill="#ced4da"></path><path d="M32 0 M32 0 C197.52 0, 363.04 0, 452.13 0 M32 0 C179.89 0, 327.78 0, 452.13 0 M452.13 0 C473.46 0, 484.13 10.67, 484.13 32 M452.13 0 C473.46 0, 484.13 10.67, 484.13 32 M484.13 32 C484.13 105.56, 484.13 179.11, 484.13 330.31 M484.13 32 C484.13 145.4, 484.13 258.79, 484.13 330.31 M484.13 330.31 C484.13 351.65, 473.46 362.31, 452.13 362.31 M484.13 330.31 C484.13 351.65, 473.46 362.31, 452.13 362.31 M452.13 362.31 C342.61 362.31, 233.09 362.31, 32 362.31 M452.13 362.31 C300.86 362.31, 149.6 362.31, 32 362.31 M32 362.31 C10.67 362.31, 0 351.65, 0 330.31 M32 362.31 C10.67 362.31, 0 351.65, 0 330.31 M0 330.31 C0 264.34, 0 198.36, 0 32 M0 330.31 C0 252.21, 0 174.1, 0 32 M0 32 C0 10.67, 10.67 0, 32 0 M0 32 C0 10.67, 10.67 0, 32 0" stroke="#000000" stroke-width="2" fill="none"></path></g><g stroke-linecap="round" transform="translate(848.9827611670462 33.128478860013274) rotate(0 221.85935046089799 140.6912954142283)"><path d="M32 0 L411.72 0 L419.22 0.5 L425.72 2 L431.22 4.5 L435.72 8 L439.22 12.5 L441.72 18 L443.22 24.5 L443.72 32 L443.72 249.38 L443.22 256.88 L441.72 263.38 L439.22 268.88 L435.72 273.38 L431.22 276.88 L425.72 279.38 L419.22 280.88 L411.72 281.38 L32 281.38 L24.5 280.88 L18 279.38 L12.5 276.88 L8 273.38 L4.5 268.88 L2 263.38 L0.5 256.88 L0 249.38 L0.5 24.5 L2 18 L4.5 12.5 L8 8 L12.5 4.5 L18 2 L24.5 0.5 L32 0" stroke="none" stroke-width="0" fill="#ced4da"></path><path d="M32 0 M32 0 C153.25 0, 274.5 0, 411.72 0 M32 0 C121.1 0, 210.2 0, 411.72 0 M411.72 0 C433.05 0, 443.72 10.67, 443.72 32 M411.72 0 C433.05 0, 443.72 10.67, 443.72 32 M443.72 32 C443.72 91.37, 443.72 150.73, 443.72 249.38 M443.72 32 C443.72 91.32, 443.72 150.65, 443.72 249.38 M443.72 249.38 C443.72 270.72, 433.05 281.38, 411.72 281.38 M443.72 249.38 C443.72 270.72, 433.05 281.38, 411.72 281.38 M411.72 281.38 C312.26 281.38, 212.81 281.38, 32 281.38 M411.72 281.38 C295.06 281.38, 178.39 281.38, 32 281.38 M32 281.38 C10.67 281.38, 0 270.72, 0 249.38 M32 281.38 C10.67 281.38, 0 270.72, 0 249.38 M0 249.38 C0 169.5, 0 89.63, 0 32 M0 249.38 C0 165.15, 0 80.92, 0 32 M0 32 C0 10.67, 10.67 0, 32 0 M0 32 C0 10.67, 10.67 0, 32 0" stroke="#000000" stroke-width="2" fill="none"></path></g><g transform="translate(1014.8087788032371 157.71977427424144) rotate(0 56.03333282470703 16.09999999999991)"><text x="56.03333282470703" y="0" font-family="Helvetica, Segoe UI Emoji" font-size="28px" fill="#000000" text-anchor="middle" style="white-space: pre;" direction="ltr" dominant-baseline="text-before-edge">Designer</text></g><g stroke-linecap="round" transform="translate(872.1892707468542 87.31869910444539) rotate(0 199.5 15)"><path d="M7.5 0 L391.5 0 L394.78 0.47 L397.13 1.88 L398.53 4.22 L399 22.5 L398.53 25.78 L397.13 28.13 L394.78 29.53 L391.5 30 L7.5 30 L4.22 29.53 L1.88 28.13 L0.47 25.78 L0 22.5 L0.47 4.22 L1.88 1.88 L4.22 0.47 L7.5 0" stroke="none" stroke-width="0" fill="#ced4da"></path><path d="M7.5 0 M7.5 0 C105.47 0, 203.43 0, 391.5 0 M7.5 0 C159.81 0, 312.12 0, 391.5 0 M391.5 0 C396.5 0, 399 2.5, 399 7.5 M391.5 0 C396.5 0, 399 2.5, 399 7.5 M399 7.5 C399 12.08, 399 16.67, 399 22.5 M399 7.5 C399 12.7, 399 17.9, 399 22.5 M399 22.5 C399 27.5, 396.5 30, 391.5 30 M399 22.5 C399 27.5, 396.5 30, 391.5 30 M391.5 30 C250.26 30, 109.02 30, 7.5 30 M391.5 30 C272.07 30, 152.65 30, 7.5 30 M7.5 30 C2.5 30, 0 27.5, 0 22.5 M7.5 30 C2.5 30, 0 27.5, 0 22.5 M0 22.5 C0 16.93, 0 11.36, 0 7.5 M0 22.5 C0 17.03, 0 11.57, 0 7.5 M0 7.5 C0 2.5, 2.5 0, 7.5 0 M0 7.5 C0 2.5, 2.5 0, 7.5 0" stroke="#000000" stroke-width="2" fill="none"></path></g><g transform="translate(967.614273798612 93.11869910444557) rotate(0 104.07499694824219 9.200000000000045)"><text x="104.07499694824219" y="0" font-family="Helvetica, Segoe UI Emoji" font-size="16px" fill="#000000" text-anchor="middle" style="white-space: pre;" direction="ltr" dominant-baseline="text-before-edge">make.momentumresearch.eu</text></g><g stroke-linecap="round" transform="translate(873.331466036303 48.576345698434125) rotate(0 9.019487851887789 9.019487851887789)"><path d="M18.04 9.02 C18.04 9.54, 17.99 10.07, 17.9 10.59 C17.81 11.1, 17.67 11.61, 17.5 12.1 C17.32 12.59, 17.09 13.08, 16.83 13.53 C16.57 13.98, 16.26 14.42, 15.93 14.82 C15.59 15.22, 15.22 15.59, 14.82 15.93 C14.42 16.26, 13.98 16.57, 13.53 16.83 C13.08 17.09, 12.59 17.32, 12.1 17.5 C11.61 17.67, 11.1 17.81, 10.59 17.9 C10.07 17.99, 9.54 18.04, 9.02 18.04 C8.5 18.04, 7.97 17.99, 7.45 17.9 C6.94 17.81, 6.43 17.67, 5.93 17.5 C5.44 17.32, 4.96 17.09, 4.51 16.83 C4.06 16.57, 3.62 16.26, 3.22 15.93 C2.82 15.59, 2.45 15.22, 2.11 14.82 C1.77 14.42, 1.47 13.98, 1.21 13.53 C0.95 13.08, 0.72 12.59, 0.54 12.1 C0.37 11.61, 0.23 11.1, 0.14 10.59 C0.05 10.07, 0 9.54, 0 9.02 C0 8.5, 0.05 7.97, 0.14 7.45 C0.23 6.94, 0.37 6.43, 0.54 5.93 C0.72 5.44, 0.95 4.96, 1.21 4.51 C1.47 4.06, 1.77 3.62, 2.11 3.22 C2.45 2.82, 2.82 2.45, 3.22 2.11 C3.62 1.77, 4.06 1.47, 4.51 1.21 C4.96 0.95, 5.44 0.72, 5.93 0.54 C6.43 0.37, 6.94 0.23, 7.45 0.14 C7.97 0.05, 8.5 0, 9.02 0 C9.54 0, 10.07 0.05, 10.59 0.14 C11.1 0.23, 11.61 0.37, 12.1 0.54 C12.59 0.72, 13.08 0.95, 13.53 1.21 C13.98 1.47, 14.42 1.77, 14.82 2.11 C15.22 2.45, 15.59 2.82, 15.93 3.22 C16.26 3.62, 16.57 4.06, 16.83 4.51 C17.09 4.96, 17.32 5.44, 17.5 5.93 C17.67 6.43, 17.81 6.94, 17.9 7.45 C17.99 7.97, 18.02 8.76, 18.04 9.02 C18.06 9.28, 18.06 8.76, 18.04 9.02" stroke="none" stroke-width="0" fill="#ced4da"></path><path d="M18.04 9.02 C18.04 9.54, 17.99 10.07, 17.9 10.59 C17.81 11.1, 17.67 11.61, 17.5 12.1 C17.32 12.59, 17.09 13.08, 16.83 13.53 C16.57 13.98, 16.26 14.42, 15.93 14.82 C15.59 15.22, 15.22 15.59, 14.82 15.93 C14.42 16.26, 13.98 16.57, 13.53 16.83 C13.08 17.09, 12.59 17.32, 12.1 17.5 C11.61 17.67, 11.1 17.81, 10.59 17.9 C10.07 17.99, 9.54 18.04, 9.02 18.04 C8.5 18.04, 7.97 17.99, 7.45 17.9 C6.94 17.81, 6.43 17.67, 5.93 17.5 C5.44 17.32, 4.96 17.09, 4.51 16.83 C4.06 16.57, 3.62 16.26, 3.22 15.93 C2.82 15.59, 2.45 15.22, 2.11 14.82 C1.77 14.42, 1.47 13.98, 1.21 13.53 C0.95 13.08, 0.72 12.59, 0.54 12.1 C0.37 11.61, 0.23 11.1, 0.14 10.59 C0.05 10.07, 0 9.54, 0 9.02 C0 8.5, 0.05 7.97, 0.14 7.45 C0.23 6.94, 0.37 6.43, 0.54 5.93 C0.72 5.44, 0.95 4.96, 1.21 4.51 C1.47 4.06, 1.77 3.62, 2.11 3.22 C2.45 2.82, 2.82 2.45, 3.22 2.11 C3.62 1.77, 4.06 1.47, 4.51 1.21 C4.96 0.95, 5.44 0.72, 5.93 0.54 C6.43 0.37, 6.94 0.23, 7.45 0.14 C7.97 0.05, 8.5 0, 9.02 0 C9.54 0, 10.07 0.05, 10.59 0.14 C11.1 0.23, 11.61 0.37, 12.1 0.54 C12.59 0.72, 13.08 0.95, 13.53 1.21 C13.98 1.47, 14.42 1.77, 14.82 2.11 C15.22 2.45, 15.59 2.82, 15.93 3.22 C16.26 3.62, 16.57 4.06, 16.83 4.51 C17.09 4.96, 17.32 5.44, 17.5 5.93 C17.67 6.43, 17.81 6.94, 17.9 7.45 C17.99 7.97, 18.02 8.76, 18.04 9.02 C18.06 9.28, 18.06 8.76, 18.04 9.02" stroke="#000000" stroke-width="2" fill="none"></path></g><g stroke-linecap="round" transform="translate(903.331466036303 48.576345698434125) rotate(0 9.019487851887789 9.019487851887789)"><path d="M18.04 9.02 C18.04 9.54, 17.99 10.07, 17.9 10.59 C17.81 11.1, 17.67 11.61, 17.5 12.1 C17.32 12.59, 17.09 13.08, 16.83 13.53 C16.57 13.98, 16.26 14.42, 15.93 14.82 C15.59 15.22, 15.22 15.59, 14.82 15.93 C14.42 16.26, 13.98 16.57, 13.53 16.83 C13.08 17.09, 12.59 17.32, 12.1 17.5 C11.61 17.67, 11.1 17.81, 10.59 17.9 C10.07 17.99, 9.54 18.04, 9.02 18.04 C8.5 18.04, 7.97 17.99, 7.45 17.9 C6.94 17.81, 6.43 17.67, 5.93 17.5 C5.44 17.32, 4.96 17.09, 4.51 16.83 C4.06 16.57, 3.62 16.26, 3.22 15.93 C2.82 15.59, 2.45 15.22, 2.11 14.82 C1.77 14.42, 1.47 13.98, 1.21 13.53 C0.95 13.08, 0.72 12.59, 0.54 12.1 C0.37 11.61, 0.23 11.1, 0.14 10.59 C0.05 10.07, 0 9.54, 0 9.02 C0 8.5, 0.05 7.97, 0.14 7.45 C0.23 6.94, 0.37 6.43, 0.54 5.93 C0.72 5.44, 0.95 4.96, 1.21 4.51 C1.47 4.06, 1.77 3.62, 2.11 3.22 C2.45 2.82, 2.82 2.45, 3.22 2.11 C3.62 1.77, 4.06 1.47, 4.51 1.21 C4.96 0.95, 5.44 0.72, 5.93 0.54 C6.43 0.37, 6.94 0.23, 7.45 0.14 C7.97 0.05, 8.5 0, 9.02 0 C9.54 0, 10.07 0.05, 10.59 0.14 C11.1 0.23, 11.61 0.37, 12.1 0.54 C12.59 0.72, 13.08 0.95, 13.53 1.21 C13.98 1.47, 14.42 1.77, 14.82 2.11 C15.22 2.45, 15.59 2.82, 15.93 3.22 C16.26 3.62, 16.57 4.06, 16.83 4.51 C17.09 4.96, 17.32 5.44, 17.5 5.93 C17.67 6.43, 17.81 6.94, 17.9 7.45 C17.99 7.97, 18.02 8.76, 18.04 9.02 C18.06 9.28, 18.06 8.76, 18.04 9.02" stroke="none" stroke-width="0" fill="#ced4da"></path><path d="M18.04 9.02 C18.04 9.54, 17.99 10.07, 17.9 10.59 C17.81 11.1, 17.67 11.61, 17.5 12.1 C17.32 12.59, 17.09 13.08, 16.83 13.53 C16.57 13.98, 16.26 14.42, 15.93 14.82 C15.59 15.22, 15.22 15.59, 14.82 15.93 C14.42 16.26, 13.98 16.57, 13.53 16.83 C13.08 17.09, 12.59 17.32, 12.1 17.5 C11.61 17.67, 11.1 17.81, 10.59 17.9 C10.07 17.99, 9.54 18.04, 9.02 18.04 C8.5 18.04, 7.97 17.99, 7.45 17.9 C6.94 17.81, 6.43 17.67, 5.93 17.5 C5.44 17.32, 4.96 17.09, 4.51 16.83 C4.06 16.57, 3.62 16.26, 3.22 15.93 C2.82 15.59, 2.45 15.22, 2.11 14.82 C1.77 14.42, 1.47 13.98, 1.21 13.53 C0.95 13.08, 0.72 12.59, 0.54 12.1 C0.37 11.61, 0.23 11.1, 0.14 10.59 C0.05 10.07, 0 9.54, 0 9.02 C0 8.5, 0.05 7.97, 0.14 7.45 C0.23 6.94, 0.37 6.43, 0.54 5.93 C0.72 5.44, 0.95 4.96, 1.21 4.51 C1.47 4.06, 1.77 3.62, 2.11 3.22 C2.45 2.82, 2.82 2.45, 3.22 2.11 C3.62 1.77, 4.06 1.47, 4.51 1.21 C4.96 0.95, 5.44 0.72, 5.93 0.54 C6.43 0.37, 6.94 0.23, 7.45 0.14 C7.97 0.05, 8.5 0, 9.02 0 C9.54 0, 10.07 0.05, 10.59 0.14 C11.1 0.23, 11.61 0.37, 12.1 0.54 C12.59 0.72, 13.08 0.95, 13.53 1.21 C13.98 1.47, 14.42 1.77, 14.82 2.11 C15.22 2.45, 15.59 2.82, 15.93 3.22 C16.26 3.62, 16.57 4.06, 16.83 4.51 C17.09 4.96, 17.32 5.44, 17.5 5.93 C17.67 6.43, 17.81 6.94, 17.9 7.45 C17.99 7.97, 18.02 8.76, 18.04 9.02 C18.06 9.28, 18.06 8.76, 18.04 9.02" stroke="#000000" stroke-width="2" fill="none"></path></g><g stroke-linecap="round" transform="translate(933.331466036303 48.576345698434125) rotate(0 9.019487851887789 9.019487851887789)"><path d="M18.04 9.02 C18.04 9.54, 17.99 10.07, 17.9 10.59 C17.81 11.1, 17.67 11.61, 17.5 12.1 C17.32 12.59, 17.09 13.08, 16.83 13.53 C16.57 13.98, 16.26 14.42, 15.93 14.82 C15.59 15.22, 15.22 15.59, 14.82 15.93 C14.42 16.26, 13.98 16.57, 13.53 16.83 C13.08 17.09, 12.59 17.32, 12.1 17.5 C11.61 17.67, 11.1 17.81, 10.59 17.9 C10.07 17.99, 9.54 18.04, 9.02 18.04 C8.5 18.04, 7.97 17.99, 7.45 17.9 C6.94 17.81, 6.43 17.67, 5.93 17.5 C5.44 17.32, 4.96 17.09, 4.51 16.83 C4.06 16.57, 3.62 16.26, 3.22 15.93 C2.82 15.59, 2.45 15.22, 2.11 14.82 C1.77 14.42, 1.47 13.98, 1.21 13.53 C0.95 13.08, 0.72 12.59, 0.54 12.1 C0.37 11.61, 0.23 11.1, 0.14 10.59 C0.05 10.07, 0 9.54, 0 9.02 C0 8.5, 0.05 7.97, 0.14 7.45 C0.23 6.94, 0.37 6.43, 0.54 5.93 C0.72 5.44, 0.95 4.96, 1.21 4.51 C1.47 4.06, 1.77 3.62, 2.11 3.22 C2.45 2.82, 2.82 2.45, 3.22 2.11 C3.62 1.77, 4.06 1.47, 4.51 1.21 C4.96 0.95, 5.44 0.72, 5.93 0.54 C6.43 0.37, 6.94 0.23, 7.45 0.14 C7.97 0.05, 8.5 0, 9.02 0 C9.54 0, 10.07 0.05, 10.59 0.14 C11.1 0.23, 11.61 0.37, 12.1 0.54 C12.59 0.72, 13.08 0.95, 13.53 1.21 C13.98 1.47, 14.42 1.77, 14.82 2.11 C15.22 2.45, 15.59 2.82, 15.93 3.22 C16.26 3.62, 16.57 4.06, 16.83 4.51 C17.09 4.96, 17.32 5.44, 17.5 5.93 C17.67 6.43, 17.81 6.94, 17.9 7.45 C17.99 7.97, 18.02 8.76, 18.04 9.02 C18.06 9.28, 18.06 8.76, 18.04 9.02" stroke="none" stroke-width="0" fill="#ced4da"></path><path d="M18.04 9.02 C18.04 9.54, 17.99 10.07, 17.9 10.59 C17.81 11.1, 17.67 11.61, 17.5 12.1 C17.32 12.59, 17.09 13.08, 16.83 13.53 C16.57 13.98, 16.26 14.42, 15.93 14.82 C15.59 15.22, 15.22 15.59, 14.82 15.93 C14.42 16.26, 13.98 16.57, 13.53 16.83 C13.08 17.09, 12.59 17.32, 12.1 17.5 C11.61 17.67, 11.1 17.81, 10.59 17.9 C10.07 17.99, 9.54 18.04, 9.02 18.04 C8.5 18.04, 7.97 17.99, 7.45 17.9 C6.94 17.81, 6.43 17.67, 5.93 17.5 C5.44 17.32, 4.96 17.09, 4.51 16.83 C4.06 16.57, 3.62 16.26, 3.22 15.93 C2.82 15.59, 2.45 15.22, 2.11 14.82 C1.77 14.42, 1.47 13.98, 1.21 13.53 C0.95 13.08, 0.72 12.59, 0.54 12.1 C0.37 11.61, 0.23 11.1, 0.14 10.59 C0.05 10.07, 0 9.54, 0 9.02 C0 8.5, 0.05 7.97, 0.14 7.45 C0.23 6.94, 0.37 6.43, 0.54 5.93 C0.72 5.44, 0.95 4.96, 1.21 4.51 C1.47 4.06, 1.77 3.62, 2.11 3.22 C2.45 2.82, 2.82 2.45, 3.22 2.11 C3.62 1.77, 4.06 1.47, 4.51 1.21 C4.96 0.95, 5.44 0.72, 5.93 0.54 C6.43 0.37, 6.94 0.23, 7.45 0.14 C7.97 0.05, 8.5 0, 9.02 0 C9.54 0, 10.07 0.05, 10.59 0.14 C11.1 0.23, 11.61 0.37, 12.1 0.54 C12.59 0.72, 13.08 0.95, 13.53 1.21 C13.98 1.47, 14.42 1.77, 14.82 2.11 C15.22 2.45, 15.59 2.82, 15.93 3.22 C16.26 3.62, 16.57 4.06, 16.83 4.51 C17.09 4.96, 17.32 5.44, 17.5 5.93 C17.67 6.43, 17.81 6.94, 17.9 7.45 C17.99 7.97, 18.02 8.76, 18.04 9.02 C18.06 9.28, 18.06 8.76, 18.04 9.02" stroke="#000000" stroke-width="2" fill="none"></path></g><g mask="url(#mask-MJhX13OQqzVvBB4j5LZBp)" stroke-linecap="round"><g transform="translate(298.1410278823005 893.9750157632961) rotate(0 321.2469660999086 0.7888417101848972)"><path d="M0 0 C107.08 0.26, 535.41 1.31, 642.49 1.58 M0 0 C107.08 0.26, 535.41 1.31, 642.49 1.58" stroke="#000000" stroke-width="2" fill="none"></path></g><g transform="translate(298.1410278823005 893.9750157632961) rotate(0 321.2469660999086 0.7888417101848972)"><path d="M642.49 1.58 L628.88 7.88 L628.91 -4.79 L642.49 1.58" stroke="none" stroke-width="0" fill="#000000" fill-rule="evenodd"></path><path d="M642.49 1.58 C639.58 2.93, 636.67 4.27, 628.88 7.88 M642.49 1.58 C639.11 3.15, 635.72 4.72, 628.88 7.88 M628.88 7.88 C628.89 5.06, 628.9 2.23, 628.91 -4.79 M628.88 7.88 C628.89 4.95, 628.9 2.01, 628.91 -4.79 M628.91 -4.79 C633.14 -2.81, 637.37 -0.83, 642.49 1.58 M628.91 -4.79 C633.33 -2.72, 637.74 -0.65, 642.49 1.58 M642.49 1.58 C642.49 1.58, 642.49 1.58, 642.49 1.58 M642.49 1.58 C642.49 1.58, 642.49 1.58, 642.49 1.58" stroke="#000000" stroke-width="2" fill="none"></path></g></g><mask id="mask-MJhX13OQqzVvBB4j5LZBp"><rect x="0" y="0" fill="#fff" width="1040.6349600821177" height="995.5526991836659"></rect><rect x="437.321328332795" y="878.6638574734811" fill="#000" width="364.1333312988281" height="32.199999999999996" opacity="1"></rect></mask><g transform="translate(437.321328332795 878.6638574734811) rotate(0 182.06666564941406 16.09999999999991)"><text x="182.06666564941406" y="0" font-family="Helvetica, Segoe UI Emoji" font-size="28px" fill="#000000" text-anchor="middle" style="white-space: pre;" direction="ltr" dominant-baseline="text-before-edge">Sends response and log data</text></g><g mask="url(#mask-AxddV_usdUda88LTHQxA1)" stroke-linecap="round"><g transform="translate(1076.8916174939477 447.68389022917563) rotate(0 -0.0463000543486487 164.06712581146257)"><path d="M0 0 C-0.02 54.69, -0.08 273.45, -0.09 328.13 M0 0 C-0.02 54.69, -0.08 273.45, -0.09 328.13" stroke="#000000" stroke-width="2" fill="none"></path></g><g transform="translate(1076.8916174939477 447.68389022917563) rotate(0 -0.0463000543486487 164.06712581146257)"><path d="M-0.09 328.13 L-6.43 314.54 L6.25 314.54 L-0.09 328.13" stroke="none" stroke-width="0" fill="#000000" fill-rule="evenodd"></path><path d="M-0.09 328.13 C-2.4 323.18, -4.71 318.23, -6.43 314.54 M-0.09 328.13 C-2.14 323.75, -4.18 319.36, -6.43 314.54 M-6.43 314.54 C-3.65 314.54, -0.87 314.54, 6.25 314.54 M-6.43 314.54 C-2.02 314.54, 2.38 314.54, 6.25 314.54 M6.25 314.54 C4.74 317.78, 3.22 321.03, -0.09 328.13 M6.25 314.54 C4.37 318.58, 2.49 322.61, -0.09 328.13 M-0.09 328.13 C-0.09 328.13, -0.09 328.13, -0.09 328.13 M-0.09 328.13 C-0.09 328.13, -0.09 328.13, -0.09 328.13" stroke="#000000" stroke-width="2" fill="none"></path></g></g><mask id="mask-AxddV_usdUda88LTHQxA1"><rect x="0" y="0" fill="#fff" width="1176.984217602645" height="875.8181418521008"></rect><rect x="999.8286472125492" y="595.6510160406383" fill="#000" width="154.03334045410156" height="32.199999999999996" opacity="1"></rect></mask><g transform="translate(999.8286472125492 595.6510160406383) rotate(0 77.01667022704987 16.09999999999991)"><text x="77.01667022705078" y="0" font-family="Helvetica, Segoe UI Emoji" font-size="28px" fill="#000000" text-anchor="middle" style="white-space: pre;" direction="ltr" dominant-baseline="text-before-edge">Sends study</text></g><g stroke-linecap="round" transform="translate(1698.6947088195702 885.1575863756038) rotate(0 131.5 59)"><path d="M29.5 0 L233.5 0 L240.41 0.46 L246.41 1.84 L251.48 4.15 L255.62 7.37 L258.85 11.52 L261.16 16.59 L262.54 22.59 L263 88.5 L262.54 95.41 L261.16 101.41 L258.85 106.48 L255.62 110.63 L251.48 113.85 L246.41 116.16 L240.41 117.54 L233.5 118 L29.5 118 L22.59 117.54 L16.59 116.16 L11.52 113.85 L7.37 110.63 L4.15 106.48 L1.84 101.41 L0.46 95.41 L0.46 22.59 L1.84 16.59 L4.15 11.52 L7.37 7.37 L11.52 4.15 L16.59 1.84 L22.59 0.46 L29.5 0" stroke="none" stroke-width="0" fill="#ced4da"></path><path d="M29.5 0 M29.5 0 C92.25 0, 154.99 0, 233.5 0 M29.5 0 C77.14 0, 124.78 0, 233.5 0 M233.5 0 C253.17 0, 263 9.83, 263 29.5 M233.5 0 C253.17 0, 263 9.83, 263 29.5 M263 29.5 C263 47.64, 263 65.78, 263 88.5 M263 29.5 C263 46.63, 263 63.76, 263 88.5 M263 88.5 C263 108.17, 253.17 118, 233.5 118 M263 88.5 C263 108.17, 253.17 118, 233.5 118 M233.5 118 C165.77 118, 98.04 118, 29.5 118 M233.5 118 C191.91 118, 150.33 118, 29.5 118 M29.5 118 C9.83 118, 0 108.17, 0 88.5 M29.5 118 C9.83 118, 0 108.17, 0 88.5 M0 88.5 C0 76.05, 0 63.61, 0 29.5 M0 88.5 C0 71.09, 0 53.68, 0 29.5 M0 29.5 C0 9.83, 9.83 0, 29.5 0 M0 29.5 C0 9.83, 9.83 0, 29.5 0" stroke="#000000" stroke-width="2" fill="none"></path></g><g transform="translate(1759.1613759948632 923.457586375604) rotate(0 71.03333282470703 20.700000000000045)"><text x="71.03333282470703" y="0" font-family="Helvetica, Segoe UI Emoji" font-size="36px" fill="#000000" text-anchor="middle" style="white-space: pre;" direction="ltr" dominant-baseline="text-before-edge">REDCap</text></g><g mask="url(#mask-5wPicVRVJyoPEc62DYde8)" stroke-linecap="round"><g transform="translate(1199.1629795257231 934.542469850971) rotate(0 239.5261605807691 0.5184259178433877)"><path d="M0 0 C79.84 0.17, 399.21 0.86, 479.05 1.04 M0 0 C79.84 0.17, 399.21 0.86, 479.05 1.04" stroke="#000000" stroke-width="2" fill="none"></path></g><g transform="translate(1199.1629795257231 934.542469850971) rotate(0 239.5261605807691 0.5184259178433877)"><path d="M479.05 1.04 L465.44 7.35 L465.47 -5.33 L479.05 1.04" stroke="none" stroke-width="0" fill="#000000" fill-rule="evenodd"></path><path d="M479.05 1.04 C473.77 3.48, 468.49 5.93, 465.44 7.35 M479.05 1.04 C474.06 3.35, 469.07 5.66, 465.44 7.35 M465.44 7.35 C465.45 2.6, 465.46 -2.15, 465.47 -5.33 M465.44 7.35 C465.45 2.43, 465.47 -2.48, 465.47 -5.33 M465.47 -5.33 C468.69 -3.82, 471.91 -2.31, 479.05 1.04 M465.47 -5.33 C470 -3.21, 474.53 -1.09, 479.05 1.04 M479.05 1.04 C479.05 1.04, 479.05 1.04, 479.05 1.04 M479.05 1.04 C479.05 1.04, 479.05 1.04, 479.05 1.04" stroke="#000000" stroke-width="2" fill="none"></path></g></g><mask id="mask-5wPicVRVJyoPEc62DYde8"><rect x="0" y="0" fill="#fff" width="1778.2153006872613" height="1035.5793216866577"></rect><rect x="1332.8891370547335" y="902.8608957688148" fill="#000" width="211.60000610351562" height="64.39999999999999" opacity="1"></rect></mask><g transform="translate(1332.8891370547335 902.8608957688148) rotate(0 105.80000305175872 32.19999999999959)"><text x="105.80000305175781" y="0" font-family="Helvetica, Segoe UI Emoji" font-size="28px" fill="#000000" text-anchor="middle" style="white-space: pre;" direction="ltr" dominant-baseline="text-before-edge">Creates projects,</text><text x="105.80000305175781" y="32.199999999999996" font-family="Helvetica, Segoe UI Emoji" font-size="28px" fill="#000000" text-anchor="middle" style="white-space: pre;" direction="ltr" dominant-baseline="text-before-edge">Sends records</text></g><g mask="url(#mask-PZiIA32liKFPz32uj7Ly9)" stroke-linecap="round"><g transform="translate(932.2109949611095 1031.935291456517) rotate(0 -316.04072528506913 -3.6604858776424862)"><path d="M0 0 C-105.35 -1.22, -526.73 -6.1, -632.08 -7.32 M0 0 C-105.35 -1.22, -526.73 -6.1, -632.08 -7.32" stroke="#000000" stroke-width="2" fill="none"></path></g><g transform="translate(932.2109949611095 1031.935291456517) rotate(0 -316.04072528506913 -3.6604858776424862)"><path d="M-632.08 -7.32 L-618.41 -13.5 L-618.56 -0.82 L-632.08 -7.32" stroke="none" stroke-width="0" fill="#000000" fill-rule="evenodd"></path><path d="M-632.08 -7.32 C-627.66 -9.32, -623.24 -11.32, -618.41 -13.5 M-632.08 -7.32 C-626.69 -9.76, -621.3 -12.2, -618.41 -13.5 M-618.41 -13.5 C-618.45 -10.65, -618.48 -7.81, -618.56 -0.82 M-618.41 -13.5 C-618.47 -8.79, -618.52 -4.08, -618.56 -0.82 M-618.56 -0.82 C-623.18 -3.04, -627.8 -5.26, -632.08 -7.32 M-618.56 -0.82 C-622.17 -2.56, -625.77 -4.29, -632.08 -7.32 M-632.08 -7.32 C-632.08 -7.32, -632.08 -7.32, -632.08 -7.32 M-632.08 -7.32 C-632.08 -7.32, -632.08 -7.32, -632.08 -7.32" stroke="#000000" stroke-width="2" fill="none"></path></g></g><mask id="mask-PZiIA32liKFPz32uj7Ly9"><rect x="0" y="0" fill="#fff" width="1664.2924455312477" height="1139.256263211802"></rect><rect x="499.47027272779815" y="1012.1748055788744" fill="#000" width="233.39999389648438" height="32.199999999999996" opacity="1"></rect></mask><g transform="translate(499.47027272779815 1012.1748055788744) rotate(0 116.69999694824219 16.100000000000136)"><text x="116.69999694824219" y="0" font-family="Helvetica, Segoe UI Emoji" font-size="28px" fill="#000000" text-anchor="middle" style="white-space: pre;" direction="ltr" dominant-baseline="text-before-edge">Provides study link</text></g><g mask="url(#mask-_NtzhpGAwVQVxP2ngcRnZ)" stroke-linecap="round"><g transform="translate(1062.2788479384253 1109.263408539564) rotate(0 -2.0654766992074656 131.5197508033309)"><path d="M0 0 C-0.69 43.84, -3.44 219.2, -4.13 263.04 M0 0 C-0.69 43.84, -3.44 219.2, -4.13 263.04" stroke="#000000" stroke-width="2" fill="none"></path></g><g transform="translate(1062.2788479384253 1109.263408539564) rotate(0 -2.0654766992074656 131.5197508033309)"><path d="M0 0 L6.13 13.69 L-6.55 13.49 L0 0" stroke="none" stroke-width="0" fill="#000000" fill-rule="evenodd"></path><path d="M0 0 C2.31 5.16, 4.62 10.32, 6.13 13.69 M0 0 C1.35 3.01, 2.7 6.03, 6.13 13.69 M6.13 13.69 C3.08 13.64, 0.03 13.6, -6.55 13.49 M6.13 13.69 C3.18 13.65, 0.24 13.6, -6.55 13.49 M-6.55 13.49 C-5.23 10.78, -3.91 8.06, 0 0 M-6.55 13.49 C-5.14 10.58, -3.72 7.67, 0 0 M0 0 C0 0, 0 0, 0 0 M0 0 C0 0, 0 0, 0 0" stroke="#000000" stroke-width="2" fill="none"></path></g><g transform="translate(1062.2788479384253 1109.263408539564) rotate(0 -2.0654766992074656 131.5197508033309)"><path d="M-4.13 263.04 L-10.26 249.35 L2.42 249.55 L-4.13 263.04" stroke="none" stroke-width="0" fill="#000000" fill-rule="evenodd"></path><path d="M-4.13 263.04 C-6.44 257.88, -8.75 252.72, -10.26 249.35 M-4.13 263.04 C-5.48 260.02, -6.83 257.01, -10.26 249.35 M-10.26 249.35 C-7.21 249.39, -4.16 249.44, 2.42 249.55 M-10.26 249.35 C-7.31 249.39, -4.37 249.44, 2.42 249.55 M2.42 249.55 C1.1 252.26, -0.22 254.98, -4.13 263.04 M2.42 249.55 C1.01 252.46, -0.41 255.37, -4.13 263.04 M-4.13 263.04 C-4.13 263.04, -4.13 263.04, -4.13 263.04 M-4.13 263.04 C-4.13 263.04, -4.13 263.04, -4.13 263.04" stroke="#000000" stroke-width="2" fill="none"></path></g></g><mask id="mask-_NtzhpGAwVQVxP2ngcRnZ"><rect x="0" y="0" fill="#fff" width="1166.4098013368402" height="1472.3029101462257"></rect><rect x="971.5133742909766" y="1208.5831593428948" fill="#000" width="177.39999389648438" height="64.39999999999999" opacity="1"></rect></mask><g transform="translate(971.5133742909766 1208.5831593428948) rotate(0 88.69999694824128 32.200000000000045)"><text x="88.69999694824219" y="0" font-family="Helvetica, Segoe UI Emoji" font-size="28px" fill="#000000" text-anchor="middle" style="white-space: pre;" direction="ltr" dominant-baseline="text-before-edge">Study and </text><text x="88.69999694824219" y="32.199999999999996" font-family="Helvetica, Segoe UI Emoji" font-size="28px" fill="#000000" text-anchor="middle" style="white-space: pre;" direction="ltr" dominant-baseline="text-before-edge">response data</text></g><g stroke-linecap="round" transform="translate(841.1610606249087 670.9689985284872) rotate(0 216.488589741718 248.782467769488)"><path d="M0 0 C121.87 0, 243.75 0, 432.98 0 M432.98 0 C432.98 140.23, 432.98 280.45, 432.98 497.56 M432.98 497.56 C323.83 497.56, 214.68 497.56, 0 497.56 M0 497.56 C0 342.64, 0 187.71, 0 0" stroke="#c92a2a" stroke-width="2.5" fill="none" stroke-dasharray="8 10"></path></g><g transform="translate(1293.275353013687 668.5768594153192) rotate(0 120.68333435058594 11.5)"><text x="0" y="0" font-family="Helvetica, Segoe UI Emoji" font-size="20px" fill="#c92a2a" text-anchor="start" style="white-space: pre;" direction="ltr" dominant-baseline="text-before-edge">Backend System Boundary</text></g></svg>