<svg version="1.1" xmlns="http://www.w3.org/2000/svg" viewBox="0 0 2077.022896809036 1036.2986294354992" width="4154.045793618072" height="2072.5972588709983">
  <!-- svg-source:excalidraw -->
  
  <defs>
    <style class="style-fonts">
      @font-face {
        font-family: "Virgil";
        src: url("https://excalidraw.com/Virgil.woff2");
      }
      @font-face {
        font-family: "Cascadia";
        src: url("https://excalidraw.com/Cascadia.woff2");
      }
    </style>
  </defs>
  <rect x="0" y="0" width="2077.022896809036" height="1036.2986294354992" fill="#ffffff"></rect><g stroke-linecap="round" transform="translate(1848.507931049462 243.5665747936082) rotate(0 109.25748287978695 124.86569471975622)"><path d="M32 0 L194.01 0.5 L200.51 2 L206.01 4.5 L210.51 8 L214.01 12.5 L216.51 18 L218.01 24.5 L218.51 32 L218.51 217.73 L218.01 225.23 L216.51 231.73 L214.01 237.23 L210.51 241.73 L206.01 245.23 L200.51 247.73 L194.01 249.23 L186.51 249.73 L32 249.73 L24.5 249.23 L18 247.73 L12.5 245.23 L8 241.73 L4.5 237.23 L2 231.73 L0.5 225.23 L0 217.73 L0.5 24.5 L2 18 L4.5 12.5 L8 8 L12.5 4.5 L18 2 L24.5 0.5 L32 0" stroke="none" stroke-width="0" fill="#ced4da"></path><path d="M32 0 M32 0 C65.63 0, 99.26 0, 186.51 0 M32 0 C73.26 0, 114.51 0, 186.51 0 M186.51 0 C207.85 0, 218.51 10.67, 218.51 32 M186.51 0 C207.85 0, 218.51 10.67, 218.51 32 M218.51 32 C218.51 77.57, 218.51 123.13, 218.51 217.73 M218.51 32 C218.51 77.88, 218.51 123.76, 218.51 217.73 M218.51 217.73 C218.51 239.06, 207.85 249.73, 186.51 249.73 M218.51 217.73 C218.51 239.06, 207.85 249.73, 186.51 249.73 M186.51 249.73 C153.96 249.73, 121.41 249.73, 32 249.73 M186.51 249.73 C139.64 249.73, 92.76 249.73, 32 249.73 M32 249.73 C10.67 249.73, 0 239.06, 0 217.73 M32 249.73 C10.67 249.73, 0 239.06, 0 217.73 M0 217.73 C0 149.37, 0 81.01, 0 32 M0 217.73 C0 146.15, 0 74.58, 0 32 M0 32 C0 10.67, 10.67 0, 32 0 M0 32 C0 10.67, 10.67 0, 32 0" stroke="#000000" stroke-width="2" fill="none"></path></g><g stroke-linecap="round" transform="translate(1860.9985731032757 258.6680814876454) rotate(0 95.90887894512343 26.72763197994982)"><path d="M13.36 0 L178.45 0 L184.3 0.84 L186.6 1.88 L189.94 5.22 L191.61 10.23 L191.82 40.09 L190.98 45.94 L188.48 50.11 L186.6 51.58 L184.3 52.62 L178.45 53.46 L13.36 53.46 L7.52 52.62 L3.34 50.11 L0.84 45.94 L0.21 43.22 L0.21 10.23 L1.88 5.22 L5.22 1.88 L10.23 0.21 L13.36 0" stroke="none" stroke-width="0" fill="#ced4da"></path><path d="M13.36 0 M13.36 0 C57.61 0, 101.86 0, 178.45 0 M13.36 0 C71.04 0, 128.72 0, 178.45 0 M178.45 0 C187.36 0, 191.82 4.45, 191.82 13.36 M178.45 0 C187.36 0, 191.82 4.45, 191.82 13.36 M191.82 13.36 C191.82 22.26, 191.82 31.16, 191.82 40.09 M191.82 13.36 C191.82 22.42, 191.82 31.48, 191.82 40.09 M191.82 40.09 C191.82 49, 187.36 53.46, 178.45 53.46 M191.82 40.09 C191.82 49, 187.36 53.46, 178.45 53.46 M178.45 53.46 C116.58 53.46, 54.71 53.46, 13.36 53.46 M178.45 53.46 C128.54 53.46, 78.63 53.46, 13.36 53.46 M13.36 53.46 C4.45 53.46, 0 49, 0 40.09 M13.36 53.46 C4.45 53.46, 0 49, 0 40.09 M0 40.09 C0 33.39, 0 26.69, 0 13.36 M0 40.09 C0 31.14, 0 22.19, 0 13.36 M0 13.36 C0 4.45, 4.45 0, 13.36 0 M0 13.36 C0 4.45, 4.45 0, 13.36 0" stroke="#000000" stroke-width="2" fill="none"></path></g><g stroke-linecap="round" transform="translate(1860.9985731032757 327.6680814876454) rotate(0 95.90887894512343 26.72763197994982)"><path d="M13.36 0 L178.45 0 L184.3 0.84 L186.6 1.88 L189.94 5.22 L191.61 10.23 L191.82 40.09 L190.98 45.94 L188.48 50.11 L186.6 51.58 L184.3 52.62 L178.45 53.46 L13.36 53.46 L7.52 52.62 L3.34 50.11 L0.84 45.94 L0.21 43.22 L0.21 10.23 L1.88 5.22 L5.22 1.88 L10.23 0.21 L13.36 0" stroke="none" stroke-width="0" fill="#ced4da"></path><path d="M13.36 0 M13.36 0 C53.55 0, 93.74 0, 178.45 0 M13.36 0 C51.55 0, 89.74 0, 178.45 0 M178.45 0 C187.36 0, 191.82 4.45, 191.82 13.36 M178.45 0 C187.36 0, 191.82 4.45, 191.82 13.36 M191.82 13.36 C191.82 21.45, 191.82 29.53, 191.82 40.09 M191.82 13.36 C191.82 22.33, 191.82 31.29, 191.82 40.09 M191.82 40.09 C191.82 49, 187.36 53.46, 178.45 53.46 M191.82 40.09 C191.82 49, 187.36 53.46, 178.45 53.46 M178.45 53.46 C118.04 53.46, 57.62 53.46, 13.36 53.46 M178.45 53.46 C117.94 53.46, 57.43 53.46, 13.36 53.46 M13.36 53.46 C4.45 53.46, 0 49, 0 40.09 M13.36 53.46 C4.45 53.46, 0 49, 0 40.09 M0 40.09 C0 31.18, 0 22.26, 0 13.36 M0 40.09 C0 33.43, 0 26.77, 0 13.36 M0 13.36 C0 4.45, 4.45 0, 13.36 0 M0 13.36 C0 4.45, 4.45 0, 13.36 0" stroke="#000000" stroke-width="2" fill="none"></path></g><g stroke-linecap="round" transform="translate(1860.9985731032757 393.66808148764494) rotate(0 95.90887894512343 26.72763197994982)"><path d="M13.36 0 L178.45 0 L184.3 0.84 L186.6 1.88 L189.94 5.22 L191.61 10.23 L191.82 40.09 L190.98 45.94 L188.48 50.11 L186.6 51.58 L184.3 52.62 L178.45 53.46 L13.36 53.46 L7.52 52.62 L3.34 50.11 L0.84 45.94 L0.21 43.22 L0.21 10.23 L1.88 5.22 L5.22 1.88 L10.23 0.21 L13.36 0" stroke="none" stroke-width="0" fill="#ced4da"></path><path d="M13.36 0 M13.36 0 C62.45 0, 111.54 0, 178.45 0 M13.36 0 C74.39 0, 135.42 0, 178.45 0 M178.45 0 C187.36 0, 191.82 4.45, 191.82 13.36 M178.45 0 C187.36 0, 191.82 4.45, 191.82 13.36 M191.82 13.36 C191.82 20.94, 191.82 28.51, 191.82 40.09 M191.82 13.36 C191.82 19.64, 191.82 25.91, 191.82 40.09 M191.82 40.09 C191.82 49, 187.36 53.46, 178.45 53.46 M191.82 40.09 C191.82 49, 187.36 53.46, 178.45 53.46 M178.45 53.46 C120.5 53.46, 62.55 53.46, 13.36 53.46 M178.45 53.46 C144.72 53.46, 110.99 53.46, 13.36 53.46 M13.36 53.46 C4.45 53.46, 0 49, 0 40.09 M13.36 53.46 C4.45 53.46, 0 49, 0 40.09 M0 40.09 C0 34.56, 0 29.03, 0 13.36 M0 40.09 C0 30.17, 0 20.25, 0 13.36 M0 13.36 C0 4.45, 4.45 0, 13.36 0 M0 13.36 C0 4.45, 4.45 0, 13.36 0" stroke="#000000" stroke-width="2" fill="none"></path></g><g stroke-linecap="round" transform="translate(1888.6405356176256 279.58552519353725) rotate(0 5.402842559989949 5.4028425599894945)"><path d="M10.81 5.4 C10.81 5.72, 10.78 6.03, 10.72 6.34 C10.67 6.65, 10.59 6.96, 10.48 7.25 C10.37 7.54, 10.24 7.83, 10.08 8.1 C9.93 8.38, 9.74 8.64, 9.54 8.88 C9.34 9.12, 9.12 9.34, 8.88 9.54 C8.64 9.74, 8.38 9.93, 8.1 10.08 C7.83 10.24, 7.54 10.37, 7.25 10.48 C6.96 10.59, 6.65 10.67, 6.34 10.72 C6.03 10.78, 5.72 10.81, 5.4 10.81 C5.09 10.81, 4.77 10.78, 4.46 10.72 C4.16 10.67, 3.85 10.59, 3.55 10.48 C3.26 10.37, 2.97 10.24, 2.7 10.08 C2.43 9.93, 2.17 9.74, 1.93 9.54 C1.69 9.34, 1.47 9.12, 1.26 8.88 C1.06 8.64, 0.88 8.38, 0.72 8.1 C0.57 7.83, 0.43 7.54, 0.33 7.25 C0.22 6.96, 0.14 6.65, 0.08 6.34 C0.03 6.03, 0 5.72, 0 5.4 C0 5.09, 0.03 4.77, 0.08 4.46 C0.14 4.16, 0.22 3.85, 0.33 3.55 C0.43 3.26, 0.57 2.97, 0.72 2.7 C0.88 2.43, 1.06 2.17, 1.26 1.93 C1.47 1.69, 1.69 1.47, 1.93 1.26 C2.17 1.06, 2.43 0.88, 2.7 0.72 C2.97 0.57, 3.26 0.43, 3.55 0.33 C3.85 0.22, 4.16 0.14, 4.46 0.08 C4.77 0.03, 5.09 0, 5.4 0 C5.72 0, 6.03 0.03, 6.34 0.08 C6.65 0.14, 6.96 0.22, 7.25 0.33 C7.54 0.43, 7.83 0.57, 8.1 0.72 C8.38 0.88, 8.64 1.06, 8.88 1.26 C9.12 1.47, 9.34 1.69, 9.54 1.93 C9.74 2.17, 9.93 2.43, 10.08 2.7 C10.24 2.97, 10.37 3.26, 10.48 3.55 C10.59 3.85, 10.67 4.16, 10.72 4.46 C10.78 4.77, 10.79 5.25, 10.81 5.4 C10.82 5.56, 10.82 5.25, 10.81 5.4" stroke="none" stroke-width="0" fill="#ced4da"></path><path d="M10.81 5.4 C10.81 5.72, 10.78 6.03, 10.72 6.34 C10.67 6.65, 10.59 6.96, 10.48 7.25 C10.37 7.54, 10.24 7.83, 10.08 8.1 C9.93 8.38, 9.74 8.64, 9.54 8.88 C9.34 9.12, 9.12 9.34, 8.88 9.54 C8.64 9.74, 8.38 9.93, 8.1 10.08 C7.83 10.24, 7.54 10.37, 7.25 10.48 C6.96 10.59, 6.65 10.67, 6.34 10.72 C6.03 10.78, 5.72 10.81, 5.4 10.81 C5.09 10.81, 4.77 10.78, 4.46 10.72 C4.16 10.67, 3.85 10.59, 3.55 10.48 C3.26 10.37, 2.97 10.24, 2.7 10.08 C2.43 9.93, 2.17 9.74, 1.93 9.54 C1.69 9.34, 1.47 9.12, 1.26 8.88 C1.06 8.64, 0.88 8.38, 0.72 8.1 C0.57 7.83, 0.43 7.54, 0.33 7.25 C0.22 6.96, 0.14 6.65, 0.08 6.34 C0.03 6.03, 0 5.72, 0 5.4 C0 5.09, 0.03 4.77, 0.08 4.46 C0.14 4.16, 0.22 3.85, 0.33 3.55 C0.43 3.26, 0.57 2.97, 0.72 2.7 C0.88 2.43, 1.06 2.17, 1.26 1.93 C1.47 1.69, 1.69 1.47, 1.93 1.26 C2.17 1.06, 2.43 0.88, 2.7 0.72 C2.97 0.57, 3.26 0.43, 3.55 0.33 C3.85 0.22, 4.16 0.14, 4.46 0.08 C4.77 0.03, 5.09 0, 5.4 0 C5.72 0, 6.03 0.03, 6.34 0.08 C6.65 0.14, 6.96 0.22, 7.25 0.33 C7.54 0.43, 7.83 0.57, 8.1 0.72 C8.38 0.88, 8.64 1.06, 8.88 1.26 C9.12 1.47, 9.34 1.69, 9.54 1.93 C9.74 2.17, 9.93 2.43, 10.08 2.7 C10.24 2.97, 10.37 3.26, 10.48 3.55 C10.59 3.85, 10.67 4.16, 10.72 4.46 C10.78 4.77, 10.79 5.25, 10.81 5.4 C10.82 5.56, 10.82 5.25, 10.81 5.4" stroke="#000000" stroke-width="2" fill="none"></path></g><g stroke-linecap="round" transform="translate(1888.6405356176256 349.58552519353725) rotate(0 5.402842559989949 5.4028425599894945)"><path d="M10.81 5.4 C10.81 5.72, 10.78 6.03, 10.72 6.34 C10.67 6.65, 10.59 6.96, 10.48 7.25 C10.37 7.54, 10.24 7.83, 10.08 8.1 C9.93 8.38, 9.74 8.64, 9.54 8.88 C9.34 9.12, 9.12 9.34, 8.88 9.54 C8.64 9.74, 8.38 9.93, 8.1 10.08 C7.83 10.24, 7.54 10.37, 7.25 10.48 C6.96 10.59, 6.65 10.67, 6.34 10.72 C6.03 10.78, 5.72 10.81, 5.4 10.81 C5.09 10.81, 4.77 10.78, 4.46 10.72 C4.16 10.67, 3.85 10.59, 3.55 10.48 C3.26 10.37, 2.97 10.24, 2.7 10.08 C2.43 9.93, 2.17 9.74, 1.93 9.54 C1.69 9.34, 1.47 9.12, 1.26 8.88 C1.06 8.64, 0.88 8.38, 0.72 8.1 C0.57 7.83, 0.43 7.54, 0.33 7.25 C0.22 6.96, 0.14 6.65, 0.08 6.34 C0.03 6.03, 0 5.72, 0 5.4 C0 5.09, 0.03 4.77, 0.08 4.46 C0.14 4.16, 0.22 3.85, 0.33 3.55 C0.43 3.26, 0.57 2.97, 0.72 2.7 C0.88 2.43, 1.06 2.17, 1.26 1.93 C1.47 1.69, 1.69 1.47, 1.93 1.26 C2.17 1.06, 2.43 0.88, 2.7 0.72 C2.97 0.57, 3.26 0.43, 3.55 0.33 C3.85 0.22, 4.16 0.14, 4.46 0.08 C4.77 0.03, 5.09 0, 5.4 0 C5.72 0, 6.03 0.03, 6.34 0.08 C6.65 0.14, 6.96 0.22, 7.25 0.33 C7.54 0.43, 7.83 0.57, 8.1 0.72 C8.38 0.88, 8.64 1.06, 8.88 1.26 C9.12 1.47, 9.34 1.69, 9.54 1.93 C9.74 2.17, 9.93 2.43, 10.08 2.7 C10.24 2.97, 10.37 3.26, 10.48 3.55 C10.59 3.85, 10.67 4.16, 10.72 4.46 C10.78 4.77, 10.79 5.25, 10.81 5.4 C10.82 5.56, 10.82 5.25, 10.81 5.4" stroke="none" stroke-width="0" fill="#ced4da"></path><path d="M10.81 5.4 C10.81 5.72, 10.78 6.03, 10.72 6.34 C10.67 6.65, 10.59 6.96, 10.48 7.25 C10.37 7.54, 10.24 7.83, 10.08 8.1 C9.93 8.38, 9.74 8.64, 9.54 8.88 C9.34 9.12, 9.12 9.34, 8.88 9.54 C8.64 9.74, 8.38 9.93, 8.1 10.08 C7.83 10.24, 7.54 10.37, 7.25 10.48 C6.96 10.59, 6.65 10.67, 6.34 10.72 C6.03 10.78, 5.72 10.81, 5.4 10.81 C5.09 10.81, 4.77 10.78, 4.46 10.72 C4.16 10.67, 3.85 10.59, 3.55 10.48 C3.26 10.37, 2.97 10.24, 2.7 10.08 C2.43 9.93, 2.17 9.74, 1.93 9.54 C1.69 9.34, 1.47 9.12, 1.26 8.88 C1.06 8.64, 0.88 8.38, 0.72 8.1 C0.57 7.83, 0.43 7.54, 0.33 7.25 C0.22 6.96, 0.14 6.65, 0.08 6.34 C0.03 6.03, 0 5.72, 0 5.4 C0 5.09, 0.03 4.77, 0.08 4.46 C0.14 4.16, 0.22 3.85, 0.33 3.55 C0.43 3.26, 0.57 2.97, 0.72 2.7 C0.88 2.43, 1.06 2.17, 1.26 1.93 C1.47 1.69, 1.69 1.47, 1.93 1.26 C2.17 1.06, 2.43 0.88, 2.7 0.72 C2.97 0.57, 3.26 0.43, 3.55 0.33 C3.85 0.22, 4.16 0.14, 4.46 0.08 C4.77 0.03, 5.09 0, 5.4 0 C5.72 0, 6.03 0.03, 6.34 0.08 C6.65 0.14, 6.96 0.22, 7.25 0.33 C7.54 0.43, 7.83 0.57, 8.1 0.72 C8.38 0.88, 8.64 1.06, 8.88 1.26 C9.12 1.47, 9.34 1.69, 9.54 1.93 C9.74 2.17, 9.93 2.43, 10.08 2.7 C10.24 2.97, 10.37 3.26, 10.48 3.55 C10.59 3.85, 10.67 4.16, 10.72 4.46 C10.78 4.77, 10.79 5.25, 10.81 5.4 C10.82 5.56, 10.82 5.25, 10.81 5.4" stroke="#000000" stroke-width="2" fill="none"></path></g><g stroke-linecap="round" transform="translate(1888.6405356176256 414.5855251935377) rotate(0 5.402842559989949 5.4028425599894945)"><path d="M10.81 5.4 C10.81 5.72, 10.78 6.03, 10.72 6.34 C10.67 6.65, 10.59 6.96, 10.48 7.25 C10.37 7.54, 10.24 7.83, 10.08 8.1 C9.93 8.38, 9.74 8.64, 9.54 8.88 C9.34 9.12, 9.12 9.34, 8.88 9.54 C8.64 9.74, 8.38 9.93, 8.1 10.08 C7.83 10.24, 7.54 10.37, 7.25 10.48 C6.96 10.59, 6.65 10.67, 6.34 10.72 C6.03 10.78, 5.72 10.81, 5.4 10.81 C5.09 10.81, 4.77 10.78, 4.46 10.72 C4.16 10.67, 3.85 10.59, 3.55 10.48 C3.26 10.37, 2.97 10.24, 2.7 10.08 C2.43 9.93, 2.17 9.74, 1.93 9.54 C1.69 9.34, 1.47 9.12, 1.26 8.88 C1.06 8.64, 0.88 8.38, 0.72 8.1 C0.57 7.83, 0.43 7.54, 0.33 7.25 C0.22 6.96, 0.14 6.65, 0.08 6.34 C0.03 6.03, 0 5.72, 0 5.4 C0 5.09, 0.03 4.77, 0.08 4.46 C0.14 4.16, 0.22 3.85, 0.33 3.55 C0.43 3.26, 0.57 2.97, 0.72 2.7 C0.88 2.43, 1.06 2.17, 1.26 1.93 C1.47 1.69, 1.69 1.47, 1.93 1.26 C2.17 1.06, 2.43 0.88, 2.7 0.72 C2.97 0.57, 3.26 0.43, 3.55 0.33 C3.85 0.22, 4.16 0.14, 4.46 0.08 C4.77 0.03, 5.09 0, 5.4 0 C5.72 0, 6.03 0.03, 6.34 0.08 C6.65 0.14, 6.96 0.22, 7.25 0.33 C7.54 0.43, 7.83 0.57, 8.1 0.72 C8.38 0.88, 8.64 1.06, 8.88 1.26 C9.12 1.47, 9.34 1.69, 9.54 1.93 C9.74 2.17, 9.93 2.43, 10.08 2.7 C10.24 2.97, 10.37 3.26, 10.48 3.55 C10.59 3.85, 10.67 4.16, 10.72 4.46 C10.78 4.77, 10.79 5.25, 10.81 5.4 C10.82 5.56, 10.82 5.25, 10.81 5.4" stroke="none" stroke-width="0" fill="#ced4da"></path><path d="M10.81 5.4 C10.81 5.72, 10.78 6.03, 10.72 6.34 C10.67 6.65, 10.59 6.96, 10.48 7.25 C10.37 7.54, 10.24 7.83, 10.08 8.1 C9.93 8.38, 9.74 8.64, 9.54 8.88 C9.34 9.12, 9.12 9.34, 8.88 9.54 C8.64 9.74, 8.38 9.93, 8.1 10.08 C7.83 10.24, 7.54 10.37, 7.25 10.48 C6.96 10.59, 6.65 10.67, 6.34 10.72 C6.03 10.78, 5.72 10.81, 5.4 10.81 C5.09 10.81, 4.77 10.78, 4.46 10.72 C4.16 10.67, 3.85 10.59, 3.55 10.48 C3.26 10.37, 2.97 10.24, 2.7 10.08 C2.43 9.93, 2.17 9.74, 1.93 9.54 C1.69 9.34, 1.47 9.12, 1.26 8.88 C1.06 8.64, 0.88 8.38, 0.72 8.1 C0.57 7.83, 0.43 7.54, 0.33 7.25 C0.22 6.96, 0.14 6.65, 0.08 6.34 C0.03 6.03, 0 5.72, 0 5.4 C0 5.09, 0.03 4.77, 0.08 4.46 C0.14 4.16, 0.22 3.85, 0.33 3.55 C0.43 3.26, 0.57 2.97, 0.72 2.7 C0.88 2.43, 1.06 2.17, 1.26 1.93 C1.47 1.69, 1.69 1.47, 1.93 1.26 C2.17 1.06, 2.43 0.88, 2.7 0.72 C2.97 0.57, 3.26 0.43, 3.55 0.33 C3.85 0.22, 4.16 0.14, 4.46 0.08 C4.77 0.03, 5.09 0, 5.4 0 C5.72 0, 6.03 0.03, 6.34 0.08 C6.65 0.14, 6.96 0.22, 7.25 0.33 C7.54 0.43, 7.83 0.57, 8.1 0.72 C8.38 0.88, 8.64 1.06, 8.88 1.26 C9.12 1.47, 9.34 1.69, 9.54 1.93 C9.74 2.17, 9.93 2.43, 10.08 2.7 C10.24 2.97, 10.37 3.26, 10.48 3.55 C10.59 3.85, 10.67 4.16, 10.72 4.46 C10.78 4.77, 10.79 5.25, 10.81 5.4 C10.82 5.56, 10.82 5.25, 10.81 5.4" stroke="#000000" stroke-width="2" fill="none"></path></g><g stroke-linecap="round" transform="translate(1908.6405356176256 279.58552519353725) rotate(0 5.402842559989949 5.4028425599894945)"><path d="M10.81 5.4 C10.81 5.72, 10.78 6.03, 10.72 6.34 C10.67 6.65, 10.59 6.96, 10.48 7.25 C10.37 7.54, 10.24 7.83, 10.08 8.1 C9.93 8.38, 9.74 8.64, 9.54 8.88 C9.34 9.12, 9.12 9.34, 8.88 9.54 C8.64 9.74, 8.38 9.93, 8.1 10.08 C7.83 10.24, 7.54 10.37, 7.25 10.48 C6.96 10.59, 6.65 10.67, 6.34 10.72 C6.03 10.78, 5.72 10.81, 5.4 10.81 C5.09 10.81, 4.77 10.78, 4.46 10.72 C4.16 10.67, 3.85 10.59, 3.55 10.48 C3.26 10.37, 2.97 10.24, 2.7 10.08 C2.43 9.93, 2.17 9.74, 1.93 9.54 C1.69 9.34, 1.47 9.12, 1.26 8.88 C1.06 8.64, 0.88 8.38, 0.72 8.1 C0.57 7.83, 0.43 7.54, 0.33 7.25 C0.22 6.96, 0.14 6.65, 0.08 6.34 C0.03 6.03, 0 5.72, 0 5.4 C0 5.09, 0.03 4.77, 0.08 4.46 C0.14 4.16, 0.22 3.85, 0.33 3.55 C0.43 3.26, 0.57 2.97, 0.72 2.7 C0.88 2.43, 1.06 2.17, 1.26 1.93 C1.47 1.69, 1.69 1.47, 1.93 1.26 C2.17 1.06, 2.43 0.88, 2.7 0.72 C2.97 0.57, 3.26 0.43, 3.55 0.33 C3.85 0.22, 4.16 0.14, 4.46 0.08 C4.77 0.03, 5.09 0, 5.4 0 C5.72 0, 6.03 0.03, 6.34 0.08 C6.65 0.14, 6.96 0.22, 7.25 0.33 C7.54 0.43, 7.83 0.57, 8.1 0.72 C8.38 0.88, 8.64 1.06, 8.88 1.26 C9.12 1.47, 9.34 1.69, 9.54 1.93 C9.74 2.17, 9.93 2.43, 10.08 2.7 C10.24 2.97, 10.37 3.26, 10.48 3.55 C10.59 3.85, 10.67 4.16, 10.72 4.46 C10.78 4.77, 10.79 5.25, 10.81 5.4 C10.82 5.56, 10.82 5.25, 10.81 5.4" stroke="none" stroke-width="0" fill="#ced4da"></path><path d="M10.81 5.4 C10.81 5.72, 10.78 6.03, 10.72 6.34 C10.67 6.65, 10.59 6.96, 10.48 7.25 C10.37 7.54, 10.24 7.83, 10.08 8.1 C9.93 8.38, 9.74 8.64, 9.54 8.88 C9.34 9.12, 9.12 9.34, 8.88 9.54 C8.64 9.74, 8.38 9.93, 8.1 10.08 C7.83 10.24, 7.54 10.37, 7.25 10.48 C6.96 10.59, 6.65 10.67, 6.34 10.72 C6.03 10.78, 5.72 10.81, 5.4 10.81 C5.09 10.81, 4.77 10.78, 4.46 10.72 C4.16 10.67, 3.85 10.59, 3.55 10.48 C3.26 10.37, 2.97 10.24, 2.7 10.08 C2.43 9.93, 2.17 9.74, 1.93 9.54 C1.69 9.34, 1.47 9.12, 1.26 8.88 C1.06 8.64, 0.88 8.38, 0.72 8.1 C0.57 7.83, 0.43 7.54, 0.33 7.25 C0.22 6.96, 0.14 6.65, 0.08 6.34 C0.03 6.03, 0 5.72, 0 5.4 C0 5.09, 0.03 4.77, 0.08 4.46 C0.14 4.16, 0.22 3.85, 0.33 3.55 C0.43 3.26, 0.57 2.97, 0.72 2.7 C0.88 2.43, 1.06 2.17, 1.26 1.93 C1.47 1.69, 1.69 1.47, 1.93 1.26 C2.17 1.06, 2.43 0.88, 2.7 0.72 C2.97 0.57, 3.26 0.43, 3.55 0.33 C3.85 0.22, 4.16 0.14, 4.46 0.08 C4.77 0.03, 5.09 0, 5.4 0 C5.72 0, 6.03 0.03, 6.34 0.08 C6.65 0.14, 6.96 0.22, 7.25 0.33 C7.54 0.43, 7.83 0.57, 8.1 0.72 C8.38 0.88, 8.64 1.06, 8.88 1.26 C9.12 1.47, 9.34 1.69, 9.54 1.93 C9.74 2.17, 9.93 2.43, 10.08 2.7 C10.24 2.97, 10.37 3.26, 10.48 3.55 C10.59 3.85, 10.67 4.16, 10.72 4.46 C10.78 4.77, 10.79 5.25, 10.81 5.4 C10.82 5.56, 10.82 5.25, 10.81 5.4" stroke="#000000" stroke-width="2" fill="none"></path></g><g stroke-linecap="round" transform="translate(1908.6405356176256 349.58552519353725) rotate(0 5.402842559989949 5.4028425599894945)"><path d="M10.81 5.4 C10.81 5.72, 10.78 6.03, 10.72 6.34 C10.67 6.65, 10.59 6.96, 10.48 7.25 C10.37 7.54, 10.24 7.83, 10.08 8.1 C9.93 8.38, 9.74 8.64, 9.54 8.88 C9.34 9.12, 9.12 9.34, 8.88 9.54 C8.64 9.74, 8.38 9.93, 8.1 10.08 C7.83 10.24, 7.54 10.37, 7.25 10.48 C6.96 10.59, 6.65 10.67, 6.34 10.72 C6.03 10.78, 5.72 10.81, 5.4 10.81 C5.09 10.81, 4.77 10.78, 4.46 10.72 C4.16 10.67, 3.85 10.59, 3.55 10.48 C3.26 10.37, 2.97 10.24, 2.7 10.08 C2.43 9.93, 2.17 9.74, 1.93 9.54 C1.69 9.34, 1.47 9.12, 1.26 8.88 C1.06 8.64, 0.88 8.38, 0.72 8.1 C0.57 7.83, 0.43 7.54, 0.33 7.25 C0.22 6.96, 0.14 6.65, 0.08 6.34 C0.03 6.03, 0 5.72, 0 5.4 C0 5.09, 0.03 4.77, 0.08 4.46 C0.14 4.16, 0.22 3.85, 0.33 3.55 C0.43 3.26, 0.57 2.97, 0.72 2.7 C0.88 2.43, 1.06 2.17, 1.26 1.93 C1.47 1.69, 1.69 1.47, 1.93 1.26 C2.17 1.06, 2.43 0.88, 2.7 0.72 C2.97 0.57, 3.26 0.43, 3.55 0.33 C3.85 0.22, 4.16 0.14, 4.46 0.08 C4.77 0.03, 5.09 0, 5.4 0 C5.72 0, 6.03 0.03, 6.34 0.08 C6.65 0.14, 6.96 0.22, 7.25 0.33 C7.54 0.43, 7.83 0.57, 8.1 0.72 C8.38 0.88, 8.64 1.06, 8.88 1.26 C9.12 1.47, 9.34 1.69, 9.54 1.93 C9.74 2.17, 9.93 2.43, 10.08 2.7 C10.24 2.97, 10.37 3.26, 10.48 3.55 C10.59 3.85, 10.67 4.16, 10.72 4.46 C10.78 4.77, 10.79 5.25, 10.81 5.4 C10.82 5.56, 10.82 5.25, 10.81 5.4" stroke="none" stroke-width="0" fill="#ced4da"></path><path d="M10.81 5.4 C10.81 5.72, 10.78 6.03, 10.72 6.34 C10.67 6.65, 10.59 6.96, 10.48 7.25 C10.37 7.54, 10.24 7.83, 10.08 8.1 C9.93 8.38, 9.74 8.64, 9.54 8.88 C9.34 9.12, 9.12 9.34, 8.88 9.54 C8.64 9.74, 8.38 9.93, 8.1 10.08 C7.83 10.24, 7.54 10.37, 7.25 10.48 C6.96 10.59, 6.65 10.67, 6.34 10.72 C6.03 10.78, 5.72 10.81, 5.4 10.81 C5.09 10.81, 4.77 10.78, 4.46 10.72 C4.16 10.67, 3.85 10.59, 3.55 10.48 C3.26 10.37, 2.97 10.24, 2.7 10.08 C2.43 9.93, 2.17 9.74, 1.93 9.54 C1.69 9.34, 1.47 9.12, 1.26 8.88 C1.06 8.64, 0.88 8.38, 0.72 8.1 C0.57 7.83, 0.43 7.54, 0.33 7.25 C0.22 6.96, 0.14 6.65, 0.08 6.34 C0.03 6.03, 0 5.72, 0 5.4 C0 5.09, 0.03 4.77, 0.08 4.46 C0.14 4.16, 0.22 3.85, 0.33 3.55 C0.43 3.26, 0.57 2.97, 0.72 2.7 C0.88 2.43, 1.06 2.17, 1.26 1.93 C1.47 1.69, 1.69 1.47, 1.93 1.26 C2.17 1.06, 2.43 0.88, 2.7 0.72 C2.97 0.57, 3.26 0.43, 3.55 0.33 C3.85 0.22, 4.16 0.14, 4.46 0.08 C4.77 0.03, 5.09 0, 5.4 0 C5.72 0, 6.03 0.03, 6.34 0.08 C6.65 0.14, 6.96 0.22, 7.25 0.33 C7.54 0.43, 7.83 0.57, 8.1 0.72 C8.38 0.88, 8.64 1.06, 8.88 1.26 C9.12 1.47, 9.34 1.69, 9.54 1.93 C9.74 2.17, 9.93 2.43, 10.08 2.7 C10.24 2.97, 10.37 3.26, 10.48 3.55 C10.59 3.85, 10.67 4.16, 10.72 4.46 C10.78 4.77, 10.79 5.25, 10.81 5.4 C10.82 5.56, 10.82 5.25, 10.81 5.4" stroke="#000000" stroke-width="2" fill="none"></path></g><g stroke-linecap="round" transform="translate(1908.6405356176256 414.5855251935377) rotate(0 5.402842559989949 5.4028425599894945)"><path d="M10.81 5.4 C10.81 5.72, 10.78 6.03, 10.72 6.34 C10.67 6.65, 10.59 6.96, 10.48 7.25 C10.37 7.54, 10.24 7.83, 10.08 8.1 C9.93 8.38, 9.74 8.64, 9.54 8.88 C9.34 9.12, 9.12 9.34, 8.88 9.54 C8.64 9.74, 8.38 9.93, 8.1 10.08 C7.83 10.24, 7.54 10.37, 7.25 10.48 C6.96 10.59, 6.65 10.67, 6.34 10.72 C6.03 10.78, 5.72 10.81, 5.4 10.81 C5.09 10.81, 4.77 10.78, 4.46 10.72 C4.16 10.67, 3.85 10.59, 3.55 10.48 C3.26 10.37, 2.97 10.24, 2.7 10.08 C2.43 9.93, 2.17 9.74, 1.93 9.54 C1.69 9.34, 1.47 9.12, 1.26 8.88 C1.06 8.64, 0.88 8.38, 0.72 8.1 C0.57 7.83, 0.43 7.54, 0.33 7.25 C0.22 6.96, 0.14 6.65, 0.08 6.34 C0.03 6.03, 0 5.72, 0 5.4 C0 5.09, 0.03 4.77, 0.08 4.46 C0.14 4.16, 0.22 3.85, 0.33 3.55 C0.43 3.26, 0.57 2.97, 0.72 2.7 C0.88 2.43, 1.06 2.17, 1.26 1.93 C1.47 1.69, 1.69 1.47, 1.93 1.26 C2.17 1.06, 2.43 0.88, 2.7 0.72 C2.97 0.57, 3.26 0.43, 3.55 0.33 C3.85 0.22, 4.16 0.14, 4.46 0.08 C4.77 0.03, 5.09 0, 5.4 0 C5.72 0, 6.03 0.03, 6.34 0.08 C6.65 0.14, 6.96 0.22, 7.25 0.33 C7.54 0.43, 7.83 0.57, 8.1 0.72 C8.38 0.88, 8.64 1.06, 8.88 1.26 C9.12 1.47, 9.34 1.69, 9.54 1.93 C9.74 2.17, 9.93 2.43, 10.08 2.7 C10.24 2.97, 10.37 3.26, 10.48 3.55 C10.59 3.85, 10.67 4.16, 10.72 4.46 C10.78 4.77, 10.79 5.25, 10.81 5.4 C10.82 5.56, 10.82 5.25, 10.81 5.4" stroke="none" stroke-width="0" fill="#ced4da"></path><path d="M10.81 5.4 C10.81 5.72, 10.78 6.03, 10.72 6.34 C10.67 6.65, 10.59 6.96, 10.48 7.25 C10.37 7.54, 10.24 7.83, 10.08 8.1 C9.93 8.38, 9.74 8.64, 9.54 8.88 C9.34 9.12, 9.12 9.34, 8.88 9.54 C8.64 9.74, 8.38 9.93, 8.1 10.08 C7.83 10.24, 7.54 10.37, 7.25 10.48 C6.96 10.59, 6.65 10.67, 6.34 10.72 C6.03 10.78, 5.72 10.81, 5.4 10.81 C5.09 10.81, 4.77 10.78, 4.46 10.72 C4.16 10.67, 3.85 10.59, 3.55 10.48 C3.26 10.37, 2.97 10.24, 2.7 10.08 C2.43 9.93, 2.17 9.74, 1.93 9.54 C1.69 9.34, 1.47 9.12, 1.26 8.88 C1.06 8.64, 0.88 8.38, 0.72 8.1 C0.57 7.83, 0.43 7.54, 0.33 7.25 C0.22 6.96, 0.14 6.65, 0.08 6.34 C0.03 6.03, 0 5.72, 0 5.4 C0 5.09, 0.03 4.77, 0.08 4.46 C0.14 4.16, 0.22 3.85, 0.33 3.55 C0.43 3.26, 0.57 2.97, 0.72 2.7 C0.88 2.43, 1.06 2.17, 1.26 1.93 C1.47 1.69, 1.69 1.47, 1.93 1.26 C2.17 1.06, 2.43 0.88, 2.7 0.72 C2.97 0.57, 3.26 0.43, 3.55 0.33 C3.85 0.22, 4.16 0.14, 4.46 0.08 C4.77 0.03, 5.09 0, 5.4 0 C5.72 0, 6.03 0.03, 6.34 0.08 C6.65 0.14, 6.96 0.22, 7.25 0.33 C7.54 0.43, 7.83 0.57, 8.1 0.72 C8.38 0.88, 8.64 1.06, 8.88 1.26 C9.12 1.47, 9.34 1.69, 9.54 1.93 C9.74 2.17, 9.93 2.43, 10.08 2.7 C10.24 2.97, 10.37 3.26, 10.48 3.55 C10.59 3.85, 10.67 4.16, 10.72 4.46 C10.78 4.77, 10.79 5.25, 10.81 5.4 C10.82 5.56, 10.82 5.25, 10.81 5.4" stroke="#000000" stroke-width="2" fill="none"></path></g><g stroke-linecap="round" transform="translate(1928.6405356176256 279.58552519353725) rotate(0 5.402842559989949 5.4028425599894945)"><path d="M10.81 5.4 C10.81 5.72, 10.78 6.03, 10.72 6.34 C10.67 6.65, 10.59 6.96, 10.48 7.25 C10.37 7.54, 10.24 7.83, 10.08 8.1 C9.93 8.38, 9.74 8.64, 9.54 8.88 C9.34 9.12, 9.12 9.34, 8.88 9.54 C8.64 9.74, 8.38 9.93, 8.1 10.08 C7.83 10.24, 7.54 10.37, 7.25 10.48 C6.96 10.59, 6.65 10.67, 6.34 10.72 C6.03 10.78, 5.72 10.81, 5.4 10.81 C5.09 10.81, 4.77 10.78, 4.46 10.72 C4.16 10.67, 3.85 10.59, 3.55 10.48 C3.26 10.37, 2.97 10.24, 2.7 10.08 C2.43 9.93, 2.17 9.74, 1.93 9.54 C1.69 9.34, 1.47 9.12, 1.26 8.88 C1.06 8.64, 0.88 8.38, 0.72 8.1 C0.57 7.83, 0.43 7.54, 0.33 7.25 C0.22 6.96, 0.14 6.65, 0.08 6.34 C0.03 6.03, 0 5.72, 0 5.4 C0 5.09, 0.03 4.77, 0.08 4.46 C0.14 4.16, 0.22 3.85, 0.33 3.55 C0.43 3.26, 0.57 2.97, 0.72 2.7 C0.88 2.43, 1.06 2.17, 1.26 1.93 C1.47 1.69, 1.69 1.47, 1.93 1.26 C2.17 1.06, 2.43 0.88, 2.7 0.72 C2.97 0.57, 3.26 0.43, 3.55 0.33 C3.85 0.22, 4.16 0.14, 4.46 0.08 C4.77 0.03, 5.09 0, 5.4 0 C5.72 0, 6.03 0.03, 6.34 0.08 C6.65 0.14, 6.96 0.22, 7.25 0.33 C7.54 0.43, 7.83 0.57, 8.1 0.72 C8.38 0.88, 8.64 1.06, 8.88 1.26 C9.12 1.47, 9.34 1.69, 9.54 1.93 C9.74 2.17, 9.93 2.43, 10.08 2.7 C10.24 2.97, 10.37 3.26, 10.48 3.55 C10.59 3.85, 10.67 4.16, 10.72 4.46 C10.78 4.77, 10.79 5.25, 10.81 5.4 C10.82 5.56, 10.82 5.25, 10.81 5.4" stroke="none" stroke-width="0" fill="#ced4da"></path><path d="M10.81 5.4 C10.81 5.72, 10.78 6.03, 10.72 6.34 C10.67 6.65, 10.59 6.96, 10.48 7.25 C10.37 7.54, 10.24 7.83, 10.08 8.1 C9.93 8.38, 9.74 8.64, 9.54 8.88 C9.34 9.12, 9.12 9.34, 8.88 9.54 C8.64 9.74, 8.38 9.93, 8.1 10.08 C7.83 10.24, 7.54 10.37, 7.25 10.48 C6.96 10.59, 6.65 10.67, 6.34 10.72 C6.03 10.78, 5.72 10.81, 5.4 10.81 C5.09 10.81, 4.77 10.78, 4.46 10.72 C4.16 10.67, 3.85 10.59, 3.55 10.48 C3.26 10.37, 2.97 10.24, 2.7 10.08 C2.43 9.93, 2.17 9.74, 1.93 9.54 C1.69 9.34, 1.47 9.12, 1.26 8.88 C1.06 8.64, 0.88 8.38, 0.72 8.1 C0.57 7.83, 0.43 7.54, 0.33 7.25 C0.22 6.96, 0.14 6.65, 0.08 6.34 C0.03 6.03, 0 5.72, 0 5.4 C0 5.09, 0.03 4.77, 0.08 4.46 C0.14 4.16, 0.22 3.85, 0.33 3.55 C0.43 3.26, 0.57 2.97, 0.72 2.7 C0.88 2.43, 1.06 2.17, 1.26 1.93 C1.47 1.69, 1.69 1.47, 1.93 1.26 C2.17 1.06, 2.43 0.88, 2.7 0.72 C2.97 0.57, 3.26 0.43, 3.55 0.33 C3.85 0.22, 4.16 0.14, 4.46 0.08 C4.77 0.03, 5.09 0, 5.4 0 C5.72 0, 6.03 0.03, 6.34 0.08 C6.65 0.14, 6.96 0.22, 7.25 0.33 C7.54 0.43, 7.83 0.57, 8.1 0.72 C8.38 0.88, 8.64 1.06, 8.88 1.26 C9.12 1.47, 9.34 1.69, 9.54 1.93 C9.74 2.17, 9.93 2.43, 10.08 2.7 C10.24 2.97, 10.37 3.26, 10.48 3.55 C10.59 3.85, 10.67 4.16, 10.72 4.46 C10.78 4.77, 10.79 5.25, 10.81 5.4 C10.82 5.56, 10.82 5.25, 10.81 5.4" stroke="#000000" stroke-width="2" fill="none"></path></g><g stroke-linecap="round" transform="translate(1928.6405356176256 349.58552519353725) rotate(0 5.402842559989949 5.4028425599894945)"><path d="M10.81 5.4 C10.81 5.72, 10.78 6.03, 10.72 6.34 C10.67 6.65, 10.59 6.96, 10.48 7.25 C10.37 7.54, 10.24 7.83, 10.08 8.1 C9.93 8.38, 9.74 8.64, 9.54 8.88 C9.34 9.12, 9.12 9.34, 8.88 9.54 C8.64 9.74, 8.38 9.93, 8.1 10.08 C7.83 10.24, 7.54 10.37, 7.25 10.48 C6.96 10.59, 6.65 10.67, 6.34 10.72 C6.03 10.78, 5.72 10.81, 5.4 10.81 C5.09 10.81, 4.77 10.78, 4.46 10.72 C4.16 10.67, 3.85 10.59, 3.55 10.48 C3.26 10.37, 2.97 10.24, 2.7 10.08 C2.43 9.93, 2.17 9.74, 1.93 9.54 C1.69 9.34, 1.47 9.12, 1.26 8.88 C1.06 8.64, 0.88 8.38, 0.72 8.1 C0.57 7.83, 0.43 7.54, 0.33 7.25 C0.22 6.96, 0.14 6.65, 0.08 6.34 C0.03 6.03, 0 5.72, 0 5.4 C0 5.09, 0.03 4.77, 0.08 4.46 C0.14 4.16, 0.22 3.85, 0.33 3.55 C0.43 3.26, 0.57 2.97, 0.72 2.7 C0.88 2.43, 1.06 2.17, 1.26 1.93 C1.47 1.69, 1.69 1.47, 1.93 1.26 C2.17 1.06, 2.43 0.88, 2.7 0.72 C2.97 0.57, 3.26 0.43, 3.55 0.33 C3.85 0.22, 4.16 0.14, 4.46 0.08 C4.77 0.03, 5.09 0, 5.4 0 C5.72 0, 6.03 0.03, 6.34 0.08 C6.65 0.14, 6.96 0.22, 7.25 0.33 C7.54 0.43, 7.83 0.57, 8.1 0.72 C8.38 0.88, 8.64 1.06, 8.88 1.26 C9.12 1.47, 9.34 1.69, 9.54 1.93 C9.74 2.17, 9.93 2.43, 10.08 2.7 C10.24 2.97, 10.37 3.26, 10.48 3.55 C10.59 3.85, 10.67 4.16, 10.72 4.46 C10.78 4.77, 10.79 5.25, 10.81 5.4 C10.82 5.56, 10.82 5.25, 10.81 5.4" stroke="none" stroke-width="0" fill="#ced4da"></path><path d="M10.81 5.4 C10.81 5.72, 10.78 6.03, 10.72 6.34 C10.67 6.65, 10.59 6.96, 10.48 7.25 C10.37 7.54, 10.24 7.83, 10.08 8.1 C9.93 8.38, 9.74 8.64, 9.54 8.88 C9.34 9.12, 9.12 9.34, 8.88 9.54 C8.64 9.74, 8.38 9.93, 8.1 10.08 C7.83 10.24, 7.54 10.37, 7.25 10.48 C6.96 10.59, 6.65 10.67, 6.34 10.72 C6.03 10.78, 5.72 10.81, 5.4 10.81 C5.09 10.81, 4.77 10.78, 4.46 10.72 C4.16 10.67, 3.85 10.59, 3.55 10.48 C3.26 10.37, 2.97 10.24, 2.7 10.08 C2.43 9.93, 2.17 9.74, 1.93 9.54 C1.69 9.34, 1.47 9.12, 1.26 8.88 C1.06 8.64, 0.88 8.38, 0.72 8.1 C0.57 7.83, 0.43 7.54, 0.33 7.25 C0.22 6.96, 0.14 6.65, 0.08 6.34 C0.03 6.03, 0 5.72, 0 5.4 C0 5.09, 0.03 4.77, 0.08 4.46 C0.14 4.16, 0.22 3.85, 0.33 3.55 C0.43 3.26, 0.57 2.97, 0.72 2.7 C0.88 2.43, 1.06 2.17, 1.26 1.93 C1.47 1.69, 1.69 1.47, 1.93 1.26 C2.17 1.06, 2.43 0.88, 2.7 0.72 C2.97 0.57, 3.26 0.43, 3.55 0.33 C3.85 0.22, 4.16 0.14, 4.46 0.08 C4.77 0.03, 5.09 0, 5.4 0 C5.72 0, 6.03 0.03, 6.34 0.08 C6.65 0.14, 6.96 0.22, 7.25 0.33 C7.54 0.43, 7.83 0.57, 8.1 0.72 C8.38 0.88, 8.64 1.06, 8.88 1.26 C9.12 1.47, 9.34 1.69, 9.54 1.93 C9.74 2.17, 9.93 2.43, 10.08 2.7 C10.24 2.97, 10.37 3.26, 10.48 3.55 C10.59 3.85, 10.67 4.16, 10.72 4.46 C10.78 4.77, 10.79 5.25, 10.81 5.4 C10.82 5.56, 10.82 5.25, 10.81 5.4" stroke="#000000" stroke-width="2" fill="none"></path></g><g stroke-linecap="round" transform="translate(1928.6405356176256 414.5855251935377) rotate(0 5.402842559989949 5.4028425599894945)"><path d="M10.81 5.4 C10.81 5.72, 10.78 6.03, 10.72 6.34 C10.67 6.65, 10.59 6.96, 10.48 7.25 C10.37 7.54, 10.24 7.83, 10.08 8.1 C9.93 8.38, 9.74 8.64, 9.54 8.88 C9.34 9.12, 9.12 9.34, 8.88 9.54 C8.64 9.74, 8.38 9.93, 8.1 10.08 C7.83 10.24, 7.54 10.37, 7.25 10.48 C6.96 10.59, 6.65 10.67, 6.34 10.72 C6.03 10.78, 5.72 10.81, 5.4 10.81 C5.09 10.81, 4.77 10.78, 4.46 10.72 C4.16 10.67, 3.85 10.59, 3.55 10.48 C3.26 10.37, 2.97 10.24, 2.7 10.08 C2.43 9.93, 2.17 9.74, 1.93 9.54 C1.69 9.34, 1.47 9.12, 1.26 8.88 C1.06 8.64, 0.88 8.38, 0.72 8.1 C0.57 7.83, 0.43 7.54, 0.33 7.25 C0.22 6.96, 0.14 6.65, 0.08 6.34 C0.03 6.03, 0 5.72, 0 5.4 C0 5.09, 0.03 4.77, 0.08 4.46 C0.14 4.16, 0.22 3.85, 0.33 3.55 C0.43 3.26, 0.57 2.97, 0.72 2.7 C0.88 2.43, 1.06 2.17, 1.26 1.93 C1.47 1.69, 1.69 1.47, 1.93 1.26 C2.17 1.06, 2.43 0.88, 2.7 0.72 C2.97 0.57, 3.26 0.43, 3.55 0.33 C3.85 0.22, 4.16 0.14, 4.46 0.08 C4.77 0.03, 5.09 0, 5.4 0 C5.72 0, 6.03 0.03, 6.34 0.08 C6.65 0.14, 6.96 0.22, 7.25 0.33 C7.54 0.43, 7.83 0.57, 8.1 0.72 C8.38 0.88, 8.64 1.06, 8.88 1.26 C9.12 1.47, 9.34 1.69, 9.54 1.93 C9.74 2.17, 9.93 2.43, 10.08 2.7 C10.24 2.97, 10.37 3.26, 10.48 3.55 C10.59 3.85, 10.67 4.16, 10.72 4.46 C10.78 4.77, 10.79 5.25, 10.81 5.4 C10.82 5.56, 10.82 5.25, 10.81 5.4" stroke="none" stroke-width="0" fill="#ced4da"></path><path d="M10.81 5.4 C10.81 5.72, 10.78 6.03, 10.72 6.34 C10.67 6.65, 10.59 6.96, 10.48 7.25 C10.37 7.54, 10.24 7.83, 10.08 8.1 C9.93 8.38, 9.74 8.64, 9.54 8.88 C9.34 9.12, 9.12 9.34, 8.88 9.54 C8.64 9.74, 8.38 9.93, 8.1 10.08 C7.83 10.24, 7.54 10.37, 7.25 10.48 C6.96 10.59, 6.65 10.67, 6.34 10.72 C6.03 10.78, 5.72 10.81, 5.4 10.81 C5.09 10.81, 4.77 10.78, 4.46 10.72 C4.16 10.67, 3.85 10.59, 3.55 10.48 C3.26 10.37, 2.97 10.24, 2.7 10.08 C2.43 9.93, 2.17 9.74, 1.93 9.54 C1.69 9.34, 1.47 9.12, 1.26 8.88 C1.06 8.64, 0.88 8.38, 0.72 8.1 C0.57 7.83, 0.43 7.54, 0.33 7.25 C0.22 6.96, 0.14 6.65, 0.08 6.34 C0.03 6.03, 0 5.72, 0 5.4 C0 5.09, 0.03 4.77, 0.08 4.46 C0.14 4.16, 0.22 3.85, 0.33 3.55 C0.43 3.26, 0.57 2.97, 0.72 2.7 C0.88 2.43, 1.06 2.17, 1.26 1.93 C1.47 1.69, 1.69 1.47, 1.93 1.26 C2.17 1.06, 2.43 0.88, 2.7 0.72 C2.97 0.57, 3.26 0.43, 3.55 0.33 C3.85 0.22, 4.16 0.14, 4.46 0.08 C4.77 0.03, 5.09 0, 5.4 0 C5.72 0, 6.03 0.03, 6.34 0.08 C6.65 0.14, 6.96 0.22, 7.25 0.33 C7.54 0.43, 7.83 0.57, 8.1 0.72 C8.38 0.88, 8.64 1.06, 8.88 1.26 C9.12 1.47, 9.34 1.69, 9.54 1.93 C9.74 2.17, 9.93 2.43, 10.08 2.7 C10.24 2.97, 10.37 3.26, 10.48 3.55 C10.59 3.85, 10.67 4.16, 10.72 4.46 C10.78 4.77, 10.79 5.25, 10.81 5.4 C10.82 5.56, 10.82 5.25, 10.81 5.4" stroke="#000000" stroke-width="2" fill="none"></path></g><g transform="translate(1900.9880557460237 195.89982440117092) rotate(0 54.46666717529297 16.09999999999991)"><text x="0" y="0" font-family="Helvetica, Segoe UI Emoji" font-size="28px" fill="#000000" text-anchor="start" style="white-space: pre;" direction="ltr" dominant-baseline="text-before-edge">Backend</text></g><g stroke-linecap="round" transform="translate(966.7510423403564 491.2587880783026) rotate(0 25.767965861477023 40.604067418084696)"><path d="M0 0 L51.54 0 L51.54 81.21 L0 81.21" stroke="none" stroke-width="0" fill="#7950f2"></path><path d="M0 0 C11.56 0, 23.11 0, 51.54 0 M0 0 C12.7 0, 25.41 0, 51.54 0 M51.54 0 C51.54 24.67, 51.54 49.35, 51.54 81.21 M51.54 0 C51.54 23.99, 51.54 47.98, 51.54 81.21 M51.54 81.21 C35.13 81.21, 18.71 81.21, 0 81.21 M51.54 81.21 C36.73 81.21, 21.93 81.21, 0 81.21 M0 81.21 C0 58.53, 0 35.86, 0 0 M0 81.21 C0 55.01, 0 28.81, 0 0" stroke="#000000" stroke-width="2" fill="none"></path></g><g stroke-linecap="round" transform="translate(913.8124888156635 562.1648892054295) rotate(0 81.20813483616894 10.151016854521231)"><path d="M5.08 0 L157.34 0 L161.15 1.27 L162.1 2.85 L162.42 15.23 L161.15 19.03 L157.34 20.3 L5.08 20.3 L1.27 19.03 L0 15.23 L0.32 2.85 L2.85 0.32 L5.08 0" stroke="none" stroke-width="0" fill="#7950f2"></path><path d="M5.08 0 M5.08 0 C60.7 0, 116.32 0, 157.34 0 M5.08 0 C48.69 0, 92.31 0, 157.34 0 M157.34 0 C160.72 0, 162.42 1.69, 162.42 5.08 M157.34 0 C160.72 0, 162.42 1.69, 162.42 5.08 M162.42 5.08 C162.42 7.16, 162.42 9.24, 162.42 15.23 M162.42 5.08 C162.42 8.48, 162.42 11.88, 162.42 15.23 M162.42 15.23 C162.42 18.61, 160.72 20.3, 157.34 20.3 M162.42 15.23 C162.42 18.61, 160.72 20.3, 157.34 20.3 M157.34 20.3 C101.58 20.3, 45.83 20.3, 5.08 20.3 M157.34 20.3 C116.93 20.3, 76.51 20.3, 5.08 20.3 M5.08 20.3 C1.69 20.3, 0 18.61, 0 15.23 M5.08 20.3 C1.69 20.3, 0 18.61, 0 15.23 M0 15.23 C0 13.08, 0 10.94, 0 5.08 M0 15.23 C0 11.71, 0 8.2, 0 5.08 M0 5.08 C0 1.69, 1.69 0, 5.08 0 M0 5.08 C0 1.69, 1.69 0, 5.08 0" stroke="#000000" stroke-width="2" fill="none"></path></g><g stroke-linecap="round" transform="translate(749.6754511436739 156.74116403153948) rotate(0 242.0627096078124 181.156608480685)"><path d="M32 0 L452.13 0 L459.63 0.5 L466.13 2 L471.63 4.5 L476.13 8 L479.63 12.5 L482.13 18 L483.63 24.5 L484.13 32 L484.13 330.31 L483.63 337.81 L482.13 344.31 L479.63 349.81 L476.13 354.31 L471.63 357.81 L466.13 360.31 L459.63 361.81 L452.13 362.31 L32 362.31 L24.5 361.81 L18 360.31 L12.5 357.81 L8 354.31 L4.5 349.81 L2 344.31 L0.5 337.81 L0 330.31 L0.5 24.5 L2 18 L4.5 12.5 L8 8 L12.5 4.5 L18 2 L24.5 0.5 L32 0" stroke="none" stroke-width="0" fill="#7950f2"></path><path d="M32 0 M32 0 C197.52 0, 363.04 0, 452.13 0 M32 0 C179.89 0, 327.78 0, 452.13 0 M452.13 0 C473.46 0, 484.13 10.67, 484.13 32 M452.13 0 C473.46 0, 484.13 10.67, 484.13 32 M484.13 32 C484.13 105.56, 484.13 179.11, 484.13 330.31 M484.13 32 C484.13 145.4, 484.13 258.79, 484.13 330.31 M484.13 330.31 C484.13 351.65, 473.46 362.31, 452.13 362.31 M484.13 330.31 C484.13 351.65, 473.46 362.31, 452.13 362.31 M452.13 362.31 C342.61 362.31, 233.09 362.31, 32 362.31 M452.13 362.31 C300.86 362.31, 149.6 362.31, 32 362.31 M32 362.31 C10.67 362.31, 0 351.65, 0 330.31 M32 362.31 C10.67 362.31, 0 351.65, 0 330.31 M0 330.31 C0 264.34, 0 198.36, 0 32 M0 330.31 C0 252.21, 0 174.1, 0 32 M0 32 C0 10.67, 10.67 0, 32 0 M0 32 C0 10.67, 10.67 0, 32 0" stroke="#000000" stroke-width="2" fill="none"></path></g><g stroke-linecap="round" transform="translate(770.0244569700844 179.86964289155276) rotate(0 221.85935046089799 140.6912954142283)"><path d="M32 0 L411.72 0 L419.22 0.5 L425.72 2 L431.22 4.5 L435.72 8 L439.22 12.5 L441.72 18 L443.22 24.5 L443.72 32 L443.72 249.38 L443.22 256.88 L441.72 263.38 L439.22 268.88 L435.72 273.38 L431.22 276.88 L425.72 279.38 L419.22 280.88 L411.72 281.38 L32 281.38 L24.5 280.88 L18 279.38 L12.5 276.88 L8 273.38 L4.5 268.88 L2 263.38 L0.5 256.88 L0 249.38 L0.5 24.5 L2 18 L4.5 12.5 L8 8 L12.5 4.5 L18 2 L24.5 0.5 L32 0" stroke="none" stroke-width="0" fill="white"></path><path d="M32 0 M32 0 C153.25 0, 274.5 0, 411.72 0 M32 0 C121.1 0, 210.2 0, 411.72 0 M411.72 0 C433.05 0, 443.72 10.67, 443.72 32 M411.72 0 C433.05 0, 443.72 10.67, 443.72 32 M443.72 32 C443.72 91.37, 443.72 150.73, 443.72 249.38 M443.72 32 C443.72 91.32, 443.72 150.65, 443.72 249.38 M443.72 249.38 C443.72 270.72, 433.05 281.38, 411.72 281.38 M443.72 249.38 C443.72 270.72, 433.05 281.38, 411.72 281.38 M411.72 281.38 C312.26 281.38, 212.81 281.38, 32 281.38 M411.72 281.38 C295.06 281.38, 178.39 281.38, 32 281.38 M32 281.38 C10.67 281.38, 0 270.72, 0 249.38 M32 281.38 C10.67 281.38, 0 270.72, 0 249.38 M0 249.38 C0 169.5, 0 89.63, 0 32 M0 249.38 C0 165.15, 0 80.92, 0 32 M0 32 C0 10.67, 10.67 0, 32 0 M0 32 C0 10.67, 10.67 0, 32 0" stroke="#000000" stroke-width="2" fill="none"></path></g><g transform="translate(935.8504746062754 304.4609383057809) rotate(0 56.03333282470703 16.09999999999991)"><text x="56.03333282470703" y="0" font-family="Helvetica, Segoe UI Emoji" font-size="28px" fill="#000000" text-anchor="middle" style="white-space: pre;" direction="ltr" dominant-baseline="text-before-edge">Designer</text></g><g stroke-linecap="round" transform="translate(793.2309665498924 234.05986313598487) rotate(0 199.5 15)"><path d="M7.5 0 L391.5 0 L394.78 0.47 L397.13 1.88 L398.53 4.22 L399 22.5 L398.53 25.78 L397.13 28.13 L394.78 29.53 L391.5 30 L7.5 30 L4.22 29.53 L1.88 28.13 L0.47 25.78 L0 22.5 L0.47 4.22 L1.88 1.88 L4.22 0.47 L7.5 0" stroke="none" stroke-width="0" fill="#ced4da"></path><path d="M7.5 0 M7.5 0 C105.47 0, 203.43 0, 391.5 0 M7.5 0 C159.81 0, 312.12 0, 391.5 0 M391.5 0 C396.5 0, 399 2.5, 399 7.5 M391.5 0 C396.5 0, 399 2.5, 399 7.5 M399 7.5 C399 12.08, 399 16.67, 399 22.5 M399 7.5 C399 12.7, 399 17.9, 399 22.5 M399 22.5 C399 27.5, 396.5 30, 391.5 30 M399 22.5 C399 27.5, 396.5 30, 391.5 30 M391.5 30 C250.26 30, 109.02 30, 7.5 30 M391.5 30 C272.07 30, 152.65 30, 7.5 30 M7.5 30 C2.5 30, 0 27.5, 0 22.5 M7.5 30 C2.5 30, 0 27.5, 0 22.5 M0 22.5 C0 16.93, 0 11.36, 0 7.5 M0 22.5 C0 17.03, 0 11.57, 0 7.5 M0 7.5 C0 2.5, 2.5 0, 7.5 0 M0 7.5 C0 2.5, 2.5 0, 7.5 0" stroke="#000000" stroke-width="2" fill="none"></path></g><g transform="translate(888.6559696016502 239.85986313598505) rotate(0 104.07499694824219 9.200000000000045)"><text x="104.07499694824219" y="0" font-family="Helvetica, Segoe UI Emoji" font-size="16px" fill="#000000" text-anchor="middle" style="white-space: pre;" direction="ltr" dominant-baseline="text-before-edge">make.momentumresearch.eu</text></g><g stroke-linecap="round" transform="translate(794.3731618393413 195.3175097299736) rotate(0 9.019487851887789 9.019487851887789)"><path d="M18.04 9.02 C18.04 9.54, 17.99 10.07, 17.9 10.59 C17.81 11.1, 17.67 11.61, 17.5 12.1 C17.32 12.59, 17.09 13.08, 16.83 13.53 C16.57 13.98, 16.26 14.42, 15.93 14.82 C15.59 15.22, 15.22 15.59, 14.82 15.93 C14.42 16.26, 13.98 16.57, 13.53 16.83 C13.08 17.09, 12.59 17.32, 12.1 17.5 C11.61 17.67, 11.1 17.81, 10.59 17.9 C10.07 17.99, 9.54 18.04, 9.02 18.04 C8.5 18.04, 7.97 17.99, 7.45 17.9 C6.94 17.81, 6.43 17.67, 5.93 17.5 C5.44 17.32, 4.96 17.09, 4.51 16.83 C4.06 16.57, 3.62 16.26, 3.22 15.93 C2.82 15.59, 2.45 15.22, 2.11 14.82 C1.77 14.42, 1.47 13.98, 1.21 13.53 C0.95 13.08, 0.72 12.59, 0.54 12.1 C0.37 11.61, 0.23 11.1, 0.14 10.59 C0.05 10.07, 0 9.54, 0 9.02 C0 8.5, 0.05 7.97, 0.14 7.45 C0.23 6.94, 0.37 6.43, 0.54 5.93 C0.72 5.44, 0.95 4.96, 1.21 4.51 C1.47 4.06, 1.77 3.62, 2.11 3.22 C2.45 2.82, 2.82 2.45, 3.22 2.11 C3.62 1.77, 4.06 1.47, 4.51 1.21 C4.96 0.95, 5.44 0.72, 5.93 0.54 C6.43 0.37, 6.94 0.23, 7.45 0.14 C7.97 0.05, 8.5 0, 9.02 0 C9.54 0, 10.07 0.05, 10.59 0.14 C11.1 0.23, 11.61 0.37, 12.1 0.54 C12.59 0.72, 13.08 0.95, 13.53 1.21 C13.98 1.47, 14.42 1.77, 14.82 2.11 C15.22 2.45, 15.59 2.82, 15.93 3.22 C16.26 3.62, 16.57 4.06, 16.83 4.51 C17.09 4.96, 17.32 5.44, 17.5 5.93 C17.67 6.43, 17.81 6.94, 17.9 7.45 C17.99 7.97, 18.02 8.76, 18.04 9.02 C18.06 9.28, 18.06 8.76, 18.04 9.02" stroke="none" stroke-width="0" fill="red"></path><path d="M18.04 9.02 C18.04 9.54, 17.99 10.07, 17.9 10.59 C17.81 11.1, 17.67 11.61, 17.5 12.1 C17.32 12.59, 17.09 13.08, 16.83 13.53 C16.57 13.98, 16.26 14.42, 15.93 14.82 C15.59 15.22, 15.22 15.59, 14.82 15.93 C14.42 16.26, 13.98 16.57, 13.53 16.83 C13.08 17.09, 12.59 17.32, 12.1 17.5 C11.61 17.67, 11.1 17.81, 10.59 17.9 C10.07 17.99, 9.54 18.04, 9.02 18.04 C8.5 18.04, 7.97 17.99, 7.45 17.9 C6.94 17.81, 6.43 17.67, 5.93 17.5 C5.44 17.32, 4.96 17.09, 4.51 16.83 C4.06 16.57, 3.62 16.26, 3.22 15.93 C2.82 15.59, 2.45 15.22, 2.11 14.82 C1.77 14.42, 1.47 13.98, 1.21 13.53 C0.95 13.08, 0.72 12.59, 0.54 12.1 C0.37 11.61, 0.23 11.1, 0.14 10.59 C0.05 10.07, 0 9.54, 0 9.02 C0 8.5, 0.05 7.97, 0.14 7.45 C0.23 6.94, 0.37 6.43, 0.54 5.93 C0.72 5.44, 0.95 4.96, 1.21 4.51 C1.47 4.06, 1.77 3.62, 2.11 3.22 C2.45 2.82, 2.82 2.45, 3.22 2.11 C3.62 1.77, 4.06 1.47, 4.51 1.21 C4.96 0.95, 5.44 0.72, 5.93 0.54 C6.43 0.37, 6.94 0.23, 7.45 0.14 C7.97 0.05, 8.5 0, 9.02 0 C9.54 0, 10.07 0.05, 10.59 0.14 C11.1 0.23, 11.61 0.37, 12.1 0.54 C12.59 0.72, 13.08 0.95, 13.53 1.21 C13.98 1.47, 14.42 1.77, 14.82 2.11 C15.22 2.45, 15.59 2.82, 15.93 3.22 C16.26 3.62, 16.57 4.06, 16.83 4.51 C17.09 4.96, 17.32 5.44, 17.5 5.93 C17.67 6.43, 17.81 6.94, 17.9 7.45 C17.99 7.97, 18.02 8.76, 18.04 9.02 C18.06 9.28, 18.06 8.76, 18.04 9.02" stroke="#000000" stroke-width="2" fill="none"></path></g><g stroke-linecap="round" transform="translate(824.3731618393413 195.3175097299736) rotate(0 9.019487851887789 9.019487851887789)"><path d="M18.04 9.02 C18.04 9.54, 17.99 10.07, 17.9 10.59 C17.81 11.1, 17.67 11.61, 17.5 12.1 C17.32 12.59, 17.09 13.08, 16.83 13.53 C16.57 13.98, 16.26 14.42, 15.93 14.82 C15.59 15.22, 15.22 15.59, 14.82 15.93 C14.42 16.26, 13.98 16.57, 13.53 16.83 C13.08 17.09, 12.59 17.32, 12.1 17.5 C11.61 17.67, 11.1 17.81, 10.59 17.9 C10.07 17.99, 9.54 18.04, 9.02 18.04 C8.5 18.04, 7.97 17.99, 7.45 17.9 C6.94 17.81, 6.43 17.67, 5.93 17.5 C5.44 17.32, 4.96 17.09, 4.51 16.83 C4.06 16.57, 3.62 16.26, 3.22 15.93 C2.82 15.59, 2.45 15.22, 2.11 14.82 C1.77 14.42, 1.47 13.98, 1.21 13.53 C0.95 13.08, 0.72 12.59, 0.54 12.1 C0.37 11.61, 0.23 11.1, 0.14 10.59 C0.05 10.07, 0 9.54, 0 9.02 C0 8.5, 0.05 7.97, 0.14 7.45 C0.23 6.94, 0.37 6.43, 0.54 5.93 C0.72 5.44, 0.95 4.96, 1.21 4.51 C1.47 4.06, 1.77 3.62, 2.11 3.22 C2.45 2.82, 2.82 2.45, 3.22 2.11 C3.62 1.77, 4.06 1.47, 4.51 1.21 C4.96 0.95, 5.44 0.72, 5.93 0.54 C6.43 0.37, 6.94 0.23, 7.45 0.14 C7.97 0.05, 8.5 0, 9.02 0 C9.54 0, 10.07 0.05, 10.59 0.14 C11.1 0.23, 11.61 0.37, 12.1 0.54 C12.59 0.72, 13.08 0.95, 13.53 1.21 C13.98 1.47, 14.42 1.77, 14.82 2.11 C15.22 2.45, 15.59 2.82, 15.93 3.22 C16.26 3.62, 16.57 4.06, 16.83 4.51 C17.09 4.96, 17.32 5.44, 17.5 5.93 C17.67 6.43, 17.81 6.94, 17.9 7.45 C17.99 7.97, 18.02 8.76, 18.04 9.02 C18.06 9.28, 18.06 8.76, 18.04 9.02" stroke="none" stroke-width="0" fill="yellow"></path><path d="M18.04 9.02 C18.04 9.54, 17.99 10.07, 17.9 10.59 C17.81 11.1, 17.67 11.61, 17.5 12.1 C17.32 12.59, 17.09 13.08, 16.83 13.53 C16.57 13.98, 16.26 14.42, 15.93 14.82 C15.59 15.22, 15.22 15.59, 14.82 15.93 C14.42 16.26, 13.98 16.57, 13.53 16.83 C13.08 17.09, 12.59 17.32, 12.1 17.5 C11.61 17.67, 11.1 17.81, 10.59 17.9 C10.07 17.99, 9.54 18.04, 9.02 18.04 C8.5 18.04, 7.97 17.99, 7.45 17.9 C6.94 17.81, 6.43 17.67, 5.93 17.5 C5.44 17.32, 4.96 17.09, 4.51 16.83 C4.06 16.57, 3.62 16.26, 3.22 15.93 C2.82 15.59, 2.45 15.22, 2.11 14.82 C1.77 14.42, 1.47 13.98, 1.21 13.53 C0.95 13.08, 0.72 12.59, 0.54 12.1 C0.37 11.61, 0.23 11.1, 0.14 10.59 C0.05 10.07, 0 9.54, 0 9.02 C0 8.5, 0.05 7.97, 0.14 7.45 C0.23 6.94, 0.37 6.43, 0.54 5.93 C0.72 5.44, 0.95 4.96, 1.21 4.51 C1.47 4.06, 1.77 3.62, 2.11 3.22 C2.45 2.82, 2.82 2.45, 3.22 2.11 C3.62 1.77, 4.06 1.47, 4.51 1.21 C4.96 0.95, 5.44 0.72, 5.93 0.54 C6.43 0.37, 6.94 0.23, 7.45 0.14 C7.97 0.05, 8.5 0, 9.02 0 C9.54 0, 10.07 0.05, 10.59 0.14 C11.1 0.23, 11.61 0.37, 12.1 0.54 C12.59 0.72, 13.08 0.95, 13.53 1.21 C13.98 1.47, 14.42 1.77, 14.82 2.11 C15.22 2.45, 15.59 2.82, 15.93 3.22 C16.26 3.62, 16.57 4.06, 16.83 4.51 C17.09 4.96, 17.32 5.44, 17.5 5.93 C17.67 6.43, 17.81 6.94, 17.9 7.45 C17.99 7.97, 18.02 8.76, 18.04 9.02 C18.06 9.28, 18.06 8.76, 18.04 9.02" stroke="#000000" stroke-width="2" fill="none"></path></g><g stroke-linecap="round" transform="translate(854.3731618393413 195.3175097299736) rotate(0 9.019487851887789 9.019487851887789)"><path d="M18.04 9.02 C18.04 9.54, 17.99 10.07, 17.9 10.59 C17.81 11.1, 17.67 11.61, 17.5 12.1 C17.32 12.59, 17.09 13.08, 16.83 13.53 C16.57 13.98, 16.26 14.42, 15.93 14.82 C15.59 15.22, 15.22 15.59, 14.82 15.93 C14.42 16.26, 13.98 16.57, 13.53 16.83 C13.08 17.09, 12.59 17.32, 12.1 17.5 C11.61 17.67, 11.1 17.81, 10.59 17.9 C10.07 17.99, 9.54 18.04, 9.02 18.04 C8.5 18.04, 7.97 17.99, 7.45 17.9 C6.94 17.81, 6.43 17.67, 5.93 17.5 C5.44 17.32, 4.96 17.09, 4.51 16.83 C4.06 16.57, 3.62 16.26, 3.22 15.93 C2.82 15.59, 2.45 15.22, 2.11 14.82 C1.77 14.42, 1.47 13.98, 1.21 13.53 C0.95 13.08, 0.72 12.59, 0.54 12.1 C0.37 11.61, 0.23 11.1, 0.14 10.59 C0.05 10.07, 0 9.54, 0 9.02 C0 8.5, 0.05 7.97, 0.14 7.45 C0.23 6.94, 0.37 6.43, 0.54 5.93 C0.72 5.44, 0.95 4.96, 1.21 4.51 C1.47 4.06, 1.77 3.62, 2.11 3.22 C2.45 2.82, 2.82 2.45, 3.22 2.11 C3.62 1.77, 4.06 1.47, 4.51 1.21 C4.96 0.95, 5.44 0.72, 5.93 0.54 C6.43 0.37, 6.94 0.23, 7.45 0.14 C7.97 0.05, 8.5 0, 9.02 0 C9.54 0, 10.07 0.05, 10.59 0.14 C11.1 0.23, 11.61 0.37, 12.1 0.54 C12.59 0.72, 13.08 0.95, 13.53 1.21 C13.98 1.47, 14.42 1.77, 14.82 2.11 C15.22 2.45, 15.59 2.82, 15.93 3.22 C16.26 3.62, 16.57 4.06, 16.83 4.51 C17.09 4.96, 17.32 5.44, 17.5 5.93 C17.67 6.43, 17.81 6.94, 17.9 7.45 C17.99 7.97, 18.02 8.76, 18.04 9.02 C18.06 9.28, 18.06 8.76, 18.04 9.02" stroke="none" stroke-width="0" fill="green"></path><path d="M18.04 9.02 C18.04 9.54, 17.99 10.07, 17.9 10.59 C17.81 11.1, 17.67 11.61, 17.5 12.1 C17.32 12.59, 17.09 13.08, 16.83 13.53 C16.57 13.98, 16.26 14.42, 15.93 14.82 C15.59 15.22, 15.22 15.59, 14.82 15.93 C14.42 16.26, 13.98 16.57, 13.53 16.83 C13.08 17.09, 12.59 17.32, 12.1 17.5 C11.61 17.67, 11.1 17.81, 10.59 17.9 C10.07 17.99, 9.54 18.04, 9.02 18.04 C8.5 18.04, 7.97 17.99, 7.45 17.9 C6.94 17.81, 6.43 17.67, 5.93 17.5 C5.44 17.32, 4.96 17.09, 4.51 16.83 C4.06 16.57, 3.62 16.26, 3.22 15.93 C2.82 15.59, 2.45 15.22, 2.11 14.82 C1.77 14.42, 1.47 13.98, 1.21 13.53 C0.95 13.08, 0.72 12.59, 0.54 12.1 C0.37 11.61, 0.23 11.1, 0.14 10.59 C0.05 10.07, 0 9.54, 0 9.02 C0 8.5, 0.05 7.97, 0.14 7.45 C0.23 6.94, 0.37 6.43, 0.54 5.93 C0.72 5.44, 0.95 4.96, 1.21 4.51 C1.47 4.06, 1.77 3.62, 2.11 3.22 C2.45 2.82, 2.82 2.45, 3.22 2.11 C3.62 1.77, 4.06 1.47, 4.51 1.21 C4.96 0.95, 5.44 0.72, 5.93 0.54 C6.43 0.37, 6.94 0.23, 7.45 0.14 C7.97 0.05, 8.5 0, 9.02 0 C9.54 0, 10.07 0.05, 10.59 0.14 C11.1 0.23, 11.61 0.37, 12.1 0.54 C12.59 0.72, 13.08 0.95, 13.53 1.21 C13.98 1.47, 14.42 1.77, 14.82 2.11 C15.22 2.45, 15.59 2.82, 15.93 3.22 C16.26 3.62, 16.57 4.06, 16.83 4.51 C17.09 4.96, 17.32 5.44, 17.5 5.93 C17.67 6.43, 17.81 6.94, 17.9 7.45 C17.99 7.97, 18.02 8.76, 18.04 9.02 C18.06 9.28, 18.06 8.76, 18.04 9.02" stroke="#000000" stroke-width="2" fill="none"></path></g><g stroke-linecap="round" transform="translate(10 302.4913306149333) rotate(0 138 37.5)"><path d="M18.75 0 L257.25 0 L265.45 1.17 L271.31 4.69 L273.36 7.32 L275.71 14.36 L276 56.25 L274.83 64.45 L273.36 67.68 L268.68 72.36 L265.45 73.83 L257.25 75 L18.75 75 L10.55 73.83 L4.69 70.31 L2.64 67.68 L0.29 60.64 L0.29 14.36 L2.64 7.32 L4.69 4.69 L10.55 1.17 L18.75 0" stroke="none" stroke-width="0" fill="white"></path><path d="M18.75 0 M18.75 0 C66.95 0, 115.14 0, 257.25 0 M18.75 0 C85.75 0, 152.76 0, 257.25 0 M257.25 0 C269.75 0, 276 6.25, 276 18.75 M257.25 0 C269.75 0, 276 6.25, 276 18.75 M276 18.75 C276 27.43, 276 36.1, 276 56.25 M276 18.75 C276 29.72, 276 40.69, 276 56.25 M276 56.25 C276 68.75, 269.75 75, 257.25 75 M276 56.25 C276 68.75, 269.75 75, 257.25 75 M257.25 75 C187.67 75, 118.1 75, 18.75 75 M257.25 75 C169.8 75, 82.34 75, 18.75 75 M18.75 75 C6.25 75, 0 68.75, 0 56.25 M18.75 75 C6.25 75, 0 68.75, 0 56.25 M0 56.25 C0 47.22, 0 38.19, 0 18.75 M0 56.25 C0 41.27, 0 26.28, 0 18.75 M0 18.75 C0 6.25, 6.25 0, 18.75 0 M0 18.75 C0 6.25, 6.25 0, 18.75 0" stroke="#000000" stroke-width="2" fill="none"></path></g><g transform="translate(75.63333129882812 323.8913306149334) rotate(0 72.36666870117188 16.09999999999991)"><text x="72.36666870117188" y="0" font-family="Helvetica, Segoe UI Emoji" font-size="28px" fill="#000000" text-anchor="middle" style="white-space: pre;" direction="ltr" dominant-baseline="text-before-edge">Researcher</text></g><g mask="url(#mask-nmZg57q8fNSphyAdl0Kgf)" stroke-linecap="round"><g transform="translate(297.72953860304006 366.4028770830523) rotate(0 215.0450711800413 0.358749696833911)"><path d="M0 0 C71.68 0.12, 358.41 0.6, 430.09 0.72 M0 0 C71.68 0.12, 358.41 0.6, 430.09 0.72" stroke="#000000" stroke-width="2" fill="none"></path></g><g transform="translate(297.72953860304006 366.4028770830523) rotate(0 215.0450711800413 0.358749696833911)"><path d="M430.09 0.72 L416.48 7.03 L416.51 -5.64 L430.09 0.72" stroke="none" stroke-width="0" fill="#000000" fill-rule="evenodd"></path><path d="M430.09 0.72 C425.89 2.67, 421.7 4.61, 416.48 7.03 M430.09 0.72 C425.76 2.73, 421.43 4.74, 416.48 7.03 M416.48 7.03 C416.49 4.35, 416.49 1.66, 416.51 -5.64 M416.48 7.03 C416.49 4.27, 416.49 1.51, 416.51 -5.64 M416.51 -5.64 C420.18 -3.92, 423.86 -2.2, 430.09 0.72 M416.51 -5.64 C421.7 -3.21, 426.89 -0.78, 430.09 0.72 M430.09 0.72 C430.09 0.72, 430.09 0.72, 430.09 0.72 M430.09 0.72 C430.09 0.72, 430.09 0.72, 430.09 0.72" stroke="#000000" stroke-width="2" fill="none"></path></g></g><mask id="mask-nmZg57q8fNSphyAdl0Kgf"><rect x="0" y="0" fill="#fff" width="827.8196809631227" height="467.12037647672014"></rect><rect x="418.64127848425414" y="350.6616267798863" fill="#000" width="188.26666259765625" height="32.199999999999996" opacity="1"></rect></mask><g transform="translate(418.64127848425414 350.6616267798863) rotate(0 94.13333129882722 16.09999999999991)"><text x="94.13333129882812" y="0" font-family="Helvetica, Segoe UI Emoji" font-size="28px" fill="#000000" text-anchor="middle" style="white-space: pre;" direction="ltr" dominant-baseline="text-before-edge">Specifies study</text></g><g mask="url(#mask-AxddV_usdUda88LTHQxA1)" stroke-linecap="round"><g transform="translate(1257.85919987765 294.36636960253554) rotate(0 282.4651436609347 0.6931835093819245)"><path d="M0 0 C94.16 0.23, 470.78 1.16, 564.93 1.39 M0 0 C94.16 0.23, 470.78 1.16, 564.93 1.39" stroke="#000000" stroke-width="2" fill="none"></path></g><g transform="translate(1257.85919987765 294.36636960253554) rotate(0 282.4651436609347 0.6931835093819245)"><path d="M0 0 L13.61 -6.31 L13.58 6.37 L0 0" stroke="none" stroke-width="0" fill="#000000" fill-rule="evenodd"></path><path d="M0 0 C4.96 -2.3, 9.92 -4.59, 13.61 -6.31 M0 0 C4.39 -2.03, 8.78 -4.07, 13.61 -6.31 M13.61 -6.31 C13.6 -3.53, 13.6 -0.75, 13.58 6.37 M13.61 -6.31 C13.6 -1.9, 13.59 2.5, 13.58 6.37 M13.58 6.37 C10.34 4.85, 7.1 3.33, 0 0 M13.58 6.37 C9.55 4.48, 5.52 2.59, 0 0 M0 0 C0 0, 0 0, 0 0 M0 0 C0 0, 0 0, 0 0" stroke="#000000" stroke-width="2" fill="none"></path></g><g transform="translate(1257.85919987765 294.36636960253554) rotate(0 282.4651436609347 0.6931835093819245)"><path d="M564.93 1.39 L551.32 7.69 L551.35 -4.99 L564.93 1.39" stroke="none" stroke-width="0" fill="#000000" fill-rule="evenodd"></path><path d="M564.93 1.39 C559.97 3.68, 555.01 5.98, 551.32 7.69 M564.93 1.39 C560.54 3.42, 556.15 5.46, 551.32 7.69 M551.32 7.69 C551.33 4.91, 551.33 2.14, 551.35 -4.99 M551.32 7.69 C551.33 3.29, 551.34 -1.12, 551.35 -4.99 M551.35 -4.99 C554.59 -3.47, 557.83 -1.95, 564.93 1.39 M551.35 -4.99 C555.38 -3.1, 559.41 -1.2, 564.93 1.39 M564.93 1.39 C564.93 1.39, 564.93 1.39, 564.93 1.39 M564.93 1.39 C564.93 1.39, 564.93 1.39, 564.93 1.39" stroke="#000000" stroke-width="2" fill="none"></path></g></g><mask id="mask-AxddV_usdUda88LTHQxA1"><rect x="0" y="0" fill="#fff" width="1922.7894871995195" height="395.7527366212994"></rect><rect x="1440.7243450644637" y="262.85955311191765" fill="#000" width="199.1999969482422" height="64.39999999999999" opacity="1"></rect></mask><g transform="translate(1440.7243450644637 262.85955311191765) rotate(0 99.5999984741211 32.19999999999982)"><text x="99.5999984741211" y="0" font-family="Helvetica, Segoe UI Emoji" font-size="28px" fill="#000000" text-anchor="middle" style="white-space: pre;" direction="ltr" dominant-baseline="text-before-edge">Upload or </text><text x="99.5999984741211" y="32.199999999999996" font-family="Helvetica, Segoe UI Emoji" font-size="28px" fill="#000000" text-anchor="middle" style="white-space: pre;" direction="ltr" dominant-baseline="text-before-edge">Download study</text></g><g mask="url(#mask-0eZFqyjqXEeVLdyY4hy8G)" stroke-linecap="round"><g transform="translate(1257.737575438472 405.37235280354344) rotate(0 282.46514366093743 0.7146700464595597)"><path d="M0 0 C94.16 0.24, 470.78 1.19, 564.93 1.43 M0 0 C94.16 0.24, 470.78 1.19, 564.93 1.43" stroke="#000000" stroke-width="2" fill="none"></path></g><g transform="translate(1257.737575438472 405.37235280354344) rotate(0 282.46514366093743 0.7146700464595597)"><path d="M564.93 1.43 L551.32 7.73 L551.35 -4.94 L564.93 1.43" stroke="none" stroke-width="0" fill="#000000" fill-rule="evenodd"></path><path d="M564.93 1.43 C559.66 3.87, 554.4 6.31, 551.32 7.73 M564.93 1.43 C559.97 3.73, 555 6.03, 551.32 7.73 M551.32 7.73 C551.33 4.91, 551.33 2.09, 551.35 -4.94 M551.32 7.73 C551.33 3.02, 551.34 -1.69, 551.35 -4.94 M551.35 -4.94 C556.52 -2.52, 561.69 -0.09, 564.93 1.43 M551.35 -4.94 C555.43 -3.03, 559.5 -1.12, 564.93 1.43 M564.93 1.43 C564.93 1.43, 564.93 1.43, 564.93 1.43 M564.93 1.43 C564.93 1.43, 564.93 1.43, 564.93 1.43" stroke="#000000" stroke-width="2" fill="none"></path></g></g><mask id="mask-0eZFqyjqXEeVLdyY4hy8G"><rect x="0" y="0" fill="#fff" width="1922.667862760347" height="506.80169289646255"></rect><rect x="1393.1527160476508" y="389.9870228500031" fill="#000" width="294.1000061035156" height="32.199999999999996" opacity="1"></rect></mask><g transform="translate(1393.1527160476508 389.9870228500031) rotate(0 147.05000305175872 16.09999999999991)"><text x="147.0500030517578" y="0" font-family="Helvetica, Segoe UI Emoji" font-size="28px" fill="#000000" text-anchor="middle" style="white-space: pre;" direction="ltr" dominant-baseline="text-before-edge">Create REDCap project</text></g><g stroke-linecap="round" transform="translate(879.8934135146355 911.9624815621164) rotate(0 122.58942628337354 34.162896140303474)"><path d="M17.08 0 L228.1 0 L235.57 1.07 L240.91 4.27 L244.11 9.61 L244.91 13.08 L245.18 51.24 L244.11 58.72 L240.91 64.06 L238.51 65.92 L232.1 68.06 L228.1 68.33 L17.08 68.33 L9.61 67.26 L4.27 64.06 L2.4 61.65 L0.27 55.25 L0.27 13.08 L2.4 6.67 L4.27 4.27 L9.61 1.07 L17.08 0" stroke="none" stroke-width="0" fill="#ced4da"></path><path d="M17.08 0 M17.08 0 C99.93 0, 182.79 0, 228.1 0 M17.08 0 C99.14 0, 181.2 0, 228.1 0 M228.1 0 C239.49 0, 245.18 5.69, 245.18 17.08 M228.1 0 C239.49 0, 245.18 5.69, 245.18 17.08 M245.18 17.08 C245.18 26.65, 245.18 36.21, 245.18 51.24 M245.18 17.08 C245.18 23.95, 245.18 30.81, 245.18 51.24 M245.18 51.24 C245.18 62.63, 239.49 68.33, 228.1 68.33 M245.18 51.24 C245.18 62.63, 239.49 68.33, 228.1 68.33 M228.1 68.33 C180.94 68.33, 133.79 68.33, 17.08 68.33 M228.1 68.33 C154.08 68.33, 80.06 68.33, 17.08 68.33 M17.08 68.33 C5.69 68.33, 0 62.63, 0 51.24 M17.08 68.33 C5.69 68.33, 0 62.63, 0 51.24 M0 51.24 C0 38.17, 0 25.1, 0 17.08 M0 51.24 C0 38, 0 24.75, 0 17.08 M0 17.08 C0 5.69, 5.69 0, 17.08 0 M0 17.08 C0 5.69, 5.69 0, 17.08 0" stroke="#000000" stroke-width="2" fill="none"></path></g><g stroke-linecap="round" transform="translate(925.7839286829349 938.4915451558054) rotate(0 6.905839970327179 6.905839970327179)"><path d="M13.81 6.91 C13.81 7.31, 13.78 7.71, 13.71 8.11 C13.64 8.5, 13.53 8.89, 13.4 9.27 C13.26 9.64, 13.09 10.01, 12.89 10.36 C12.69 10.7, 12.45 11.04, 12.2 11.34 C11.94 11.65, 11.65 11.94, 11.34 12.2 C11.04 12.45, 10.7 12.69, 10.36 12.89 C10.01 13.09, 9.64 13.26, 9.27 13.4 C8.89 13.53, 8.5 13.64, 8.11 13.71 C7.71 13.78, 7.31 13.81, 6.91 13.81 C6.51 13.81, 6.1 13.78, 5.71 13.71 C5.31 13.64, 4.92 13.53, 4.54 13.4 C4.17 13.26, 3.8 13.09, 3.45 12.89 C3.11 12.69, 2.77 12.45, 2.47 12.2 C2.16 11.94, 1.87 11.65, 1.62 11.34 C1.36 11.04, 1.13 10.7, 0.93 10.36 C0.73 10.01, 0.55 9.64, 0.42 9.27 C0.28 8.89, 0.17 8.5, 0.1 8.11 C0.04 7.71, 0 7.31, 0 6.91 C0 6.51, 0.04 6.1, 0.1 5.71 C0.17 5.31, 0.28 4.92, 0.42 4.54 C0.55 4.17, 0.73 3.8, 0.93 3.45 C1.13 3.11, 1.36 2.77, 1.62 2.47 C1.87 2.16, 2.16 1.87, 2.47 1.62 C2.77 1.36, 3.11 1.13, 3.45 0.93 C3.8 0.73, 4.17 0.55, 4.54 0.42 C4.92 0.28, 5.31 0.17, 5.71 0.1 C6.1 0.04, 6.51 0, 6.91 0 C7.31 0, 7.71 0.04, 8.11 0.1 C8.5 0.17, 8.89 0.28, 9.27 0.42 C9.64 0.55, 10.01 0.73, 10.36 0.93 C10.7 1.13, 11.04 1.36, 11.34 1.62 C11.65 1.87, 11.94 2.16, 12.2 2.47 C12.45 2.77, 12.69 3.11, 12.89 3.45 C13.09 3.8, 13.26 4.17, 13.4 4.54 C13.53 4.92, 13.64 5.31, 13.71 5.71 C13.78 6.1, 13.79 6.71, 13.81 6.91 C13.83 7.11, 13.83 6.71, 13.81 6.91" stroke="none" stroke-width="0" fill="#ced4da"></path><path d="M13.81 6.91 C13.81 7.31, 13.78 7.71, 13.71 8.11 C13.64 8.5, 13.53 8.89, 13.4 9.27 C13.26 9.64, 13.09 10.01, 12.89 10.36 C12.69 10.7, 12.45 11.04, 12.2 11.34 C11.94 11.65, 11.65 11.94, 11.34 12.2 C11.04 12.45, 10.7 12.69, 10.36 12.89 C10.01 13.09, 9.64 13.26, 9.27 13.4 C8.89 13.53, 8.5 13.64, 8.11 13.71 C7.71 13.78, 7.31 13.81, 6.91 13.81 C6.51 13.81, 6.1 13.78, 5.71 13.71 C5.31 13.64, 4.92 13.53, 4.54 13.4 C4.17 13.26, 3.8 13.09, 3.45 12.89 C3.11 12.69, 2.77 12.45, 2.47 12.2 C2.16 11.94, 1.87 11.65, 1.62 11.34 C1.36 11.04, 1.13 10.7, 0.93 10.36 C0.73 10.01, 0.55 9.64, 0.42 9.27 C0.28 8.89, 0.17 8.5, 0.1 8.11 C0.04 7.71, 0 7.31, 0 6.91 C0 6.51, 0.04 6.1, 0.1 5.71 C0.17 5.31, 0.28 4.92, 0.42 4.54 C0.55 4.17, 0.73 3.8, 0.93 3.45 C1.13 3.11, 1.36 2.77, 1.62 2.47 C1.87 2.16, 2.16 1.87, 2.47 1.62 C2.77 1.36, 3.11 1.13, 3.45 0.93 C3.8 0.73, 4.17 0.55, 4.54 0.42 C4.92 0.28, 5.31 0.17, 5.71 0.1 C6.1 0.04, 6.51 0, 6.91 0 C7.31 0, 7.71 0.04, 8.11 0.1 C8.5 0.17, 8.89 0.28, 9.27 0.42 C9.64 0.55, 10.01 0.73, 10.36 0.93 C10.7 1.13, 11.04 1.36, 11.34 1.62 C11.65 1.87, 11.94 2.16, 12.2 2.47 C12.45 2.77, 12.69 3.11, 12.89 3.45 C13.09 3.8, 13.26 4.17, 13.4 4.54 C13.53 4.92, 13.64 5.31, 13.71 5.71 C13.78 6.1, 13.79 6.71, 13.81 6.91 C13.83 7.11, 13.83 6.71, 13.81 6.91" stroke="#000000" stroke-width="2" fill="none"></path></g><g stroke-linecap="round" transform="translate(951.3476570116763 938.4915451558054) rotate(0 6.905839970327179 6.905839970327179)"><path d="M13.81 6.91 C13.81 7.31, 13.78 7.71, 13.71 8.11 C13.64 8.5, 13.53 8.89, 13.4 9.27 C13.26 9.64, 13.09 10.01, 12.89 10.36 C12.69 10.7, 12.45 11.04, 12.2 11.34 C11.94 11.65, 11.65 11.94, 11.34 12.2 C11.04 12.45, 10.7 12.69, 10.36 12.89 C10.01 13.09, 9.64 13.26, 9.27 13.4 C8.89 13.53, 8.5 13.64, 8.11 13.71 C7.71 13.78, 7.31 13.81, 6.91 13.81 C6.51 13.81, 6.1 13.78, 5.71 13.71 C5.31 13.64, 4.92 13.53, 4.54 13.4 C4.17 13.26, 3.8 13.09, 3.45 12.89 C3.11 12.69, 2.77 12.45, 2.47 12.2 C2.16 11.94, 1.87 11.65, 1.62 11.34 C1.36 11.04, 1.13 10.7, 0.93 10.36 C0.73 10.01, 0.55 9.64, 0.42 9.27 C0.28 8.89, 0.17 8.5, 0.1 8.11 C0.04 7.71, 0 7.31, 0 6.91 C0 6.51, 0.04 6.1, 0.1 5.71 C0.17 5.31, 0.28 4.92, 0.42 4.54 C0.55 4.17, 0.73 3.8, 0.93 3.45 C1.13 3.11, 1.36 2.77, 1.62 2.47 C1.87 2.16, 2.16 1.87, 2.47 1.62 C2.77 1.36, 3.11 1.13, 3.45 0.93 C3.8 0.73, 4.17 0.55, 4.54 0.42 C4.92 0.28, 5.31 0.17, 5.71 0.1 C6.1 0.04, 6.51 0, 6.91 0 C7.31 0, 7.71 0.04, 8.11 0.1 C8.5 0.17, 8.89 0.28, 9.27 0.42 C9.64 0.55, 10.01 0.73, 10.36 0.93 C10.7 1.13, 11.04 1.36, 11.34 1.62 C11.65 1.87, 11.94 2.16, 12.2 2.47 C12.45 2.77, 12.69 3.11, 12.89 3.45 C13.09 3.8, 13.26 4.17, 13.4 4.54 C13.53 4.92, 13.64 5.31, 13.71 5.71 C13.78 6.1, 13.79 6.71, 13.81 6.91 C13.83 7.11, 13.83 6.71, 13.81 6.91" stroke="none" stroke-width="0" fill="#ced4da"></path><path d="M13.81 6.91 C13.81 7.31, 13.78 7.71, 13.71 8.11 C13.64 8.5, 13.53 8.89, 13.4 9.27 C13.26 9.64, 13.09 10.01, 12.89 10.36 C12.69 10.7, 12.45 11.04, 12.2 11.34 C11.94 11.65, 11.65 11.94, 11.34 12.2 C11.04 12.45, 10.7 12.69, 10.36 12.89 C10.01 13.09, 9.64 13.26, 9.27 13.4 C8.89 13.53, 8.5 13.64, 8.11 13.71 C7.71 13.78, 7.31 13.81, 6.91 13.81 C6.51 13.81, 6.1 13.78, 5.71 13.71 C5.31 13.64, 4.92 13.53, 4.54 13.4 C4.17 13.26, 3.8 13.09, 3.45 12.89 C3.11 12.69, 2.77 12.45, 2.47 12.2 C2.16 11.94, 1.87 11.65, 1.62 11.34 C1.36 11.04, 1.13 10.7, 0.93 10.36 C0.73 10.01, 0.55 9.64, 0.42 9.27 C0.28 8.89, 0.17 8.5, 0.1 8.11 C0.04 7.71, 0 7.31, 0 6.91 C0 6.51, 0.04 6.1, 0.1 5.71 C0.17 5.31, 0.28 4.92, 0.42 4.54 C0.55 4.17, 0.73 3.8, 0.93 3.45 C1.13 3.11, 1.36 2.77, 1.62 2.47 C1.87 2.16, 2.16 1.87, 2.47 1.62 C2.77 1.36, 3.11 1.13, 3.45 0.93 C3.8 0.73, 4.17 0.55, 4.54 0.42 C4.92 0.28, 5.31 0.17, 5.71 0.1 C6.1 0.04, 6.51 0, 6.91 0 C7.31 0, 7.71 0.04, 8.11 0.1 C8.5 0.17, 8.89 0.28, 9.27 0.42 C9.64 0.55, 10.01 0.73, 10.36 0.93 C10.7 1.13, 11.04 1.36, 11.34 1.62 C11.65 1.87, 11.94 2.16, 12.2 2.47 C12.45 2.77, 12.69 3.11, 12.89 3.45 C13.09 3.8, 13.26 4.17, 13.4 4.54 C13.53 4.92, 13.64 5.31, 13.71 5.71 C13.78 6.1, 13.79 6.71, 13.81 6.91 C13.83 7.11, 13.83 6.71, 13.81 6.91" stroke="#000000" stroke-width="2" fill="none"></path></g><g stroke-linecap="round" transform="translate(976.9113853404197 938.4915451558054) rotate(0 6.905839970327179 6.905839970327179)"><path d="M13.81 6.91 C13.81 7.31, 13.78 7.71, 13.71 8.11 C13.64 8.5, 13.53 8.89, 13.4 9.27 C13.26 9.64, 13.09 10.01, 12.89 10.36 C12.69 10.7, 12.45 11.04, 12.2 11.34 C11.94 11.65, 11.65 11.94, 11.34 12.2 C11.04 12.45, 10.7 12.69, 10.36 12.89 C10.01 13.09, 9.64 13.26, 9.27 13.4 C8.89 13.53, 8.5 13.64, 8.11 13.71 C7.71 13.78, 7.31 13.81, 6.91 13.81 C6.51 13.81, 6.1 13.78, 5.71 13.71 C5.31 13.64, 4.92 13.53, 4.54 13.4 C4.17 13.26, 3.8 13.09, 3.45 12.89 C3.11 12.69, 2.77 12.45, 2.47 12.2 C2.16 11.94, 1.87 11.65, 1.62 11.34 C1.36 11.04, 1.13 10.7, 0.93 10.36 C0.73 10.01, 0.55 9.64, 0.42 9.27 C0.28 8.89, 0.17 8.5, 0.1 8.11 C0.04 7.71, 0 7.31, 0 6.91 C0 6.51, 0.04 6.1, 0.1 5.71 C0.17 5.31, 0.28 4.92, 0.42 4.54 C0.55 4.17, 0.73 3.8, 0.93 3.45 C1.13 3.11, 1.36 2.77, 1.62 2.47 C1.87 2.16, 2.16 1.87, 2.47 1.62 C2.77 1.36, 3.11 1.13, 3.45 0.93 C3.8 0.73, 4.17 0.55, 4.54 0.42 C4.92 0.28, 5.31 0.17, 5.71 0.1 C6.1 0.04, 6.51 0, 6.91 0 C7.31 0, 7.71 0.04, 8.11 0.1 C8.5 0.17, 8.89 0.28, 9.27 0.42 C9.64 0.55, 10.01 0.73, 10.36 0.93 C10.7 1.13, 11.04 1.36, 11.34 1.62 C11.65 1.87, 11.94 2.16, 12.2 2.47 C12.45 2.77, 12.69 3.11, 12.89 3.45 C13.09 3.8, 13.26 4.17, 13.4 4.54 C13.53 4.92, 13.64 5.31, 13.71 5.71 C13.78 6.1, 13.79 6.71, 13.81 6.91 C13.83 7.11, 13.83 6.71, 13.81 6.91" stroke="none" stroke-width="0" fill="#ced4da"></path><path d="M13.81 6.91 C13.81 7.31, 13.78 7.71, 13.71 8.11 C13.64 8.5, 13.53 8.89, 13.4 9.27 C13.26 9.64, 13.09 10.01, 12.89 10.36 C12.69 10.7, 12.45 11.04, 12.2 11.34 C11.94 11.65, 11.65 11.94, 11.34 12.2 C11.04 12.45, 10.7 12.69, 10.36 12.89 C10.01 13.09, 9.64 13.26, 9.27 13.4 C8.89 13.53, 8.5 13.64, 8.11 13.71 C7.71 13.78, 7.31 13.81, 6.91 13.81 C6.51 13.81, 6.1 13.78, 5.71 13.71 C5.31 13.64, 4.92 13.53, 4.54 13.4 C4.17 13.26, 3.8 13.09, 3.45 12.89 C3.11 12.69, 2.77 12.45, 2.47 12.2 C2.16 11.94, 1.87 11.65, 1.62 11.34 C1.36 11.04, 1.13 10.7, 0.93 10.36 C0.73 10.01, 0.55 9.64, 0.42 9.27 C0.28 8.89, 0.17 8.5, 0.1 8.11 C0.04 7.71, 0 7.31, 0 6.91 C0 6.51, 0.04 6.1, 0.1 5.71 C0.17 5.31, 0.28 4.92, 0.42 4.54 C0.55 4.17, 0.73 3.8, 0.93 3.45 C1.13 3.11, 1.36 2.77, 1.62 2.47 C1.87 2.16, 2.16 1.87, 2.47 1.62 C2.77 1.36, 3.11 1.13, 3.45 0.93 C3.8 0.73, 4.17 0.55, 4.54 0.42 C4.92 0.28, 5.31 0.17, 5.71 0.1 C6.1 0.04, 6.51 0, 6.91 0 C7.31 0, 7.71 0.04, 8.11 0.1 C8.5 0.17, 8.89 0.28, 9.27 0.42 C9.64 0.55, 10.01 0.73, 10.36 0.93 C10.7 1.13, 11.04 1.36, 11.34 1.62 C11.65 1.87, 11.94 2.16, 12.2 2.47 C12.45 2.77, 12.69 3.11, 12.89 3.45 C13.09 3.8, 13.26 4.17, 13.4 4.54 C13.53 4.92, 13.64 5.31, 13.71 5.71 C13.78 6.1, 13.79 6.71, 13.81 6.91 C13.83 7.11, 13.83 6.71, 13.81 6.91" stroke="#000000" stroke-width="2" fill="none"></path></g><g transform="translate(933.1409490979786 994.0986294354993) rotate(0 64.58333587646484 16.09999999999991)"><text x="0" y="0" font-family="Helvetica, Segoe UI Emoji" font-size="28px" fill="#000000" text-anchor="start" style="white-space: pre;" direction="ltr" dominant-baseline="text-before-edge">Local Disk</text></g><g mask="url(#mask-ZbgoY76CHP-reK36-_8pS)" stroke-linecap="round"><g transform="translate(990.2089929008816 594.2080098471338) rotate(0 -0.991103910199854 151.5683682922338)"><path d="M0 0 C-0.66 100.39, -1.31 200.78, -1.98 303.14 M0 0 C-0.5 76.51, -1 153.01, -1.98 303.14" stroke="#000000" stroke-width="2" fill="none"></path></g><g transform="translate(990.2089929008816 594.2080098471338) rotate(0 -0.991103910199854 151.5683682922338)"><path d="M0 0 L6.25 13.64 L-6.43 13.55 L0 0" stroke="none" stroke-width="0" fill="#000000" fill-rule="evenodd"></path><path d="M0 0 C2.07 4.52, 4.14 9.03, 6.25 13.64 M0 0 C1.58 3.44, 3.15 6.88, 6.25 13.64 M6.25 13.64 C2.27 13.61, -1.71 13.58, -6.43 13.55 M6.25 13.64 C1.33 13.6, -3.58 13.57, -6.43 13.55 M-6.43 13.55 C-4.51 9.51, -2.6 5.47, 0 0 M-6.43 13.55 C-5.08 10.71, -3.73 7.86, 0 0 M0 0 C0 0, 0 0, 0 0 M0 0 C0 0, 0 0, 0 0" stroke="#000000" stroke-width="2" fill="none"></path></g><g transform="translate(990.2089929008816 594.2080098471338) rotate(0 -0.991103910199854 151.5683682922338)"><path d="M-1.98 303.14 L-8.23 289.5 L4.45 289.58 L-1.98 303.14" stroke="none" stroke-width="0" fill="#000000" fill-rule="evenodd"></path><path d="M-1.98 303.14 C-4.05 298.62, -6.12 294.11, -8.23 289.5 M-1.98 303.14 C-3.56 299.7, -5.14 296.25, -8.23 289.5 M-8.23 289.5 C-4.25 289.53, -0.27 289.55, 4.45 289.58 M-8.23 289.5 C-3.32 289.53, 1.6 289.57, 4.45 289.58 M4.45 289.58 C2.53 293.62, 0.61 297.66, -1.98 303.14 M4.45 289.58 C3.1 292.43, 1.75 295.27, -1.98 303.14 M-1.98 303.14 C-1.98 303.14, -1.98 303.14, -1.98 303.14 M-1.98 303.14 C-1.98 303.14, -1.98 303.14, -1.98 303.14" stroke="#000000" stroke-width="2" fill="none"></path></g></g><mask id="mask-ZbgoY76CHP-reK36-_8pS"><rect x="0" y="0" fill="#fff" width="1092.1912007212813" height="997.3447464316014"></rect><rect x="902.0845576918546" y="713.5763781393675" fill="#000" width="174.26666259765625" height="64.39999999999999" opacity="1"></rect></mask><g transform="translate(902.0845576918546 713.5763781393675) rotate(0 87.13333129882722 32.200000000000045)"><text x="87.13333129882812" y="0" font-family="Helvetica, Segoe UI Emoji" font-size="28px" fill="#000000" text-anchor="middle" style="white-space: pre;" direction="ltr" dominant-baseline="text-before-edge">Save or Load </text><text x="87.13333129882812" y="32.199999999999996" font-family="Helvetica, Segoe UI Emoji" font-size="28px" fill="#000000" text-anchor="middle" style="white-space: pre;" direction="ltr" dominant-baseline="text-before-edge">study</text></g><g mask="url(#mask-Vkfzh_m6858POkPySOBPZ)" stroke-linecap="round"><g transform="translate(725.5658358053497 317.6758297278143) rotate(0 -212.17387645179952 -0.4620000809995872)"><path d="M0 0 C-130.86 -0.28, -261.72 -0.57, -424.35 -0.92 M0 0 C-94.72 -0.21, -189.44 -0.41, -424.35 -0.92" stroke="#000000" stroke-width="2" fill="none"></path></g><g transform="translate(725.5658358053497 317.6758297278143) rotate(0 -212.17387645179952 -0.4620000809995872)"><path d="M-424.35 -0.92 L-410.74 -7.23 L-410.77 5.44 L-424.35 -0.92" stroke="none" stroke-width="0" fill="#000000" fill-rule="evenodd"></path><path d="M-424.35 -0.92 C-420.15 -2.87, -415.95 -4.82, -410.74 -7.23 M-424.35 -0.92 C-421.31 -2.33, -418.27 -3.74, -410.74 -7.23 M-410.74 -7.23 C-410.75 -2.42, -410.76 2.39, -410.77 5.44 M-410.74 -7.23 C-410.75 -4.04, -410.75 -0.85, -410.77 5.44 M-410.77 5.44 C-413.96 3.95, -417.15 2.45, -424.35 -0.92 M-410.77 5.44 C-413.98 3.94, -417.2 2.43, -424.35 -0.92 M-424.35 -0.92 C-424.35 -0.92, -424.35 -0.92, -424.35 -0.92 M-424.35 -0.92 C-424.35 -0.92, -424.35 -0.92, -424.35 -0.92" stroke="#000000" stroke-width="2" fill="none"></path></g></g><mask id="mask-Vkfzh_m6858POkPySOBPZ"><rect x="0" y="0" fill="#fff" width="1249.9135887089487" height="418.59982988981346"></rect><rect x="409.1419593535502" y="301.1138296468148" fill="#000" width="208.5" height="32.199999999999996" opacity="1"></rect></mask><g transform="translate(409.1419593535502 301.1138296468148) rotate(0 104.25 16.09999999999991)"><text x="104.25" y="0" font-family="Helvetica, Segoe UI Emoji" font-size="28px" fill="#000000" text-anchor="middle" style="white-space: pre;" direction="ltr" dominant-baseline="text-before-edge">QR Code or Link</text></g><g stroke-linecap="round" transform="translate(684.9097636708739 63.36109467649976) rotate(0 308.732047771181 299.8385319917645)"><path d="M0 0 C176.29 0, 352.57 0, 617.46 0 M617.46 0 C617.46 164.11, 617.46 328.22, 617.46 599.68 M617.46 599.68 C414.38 599.68, 211.29 599.68, 0 599.68 M0 599.68 C0 429.42, 0 259.16, 0 0" stroke="#c92a2a" stroke-width="2.5" fill="none" stroke-dasharray="8 10"></path></g><g transform="translate(837.3700341751592 10) rotate(0 170.38333129882812 16.09999999999991)"><text x="0" y="0" font-family="Helvetica, Segoe UI Emoji" font-size="28px" fill="#c92a2a" text-anchor="start" style="white-space: pre;" direction="ltr" dominant-baseline="text-before-edge">Designer System Boundary</text></g></svg>