<svg version="1.1" xmlns="http://www.w3.org/2000/svg" viewBox="0 0 1700.238260852515 691.2681956363303" width="3400.47652170503" height="1382.5363912726607">
  <!-- svg-source:excalidraw -->
  
  <defs>
    <style class="style-fonts">
      @font-face {
        font-family: "Virgil";
        src: url("https://excalidraw.com/Virgil.woff2");
      }
      @font-face {
        font-family: "Cascadia";
        src: url("https://excalidraw.com/Cascadia.woff2");
      }
    </style>
  </defs>
  <rect x="0" y="0" width="1700.238260852515" height="691.2681956363303" fill="#ffffff"></rect><g stroke-linecap="round" transform="translate(836.1283626498098 114.9102124310316) rotate(0 131.41017769623068 240.14337782541202)"><path d="M32 0 L238.32 0.5 L244.82 2 L250.32 4.5 L254.82 8 L258.32 12.5 L260.82 18 L262.32 24.5 L262.82 32 L262.82 448.29 L262.32 455.79 L260.82 462.29 L258.32 467.79 L254.82 472.29 L250.32 475.79 L244.82 478.29 L238.32 479.79 L230.82 480.29 L32 480.29 L24.5 479.79 L18 478.29 L12.5 475.79 L8 472.29 L4.5 467.79 L2 462.29 L0.5 455.79 L0 448.29 L0 32 L0.5 24.5 L2 18 L4.5 12.5 L8 8 L12.5 4.5 L18 2 L24.5 0.5 L32 0" stroke="none" stroke-width="0" fill="#fab005"></path><path d="M32 0 M32 0 C109.76 0, 187.51 0, 230.82 0 M32 0 C104.24 0, 176.49 0, 230.82 0 M230.82 0 C252.15 0, 262.82 10.67, 262.82 32 M230.82 0 C252.15 0, 262.82 10.67, 262.82 32 M262.82 32 C262.82 185.95, 262.82 339.9, 262.82 448.29 M262.82 32 C262.82 151.69, 262.82 271.38, 262.82 448.29 M262.82 448.29 C262.82 469.62, 252.15 480.29, 230.82 480.29 M262.82 448.29 C262.82 469.62, 252.15 480.29, 230.82 480.29 M230.82 480.29 C173.04 480.29, 115.25 480.29, 32 480.29 M230.82 480.29 C161.75 480.29, 92.68 480.29, 32 480.29 M32 480.29 C10.67 480.29, 0 469.62, 0 448.29 M32 480.29 C10.67 480.29, 0 469.62, 0 448.29 M0 448.29 C0 336.55, 0 224.82, 0 32 M0 448.29 C0 311.59, 0 174.89, 0 32 M0 32 C0 10.67, 10.67 0, 32 0 M0 32 C0 10.67, 10.67 0, 32 0" stroke="#000000" stroke-width="2" fill="none"></path></g><g stroke-linecap="round" transform="translate(852.875566959663 135.84280710830672) rotate(0 115.1292707250168 193.6265007648003)"><path d="M0 0 L230.26 0 L230.26 387.25 L0 387.25" stroke="none" stroke-width="0" fill="white"></path><path d="M0 0 C72.17 0, 144.34 0, 230.26 0 M0 0 C64.35 0, 128.7 0, 230.26 0 M230.26 0 C230.26 104.94, 230.26 209.88, 230.26 387.25 M230.26 0 C230.26 134.51, 230.26 269.02, 230.26 387.25 M230.26 387.25 C178.79 387.25, 127.32 387.25, 0 387.25 M230.26 387.25 C175.29 387.25, 120.33 387.25, 0 387.25 M0 387.25 C0 305.46, 0 223.66, 0 0 M0 387.25 C0 274.03, 0 160.82, 0 0" stroke="#000000" stroke-width="2" fill="none"></path></g><g transform="translate(899.538170509386 313.3693078731071) rotate(0 68.46666717529297 16.09999999999991)"><text x="68.46666717529297" y="0" font-family="Helvetica, Segoe UI Emoji" font-size="28px" fill="#000000" text-anchor="middle" style="white-space: pre;" direction="ltr" dominant-baseline="text-before-edge">Mobile app</text></g><g stroke-linecap="round" transform="translate(939.6284141096748 538.2137936826061) rotate(0 23.83989949356328 23.83989949356328)"><path d="M47.68 23.84 C47.68 25.22, 47.56 26.62, 47.32 27.98 C47.08 29.34, 46.71 30.7, 46.24 31.99 C45.77 33.29, 45.18 34.56, 44.49 35.76 C43.8 36.95, 42.99 38.11, 42.1 39.16 C41.22 40.22, 40.22 41.22, 39.16 42.1 C38.11 42.99, 36.95 43.8, 35.76 44.49 C34.56 45.18, 33.29 45.77, 31.99 46.24 C30.7 46.71, 29.34 47.08, 27.98 47.32 C26.62 47.56, 25.22 47.68, 23.84 47.68 C22.46 47.68, 21.06 47.56, 19.7 47.32 C18.34 47.08, 16.98 46.71, 15.69 46.24 C14.39 45.77, 13.11 45.18, 11.92 44.49 C10.72 43.8, 9.57 42.99, 8.52 42.1 C7.46 41.22, 6.46 40.22, 5.58 39.16 C4.69 38.11, 3.88 36.95, 3.19 35.76 C2.5 34.56, 1.91 33.29, 1.44 31.99 C0.97 30.7, 0.6 29.34, 0.36 27.98 C0.12 26.62, 0 25.22, 0 23.84 C0 22.46, 0.12 21.06, 0.36 19.7 C0.6 18.34, 0.97 16.98, 1.44 15.69 C1.91 14.39, 2.5 13.11, 3.19 11.92 C3.88 10.72, 4.69 9.57, 5.58 8.52 C6.46 7.46, 7.46 6.46, 8.52 5.58 C9.57 4.69, 10.72 3.88, 11.92 3.19 C13.11 2.5, 14.39 1.91, 15.69 1.44 C16.98 0.97, 18.34 0.6, 19.7 0.36 C21.06 0.12, 22.46 0, 23.84 0 C25.22 0, 26.62 0.12, 27.98 0.36 C29.34 0.6, 30.7 0.97, 31.99 1.44 C33.29 1.91, 34.56 2.5, 35.76 3.19 C36.95 3.88, 38.11 4.69, 39.16 5.58 C40.22 6.46, 41.22 7.46, 42.1 8.52 C42.99 9.57, 43.8 10.72, 44.49 11.92 C45.18 13.11, 45.77 14.39, 46.24 15.69 C46.71 16.98, 47.08 18.34, 47.32 19.7 C47.56 21.06, 47.62 23.15, 47.68 23.84 C47.74 24.53, 47.74 23.15, 47.68 23.84" stroke="none" stroke-width="0" fill="white"></path><path d="M47.68 23.84 C47.68 25.22, 47.56 26.62, 47.32 27.98 C47.08 29.34, 46.71 30.7, 46.24 31.99 C45.77 33.29, 45.18 34.56, 44.49 35.76 C43.8 36.95, 42.99 38.11, 42.1 39.16 C41.22 40.22, 40.22 41.22, 39.16 42.1 C38.11 42.99, 36.95 43.8, 35.76 44.49 C34.56 45.18, 33.29 45.77, 31.99 46.24 C30.7 46.71, 29.34 47.08, 27.98 47.32 C26.62 47.56, 25.22 47.68, 23.84 47.68 C22.46 47.68, 21.06 47.56, 19.7 47.32 C18.34 47.08, 16.98 46.71, 15.69 46.24 C14.39 45.77, 13.11 45.18, 11.92 44.49 C10.72 43.8, 9.57 42.99, 8.52 42.1 C7.46 41.22, 6.46 40.22, 5.58 39.16 C4.69 38.11, 3.88 36.95, 3.19 35.76 C2.5 34.56, 1.91 33.29, 1.44 31.99 C0.97 30.7, 0.6 29.34, 0.36 27.98 C0.12 26.62, 0 25.22, 0 23.84 C0 22.46, 0.12 21.06, 0.36 19.7 C0.6 18.34, 0.97 16.98, 1.44 15.69 C1.91 14.39, 2.5 13.11, 3.19 11.92 C3.88 10.72, 4.69 9.57, 5.58 8.52 C6.46 7.46, 7.46 6.46, 8.52 5.58 C9.57 4.69, 10.72 3.88, 11.92 3.19 C13.11 2.5, 14.39 1.91, 15.69 1.44 C16.98 0.97, 18.34 0.6, 19.7 0.36 C21.06 0.12, 22.46 0, 23.84 0 C25.22 0, 26.62 0.12, 27.98 0.36 C29.34 0.6, 30.7 0.97, 31.99 1.44 C33.29 1.91, 34.56 2.5, 35.76 3.19 C36.95 3.88, 38.11 4.69, 39.16 5.58 C40.22 6.46, 41.22 7.46, 42.1 8.52 C42.99 9.57, 43.8 10.72, 44.49 11.92 C45.18 13.11, 45.77 14.39, 46.24 15.69 C46.71 16.98, 47.08 18.34, 47.32 19.7 C47.56 21.06, 47.62 23.15, 47.68 23.84 C47.74 24.53, 47.74 23.15, 47.68 23.84" stroke="#000000" stroke-width="2" fill="none"></path></g><g stroke-linecap="round" transform="translate(1471.723295092941 277.49673729969527) rotate(0 109.25748287978695 124.86569471975622)"><path d="M32 0 L194.01 0.5 L200.51 2 L206.01 4.5 L210.51 8 L214.01 12.5 L216.51 18 L218.01 24.5 L218.51 32 L218.51 217.73 L218.01 225.23 L216.51 231.73 L214.01 237.23 L210.51 241.73 L206.01 245.23 L200.51 247.73 L194.01 249.23 L186.51 249.73 L32 249.73 L24.5 249.23 L18 247.73 L12.5 245.23 L8 241.73 L4.5 237.23 L2 231.73 L0.5 225.23 L0 217.73 L0.5 24.5 L2 18 L4.5 12.5 L8 8 L12.5 4.5 L18 2 L24.5 0.5 L32 0" stroke="none" stroke-width="0" fill="#ced4da"></path><path d="M32 0 M32 0 C65.63 0, 99.26 0, 186.51 0 M32 0 C73.26 0, 114.51 0, 186.51 0 M186.51 0 C207.85 0, 218.51 10.67, 218.51 32 M186.51 0 C207.85 0, 218.51 10.67, 218.51 32 M218.51 32 C218.51 77.57, 218.51 123.13, 218.51 217.73 M218.51 32 C218.51 77.88, 218.51 123.76, 218.51 217.73 M218.51 217.73 C218.51 239.06, 207.85 249.73, 186.51 249.73 M218.51 217.73 C218.51 239.06, 207.85 249.73, 186.51 249.73 M186.51 249.73 C153.96 249.73, 121.41 249.73, 32 249.73 M186.51 249.73 C139.64 249.73, 92.76 249.73, 32 249.73 M32 249.73 C10.67 249.73, 0 239.06, 0 217.73 M32 249.73 C10.67 249.73, 0 239.06, 0 217.73 M0 217.73 C0 149.37, 0 81.01, 0 32 M0 217.73 C0 146.15, 0 74.58, 0 32 M0 32 C0 10.67, 10.67 0, 32 0 M0 32 C0 10.67, 10.67 0, 32 0" stroke="#000000" stroke-width="2" fill="none"></path></g><g stroke-linecap="round" transform="translate(1484.2139371467547 292.59824399373247) rotate(0 95.90887894512343 26.72763197994982)"><path d="M13.36 0 L178.45 0 L184.3 0.84 L186.6 1.88 L189.94 5.22 L191.61 10.23 L191.82 40.09 L190.98 45.94 L188.48 50.11 L186.6 51.58 L184.3 52.62 L178.45 53.46 L13.36 53.46 L7.52 52.62 L3.34 50.11 L0.84 45.94 L0.21 43.22 L0.21 10.23 L1.88 5.22 L5.22 1.88 L10.23 0.21 L13.36 0" stroke="none" stroke-width="0" fill="#ced4da"></path><path d="M13.36 0 M13.36 0 C57.61 0, 101.86 0, 178.45 0 M13.36 0 C71.04 0, 128.72 0, 178.45 0 M178.45 0 C187.36 0, 191.82 4.45, 191.82 13.36 M178.45 0 C187.36 0, 191.82 4.45, 191.82 13.36 M191.82 13.36 C191.82 22.26, 191.82 31.16, 191.82 40.09 M191.82 13.36 C191.82 22.42, 191.82 31.48, 191.82 40.09 M191.82 40.09 C191.82 49, 187.36 53.46, 178.45 53.46 M191.82 40.09 C191.82 49, 187.36 53.46, 178.45 53.46 M178.45 53.46 C116.58 53.46, 54.71 53.46, 13.36 53.46 M178.45 53.46 C128.54 53.46, 78.63 53.46, 13.36 53.46 M13.36 53.46 C4.45 53.46, 0 49, 0 40.09 M13.36 53.46 C4.45 53.46, 0 49, 0 40.09 M0 40.09 C0 33.39, 0 26.69, 0 13.36 M0 40.09 C0 31.14, 0 22.19, 0 13.36 M0 13.36 C0 4.45, 4.45 0, 13.36 0 M0 13.36 C0 4.45, 4.45 0, 13.36 0" stroke="#000000" stroke-width="2" fill="none"></path></g><g stroke-linecap="round" transform="translate(1484.2139371467547 361.59824399373247) rotate(0 95.90887894512343 26.72763197994982)"><path d="M13.36 0 L178.45 0 L184.3 0.84 L186.6 1.88 L189.94 5.22 L191.61 10.23 L191.82 40.09 L190.98 45.94 L188.48 50.11 L186.6 51.58 L184.3 52.62 L178.45 53.46 L13.36 53.46 L7.52 52.62 L3.34 50.11 L0.84 45.94 L0.21 43.22 L0.21 10.23 L1.88 5.22 L5.22 1.88 L10.23 0.21 L13.36 0" stroke="none" stroke-width="0" fill="#ced4da"></path><path d="M13.36 0 M13.36 0 C53.55 0, 93.74 0, 178.45 0 M13.36 0 C51.55 0, 89.74 0, 178.45 0 M178.45 0 C187.36 0, 191.82 4.45, 191.82 13.36 M178.45 0 C187.36 0, 191.82 4.45, 191.82 13.36 M191.82 13.36 C191.82 21.45, 191.82 29.53, 191.82 40.09 M191.82 13.36 C191.82 22.33, 191.82 31.29, 191.82 40.09 M191.82 40.09 C191.82 49, 187.36 53.46, 178.45 53.46 M191.82 40.09 C191.82 49, 187.36 53.46, 178.45 53.46 M178.45 53.46 C118.04 53.46, 57.62 53.46, 13.36 53.46 M178.45 53.46 C117.94 53.46, 57.43 53.46, 13.36 53.46 M13.36 53.46 C4.45 53.46, 0 49, 0 40.09 M13.36 53.46 C4.45 53.46, 0 49, 0 40.09 M0 40.09 C0 31.18, 0 22.26, 0 13.36 M0 40.09 C0 33.43, 0 26.77, 0 13.36 M0 13.36 C0 4.45, 4.45 0, 13.36 0 M0 13.36 C0 4.45, 4.45 0, 13.36 0" stroke="#000000" stroke-width="2" fill="none"></path></g><g stroke-linecap="round" transform="translate(1484.2139371467547 427.598243993732) rotate(0 95.90887894512343 26.72763197994982)"><path d="M13.36 0 L178.45 0 L184.3 0.84 L186.6 1.88 L189.94 5.22 L191.61 10.23 L191.82 40.09 L190.98 45.94 L188.48 50.11 L186.6 51.58 L184.3 52.62 L178.45 53.46 L13.36 53.46 L7.52 52.62 L3.34 50.11 L0.84 45.94 L0.21 43.22 L0.21 10.23 L1.88 5.22 L5.22 1.88 L10.23 0.21 L13.36 0" stroke="none" stroke-width="0" fill="#ced4da"></path><path d="M13.36 0 M13.36 0 C62.45 0, 111.54 0, 178.45 0 M13.36 0 C74.39 0, 135.42 0, 178.45 0 M178.45 0 C187.36 0, 191.82 4.45, 191.82 13.36 M178.45 0 C187.36 0, 191.82 4.45, 191.82 13.36 M191.82 13.36 C191.82 20.94, 191.82 28.51, 191.82 40.09 M191.82 13.36 C191.82 19.64, 191.82 25.91, 191.82 40.09 M191.82 40.09 C191.82 49, 187.36 53.46, 178.45 53.46 M191.82 40.09 C191.82 49, 187.36 53.46, 178.45 53.46 M178.45 53.46 C120.5 53.46, 62.55 53.46, 13.36 53.46 M178.45 53.46 C144.72 53.46, 110.99 53.46, 13.36 53.46 M13.36 53.46 C4.45 53.46, 0 49, 0 40.09 M13.36 53.46 C4.45 53.46, 0 49, 0 40.09 M0 40.09 C0 34.56, 0 29.03, 0 13.36 M0 40.09 C0 30.17, 0 20.25, 0 13.36 M0 13.36 C0 4.45, 4.45 0, 13.36 0 M0 13.36 C0 4.45, 4.45 0, 13.36 0" stroke="#000000" stroke-width="2" fill="none"></path></g><g stroke-linecap="round" transform="translate(1511.8558996611046 313.5156876996243) rotate(0 5.402842559989949 5.4028425599894945)"><path d="M10.81 5.4 C10.81 5.72, 10.78 6.03, 10.72 6.34 C10.67 6.65, 10.59 6.96, 10.48 7.25 C10.37 7.54, 10.24 7.83, 10.08 8.1 C9.93 8.38, 9.74 8.64, 9.54 8.88 C9.34 9.12, 9.12 9.34, 8.88 9.54 C8.64 9.74, 8.38 9.93, 8.1 10.08 C7.83 10.24, 7.54 10.37, 7.25 10.48 C6.96 10.59, 6.65 10.67, 6.34 10.72 C6.03 10.78, 5.72 10.81, 5.4 10.81 C5.09 10.81, 4.77 10.78, 4.46 10.72 C4.16 10.67, 3.85 10.59, 3.55 10.48 C3.26 10.37, 2.97 10.24, 2.7 10.08 C2.43 9.93, 2.17 9.74, 1.93 9.54 C1.69 9.34, 1.47 9.12, 1.26 8.88 C1.06 8.64, 0.88 8.38, 0.72 8.1 C0.57 7.83, 0.43 7.54, 0.33 7.25 C0.22 6.96, 0.14 6.65, 0.08 6.34 C0.03 6.03, 0 5.72, 0 5.4 C0 5.09, 0.03 4.77, 0.08 4.46 C0.14 4.16, 0.22 3.85, 0.33 3.55 C0.43 3.26, 0.57 2.97, 0.72 2.7 C0.88 2.43, 1.06 2.17, 1.26 1.93 C1.47 1.69, 1.69 1.47, 1.93 1.26 C2.17 1.06, 2.43 0.88, 2.7 0.72 C2.97 0.57, 3.26 0.43, 3.55 0.33 C3.85 0.22, 4.16 0.14, 4.46 0.08 C4.77 0.03, 5.09 0, 5.4 0 C5.72 0, 6.03 0.03, 6.34 0.08 C6.65 0.14, 6.96 0.22, 7.25 0.33 C7.54 0.43, 7.83 0.57, 8.1 0.72 C8.38 0.88, 8.64 1.06, 8.88 1.26 C9.12 1.47, 9.34 1.69, 9.54 1.93 C9.74 2.17, 9.93 2.43, 10.08 2.7 C10.24 2.97, 10.37 3.26, 10.48 3.55 C10.59 3.85, 10.67 4.16, 10.72 4.46 C10.78 4.77, 10.79 5.25, 10.81 5.4 C10.82 5.56, 10.82 5.25, 10.81 5.4" stroke="none" stroke-width="0" fill="#ced4da"></path><path d="M10.81 5.4 C10.81 5.72, 10.78 6.03, 10.72 6.34 C10.67 6.65, 10.59 6.96, 10.48 7.25 C10.37 7.54, 10.24 7.83, 10.08 8.1 C9.93 8.38, 9.74 8.64, 9.54 8.88 C9.34 9.12, 9.12 9.34, 8.88 9.54 C8.64 9.74, 8.38 9.93, 8.1 10.08 C7.83 10.24, 7.54 10.37, 7.25 10.48 C6.96 10.59, 6.65 10.67, 6.34 10.72 C6.03 10.78, 5.72 10.81, 5.4 10.81 C5.09 10.81, 4.77 10.78, 4.46 10.72 C4.16 10.67, 3.85 10.59, 3.55 10.48 C3.26 10.37, 2.97 10.24, 2.7 10.08 C2.43 9.93, 2.17 9.74, 1.93 9.54 C1.69 9.34, 1.47 9.12, 1.26 8.88 C1.06 8.64, 0.88 8.38, 0.72 8.1 C0.57 7.83, 0.43 7.54, 0.33 7.25 C0.22 6.96, 0.14 6.65, 0.08 6.34 C0.03 6.03, 0 5.72, 0 5.4 C0 5.09, 0.03 4.77, 0.08 4.46 C0.14 4.16, 0.22 3.85, 0.33 3.55 C0.43 3.26, 0.57 2.97, 0.72 2.7 C0.88 2.43, 1.06 2.17, 1.26 1.93 C1.47 1.69, 1.69 1.47, 1.93 1.26 C2.17 1.06, 2.43 0.88, 2.7 0.72 C2.97 0.57, 3.26 0.43, 3.55 0.33 C3.85 0.22, 4.16 0.14, 4.46 0.08 C4.77 0.03, 5.09 0, 5.4 0 C5.72 0, 6.03 0.03, 6.34 0.08 C6.65 0.14, 6.96 0.22, 7.25 0.33 C7.54 0.43, 7.83 0.57, 8.1 0.72 C8.38 0.88, 8.64 1.06, 8.88 1.26 C9.12 1.47, 9.34 1.69, 9.54 1.93 C9.74 2.17, 9.93 2.43, 10.08 2.7 C10.24 2.97, 10.37 3.26, 10.48 3.55 C10.59 3.85, 10.67 4.16, 10.72 4.46 C10.78 4.77, 10.79 5.25, 10.81 5.4 C10.82 5.56, 10.82 5.25, 10.81 5.4" stroke="#000000" stroke-width="2" fill="none"></path></g><g stroke-linecap="round" transform="translate(1511.8558996611046 383.5156876996243) rotate(0 5.402842559989949 5.4028425599894945)"><path d="M10.81 5.4 C10.81 5.72, 10.78 6.03, 10.72 6.34 C10.67 6.65, 10.59 6.96, 10.48 7.25 C10.37 7.54, 10.24 7.83, 10.08 8.1 C9.93 8.38, 9.74 8.64, 9.54 8.88 C9.34 9.12, 9.12 9.34, 8.88 9.54 C8.64 9.74, 8.38 9.93, 8.1 10.08 C7.83 10.24, 7.54 10.37, 7.25 10.48 C6.96 10.59, 6.65 10.67, 6.34 10.72 C6.03 10.78, 5.72 10.81, 5.4 10.81 C5.09 10.81, 4.77 10.78, 4.46 10.72 C4.16 10.67, 3.85 10.59, 3.55 10.48 C3.26 10.37, 2.97 10.24, 2.7 10.08 C2.43 9.93, 2.17 9.74, 1.93 9.54 C1.69 9.34, 1.47 9.12, 1.26 8.88 C1.06 8.64, 0.88 8.38, 0.72 8.1 C0.57 7.83, 0.43 7.54, 0.33 7.25 C0.22 6.96, 0.14 6.65, 0.08 6.34 C0.03 6.03, 0 5.72, 0 5.4 C0 5.09, 0.03 4.77, 0.08 4.46 C0.14 4.16, 0.22 3.85, 0.33 3.55 C0.43 3.26, 0.57 2.97, 0.72 2.7 C0.88 2.43, 1.06 2.17, 1.26 1.93 C1.47 1.69, 1.69 1.47, 1.93 1.26 C2.17 1.06, 2.43 0.88, 2.7 0.72 C2.97 0.57, 3.26 0.43, 3.55 0.33 C3.85 0.22, 4.16 0.14, 4.46 0.08 C4.77 0.03, 5.09 0, 5.4 0 C5.72 0, 6.03 0.03, 6.34 0.08 C6.65 0.14, 6.96 0.22, 7.25 0.33 C7.54 0.43, 7.83 0.57, 8.1 0.72 C8.38 0.88, 8.64 1.06, 8.88 1.26 C9.12 1.47, 9.34 1.69, 9.54 1.93 C9.74 2.17, 9.93 2.43, 10.08 2.7 C10.24 2.97, 10.37 3.26, 10.48 3.55 C10.59 3.85, 10.67 4.16, 10.72 4.46 C10.78 4.77, 10.79 5.25, 10.81 5.4 C10.82 5.56, 10.82 5.25, 10.81 5.4" stroke="none" stroke-width="0" fill="#ced4da"></path><path d="M10.81 5.4 C10.81 5.72, 10.78 6.03, 10.72 6.34 C10.67 6.65, 10.59 6.96, 10.48 7.25 C10.37 7.54, 10.24 7.83, 10.08 8.1 C9.93 8.38, 9.74 8.64, 9.54 8.88 C9.34 9.12, 9.12 9.34, 8.88 9.54 C8.64 9.74, 8.38 9.93, 8.1 10.08 C7.83 10.24, 7.54 10.37, 7.25 10.48 C6.96 10.59, 6.65 10.67, 6.34 10.72 C6.03 10.78, 5.72 10.81, 5.4 10.81 C5.09 10.81, 4.77 10.78, 4.46 10.72 C4.16 10.67, 3.85 10.59, 3.55 10.48 C3.26 10.37, 2.97 10.24, 2.7 10.08 C2.43 9.93, 2.17 9.74, 1.93 9.54 C1.69 9.34, 1.47 9.12, 1.26 8.88 C1.06 8.64, 0.88 8.38, 0.72 8.1 C0.57 7.83, 0.43 7.54, 0.33 7.25 C0.22 6.96, 0.14 6.65, 0.08 6.34 C0.03 6.03, 0 5.72, 0 5.4 C0 5.09, 0.03 4.77, 0.08 4.46 C0.14 4.16, 0.22 3.85, 0.33 3.55 C0.43 3.26, 0.57 2.97, 0.72 2.7 C0.88 2.43, 1.06 2.17, 1.26 1.93 C1.47 1.69, 1.69 1.47, 1.93 1.26 C2.17 1.06, 2.43 0.88, 2.7 0.72 C2.97 0.57, 3.26 0.43, 3.55 0.33 C3.85 0.22, 4.16 0.14, 4.46 0.08 C4.77 0.03, 5.09 0, 5.4 0 C5.72 0, 6.03 0.03, 6.34 0.08 C6.65 0.14, 6.96 0.22, 7.25 0.33 C7.54 0.43, 7.83 0.57, 8.1 0.72 C8.38 0.88, 8.64 1.06, 8.88 1.26 C9.12 1.47, 9.34 1.69, 9.54 1.93 C9.74 2.17, 9.93 2.43, 10.08 2.7 C10.24 2.97, 10.37 3.26, 10.48 3.55 C10.59 3.85, 10.67 4.16, 10.72 4.46 C10.78 4.77, 10.79 5.25, 10.81 5.4 C10.82 5.56, 10.82 5.25, 10.81 5.4" stroke="#000000" stroke-width="2" fill="none"></path></g><g stroke-linecap="round" transform="translate(1511.8558996611046 448.5156876996248) rotate(0 5.402842559989949 5.4028425599894945)"><path d="M10.81 5.4 C10.81 5.72, 10.78 6.03, 10.72 6.34 C10.67 6.65, 10.59 6.96, 10.48 7.25 C10.37 7.54, 10.24 7.83, 10.08 8.1 C9.93 8.38, 9.74 8.64, 9.54 8.88 C9.34 9.12, 9.12 9.34, 8.88 9.54 C8.64 9.74, 8.38 9.93, 8.1 10.08 C7.83 10.24, 7.54 10.37, 7.25 10.48 C6.96 10.59, 6.65 10.67, 6.34 10.72 C6.03 10.78, 5.72 10.81, 5.4 10.81 C5.09 10.81, 4.77 10.78, 4.46 10.72 C4.16 10.67, 3.85 10.59, 3.55 10.48 C3.26 10.37, 2.97 10.24, 2.7 10.08 C2.43 9.93, 2.17 9.74, 1.93 9.54 C1.69 9.34, 1.47 9.12, 1.26 8.88 C1.06 8.64, 0.88 8.38, 0.72 8.1 C0.57 7.83, 0.43 7.54, 0.33 7.25 C0.22 6.96, 0.14 6.65, 0.08 6.34 C0.03 6.03, 0 5.72, 0 5.4 C0 5.09, 0.03 4.77, 0.08 4.46 C0.14 4.16, 0.22 3.85, 0.33 3.55 C0.43 3.26, 0.57 2.97, 0.72 2.7 C0.88 2.43, 1.06 2.17, 1.26 1.93 C1.47 1.69, 1.69 1.47, 1.93 1.26 C2.17 1.06, 2.43 0.88, 2.7 0.72 C2.97 0.57, 3.26 0.43, 3.55 0.33 C3.85 0.22, 4.16 0.14, 4.46 0.08 C4.77 0.03, 5.09 0, 5.4 0 C5.72 0, 6.03 0.03, 6.34 0.08 C6.65 0.14, 6.96 0.22, 7.25 0.33 C7.54 0.43, 7.83 0.57, 8.1 0.72 C8.38 0.88, 8.64 1.06, 8.88 1.26 C9.12 1.47, 9.34 1.69, 9.54 1.93 C9.74 2.17, 9.93 2.43, 10.08 2.7 C10.24 2.97, 10.37 3.26, 10.48 3.55 C10.59 3.85, 10.67 4.16, 10.72 4.46 C10.78 4.77, 10.79 5.25, 10.81 5.4 C10.82 5.56, 10.82 5.25, 10.81 5.4" stroke="none" stroke-width="0" fill="#ced4da"></path><path d="M10.81 5.4 C10.81 5.72, 10.78 6.03, 10.72 6.34 C10.67 6.65, 10.59 6.96, 10.48 7.25 C10.37 7.54, 10.24 7.83, 10.08 8.1 C9.93 8.38, 9.74 8.64, 9.54 8.88 C9.34 9.12, 9.12 9.34, 8.88 9.54 C8.64 9.74, 8.38 9.93, 8.1 10.08 C7.83 10.24, 7.54 10.37, 7.25 10.48 C6.96 10.59, 6.65 10.67, 6.34 10.72 C6.03 10.78, 5.72 10.81, 5.4 10.81 C5.09 10.81, 4.77 10.78, 4.46 10.72 C4.16 10.67, 3.85 10.59, 3.55 10.48 C3.26 10.37, 2.97 10.24, 2.7 10.08 C2.43 9.93, 2.17 9.74, 1.93 9.54 C1.69 9.34, 1.47 9.12, 1.26 8.88 C1.06 8.64, 0.88 8.38, 0.72 8.1 C0.57 7.83, 0.43 7.54, 0.33 7.25 C0.22 6.96, 0.14 6.65, 0.08 6.34 C0.03 6.03, 0 5.72, 0 5.4 C0 5.09, 0.03 4.77, 0.08 4.46 C0.14 4.16, 0.22 3.85, 0.33 3.55 C0.43 3.26, 0.57 2.97, 0.72 2.7 C0.88 2.43, 1.06 2.17, 1.26 1.93 C1.47 1.69, 1.69 1.47, 1.93 1.26 C2.17 1.06, 2.43 0.88, 2.7 0.72 C2.97 0.57, 3.26 0.43, 3.55 0.33 C3.85 0.22, 4.16 0.14, 4.46 0.08 C4.77 0.03, 5.09 0, 5.4 0 C5.72 0, 6.03 0.03, 6.34 0.08 C6.65 0.14, 6.96 0.22, 7.25 0.33 C7.54 0.43, 7.83 0.57, 8.1 0.72 C8.38 0.88, 8.64 1.06, 8.88 1.26 C9.12 1.47, 9.34 1.69, 9.54 1.93 C9.74 2.17, 9.93 2.43, 10.08 2.7 C10.24 2.97, 10.37 3.26, 10.48 3.55 C10.59 3.85, 10.67 4.16, 10.72 4.46 C10.78 4.77, 10.79 5.25, 10.81 5.4 C10.82 5.56, 10.82 5.25, 10.81 5.4" stroke="#000000" stroke-width="2" fill="none"></path></g><g stroke-linecap="round" transform="translate(1531.8558996611046 313.5156876996243) rotate(0 5.402842559989949 5.4028425599894945)"><path d="M10.81 5.4 C10.81 5.72, 10.78 6.03, 10.72 6.34 C10.67 6.65, 10.59 6.96, 10.48 7.25 C10.37 7.54, 10.24 7.83, 10.08 8.1 C9.93 8.38, 9.74 8.64, 9.54 8.88 C9.34 9.12, 9.12 9.34, 8.88 9.54 C8.64 9.74, 8.38 9.93, 8.1 10.08 C7.83 10.24, 7.54 10.37, 7.25 10.48 C6.96 10.59, 6.65 10.67, 6.34 10.72 C6.03 10.78, 5.72 10.81, 5.4 10.81 C5.09 10.81, 4.77 10.78, 4.46 10.72 C4.16 10.67, 3.85 10.59, 3.55 10.48 C3.26 10.37, 2.97 10.24, 2.7 10.08 C2.43 9.93, 2.17 9.74, 1.93 9.54 C1.69 9.34, 1.47 9.12, 1.26 8.88 C1.06 8.64, 0.88 8.38, 0.72 8.1 C0.57 7.83, 0.43 7.54, 0.33 7.25 C0.22 6.96, 0.14 6.65, 0.08 6.34 C0.03 6.03, 0 5.72, 0 5.4 C0 5.09, 0.03 4.77, 0.08 4.46 C0.14 4.16, 0.22 3.85, 0.33 3.55 C0.43 3.26, 0.57 2.97, 0.72 2.7 C0.88 2.43, 1.06 2.17, 1.26 1.93 C1.47 1.69, 1.69 1.47, 1.93 1.26 C2.17 1.06, 2.43 0.88, 2.7 0.72 C2.97 0.57, 3.26 0.43, 3.55 0.33 C3.85 0.22, 4.16 0.14, 4.46 0.08 C4.77 0.03, 5.09 0, 5.4 0 C5.72 0, 6.03 0.03, 6.34 0.08 C6.65 0.14, 6.96 0.22, 7.25 0.33 C7.54 0.43, 7.83 0.57, 8.1 0.72 C8.38 0.88, 8.64 1.06, 8.88 1.26 C9.12 1.47, 9.34 1.69, 9.54 1.93 C9.74 2.17, 9.93 2.43, 10.08 2.7 C10.24 2.97, 10.37 3.26, 10.48 3.55 C10.59 3.85, 10.67 4.16, 10.72 4.46 C10.78 4.77, 10.79 5.25, 10.81 5.4 C10.82 5.56, 10.82 5.25, 10.81 5.4" stroke="none" stroke-width="0" fill="#ced4da"></path><path d="M10.81 5.4 C10.81 5.72, 10.78 6.03, 10.72 6.34 C10.67 6.65, 10.59 6.96, 10.48 7.25 C10.37 7.54, 10.24 7.83, 10.08 8.1 C9.93 8.38, 9.74 8.64, 9.54 8.88 C9.34 9.12, 9.12 9.34, 8.88 9.54 C8.64 9.74, 8.38 9.93, 8.1 10.08 C7.83 10.24, 7.54 10.37, 7.25 10.48 C6.96 10.59, 6.65 10.67, 6.34 10.72 C6.03 10.78, 5.72 10.81, 5.4 10.81 C5.09 10.81, 4.77 10.78, 4.46 10.72 C4.16 10.67, 3.85 10.59, 3.55 10.48 C3.26 10.37, 2.97 10.24, 2.7 10.08 C2.43 9.93, 2.17 9.74, 1.93 9.54 C1.69 9.34, 1.47 9.12, 1.26 8.88 C1.06 8.64, 0.88 8.38, 0.72 8.1 C0.57 7.83, 0.43 7.54, 0.33 7.25 C0.22 6.96, 0.14 6.65, 0.08 6.34 C0.03 6.03, 0 5.72, 0 5.4 C0 5.09, 0.03 4.77, 0.08 4.46 C0.14 4.16, 0.22 3.85, 0.33 3.55 C0.43 3.26, 0.57 2.97, 0.72 2.7 C0.88 2.43, 1.06 2.17, 1.26 1.93 C1.47 1.69, 1.69 1.47, 1.93 1.26 C2.17 1.06, 2.43 0.88, 2.7 0.72 C2.97 0.57, 3.26 0.43, 3.55 0.33 C3.85 0.22, 4.16 0.14, 4.46 0.08 C4.77 0.03, 5.09 0, 5.4 0 C5.72 0, 6.03 0.03, 6.34 0.08 C6.65 0.14, 6.96 0.22, 7.25 0.33 C7.54 0.43, 7.83 0.57, 8.1 0.72 C8.38 0.88, 8.64 1.06, 8.88 1.26 C9.12 1.47, 9.34 1.69, 9.54 1.93 C9.74 2.17, 9.93 2.43, 10.08 2.7 C10.24 2.97, 10.37 3.26, 10.48 3.55 C10.59 3.85, 10.67 4.16, 10.72 4.46 C10.78 4.77, 10.79 5.25, 10.81 5.4 C10.82 5.56, 10.82 5.25, 10.81 5.4" stroke="#000000" stroke-width="2" fill="none"></path></g><g stroke-linecap="round" transform="translate(1531.8558996611046 383.5156876996243) rotate(0 5.402842559989949 5.4028425599894945)"><path d="M10.81 5.4 C10.81 5.72, 10.78 6.03, 10.72 6.34 C10.67 6.65, 10.59 6.96, 10.48 7.25 C10.37 7.54, 10.24 7.83, 10.08 8.1 C9.93 8.38, 9.74 8.64, 9.54 8.88 C9.34 9.12, 9.12 9.34, 8.88 9.54 C8.64 9.74, 8.38 9.93, 8.1 10.08 C7.83 10.24, 7.54 10.37, 7.25 10.48 C6.96 10.59, 6.65 10.67, 6.34 10.72 C6.03 10.78, 5.72 10.81, 5.4 10.81 C5.09 10.81, 4.77 10.78, 4.46 10.72 C4.16 10.67, 3.85 10.59, 3.55 10.48 C3.26 10.37, 2.97 10.24, 2.7 10.08 C2.43 9.93, 2.17 9.74, 1.93 9.54 C1.69 9.34, 1.47 9.12, 1.26 8.88 C1.06 8.64, 0.88 8.38, 0.72 8.1 C0.57 7.83, 0.43 7.54, 0.33 7.25 C0.22 6.96, 0.14 6.65, 0.08 6.34 C0.03 6.03, 0 5.72, 0 5.4 C0 5.09, 0.03 4.77, 0.08 4.46 C0.14 4.16, 0.22 3.85, 0.33 3.55 C0.43 3.26, 0.57 2.97, 0.72 2.7 C0.88 2.43, 1.06 2.17, 1.26 1.93 C1.47 1.69, 1.69 1.47, 1.93 1.26 C2.17 1.06, 2.43 0.88, 2.7 0.72 C2.97 0.57, 3.26 0.43, 3.55 0.33 C3.85 0.22, 4.16 0.14, 4.46 0.08 C4.77 0.03, 5.09 0, 5.4 0 C5.72 0, 6.03 0.03, 6.34 0.08 C6.65 0.14, 6.96 0.22, 7.25 0.33 C7.54 0.43, 7.83 0.57, 8.1 0.72 C8.38 0.88, 8.64 1.06, 8.88 1.26 C9.12 1.47, 9.34 1.69, 9.54 1.93 C9.74 2.17, 9.93 2.43, 10.08 2.7 C10.24 2.97, 10.37 3.26, 10.48 3.55 C10.59 3.85, 10.67 4.16, 10.72 4.46 C10.78 4.77, 10.79 5.25, 10.81 5.4 C10.82 5.56, 10.82 5.25, 10.81 5.4" stroke="none" stroke-width="0" fill="#ced4da"></path><path d="M10.81 5.4 C10.81 5.72, 10.78 6.03, 10.72 6.34 C10.67 6.65, 10.59 6.96, 10.48 7.25 C10.37 7.54, 10.24 7.83, 10.08 8.1 C9.93 8.38, 9.74 8.64, 9.54 8.88 C9.34 9.12, 9.12 9.34, 8.88 9.54 C8.64 9.74, 8.38 9.93, 8.1 10.08 C7.83 10.24, 7.54 10.37, 7.25 10.48 C6.96 10.59, 6.65 10.67, 6.34 10.72 C6.03 10.78, 5.72 10.81, 5.4 10.81 C5.09 10.81, 4.77 10.78, 4.46 10.72 C4.16 10.67, 3.85 10.59, 3.55 10.48 C3.26 10.37, 2.97 10.24, 2.7 10.08 C2.43 9.93, 2.17 9.74, 1.93 9.54 C1.69 9.34, 1.47 9.12, 1.26 8.88 C1.06 8.64, 0.88 8.38, 0.72 8.1 C0.57 7.83, 0.43 7.54, 0.33 7.25 C0.22 6.96, 0.14 6.65, 0.08 6.34 C0.03 6.03, 0 5.72, 0 5.4 C0 5.09, 0.03 4.77, 0.08 4.46 C0.14 4.16, 0.22 3.85, 0.33 3.55 C0.43 3.26, 0.57 2.97, 0.72 2.7 C0.88 2.43, 1.06 2.17, 1.26 1.93 C1.47 1.69, 1.69 1.47, 1.93 1.26 C2.17 1.06, 2.43 0.88, 2.7 0.72 C2.97 0.57, 3.26 0.43, 3.55 0.33 C3.85 0.22, 4.16 0.14, 4.46 0.08 C4.77 0.03, 5.09 0, 5.4 0 C5.72 0, 6.03 0.03, 6.34 0.08 C6.65 0.14, 6.96 0.22, 7.25 0.33 C7.54 0.43, 7.83 0.57, 8.1 0.72 C8.38 0.88, 8.64 1.06, 8.88 1.26 C9.12 1.47, 9.34 1.69, 9.54 1.93 C9.74 2.17, 9.93 2.43, 10.08 2.7 C10.24 2.97, 10.37 3.26, 10.48 3.55 C10.59 3.85, 10.67 4.16, 10.72 4.46 C10.78 4.77, 10.79 5.25, 10.81 5.4 C10.82 5.56, 10.82 5.25, 10.81 5.4" stroke="#000000" stroke-width="2" fill="none"></path></g><g stroke-linecap="round" transform="translate(1531.8558996611046 448.5156876996248) rotate(0 5.402842559989949 5.4028425599894945)"><path d="M10.81 5.4 C10.81 5.72, 10.78 6.03, 10.72 6.34 C10.67 6.65, 10.59 6.96, 10.48 7.25 C10.37 7.54, 10.24 7.83, 10.08 8.1 C9.93 8.38, 9.74 8.64, 9.54 8.88 C9.34 9.12, 9.12 9.34, 8.88 9.54 C8.64 9.74, 8.38 9.93, 8.1 10.08 C7.83 10.24, 7.54 10.37, 7.25 10.48 C6.96 10.59, 6.65 10.67, 6.34 10.72 C6.03 10.78, 5.72 10.81, 5.4 10.81 C5.09 10.81, 4.77 10.78, 4.46 10.72 C4.16 10.67, 3.85 10.59, 3.55 10.48 C3.26 10.37, 2.97 10.24, 2.7 10.08 C2.43 9.93, 2.17 9.74, 1.93 9.54 C1.69 9.34, 1.47 9.12, 1.26 8.88 C1.06 8.64, 0.88 8.38, 0.72 8.1 C0.57 7.83, 0.43 7.54, 0.33 7.25 C0.22 6.96, 0.14 6.65, 0.08 6.34 C0.03 6.03, 0 5.72, 0 5.4 C0 5.09, 0.03 4.77, 0.08 4.46 C0.14 4.16, 0.22 3.85, 0.33 3.55 C0.43 3.26, 0.57 2.97, 0.72 2.7 C0.88 2.43, 1.06 2.17, 1.26 1.93 C1.47 1.69, 1.69 1.47, 1.93 1.26 C2.17 1.06, 2.43 0.88, 2.7 0.72 C2.97 0.57, 3.26 0.43, 3.55 0.33 C3.85 0.22, 4.16 0.14, 4.46 0.08 C4.77 0.03, 5.09 0, 5.4 0 C5.72 0, 6.03 0.03, 6.34 0.08 C6.65 0.14, 6.96 0.22, 7.25 0.33 C7.54 0.43, 7.83 0.57, 8.1 0.72 C8.38 0.88, 8.64 1.06, 8.88 1.26 C9.12 1.47, 9.34 1.69, 9.54 1.93 C9.74 2.17, 9.93 2.43, 10.08 2.7 C10.24 2.97, 10.37 3.26, 10.48 3.55 C10.59 3.85, 10.67 4.16, 10.72 4.46 C10.78 4.77, 10.79 5.25, 10.81 5.4 C10.82 5.56, 10.82 5.25, 10.81 5.4" stroke="none" stroke-width="0" fill="#ced4da"></path><path d="M10.81 5.4 C10.81 5.72, 10.78 6.03, 10.72 6.34 C10.67 6.65, 10.59 6.96, 10.48 7.25 C10.37 7.54, 10.24 7.83, 10.08 8.1 C9.93 8.38, 9.74 8.64, 9.54 8.88 C9.34 9.12, 9.12 9.34, 8.88 9.54 C8.64 9.74, 8.38 9.93, 8.1 10.08 C7.83 10.24, 7.54 10.37, 7.25 10.48 C6.96 10.59, 6.65 10.67, 6.34 10.72 C6.03 10.78, 5.72 10.81, 5.4 10.81 C5.09 10.81, 4.77 10.78, 4.46 10.72 C4.16 10.67, 3.85 10.59, 3.55 10.48 C3.26 10.37, 2.97 10.24, 2.7 10.08 C2.43 9.93, 2.17 9.74, 1.93 9.54 C1.69 9.34, 1.47 9.12, 1.26 8.88 C1.06 8.64, 0.88 8.38, 0.72 8.1 C0.57 7.83, 0.43 7.54, 0.33 7.25 C0.22 6.96, 0.14 6.65, 0.08 6.34 C0.03 6.03, 0 5.72, 0 5.4 C0 5.09, 0.03 4.77, 0.08 4.46 C0.14 4.16, 0.22 3.85, 0.33 3.55 C0.43 3.26, 0.57 2.97, 0.72 2.7 C0.88 2.43, 1.06 2.17, 1.26 1.93 C1.47 1.69, 1.69 1.47, 1.93 1.26 C2.17 1.06, 2.43 0.88, 2.7 0.72 C2.97 0.57, 3.26 0.43, 3.55 0.33 C3.85 0.22, 4.16 0.14, 4.46 0.08 C4.77 0.03, 5.09 0, 5.4 0 C5.72 0, 6.03 0.03, 6.34 0.08 C6.65 0.14, 6.96 0.22, 7.25 0.33 C7.54 0.43, 7.83 0.57, 8.1 0.72 C8.38 0.88, 8.64 1.06, 8.88 1.26 C9.12 1.47, 9.34 1.69, 9.54 1.93 C9.74 2.17, 9.93 2.43, 10.08 2.7 C10.24 2.97, 10.37 3.26, 10.48 3.55 C10.59 3.85, 10.67 4.16, 10.72 4.46 C10.78 4.77, 10.79 5.25, 10.81 5.4 C10.82 5.56, 10.82 5.25, 10.81 5.4" stroke="#000000" stroke-width="2" fill="none"></path></g><g stroke-linecap="round" transform="translate(1551.8558996611046 313.5156876996243) rotate(0 5.402842559989949 5.4028425599894945)"><path d="M10.81 5.4 C10.81 5.72, 10.78 6.03, 10.72 6.34 C10.67 6.65, 10.59 6.96, 10.48 7.25 C10.37 7.54, 10.24 7.83, 10.08 8.1 C9.93 8.38, 9.74 8.64, 9.54 8.88 C9.34 9.12, 9.12 9.34, 8.88 9.54 C8.64 9.74, 8.38 9.93, 8.1 10.08 C7.83 10.24, 7.54 10.37, 7.25 10.48 C6.96 10.59, 6.65 10.67, 6.34 10.72 C6.03 10.78, 5.72 10.81, 5.4 10.81 C5.09 10.81, 4.77 10.78, 4.46 10.72 C4.16 10.67, 3.85 10.59, 3.55 10.48 C3.26 10.37, 2.97 10.24, 2.7 10.08 C2.43 9.93, 2.17 9.74, 1.93 9.54 C1.69 9.34, 1.47 9.12, 1.26 8.88 C1.06 8.64, 0.88 8.38, 0.72 8.1 C0.57 7.83, 0.43 7.54, 0.33 7.25 C0.22 6.96, 0.14 6.65, 0.08 6.34 C0.03 6.03, 0 5.72, 0 5.4 C0 5.09, 0.03 4.77, 0.08 4.46 C0.14 4.16, 0.22 3.85, 0.33 3.55 C0.43 3.26, 0.57 2.97, 0.72 2.7 C0.88 2.43, 1.06 2.17, 1.26 1.93 C1.47 1.69, 1.69 1.47, 1.93 1.26 C2.17 1.06, 2.43 0.88, 2.7 0.72 C2.97 0.57, 3.26 0.43, 3.55 0.33 C3.85 0.22, 4.16 0.14, 4.46 0.08 C4.77 0.03, 5.09 0, 5.4 0 C5.72 0, 6.03 0.03, 6.34 0.08 C6.65 0.14, 6.96 0.22, 7.25 0.33 C7.54 0.43, 7.83 0.57, 8.1 0.72 C8.38 0.88, 8.64 1.06, 8.88 1.26 C9.12 1.47, 9.34 1.69, 9.54 1.93 C9.74 2.17, 9.93 2.43, 10.08 2.7 C10.24 2.97, 10.37 3.26, 10.48 3.55 C10.59 3.85, 10.67 4.16, 10.72 4.46 C10.78 4.77, 10.79 5.25, 10.81 5.4 C10.82 5.56, 10.82 5.25, 10.81 5.4" stroke="none" stroke-width="0" fill="#ced4da"></path><path d="M10.81 5.4 C10.81 5.72, 10.78 6.03, 10.72 6.34 C10.67 6.65, 10.59 6.96, 10.48 7.25 C10.37 7.54, 10.24 7.83, 10.08 8.1 C9.93 8.38, 9.74 8.64, 9.54 8.88 C9.34 9.12, 9.12 9.34, 8.88 9.54 C8.64 9.74, 8.38 9.93, 8.1 10.08 C7.83 10.24, 7.54 10.37, 7.25 10.48 C6.96 10.59, 6.65 10.67, 6.34 10.72 C6.03 10.78, 5.72 10.81, 5.4 10.81 C5.09 10.81, 4.77 10.78, 4.46 10.72 C4.16 10.67, 3.85 10.59, 3.55 10.48 C3.26 10.37, 2.97 10.24, 2.7 10.08 C2.43 9.93, 2.17 9.74, 1.93 9.54 C1.69 9.34, 1.47 9.12, 1.26 8.88 C1.06 8.64, 0.88 8.38, 0.72 8.1 C0.57 7.83, 0.43 7.54, 0.33 7.25 C0.22 6.96, 0.14 6.65, 0.08 6.34 C0.03 6.03, 0 5.72, 0 5.4 C0 5.09, 0.03 4.77, 0.08 4.46 C0.14 4.16, 0.22 3.85, 0.33 3.55 C0.43 3.26, 0.57 2.97, 0.72 2.7 C0.88 2.43, 1.06 2.17, 1.26 1.93 C1.47 1.69, 1.69 1.47, 1.93 1.26 C2.17 1.06, 2.43 0.88, 2.7 0.72 C2.97 0.57, 3.26 0.43, 3.55 0.33 C3.85 0.22, 4.16 0.14, 4.46 0.08 C4.77 0.03, 5.09 0, 5.4 0 C5.72 0, 6.03 0.03, 6.34 0.08 C6.65 0.14, 6.96 0.22, 7.25 0.33 C7.54 0.43, 7.83 0.57, 8.1 0.72 C8.38 0.88, 8.64 1.06, 8.88 1.26 C9.12 1.47, 9.34 1.69, 9.54 1.93 C9.74 2.17, 9.93 2.43, 10.08 2.7 C10.24 2.97, 10.37 3.26, 10.48 3.55 C10.59 3.85, 10.67 4.16, 10.72 4.46 C10.78 4.77, 10.79 5.25, 10.81 5.4 C10.82 5.56, 10.82 5.25, 10.81 5.4" stroke="#000000" stroke-width="2" fill="none"></path></g><g stroke-linecap="round" transform="translate(1551.8558996611046 383.5156876996243) rotate(0 5.402842559989949 5.4028425599894945)"><path d="M10.81 5.4 C10.81 5.72, 10.78 6.03, 10.72 6.34 C10.67 6.65, 10.59 6.96, 10.48 7.25 C10.37 7.54, 10.24 7.83, 10.08 8.1 C9.93 8.38, 9.74 8.64, 9.54 8.88 C9.34 9.12, 9.12 9.34, 8.88 9.54 C8.64 9.74, 8.38 9.93, 8.1 10.08 C7.83 10.24, 7.54 10.37, 7.25 10.48 C6.96 10.59, 6.65 10.67, 6.34 10.72 C6.03 10.78, 5.72 10.81, 5.4 10.81 C5.09 10.81, 4.77 10.78, 4.46 10.72 C4.16 10.67, 3.85 10.59, 3.55 10.48 C3.26 10.37, 2.97 10.24, 2.7 10.08 C2.43 9.93, 2.17 9.74, 1.93 9.54 C1.69 9.34, 1.47 9.12, 1.26 8.88 C1.06 8.64, 0.88 8.38, 0.72 8.1 C0.57 7.83, 0.43 7.54, 0.33 7.25 C0.22 6.96, 0.14 6.65, 0.08 6.34 C0.03 6.03, 0 5.72, 0 5.4 C0 5.09, 0.03 4.77, 0.08 4.46 C0.14 4.16, 0.22 3.85, 0.33 3.55 C0.43 3.26, 0.57 2.97, 0.72 2.7 C0.88 2.43, 1.06 2.17, 1.26 1.93 C1.47 1.69, 1.69 1.47, 1.93 1.26 C2.17 1.06, 2.43 0.88, 2.7 0.72 C2.97 0.57, 3.26 0.43, 3.55 0.33 C3.85 0.22, 4.16 0.14, 4.46 0.08 C4.77 0.03, 5.09 0, 5.4 0 C5.72 0, 6.03 0.03, 6.34 0.08 C6.65 0.14, 6.96 0.22, 7.25 0.33 C7.54 0.43, 7.83 0.57, 8.1 0.72 C8.38 0.88, 8.64 1.06, 8.88 1.26 C9.12 1.47, 9.34 1.69, 9.54 1.93 C9.74 2.17, 9.93 2.43, 10.08 2.7 C10.24 2.97, 10.37 3.26, 10.48 3.55 C10.59 3.85, 10.67 4.16, 10.72 4.46 C10.78 4.77, 10.79 5.25, 10.81 5.4 C10.82 5.56, 10.82 5.25, 10.81 5.4" stroke="none" stroke-width="0" fill="#ced4da"></path><path d="M10.81 5.4 C10.81 5.72, 10.78 6.03, 10.72 6.34 C10.67 6.65, 10.59 6.96, 10.48 7.25 C10.37 7.54, 10.24 7.83, 10.08 8.1 C9.93 8.38, 9.74 8.64, 9.54 8.88 C9.34 9.12, 9.12 9.34, 8.88 9.54 C8.64 9.74, 8.38 9.93, 8.1 10.08 C7.83 10.24, 7.54 10.37, 7.25 10.48 C6.96 10.59, 6.65 10.67, 6.34 10.72 C6.03 10.78, 5.72 10.81, 5.4 10.81 C5.09 10.81, 4.77 10.78, 4.46 10.72 C4.16 10.67, 3.85 10.59, 3.55 10.48 C3.26 10.37, 2.97 10.24, 2.7 10.08 C2.43 9.93, 2.17 9.74, 1.93 9.54 C1.69 9.34, 1.47 9.12, 1.26 8.88 C1.06 8.64, 0.88 8.38, 0.72 8.1 C0.57 7.83, 0.43 7.54, 0.33 7.25 C0.22 6.96, 0.14 6.65, 0.08 6.34 C0.03 6.03, 0 5.72, 0 5.4 C0 5.09, 0.03 4.77, 0.08 4.46 C0.14 4.16, 0.22 3.85, 0.33 3.55 C0.43 3.26, 0.57 2.97, 0.72 2.7 C0.88 2.43, 1.06 2.17, 1.26 1.93 C1.47 1.69, 1.69 1.47, 1.93 1.26 C2.17 1.06, 2.43 0.88, 2.7 0.72 C2.97 0.57, 3.26 0.43, 3.55 0.33 C3.85 0.22, 4.16 0.14, 4.46 0.08 C4.77 0.03, 5.09 0, 5.4 0 C5.72 0, 6.03 0.03, 6.34 0.08 C6.65 0.14, 6.96 0.22, 7.25 0.33 C7.54 0.43, 7.83 0.57, 8.1 0.72 C8.38 0.88, 8.64 1.06, 8.88 1.26 C9.12 1.47, 9.34 1.69, 9.54 1.93 C9.74 2.17, 9.93 2.43, 10.08 2.7 C10.24 2.97, 10.37 3.26, 10.48 3.55 C10.59 3.85, 10.67 4.16, 10.72 4.46 C10.78 4.77, 10.79 5.25, 10.81 5.4 C10.82 5.56, 10.82 5.25, 10.81 5.4" stroke="#000000" stroke-width="2" fill="none"></path></g><g stroke-linecap="round" transform="translate(1551.8558996611046 448.5156876996248) rotate(0 5.402842559989949 5.4028425599894945)"><path d="M10.81 5.4 C10.81 5.72, 10.78 6.03, 10.72 6.34 C10.67 6.65, 10.59 6.96, 10.48 7.25 C10.37 7.54, 10.24 7.83, 10.08 8.1 C9.93 8.38, 9.74 8.64, 9.54 8.88 C9.34 9.12, 9.12 9.34, 8.88 9.54 C8.64 9.74, 8.38 9.93, 8.1 10.08 C7.83 10.24, 7.54 10.37, 7.25 10.48 C6.96 10.59, 6.65 10.67, 6.34 10.72 C6.03 10.78, 5.72 10.81, 5.4 10.81 C5.09 10.81, 4.77 10.78, 4.46 10.72 C4.16 10.67, 3.85 10.59, 3.55 10.48 C3.26 10.37, 2.97 10.24, 2.7 10.08 C2.43 9.93, 2.17 9.74, 1.93 9.54 C1.69 9.34, 1.47 9.12, 1.26 8.88 C1.06 8.64, 0.88 8.38, 0.72 8.1 C0.57 7.83, 0.43 7.54, 0.33 7.25 C0.22 6.96, 0.14 6.65, 0.08 6.34 C0.03 6.03, 0 5.72, 0 5.4 C0 5.09, 0.03 4.77, 0.08 4.46 C0.14 4.16, 0.22 3.85, 0.33 3.55 C0.43 3.26, 0.57 2.97, 0.72 2.7 C0.88 2.43, 1.06 2.17, 1.26 1.93 C1.47 1.69, 1.69 1.47, 1.93 1.26 C2.17 1.06, 2.43 0.88, 2.7 0.72 C2.97 0.57, 3.26 0.43, 3.55 0.33 C3.85 0.22, 4.16 0.14, 4.46 0.08 C4.77 0.03, 5.09 0, 5.4 0 C5.72 0, 6.03 0.03, 6.34 0.08 C6.65 0.14, 6.96 0.22, 7.25 0.33 C7.54 0.43, 7.83 0.57, 8.1 0.72 C8.38 0.88, 8.64 1.06, 8.88 1.26 C9.12 1.47, 9.34 1.69, 9.54 1.93 C9.74 2.17, 9.93 2.43, 10.08 2.7 C10.24 2.97, 10.37 3.26, 10.48 3.55 C10.59 3.85, 10.67 4.16, 10.72 4.46 C10.78 4.77, 10.79 5.25, 10.81 5.4 C10.82 5.56, 10.82 5.25, 10.81 5.4" stroke="none" stroke-width="0" fill="#ced4da"></path><path d="M10.81 5.4 C10.81 5.72, 10.78 6.03, 10.72 6.34 C10.67 6.65, 10.59 6.96, 10.48 7.25 C10.37 7.54, 10.24 7.83, 10.08 8.1 C9.93 8.38, 9.74 8.64, 9.54 8.88 C9.34 9.12, 9.12 9.34, 8.88 9.54 C8.64 9.74, 8.38 9.93, 8.1 10.08 C7.83 10.24, 7.54 10.37, 7.25 10.48 C6.96 10.59, 6.65 10.67, 6.34 10.72 C6.03 10.78, 5.72 10.81, 5.4 10.81 C5.09 10.81, 4.77 10.78, 4.46 10.72 C4.16 10.67, 3.85 10.59, 3.55 10.48 C3.26 10.37, 2.97 10.24, 2.7 10.08 C2.43 9.93, 2.17 9.74, 1.93 9.54 C1.69 9.34, 1.47 9.12, 1.26 8.88 C1.06 8.64, 0.88 8.38, 0.72 8.1 C0.57 7.83, 0.43 7.54, 0.33 7.25 C0.22 6.96, 0.14 6.65, 0.08 6.34 C0.03 6.03, 0 5.72, 0 5.4 C0 5.09, 0.03 4.77, 0.08 4.46 C0.14 4.16, 0.22 3.85, 0.33 3.55 C0.43 3.26, 0.57 2.97, 0.72 2.7 C0.88 2.43, 1.06 2.17, 1.26 1.93 C1.47 1.69, 1.69 1.47, 1.93 1.26 C2.17 1.06, 2.43 0.88, 2.7 0.72 C2.97 0.57, 3.26 0.43, 3.55 0.33 C3.85 0.22, 4.16 0.14, 4.46 0.08 C4.77 0.03, 5.09 0, 5.4 0 C5.72 0, 6.03 0.03, 6.34 0.08 C6.65 0.14, 6.96 0.22, 7.25 0.33 C7.54 0.43, 7.83 0.57, 8.1 0.72 C8.38 0.88, 8.64 1.06, 8.88 1.26 C9.12 1.47, 9.34 1.69, 9.54 1.93 C9.74 2.17, 9.93 2.43, 10.08 2.7 C10.24 2.97, 10.37 3.26, 10.48 3.55 C10.59 3.85, 10.67 4.16, 10.72 4.46 C10.78 4.77, 10.79 5.25, 10.81 5.4 C10.82 5.56, 10.82 5.25, 10.81 5.4" stroke="#000000" stroke-width="2" fill="none"></path></g><g transform="translate(1524.2034197895027 229.829986907258) rotate(0 54.46666717529297 16.09999999999991)"><text x="0" y="0" font-family="Helvetica, Segoe UI Emoji" font-size="28px" fill="#000000" text-anchor="start" style="white-space: pre;" direction="ltr" dominant-baseline="text-before-edge">Backend</text></g><g stroke-linecap="round" transform="translate(10 353.607595536942) rotate(0 138 37.5)"><path d="M18.75 0 L257.25 0 L265.45 1.17 L271.31 4.69 L273.36 7.32 L275.71 14.36 L276 56.25 L274.83 64.45 L273.36 67.68 L268.68 72.36 L265.45 73.83 L257.25 75 L18.75 75 L10.55 73.83 L4.69 70.31 L2.64 67.68 L0.29 60.64 L0.29 14.36 L2.64 7.32 L4.69 4.69 L10.55 1.17 L18.75 0" stroke="none" stroke-width="0" fill="white"></path><path d="M18.75 0 M18.75 0 C106.21 0, 193.67 0, 257.25 0 M18.75 0 C87.89 0, 157.03 0, 257.25 0 M257.25 0 C269.75 0, 276 6.25, 276 18.75 M257.25 0 C269.75 0, 276 6.25, 276 18.75 M276 18.75 C276 32.19, 276 45.63, 276 56.25 M276 18.75 C276 29.66, 276 40.56, 276 56.25 M276 56.25 C276 68.75, 269.75 75, 257.25 75 M276 56.25 C276 68.75, 269.75 75, 257.25 75 M257.25 75 C166.4 75, 75.56 75, 18.75 75 M257.25 75 C196.51 75, 135.76 75, 18.75 75 M18.75 75 C6.25 75, 0 68.75, 0 56.25 M18.75 75 C6.25 75, 0 68.75, 0 56.25 M0 56.25 C0 47.22, 0 38.19, 0 18.75 M0 56.25 C0 41.46, 0 26.68, 0 18.75 M0 18.75 C0 6.25, 6.25 0, 18.75 0 M0 18.75 C0 6.25, 6.25 0, 18.75 0" stroke="#000000" stroke-width="2" fill="none"></path></g><g transform="translate(42.17500305175781 375.00759553694206) rotate(0 105.82499694824219 16.09999999999991)"><text x="105.82499694824219" y="0" font-family="Helvetica, Segoe UI Emoji" font-size="28px" fill="#000000" text-anchor="middle" style="white-space: pre;" direction="ltr" dominant-baseline="text-before-edge">Study Participant</text></g><g mask="url(#mask-eKywCipKZ-h0qF8CeR1xc)" stroke-linecap="round"><g transform="translate(298.0252244782623 373.64661802682485) rotate(0 255.1395791772038 1.174756112598061)"><path d="M0 0 C85.05 0.39, 425.23 1.96, 510.28 2.35 M0 0 C85.05 0.39, 425.23 1.96, 510.28 2.35" stroke="#000000" stroke-width="2" fill="none"></path></g><g transform="translate(298.0252244782623 373.64661802682485) rotate(0 255.1395791772038 1.174756112598061)"><path d="M510.28 2.35 L496.66 8.63 L496.71 -4.05 L510.28 2.35" stroke="none" stroke-width="0" fill="#000000" fill-rule="evenodd"></path><path d="M510.28 2.35 C506.51 4.09, 502.74 5.82, 496.66 8.63 M510.28 2.35 C506.16 4.25, 502.04 6.14, 496.66 8.63 M496.66 8.63 C496.67 4.85, 496.69 1.08, 496.71 -4.05 M496.66 8.63 C496.67 5.18, 496.69 1.74, 496.71 -4.05 M496.71 -4.05 C502.09 -1.52, 507.46 1.02, 510.28 2.35 M496.71 -4.05 C499.96 -2.52, 503.2 -0.99, 510.28 2.35 M510.28 2.35 C510.28 2.35, 510.28 2.35, 510.28 2.35 M510.28 2.35 C510.28 2.35, 510.28 2.35, 510.28 2.35" stroke="#000000" stroke-width="2" fill="none"></path></g></g><mask id="mask-eKywCipKZ-h0qF8CeR1xc"><rect x="0" y="0" fill="#fff" width="908.30438283267" height="475.996130252021"></rect><rect x="449.69813648017407" y="358.721374139423" fill="#000" width="206.93333435058594" height="32.199999999999996" opacity="1"></rect></mask><g transform="translate(449.69813648017407 358.721374139423) rotate(0 103.46666717529206 16.09999999999991)"><text x="103.46666717529297" y="0" font-family="Helvetica, Segoe UI Emoji" font-size="28px" fill="#000000" text-anchor="middle" style="white-space: pre;" direction="ltr" dominant-baseline="text-before-edge">Completes tasks</text></g><g mask="url(#mask-I7KYrMoxcktDySwPGr3fm)" stroke-linecap="round"><g transform="translate(304.3050335187527 415.7749742864553) rotate(0 250.4893404778186 2.8674755771269247)"><path d="M0 0 C83.5 0.96, 417.48 4.78, 500.98 5.73 M0 0 C83.5 0.96, 417.48 4.78, 500.98 5.73" stroke="#000000" stroke-width="2" fill="none"></path></g><g transform="translate(304.3050335187527 415.7749742864553) rotate(0 250.4893404778186 2.8674755771269247)"><path d="M500.98 5.73 L487.31 11.92 L487.46 -0.76 L500.98 5.73" stroke="none" stroke-width="0" fill="#000000" fill-rule="evenodd"></path><path d="M500.98 5.73 C497.7 7.22, 494.41 8.71, 487.31 11.92 M500.98 5.73 C498.13 7.02, 495.29 8.31, 487.31 11.92 M487.31 11.92 C487.35 8.27, 487.4 4.63, 487.46 -0.76 M487.31 11.92 C487.35 8.63, 487.39 5.34, 487.46 -0.76 M487.46 -0.76 C490.2 0.56, 492.94 1.87, 500.98 5.73 M487.46 -0.76 C490.19 0.55, 492.91 1.86, 500.98 5.73 M500.98 5.73 C500.98 5.73, 500.98 5.73, 500.98 5.73 M500.98 5.73 C500.98 5.73, 500.98 5.73, 500.98 5.73" stroke="#000000" stroke-width="2" fill="none"></path></g></g><mask id="mask-I7KYrMoxcktDySwPGr3fm"><rect x="0" y="0" fill="#fff" width="905.2837144743899" height="521.5099254407091"></rect><rect x="379.0110335424706" y="402.54244986358253" fill="#000" width="351.5666809082031" height="32.199999999999996" opacity="1"></rect></mask><g transform="translate(379.0110335424706 402.54244986358253) rotate(0 175.78334045410065 16.09999999999968)"><text x="175.78334045410156" y="0" font-family="Helvetica, Segoe UI Emoji" font-size="28px" fill="#000000" text-anchor="middle" style="white-space: pre;" direction="ltr" dominant-baseline="text-before-edge">Enters study link / scans QR</text></g><g mask="url(#mask-MJhX13OQqzVvBB4j5LZBp)" stroke-linecap="round"><g transform="translate(1124.2693905321103 342.04444483075395) rotate(0 164.5618541873946 -0.6954850087245177)"><path d="M0 0 C54.85 -0.23, 274.27 -1.16, 329.12 -1.39 M0 0 C54.85 -0.23, 274.27 -1.16, 329.12 -1.39" stroke="#000000" stroke-width="2" fill="none"></path></g><g transform="translate(1124.2693905321103 342.04444483075395) rotate(0 164.5618541873946 -0.6954850087245177)"><path d="M329.12 -1.39 L315.56 5.01 L315.5 -7.67 L329.12 -1.39" stroke="none" stroke-width="0" fill="#000000" fill-rule="evenodd"></path><path d="M329.12 -1.39 C326.22 -0.02, 323.32 1.34, 315.56 5.01 M329.12 -1.39 C325.75 0.2, 322.37 1.79, 315.56 5.01 M315.56 5.01 C315.54 2.18, 315.53 -0.64, 315.5 -7.67 M315.56 5.01 C315.54 2.07, 315.53 -0.87, 315.5 -7.67 M315.5 -7.67 C319.74 -5.72, 323.99 -3.76, 329.12 -1.39 M315.5 -7.67 C319.93 -5.63, 324.36 -3.59, 329.12 -1.39 M329.12 -1.39 C329.12 -1.39, 329.12 -1.39, 329.12 -1.39 M329.12 -1.39 C329.12 -1.39, 329.12 -1.39, 329.12 -1.39" stroke="#000000" stroke-width="2" fill="none"></path></g></g><mask id="mask-MJhX13OQqzVvBB4j5LZBp"><rect x="0" y="0" fill="#fff" width="1553.3930989068995" height="443.435414848203"></rect><rect x="1218.797911894797" y="325.2489598220295" fill="#000" width="140.06666564941406" height="32.199999999999996" opacity="1"></rect></mask><g transform="translate(1218.797911894797 325.2489598220295) rotate(0 70.03333282470794 16.09999999999991)"><text x="70.03333282470703" y="0" font-family="Helvetica, Segoe UI Emoji" font-size="28px" fill="#000000" text-anchor="middle" style="white-space: pre;" direction="ltr" dominant-baseline="text-before-edge">Responses</text></g><g mask="url(#mask-PZiIA32liKFPz32uj7Ly9)" stroke-linecap="round"><g transform="translate(1444.9691337858912 476.412966152855) rotate(0 -159.35561337255513 -1.544832701440555)"><path d="M0 0 C-53.12 -0.51, -265.59 -2.57, -318.71 -3.09 M0 0 C-53.12 -0.51, -265.59 -2.57, -318.71 -3.09" stroke="#000000" stroke-width="2" fill="none"></path></g><g transform="translate(1444.9691337858912 476.412966152855) rotate(0 -159.35561337255513 -1.544832701440555)"><path d="M-318.71 -3.09 L-305.06 -9.3 L-305.18 3.38 L-318.71 -3.09" stroke="none" stroke-width="0" fill="#000000" fill-rule="evenodd"></path><path d="M-318.71 -3.09 C-314.3 -5.1, -309.88 -7.1, -305.06 -9.3 M-318.71 -3.09 C-313.32 -5.54, -307.94 -7.99, -305.06 -9.3 M-305.06 -9.3 C-305.08 -6.45, -305.11 -3.6, -305.18 3.38 M-305.06 -9.3 C-305.1 -4.58, -305.15 0.13, -305.18 3.38 M-305.18 3.38 C-309.8 1.17, -314.43 -1.04, -318.71 -3.09 M-305.18 3.38 C-308.79 1.65, -312.4 -0.07, -318.71 -3.09 M-318.71 -3.09 C-318.71 -3.09, -318.71 -3.09, -318.71 -3.09 M-318.71 -3.09 C-318.71 -3.09, -318.71 -3.09, -318.71 -3.09" stroke="#000000" stroke-width="2" fill="none"></path></g></g><mask id="mask-PZiIA32liKFPz32uj7Ly9"><rect x="0" y="0" fill="#fff" width="1863.6803605310015" height="579.5026315557361"></rect><rect x="1249.83018758863" y="458.76813345141454" fill="#000" width="71.56666564941406" height="32.199999999999996" opacity="1"></rect></mask><g transform="translate(1249.83018758863 458.76813345141454) rotate(0 35.78333282470612 16.09999999999991)"><text x="35.78333282470703" y="0" font-family="Helvetica, Segoe UI Emoji" font-size="28px" fill="#000000" text-anchor="middle" style="white-space: pre;" direction="ltr" dominant-baseline="text-before-edge">Study</text></g><g stroke-linecap="round" transform="translate(777.1459921465339 10) rotate(0 193.6350564335562 335.6340978181652)"><path d="M0 0 C109.99 0, 219.97 0, 387.27 0 M387.27 0 C387.27 258.04, 387.27 516.07, 387.27 671.27 M387.27 671.27 C232.63 671.27, 77.98 671.27, 0 671.27 M0 671.27 C0 407.62, 0 143.97, 0 0" stroke="#c92a2a" stroke-width="2.5" fill="none" stroke-dasharray="8 10"></path></g><g transform="translate(1188.0826119110825 74.54501881118586) rotate(0 78.96666717529297 11.5)"><text x="0" y="0" font-family="Helvetica, Segoe UI Emoji" font-size="20px" fill="#c92a2a" text-anchor="start" style="white-space: pre;" direction="ltr" dominant-baseline="text-before-edge">System Boundary</text></g></svg>